<?xml version="1.0" encoding="UTF-8" standalone="no"?>
<!-- Created with Inkscape (http://www.inkscape.org/) -->

<svg
   version="1.1"
   id="svg1"
   width="303.50024"
   height="245.96484"
   viewBox="0 0 303.50024 245.96484"
   xmlns="http://www.w3.org/2000/svg"
   xmlns:svg="http://www.w3.org/2000/svg">
  <defs
     id="defs1" />
  <g
     id="g1"
     transform="translate(0.3034533,-4.1445314)">
    <path
       id="path1"
       d="M 0,136.09053 -113.38724,0 h 56.69362 L 0,68.04524 56.69362,0 h 56.69362 z"
       style="fill:#f9f9f9;fill-opacity:1;fill-rule:nonzero;stroke:#000000;stroke-width:0.3985;stroke-linecap:butt;stroke-linejoin:miter;stroke-miterlimit:10;stroke-dasharray:none;stroke-opacity:1"
       transform="matrix(1.3333333,0,0,-1.3333333,151.44667,190.41733)" />
    <path
       id="path2"
       d="M 0,68.04524 -56.69362,0 H -28.3468 L 0,34.02261 28.3468,0 h 28.34682 z"
       style="fill:#e6e6e6;fill-opacity:1;fill-rule:nonzero;stroke:#000000;stroke-width:0.3985;stroke-linecap:butt;stroke-linejoin:miter;stroke-miterlimit:10;stroke-dasharray:none;stroke-opacity:1"
       transform="matrix(1.3333333,0,0,-1.3333333,151.44667,190.41733)" />
    <g
       id="g2"
       aria-label="T&#10;1"
       transform="matrix(1.3333333,0,0,1.3333333,125.688,148.60533)">
      <path
         id="path3"
         d="m 4.2535313,-6.0467734 c 0.070312,-0.28125 0.1054687,-0.3398438 0.234375,-0.3632813 0.082031,-0.023437 0.4101562,-0.023437 0.6210937,-0.023437 1.0078125,0 1.453125,0.035156 1.453125,0.8203125 0,0.140625 -0.035156,0.5273438 -0.082031,0.796875 0,0.035156 -0.023437,0.1523438 -0.023437,0.1875 0,0.058594 0.023437,0.1289063 0.1171875,0.1289063 0.1054687,0 0.1289062,-0.082031 0.1523437,-0.234375 l 0.2695313,-1.734375 c 0.011719,-0.035156 0.011719,-0.140625 0.011719,-0.1640625 0,-0.1054688 -0.09375,-0.1054688 -0.2695312,-0.1054688 H 1.218375 c -0.24609375,0 -0.2578125,0 -0.31640625,0.1992188 L 0.3043125,-4.7928672 C 0.29259375,-4.7694297 0.234,-4.6288047 0.234,-4.6170859 c 0,0.070312 0.0585937,0.1171875 0.12890625,0.1171875 0.09375,0 0.10546875,-0.046875 0.1640625,-0.2109375 C 1.0660313,-6.2577109 1.3238438,-6.4334922 2.8004063,-6.4334922 H 3.187125 c 0.28125,0 0.28125,0.035156 0.28125,0.1171875 0,0.058594 -0.035156,0.1757813 -0.046875,0.2109375 l -1.3242187,5.32031251 c -0.09375,0.36328125 -0.1289063,0.48046875 -1.19531255,0.48046875 -0.3515625,0 -0.41015625,0 -0.41015625,0.1875 0,0.1171875025 0.10546875,0.1171875025 0.1640625,0.1171875025 0.26953125,0 0.5507813,-0.0234375025 0.8203125,-0.0234375025 0.28125,0 0.5625,-0.01171875 0.84375,-0.01171875 0.28125,0 0.5625,0.01171875 0.8320313,0.01171875 0.28125,0 0.5859375,0.0234375025 0.8671875,0.0234375025 0.09375,0 0.2109375,0 0.2109375,-0.1992187525 0,-0.10546875 -0.082031,-0.10546875 -0.3398438,-0.10546875 -0.2460937,0 -0.375,0 -0.6328125,-0.0234375 -0.2929687,-0.0351563 -0.3632812,-0.0585938 -0.3632812,-0.22265625 0,-0.0117188 0,-0.0585938 0.035156,-0.2109375 z m 0,0"
         style="fill:#000000;fill-opacity:1;fill-rule:nonzero;stroke:none" />
      <path
         id="path4"
         d="m 8.1529453,-2.9354453 c 0,-0.1875 -0.011719,-0.1992188 -0.2109375,-0.1992188 -0.4453125,0.4335938 -1.078125,0.4453125 -1.359375,0.4453125 v 0.2460938 c 0.1640625,0 0.6210938,0 1.0078125,-0.1875 v 3.55078124 c 0,0.23437496 0,0.32812496 -0.6914062,0.32812496 H 6.6295078 v 0.2460938 c 0.1289063,-0.011719 0.984375,-0.023437 1.2421875,-0.023437 0.2109375,0 1.0898438,0.011719 1.2421875,0.023437 V 1.2481484 H 8.8560703 c -0.703125,0 -0.703125,-0.09375 -0.703125,-0.32812496 z m 0,0"
         style="fill:#000000;fill-opacity:1;fill-rule:nonzero;stroke:none" />
    </g>
    <path
       id="path5"
       d="M 0,34.02261 -56.69362,-34.01608 H -28.3468 L 0,0 28.3468,-34.01608 h 28.34682 z"
       style="fill:#e6e6e6;fill-opacity:1;fill-rule:nonzero;stroke:#000000;stroke-width:0.3985;stroke-linecap:butt;stroke-linejoin:miter;stroke-miterlimit:10;stroke-dasharray:none;stroke-opacity:1"
       transform="matrix(1.3333333,0,0,-1.3333333,151.44667,190.41733)" />
    <g
       id="g5"
       aria-label="T&#10;1"
       transform="matrix(1.3333333,0,0,1.3333333,125.688,193.96)">
      <path
         id="path6"
         d="m 4.2535313,-6.0461719 c 0.070312,-0.28125 0.1054687,-0.3398437 0.234375,-0.3632812 0.082031,-0.023437 0.4101562,-0.023437 0.6210937,-0.023437 1.0078125,0 1.453125,0.035156 1.453125,0.8203125 0,0.140625 -0.035156,0.5273437 -0.082031,0.796875 0,0.035156 -0.023437,0.1523437 -0.023437,0.1875 0,0.058594 0.023437,0.1289062 0.1171875,0.1289062 0.1054687,0 0.1289062,-0.082031 0.1523437,-0.234375 l 0.2695313,-1.734375 c 0.011719,-0.035156 0.011719,-0.140625 0.011719,-0.1640625 0,-0.1054687 -0.09375,-0.1054687 -0.2695312,-0.1054687 H 1.218375 c -0.24609375,0 -0.2578125,0 -0.31640625,0.1992187 L 0.3043125,-4.7922656 C 0.29259375,-4.7688281 0.234,-4.6282031 0.234,-4.6164844 c 0,0.070312 0.0585937,0.1171875 0.12890625,0.1171875 0.09375,0 0.10546875,-0.046875 0.1640625,-0.2109375 C 1.0660313,-6.2571094 1.3238438,-6.4328906 2.8004063,-6.4328906 H 3.187125 c 0.28125,0 0.28125,0.035156 0.28125,0.1171875 0,0.058594 -0.035156,0.1757812 -0.046875,0.2109375 l -1.3242187,5.32031248 c -0.09375,0.36328125 -0.1289063,0.48046875 -1.19531255,0.48046875 -0.3515625,0 -0.41015625,0 -0.41015625,0.1875 0,0.117187495 0.10546875,0.117187495 0.1640625,0.117187495 0.26953125,0 0.5507813,-0.023437495 0.8203125,-0.023437495 0.28125,0 0.5625,-0.01171875 0.84375,-0.01171875 0.28125,0 0.5625,0.01171875 0.8320313,0.01171875 0.28125,0 0.5859375,0.023437495 0.8671875,0.023437495 0.09375,0 0.2109375,0 0.2109375,-0.199218745 0,-0.10546875 -0.082031,-0.10546875 -0.3398438,-0.10546875 -0.2460937,0 -0.375,0 -0.6328125,-0.0234375 -0.2929687,-0.0351563 -0.3632812,-0.0585938 -0.3632812,-0.22265625 0,-0.0117188 0,-0.0585938 0.035156,-0.2109375 z m 0,0"
         style="fill:#000000;fill-opacity:1;fill-rule:nonzero;stroke:none" />
      <path
         id="path7"
         d="m 8.1529453,-2.9348437 c 0,-0.1875 -0.011719,-0.1992188 -0.2109375,-0.1992188 -0.4453125,0.4335938 -1.078125,0.4453125 -1.359375,0.4453125 v 0.2460938 c 0.1640625,0 0.6210938,0 1.0078125,-0.1875 V 0.920625 c 0,0.234375 0,0.328125 -0.6914062,0.328125 H 6.6295078 v 0.2460938 c 0.1289063,-0.011719 0.984375,-0.023437 1.2421875,-0.023437 0.2109375,0 1.0898438,0.011719 1.2421875,0.023437 V 1.24875 H 8.8560703 c -0.703125,0 -0.703125,-0.09375 -0.703125,-0.328125 z m 0,0"
         style="fill:#000000;fill-opacity:1;fill-rule:nonzero;stroke:none" />
    </g>
    <path
       id="path8"
       d="M 0,0 -28.3468,-34.01608 H 28.3468 Z"
       style="fill:#cccccc;fill-opacity:1;fill-rule:nonzero;stroke:#000000;stroke-width:0.3985;stroke-linecap:butt;stroke-linejoin:miter;stroke-miterlimit:10;stroke-dasharray:none;stroke-opacity:1"
       transform="matrix(1.3333333,0,0,-1.3333333,151.44667,190.41733)" />
    <g
       id="g8"
       aria-label="T&#10;2"
       transform="matrix(1.3333333,0,0,1.3333333,144.58533,221.172)">
      <path
         id="path9"
         d="m 4.2543594,-6.0469688 c 0.070312,-0.28125 0.1054687,-0.3398437 0.234375,-0.3632812 0.082031,-0.023437 0.4101562,-0.023437 0.6210937,-0.023437 1.0078125,0 1.453125,0.035156 1.453125,0.8203125 0,0.140625 -0.035156,0.5273437 -0.082031,0.796875 0,0.035156 -0.023437,0.1523437 -0.023437,0.1875 0,0.058594 0.023437,0.1289062 0.1171875,0.1289062 0.1054687,0 0.1289062,-0.082031 0.1523437,-0.234375 l 0.2695313,-1.734375 c 0.011719,-0.035156 0.011719,-0.140625 0.011719,-0.1640625 0,-0.1054687 -0.09375,-0.1054687 -0.2695312,-0.1054687 H 1.2192031 c -0.24609372,0 -0.25781247,0 -0.31640622,0.1992187 L 0.30514063,-4.793062 c -0.0117188,0.023437 -0.0703125,0.1640625 -0.0703125,0.1757812 0,0.070312 0.0585938,0.1171875 0.12890625,0.1171875 0.09375,0 0.10546875,-0.046875 0.1640625,-0.2109375 C 1.0668594,-6.2579058 1.3246719,-6.433687 2.8012344,-6.433687 h 0.3867187 c 0.28125,0 0.28125,0.035156 0.28125,0.1171875 0,0.058594 -0.035156,0.1757812 -0.046875,0.2109375 L 2.0981094,-0.78525 c -0.09375,0.36328125 -0.1289063,0.48046875 -1.19531252,0.48046875 -0.3515625,0 -0.41015625,0 -0.41015625,0.1875 0,0.1171875 0.10546875,0.1171875 0.1640625,0.1171875 0.26953125,0 0.55078127,-0.0234375 0.82031247,-0.0234375 0.28125,0 0.5625,-0.01171875 0.84375,-0.01171875 0.28125,0 0.5625,0.01171875 0.8320313,0.01171875 0.28125,0 0.5859375,0.0234375 0.8671875,0.0234375 0.09375,0 0.2109375,0 0.2109375,-0.19921875 0,-0.10546875 -0.082031,-0.10546875 -0.3398438,-0.10546875 -0.2460937,0 -0.375,0 -0.6328125,-0.0234375 C 2.9652969,-0.363375 2.8949844,-0.3868125 2.8949844,-0.550875 c 0,-0.0117188 0,-0.0585938 0.035156,-0.2109375 z m 0,0"
         style="fill:#000000;fill-opacity:1;fill-rule:nonzero;stroke:none" />
      <path
         id="path10"
         d="m 9.3373672,0.22842187 h -0.234375 c -0.023437,0.15234375 -0.082031,0.5625 -0.1757813,0.6328125 -0.058594,0.0351563 -0.5976562,0.0351563 -0.6914062,0.0351563 H 6.9467422 c 0.7382812,-0.64453125 0.984375,-0.84375 1.3945312,-1.171875 0.515625,-0.41015625 0.9960938,-0.84374997 0.9960938,-1.50000007 0,-0.84375 -0.7382813,-1.359375 -1.6289063,-1.359375 -0.8671875,0 -1.453125,0.609375 -1.453125,1.2421875 0,0.3632813 0.3046875,0.3984375 0.375,0.3984375 0.1640625,0 0.375,-0.1171875 0.375,-0.375 0,-0.1289062 -0.058594,-0.3632812 -0.421875,-0.3632812 0.2226563,-0.5039063 0.6914063,-0.65625 1.0195313,-0.65625 0.703125,0 1.0664062,0.5507812 1.0664062,1.1132813 0,0.609375 -0.4335937,1.08984372 -0.65625,1.33593747 l -1.6875,1.66406243 c -0.070312,0.058594 -0.070312,0.070312 -0.070312,0.2695313 h 2.8828125 z m 0,0"
         style="fill:#000000;fill-opacity:1;fill-rule:nonzero;stroke:none" />
    </g>
    <path
       id="path11"
       d="M 0,136.09053 C 5.66927,119.05627 -22.67752,102.04825 0,68.04524"
       style="fill:none;stroke:#000000;stroke-width:0.79701;stroke-linecap:butt;stroke-linejoin:miter;stroke-miterlimit:10;stroke-dasharray:0.79701, 1.99255;stroke-dashoffset:0;stroke-opacity:1"
       transform="matrix(1.3333333,0,0,-1.3333333,151.44667,190.41733)" />
    <path
       id="path12"
       d="M 0,68.04524 C -5.66927,68.03217 8.50412,51.02411 0,34.02261"
       style="fill:none;stroke:#000000;stroke-width:0.79701;stroke-linecap:butt;stroke-linejoin:miter;stroke-miterlimit:10;stroke-dasharray:0.79701, 1.99255;stroke-dashoffset:0;stroke-opacity:1"
       transform="matrix(1.3333333,0,0,-1.3333333,151.44667,190.41733)" />
    <path
       id="path13"
       d="M 0,34.02261 C -5.66927,34.01608 8.50412,17.00801 0,0"
       style="fill:none;stroke:#000000;stroke-width:0.79701;stroke-linecap:butt;stroke-linejoin:miter;stroke-miterlimit:10;stroke-dasharray:0.79701, 1.99255;stroke-dashoffset:0;stroke-opacity:1"
       transform="matrix(1.3333333,0,0,-1.3333333,151.44667,190.41733)" />
    <path
       id="path14"
       d="m 1.49442,136.09053 c 0,0.99042 -0.66909,1.79329 -1.49442,1.79329 -0.82533,0 -1.49442,-0.80287 -1.49442,-1.79329 0,-0.9904 0.66909,-1.79327 1.49442,-1.79327 0.82533,0 1.49442,0.80287 1.49442,1.79327 z"
       style="fill:#000000;fill-opacity:1;fill-rule:nonzero;stroke:none"
       transform="matrix(1.3333333,0,0,-1.3333333,151.44667,190.41733)" />
    <path
       id="path15"
       d="m 6.4225313,-6.9258516 c 0,-0.023437 -0.011719,-0.09375 -0.1054688,-0.09375 -0.046875,0 -0.058594,0.011719 -0.1757812,0.140625 L 5.6608125,-6.3047578 C 5.403,-6.7735078 4.887375,-7.0196016 4.231125,-7.0196016 c -1.265625,0 -2.4609375,1.1367188 -2.4609375,2.34375 0,0.8085938 0.5273438,1.265625 1.0429688,1.4179688 l 1.0664062,0.28125 c 0.3632813,0.082031 0.9140625,0.234375 0.9140625,1.0546875 0,0.890625 -0.8203125,1.82812499 -1.7929687,1.82812499 -0.6445313,0 -1.7460938,-0.2109375 -1.7460938,-1.45312499 0,-0.234375 0.046875,-0.4804688 0.058594,-0.5390625 0.011719,-0.035156 0.023437,-0.046875 0.023437,-0.070312 0,-0.09375 -0.070312,-0.1054688 -0.1171875,-0.1054688 -0.058594,0 -0.070312,0.011719 -0.1054688,0.035156 -0.035156,0.046875 -0.59765625,2.32031249 -0.59765625,2.34374999 0,0.0585938 0.046875,0.10546875 0.1171875,0.10546875 0.046875,0 0.0585938,-0.0117188 0.17578125,-0.15234375 l 0.4921875,-0.57421875 c 0.421875,0.5859375 1.1015625,0.7265625 1.6757813,0.7265625 1.359375,0 2.53125,-1.32421874 2.53125,-2.56640624 0,-0.6796875 -0.3398438,-1.0195313 -0.4921875,-1.1601563 -0.2226563,-0.234375 -0.375,-0.2695312 -1.265625,-0.5039062 -0.2109375,-0.058594 -0.5742188,-0.1523438 -0.65625,-0.1757813 -0.2695313,-0.09375 -0.609375,-0.375 -0.609375,-0.9023437 0,-0.8085938 0.796875,-1.6523438 1.734375,-1.6523438 0.8320312,0 1.4414062,0.421875 1.4414062,1.5351563 0,0.3164062 -0.046875,0.5039062 -0.046875,0.5625 0,0.011719 0,0.09375 0.1289063,0.09375 0.09375,0 0.1054687,-0.023437 0.140625,-0.1992188 z m 0,0"
       style="fill:#000000;fill-opacity:1;fill-rule:nonzero;stroke:none"
       aria-label="S"
       transform="matrix(1.3333333,0,0,1.3333333,158.796,13.504)" />
    <path
       id="path16"
       d="m 1.49442,68.04524 c 0,0.99042 -0.66909,1.79329 -1.49442,1.79329 -0.82533,0 -1.49442,-0.80287 -1.49442,-1.79329 0,-0.9904 0.66909,-1.79327 1.49442,-1.79327 0.82533,0 1.49442,0.80287 1.49442,1.79327 z"
       style="fill:#000000;fill-opacity:1;fill-rule:nonzero;stroke:none"
       transform="matrix(1.3333333,0,0,-1.3333333,151.44667,190.41733)" />
    <path
       id="path17"
       d="m 1.7819063,-1.1485859 c -0.3984375,0.66796871 -0.7851563,0.80859371 -1.21875005,0.84374996 -0.12890625,0 -0.2109375,0 -0.2109375,0.19921875 0,0.05859375 0.046875,0.1054687525 0.12890625,0.1054687525 0.26953125,0 0.5742188,-0.0351562525 0.8554688,-0.0351562525 0.328125,0 0.6796875,0.0351562525 0.9960937,0.0351562525 0.058594,0 0.1875,0 0.1875,-0.1875000025 0,-0.1171875 -0.09375,-0.1171875 -0.1640625,-0.1171875 -0.2226562,-0.0234375 -0.4570312,-0.10546875 -0.4570312,-0.3515625 0,-0.1171875 0.058594,-0.234375 0.1289062,-0.37499996 l 0.7617188,-1.265625 h 2.4960937 c 0.023437,0.1992187 0.1640625,1.55859371 0.1640625,1.66406246 0,0.29296875 -0.515625,0.328125 -0.7148437,0.328125 -0.140625,0 -0.2460938,0 -0.2460938,0.19921875 0,0.1054687525 0.1289063,0.1054687525 0.140625,0.1054687525 0.4101563,0 0.84375,-0.0351562525 1.2539063,-0.0351562525 0.2460937,0 0.8671875,0.0351562525 1.125,0.0351562525 0.058594,0 0.1757812,0 0.1757812,-0.1992187525 0,-0.10546875 -0.1054687,-0.10546875 -0.234375,-0.10546875 -0.609375,0 -0.609375,-0.0703125 -0.6445312,-0.36328125 L 5.6959688,-6.8907734 c -0.011719,-0.1992188 -0.011719,-0.2460938 -0.1875,-0.2460938 -0.1640625,0 -0.1992188,0.070312 -0.2578125,0.1757813 z m 1.1953125,-1.4648438 1.96875,-3.28125 0.3164062,3.28125 z m 0,0"
       style="fill:#000000;fill-opacity:1;fill-rule:nonzero;stroke:none"
       aria-label="A"
       transform="matrix(1.3333333,0,0,1.3333333,158.796,104.23067)" />
    <path
       id="path18"
       d="m 1.49442,34.02261 c 0,0.99041 -0.66909,1.79329 -1.49442,1.79329 -0.82533,0 -1.49442,-0.80288 -1.49442,-1.79329 0,-0.9904 0.66909,-1.79329 1.49442,-1.79329 0.82533,0 1.49442,0.80289 1.49442,1.79329 z"
       style="fill:#000000;fill-opacity:1;fill-rule:nonzero;stroke:none"
       transform="matrix(1.3333333,0,0,-1.3333333,151.44667,190.41733)" />
    <path
       id="path19"
       d="m 1.7819063,-1.148125 c -0.3984375,0.66796875 -0.7851563,0.80859375 -1.21875005,0.84375 -0.12890625,0 -0.2109375,0 -0.2109375,0.19921875 0,0.05859375 0.046875,0.10546875 0.12890625,0.10546875 0.26953125,0 0.5742188,-0.03515625 0.8554688,-0.03515625 0.328125,0 0.6796875,0.03515625 0.9960937,0.03515625 0.058594,0 0.1875,0 0.1875,-0.1875 0,-0.1171875 -0.09375,-0.1171875 -0.1640625,-0.1171875 -0.2226562,-0.0234375 -0.4570312,-0.10546875 -0.4570312,-0.3515625 0,-0.1171875 0.058594,-0.234375 0.1289062,-0.375 l 0.7617188,-1.265625 H 5.2858125 C 5.30925,-2.0973438 5.449875,-0.73796875 5.449875,-0.6325 c 0,0.29296875 -0.515625,0.328125 -0.7148437,0.328125 -0.140625,0 -0.2460938,0 -0.2460938,0.19921875 0,0.10546875 0.1289063,0.10546875 0.140625,0.10546875 0.4101563,0 0.84375,-0.03515625 1.2539063,-0.03515625 0.2460937,0 0.8671875,0.03515625 1.125,0.03515625 0.058594,0 0.1757812,0 0.1757812,-0.19921875 0,-0.10546875 -0.1054687,-0.10546875 -0.234375,-0.10546875 -0.609375,0 -0.609375,-0.0703125 -0.6445312,-0.36328125 L 5.6959688,-6.8903125 c -0.011719,-0.1992188 -0.011719,-0.2460938 -0.1875,-0.2460938 -0.1640625,0 -0.1992188,0.070312 -0.2578125,0.1757813 z m 1.1953125,-1.4648438 1.96875,-3.28125 0.3164062,3.28125 z m 0,0"
       style="fill:#000000;fill-opacity:1;fill-rule:nonzero;stroke:none"
       aria-label="A"
       transform="matrix(1.3333333,0,0,1.3333333,158.796,149.59333)" />
    <path
       id="path20"
       d="M 1.49442,0 C 1.49442,0.9904 0.82533,1.79327 0,1.79327 -0.82533,1.79327 -1.49442,0.9904 -1.49442,0 c 0,-0.9904 0.66909,-1.79327 1.49442,-1.79327 0.82533,0 1.49442,0.80287 1.49442,1.79327 z"
       style="fill:#000000;fill-opacity:1;fill-rule:nonzero;stroke:none"
       transform="matrix(1.3333333,0,0,-1.3333333,151.44667,190.41733)" />
    <path
       id="path21"
       d="m 1.7819063,-1.1476641 c -0.3984375,0.66796879 -0.7851563,0.80859379 -1.21875005,0.84375004 -0.12890625,0 -0.2109375,0 -0.2109375,0.19921875 0,0.05859375 0.046875,0.1054687475 0.12890625,0.1054687475 0.26953125,0 0.5742188,-0.0351562475 0.8554688,-0.0351562475 0.328125,0 0.6796875,0.0351562475 0.9960937,0.0351562475 0.058594,0 0.1875,0 0.1875,-0.1874999975 0,-0.1171875 -0.09375,-0.1171875 -0.1640625,-0.1171875 -0.2226562,-0.0234375 -0.4570312,-0.10546875 -0.4570312,-0.3515625 0,-0.1171875 0.058594,-0.234375 0.1289062,-0.37500004 l 0.7617188,-1.265625 h 2.4960937 c 0.023437,0.1992188 0.1640625,1.55859379 0.1640625,1.66406254 0,0.29296875 -0.515625,0.328125 -0.7148437,0.328125 -0.140625,0 -0.2460938,0 -0.2460938,0.19921875 0,0.1054687475 0.1289063,0.1054687475 0.140625,0.1054687475 0.4101563,0 0.84375,-0.0351562475 1.2539063,-0.0351562475 0.2460937,0 0.8671875,0.0351562475 1.125,0.0351562475 0.058594,0 0.1757812,0 0.1757812,-0.1992187475 0,-0.10546875 -0.1054687,-0.10546875 -0.234375,-0.10546875 -0.609375,0 -0.609375,-0.0703125 -0.6445312,-0.36328125 L 5.6959688,-6.8898516 c -0.011719,-0.1992187 -0.011719,-0.2460937 -0.1875,-0.2460937 -0.1640625,0 -0.1992188,0.070312 -0.2578125,0.1757812 z m 1.1953125,-1.4648437 1.96875,-3.28125 0.3164062,3.28125 z m 0,0"
       style="fill:#000000;fill-opacity:1;fill-rule:nonzero;stroke:none"
       aria-label="A"
       transform="matrix(1.3333333,0,0,1.3333333,158.796,194.956)" />
    <g
       id="g21"
       aria-label="T&#10;0"
       transform="matrix(1.3333333,0,0,1.3333333,163.484,57.897333)">
      <path
         id="path22"
         d="m 4.2541875,-6.0460469 c 0.070312,-0.28125 0.1054688,-0.3398437 0.234375,-0.3632812 0.082031,-0.023437 0.4101563,-0.023437 0.6210938,-0.023437 1.0078125,0 1.453125,0.035156 1.453125,0.8203125 0,0.140625 -0.035156,0.5273437 -0.082031,0.796875 0,0.035156 -0.023437,0.1523437 -0.023437,0.1875 0,0.058594 0.023437,0.1289062 0.1171875,0.1289062 0.1054688,0 0.1289063,-0.082031 0.1523438,-0.234375 l 0.2695312,-1.734375 c 0.011719,-0.035156 0.011719,-0.140625 0.011719,-0.1640625 0,-0.1054687 -0.09375,-0.1054687 -0.2695313,-0.1054687 H 1.2190313 c -0.2460938,0 -0.25781255,0 -0.3164063,0.1992187 l -0.59765625,1.7460938 c -0.0117188,0.023437 -0.0703125,0.1640625 -0.0703125,0.1757812 0,0.070312 0.0585938,0.1171875 0.12890625,0.1171875 0.09375,0 0.10546875,-0.046875 0.1640625,-0.2109375 0.5390625,-1.546875 0.796875,-1.7226562 2.2734375,-1.7226562 h 0.3867188 c 0.28125,0 0.28125,0.035156 0.28125,0.1171875 0,0.058594 -0.035156,0.1757812 -0.046875,0.2109375 l -1.3242188,5.32031247 c -0.09375,0.36328125 -0.1289062,0.48046875 -1.1953125,0.48046875 -0.3515625,0 -0.41015625,0 -0.41015625,0.1875 0,0.117187505 0.10546875,0.117187505 0.1640625,0.117187505 0.26953125,0 0.55078125,-0.023437505 0.82031255,-0.023437505 0.28125,0 0.5625,-0.01171875 0.84375,-0.01171875 0.28125,0 0.5625,0.01171875 0.8320312,0.01171875 0.28125,0 0.5859375,0.023437505 0.8671875,0.023437505 0.09375,0 0.2109375,0 0.2109375,-0.199218755 0,-0.10546875 -0.082031,-0.10546875 -0.3398437,-0.10546875 -0.2460938,0 -0.375,0 -0.6328125,-0.0234375 -0.2929688,-0.0351563 -0.3632813,-0.0585938 -0.3632813,-0.22265625 0,-0.0117188 0,-0.0585938 0.035156,-0.2109375 z m 0,0"
         style="fill:#000000;fill-opacity:1;fill-rule:nonzero;stroke:none" />
      <path
         id="path23"
         d="m 9.4192266,-0.73159375 c 0,-0.76171875 -0.09375,-1.31250005 -0.4101563,-1.80468755 -0.2226562,-0.3164062 -0.6445312,-0.5976562 -1.2070312,-0.5976562 -1.6171875,0 -1.6171875,1.8984375 -1.6171875,2.40234375 0,0.50390625 0,2.36718745 1.6171875,2.36718745 1.6171875,0 1.6171875,-1.8632812 1.6171875,-2.36718745 z M 7.8020391,1.436375 c -0.3164063,0 -0.75,-0.1875 -0.890625,-0.76171875 -0.09375,-0.41015625 -0.09375,-0.984375 -0.09375,-1.5 0,-0.50390625 0,-1.03125005 0.1054687,-1.41796875 0.1523438,-0.5507813 0.5976563,-0.6914063 0.8789063,-0.6914063 0.375,0 0.7382812,0.2226563 0.8671875,0.6328125 0.1054687,0.375 0.1171875,0.8789063 0.1171875,1.47656255 0,0.515625 0,1.04296875 -0.09375,1.4765625 C 8.5520391,1.2840312 8.0832891,1.436375 7.8020391,1.436375 Z m 0,0"
         style="fill:#000000;fill-opacity:1;fill-rule:nonzero;stroke:none" />
    </g>
    <path
       id="path24"
       d="m 3.4936484,-0.56160938 c 0.1054688,0.41015625 0.4570313,0.66796875 0.8789063,0.66796875 0.3515625,0 0.5742187,-0.22265625 0.7382812,-0.5390625 0.1757813,-0.36328125 0.3046875,-0.97265627 0.3046875,-0.99609377 0,-0.09375 -0.09375,-0.09375 -0.1289062,-0.09375 -0.09375,0 -0.1054688,0.035156 -0.140625,0.1757813 -0.1289063,0.56249997 -0.328125,1.24218747 -0.7382813,1.24218747 -0.2109375,0 -0.3164062,-0.12890625 -0.3164062,-0.45703125 0,-0.22265625 0.1289062,-0.69140622 0.1992187,-1.04296872 l 0.28125,-1.078125 c 0.035156,-0.140625 0.1289063,-0.5273438 0.1757813,-0.6679688 0.046875,-0.234375 0.140625,-0.609375 0.140625,-0.6679687 0,-0.1875 -0.140625,-0.2695313 -0.28125,-0.2695313 -0.058594,0 -0.3164063,0 -0.3867188,0.3398438 -0.1992187,0.7265625 -0.6328125,2.4726562 -0.75,2.99999997 -0.011719,0.046875 -0.4101562,0.84375 -1.1367187,0.84375 -0.515625,0 -0.6210938,-0.45703125 -0.6210938,-0.8203125 0,-0.56249997 0.28125,-1.34765627 0.5390625,-2.02734377 0.1171875,-0.3046875 0.1757813,-0.4453125 0.1757813,-0.6328125 0,-0.4453125 -0.328125,-0.8203125 -0.8203125,-0.8203125 -0.94921876,0 -1.31250001,1.453125 -1.31250001,1.5351563 0,0.1054687 0.09375,0.1054687 0.1171875,0.1054687 0.09375,0 0.10546875,-0.023437 0.15234375,-0.1875 0.2578125,-0.8671875 0.63281246,-1.2304687 1.00781246,-1.2304687 0.09375,0 0.2578125,0.011719 0.2578125,0.328125 0,0.234375 -0.1171875,0.5273437 -0.1757812,0.6796875 -0.3632813,0.984375 -0.5742188,1.6054687 -0.5742188,2.0859375 0,0.94921872 0.6796875,1.19531247 1.21875,1.19531247 0.65625,0 1.0195313,-0.4453125 1.1953125,-0.66796875 z m 0,0"
       style="fill:#000000;fill-opacity:1;fill-rule:nonzero;stroke:none"
       aria-label="u"
       transform="matrix(1.3333333,0,0,1.3333333,15.361333,204.616)" />
    <path
       id="path25"
       d="m 4.6647188,-3.7022344 c 0,-0.5390625 -0.2578125,-0.703125 -0.4453125,-0.703125 -0.2460938,0 -0.4804688,0.2578125 -0.4804688,0.4804688 0,0.1289062 0.046875,0.1875 0.1523438,0.3046875 0.2109375,0.1992187 0.3398437,0.4570312 0.3398437,0.8085937 0,0.421875 -0.609375,2.70703127 -1.7695312,2.70703127 -0.5039063,0 -0.7382813,-0.3515625 -0.7382813,-0.8671875 0,-0.56249997 0.2695313,-1.28906247 0.5742188,-2.12109377 0.070312,-0.1640625 0.1289062,-0.3046875 0.1289062,-0.4921875 0,-0.4453125 -0.328125,-0.8203125 -0.8203125,-0.8203125 -0.9375,0 -1.3125,1.453125 -1.3125,1.5351563 0,0.1054687 0.09375,0.1054687 0.1171875,0.1054687 0.09375,0 0.10546875,-0.023437 0.15234375,-0.1875 0.29296875,-0.9960937 0.72656255,-1.2304687 1.00781255,-1.2304687 0.082031,0 0.2578125,0 0.2578125,0.3164062 0,0.2460938 -0.1054688,0.515625 -0.1757813,0.703125 -0.4335937,1.1484375 -0.5625,1.6054688 -0.5625,2.0390625 0,1.07812502 0.8671875,1.23046877 1.3359375,1.23046877 1.6640625,0 2.2382813,-3.29296877 2.2382813,-3.80859377 z m 0,0"
       style="fill:#000000;fill-opacity:1;fill-rule:nonzero;stroke:none"
       aria-label="v"
       transform="matrix(1.3333333,0,0,1.3333333,91.296,204.616)" />
    <path
       id="path26"
       d="m 4.6647188,-3.7035625 c 0,-0.5390625 -0.2578125,-0.703125 -0.4453125,-0.703125 -0.2460938,0 -0.4804688,0.2578125 -0.4804688,0.4804687 0,0.1289063 0.046875,0.1875 0.1523438,0.3046875 0.2109375,0.1992188 0.3398437,0.4570313 0.3398437,0.8085938 0,0.421875 -0.609375,2.70703125 -1.7695312,2.70703125 -0.5039063,0 -0.7382813,-0.3515625 -0.7382813,-0.8671875 0,-0.56250005 0.2695313,-1.28906255 0.5742188,-2.12109375 0.070312,-0.1640625 0.1289062,-0.3046875 0.1289062,-0.4921875 0,-0.4453125 -0.328125,-0.8203125 -0.8203125,-0.8203125 -0.9375,0 -1.3125,1.453125 -1.3125,1.5351562 0,0.1054688 0.09375,0.1054688 0.1171875,0.1054688 0.09375,0 0.10546875,-0.023437 0.15234375,-0.1875 0.29296875,-0.9960938 0.72656255,-1.2304688 1.00781255,-1.2304688 0.082031,0 0.2578125,0 0.2578125,0.3164063 0,0.2460937 -0.1054688,0.515625 -0.1757813,0.703125 -0.4335937,1.1484375 -0.5625,1.6054687 -0.5625,2.0390625 0,1.078125 0.8671875,1.23046875 1.3359375,1.23046875 1.6640625,0 2.2382813,-3.29296875 2.2382813,-3.80859375 z m 0,0"
       style="fill:#000000;fill-opacity:1;fill-rule:nonzero;stroke:none"
       aria-label="v"
       transform="matrix(1.3333333,0,0,1.3333333,91.296,249.96933)" />
    <path
       id="path27"
       d="m 4.6042578,-3.3754375 c 0.046875,-0.2226563 0.140625,-0.5859375 0.140625,-0.6445313 0,-0.1875 -0.1289062,-0.2695312 -0.28125,-0.2695312 -0.1171875,0 -0.3046875,0.070312 -0.375,0.2695312 -0.023437,0.070312 -0.4921875,1.9804688 -0.5625,2.2382813 -0.070312,0.2929687 -0.09375,0.4804687 -0.09375,0.65625 0,0.1054687 0,0.12890625 0.011719,0.17578125 -0.2226563,0.52734375 -0.5273438,0.84375 -0.9140625,0.84375 -0.796875,0 -0.796875,-0.73828125 -0.796875,-0.91406255 0,-0.3164062 0.046875,-0.703125 0.515625,-1.9335937 0.1054687,-0.2929688 0.1757812,-0.4335938 0.1757812,-0.6328125 0,-0.4453125 -0.328125,-0.8203125 -0.8203125,-0.8203125 -0.94921874,0 -1.31249999,1.453125 -1.31249999,1.5351562 0,0.1054688 0.09375,0.1054688 0.1171875,0.1054688 0.09375,0 0.10546875,-0.023437 0.15234375,-0.1875 0.26953125,-0.9257813 0.66796874,-1.2304688 1.00781254,-1.2304688 0.09375,0 0.2578125,0.011719 0.2578125,0.328125 0,0.2460938 -0.1171875,0.5273438 -0.1875,0.703125 -0.4335938,1.171875 -0.5507813,1.6289063 -0.5507813,2.0039063 0,0.9140625 0.6679688,1.25390625 1.40625,1.25390625 0.1757813,0 0.6445313,0 1.0429688,-0.69140625 0.2578125,0.6328125 0.9492187,0.69140625 1.2421875,0.69140625 0.75,0 1.1835937,-0.62109375 1.4414062,-1.21875005 0.3398438,-0.7851562 0.65625,-2.109375 0.65625,-2.5898437 0,-0.5507813 -0.2695312,-0.703125 -0.4335937,-0.703125 -0.2460938,0 -0.5039063,0.2578125 -0.5039063,0.4804687 0,0.1289063 0.070312,0.1875 0.1523438,0.2695313 0.1171875,0.1054687 0.3632812,0.3632812 0.3632812,0.84375 0,0.3398437 -0.2929687,1.3125 -0.5507812,1.828125 -0.2578125,0.52734375 -0.609375,0.87890625 -1.0898438,0.87890625 -0.46875,0 -0.7382812,-0.3046875 -0.7382812,-0.8671875 0,-0.28125005 0.070312,-0.58593755 0.1054687,-0.72656255 z m 0,0"
       style="fill:#000000;fill-opacity:1;fill-rule:nonzero;stroke:none"
       aria-label="w"
       transform="matrix(1.3333333,0,0,1.3333333,146.51333,249.96933)" />
    <path
       id="path28"
       d="m 3.3279375,-3.0108281 c 0.058594,-0.2578125 0.2929688,-1.171875 0.984375,-1.171875 0.046875,0 0.2929688,0 0.5039063,0.1289062 -0.28125,0.046875 -0.4804688,0.3046875 -0.4804688,0.5390625 0,0.1640625 0.1054688,0.3515625 0.375,0.3515625 0.2226563,0 0.5390625,-0.1875 0.5390625,-0.5859375 0,-0.515625 -0.5859375,-0.65625 -0.9257812,-0.65625 -0.5742188,0 -0.9257813,0.5273438 -1.0429688,0.7617188 -0.2578125,-0.65625 -0.7851562,-0.7617188 -1.078125,-0.7617188 -1.0429687,0 -1.60546875,1.2890625 -1.60546875,1.5351563 0,0.1054687 0.10546875,0.1054687 0.1171875,0.1054687 0.0820313,0 0.1171875,-0.023437 0.12890625,-0.1171875 0.3398438,-1.0546875 0.9960938,-1.3007812 1.3359375,-1.3007812 0.1875,0 0.5390625,0.09375 0.5390625,0.6679687 0,0.3046875 -0.1640625,0.9726563 -0.5390625,2.3671875 -0.1523437,0.62109377 -0.5039062,1.04296877 -0.9492187,1.04296877 -0.058594,0 -0.28125005,0 -0.49218755,-0.12890625 0.24609375,-0.0585938 0.46875005,-0.26953125 0.46875005,-0.5390625 0,-0.26953122 -0.2226563,-0.35156252 -0.37500005,-0.35156252 -0.29296875,0 -0.5390625,0.25781252 -0.5390625,0.57421877 0,0.45703125 0.4921875,0.65625 0.93750005,0.65625 0.65625,0 1.0078125,-0.69140625 1.0429687,-0.75 0.1171875,0.36328125 0.4804688,0.75 1.078125,0.75 1.0195313,0 1.59375,-1.27734377 1.59375,-1.53515627 0,-0.09375 -0.09375,-0.09375 -0.1289062,-0.09375 -0.082031,0 -0.1054688,0.035156 -0.1289063,0.1054688 -0.328125,1.06640622 -0.9960937,1.31249997 -1.3242187,1.31249997 -0.3867188,0 -0.5390625,-0.328125 -0.5390625,-0.65625 0,-0.22265625 0.058594,-0.44531247 0.1640625,-0.87890627 z m 0,0"
       style="fill:#000000;fill-opacity:1;fill-rule:nonzero;stroke:none"
       aria-label="x"
       transform="matrix(1.3333333,0,0,1.3333333,204.344,204.616)" />
    <path
       id="path29"
       d="m 4.8387969,-3.7967109 c 0.046875,-0.140625 0.046875,-0.1523438 0.046875,-0.2226563 0,-0.1875 -0.140625,-0.2695312 -0.2929688,-0.2695312 -0.1054687,0 -0.2578125,0.058594 -0.3515625,0.1992187 -0.023437,0.058594 -0.09375,0.3632813 -0.140625,0.5390625 -0.070312,0.2578125 -0.140625,0.5273438 -0.1992187,0.796875 l -0.4453125,1.79296876 c -0.035156,0.15234375 -0.46875,0.85546875 -1.125,0.85546875 -0.5039063,0 -0.6210938,-0.4453125 -0.6210938,-0.80859375 0,-0.45703126 0.1757813,-1.07812496 0.515625,-1.95703126 0.1523438,-0.4101562 0.1992188,-0.515625 0.1992188,-0.7148437 0,-0.4453125 -0.328125,-0.8203125 -0.8203125,-0.8203125 -0.94921877,0 -1.31250002,1.453125 -1.31250002,1.5351562 0,0.1054688 0.09375,0.1054688 0.1171875,0.1054688 0.09375,0 0.10546875,-0.023437 0.15234375,-0.1875 0.26953125,-0.9375 0.66796877,-1.2304688 1.00781247,-1.2304688 0.082031,0 0.2578125,0 0.2578125,0.3164063 0,0.2460937 -0.1054687,0.515625 -0.1757812,0.703125 -0.3984375,1.0546875 -0.5742188,1.6171875 -0.5742188,2.0859375 0,0.89062496 0.6210938,1.18359371 1.21875,1.18359371 0.3867188,0 0.7265625,-0.1640625 0.9960938,-0.4453125 -0.1289063,0.515625 -0.2460938,1.0078125 -0.6445313,1.53515629 -0.2578125,0.3398437 -0.6328125,0.6328125 -1.0898437,0.6328125 -0.140625,0 -0.59765627,-0.035156 -0.76171877,-0.421875 0.1640625,0 0.29296877,0 0.43359377,-0.1171875 0.09375,-0.09375 0.1992187,-0.2226563 0.1992187,-0.41015629 0,-0.31640625 -0.2695312,-0.3515625 -0.375,-0.3515625 -0.22265622,0 -0.55078122,0.1640625 -0.55078122,0.64453129 0,0.5039062 0.43359375,0.8671875 1.05468752,0.8671875 1.0195312,0 2.0507812,-0.9023438 2.3320312,-2.02734379 z m 0,0"
       style="fill:#000000;fill-opacity:1;fill-rule:nonzero;stroke:none"
       aria-label="y"
       transform="matrix(1.3333333,0,0,1.3333333,261.33733,203.324)" />
  </g>
</svg>
