<?xml version="1.0" encoding="UTF-8" standalone="no"?>
<!-- Created with Inkscape (http://www.inkscape.org/) -->

<svg
   version="1.1"
   id="svg1"
   width="371.60638"
   height="257.1723"
   viewBox="0 0 371.60638 257.1723"
   xmlns="http://www.w3.org/2000/svg"
   xmlns:svg="http://www.w3.org/2000/svg">
  <defs
     id="defs1" />
  <g
     id="g1"
     transform="translate(-0.02799355,-4.257813)">
    <path
       id="path1"
       d="M -22.67754,-11.33876 H 22.67753 V 11.33876 H -22.67754 Z"
       style="fill:none;stroke:#000000;stroke-width:0.3985;stroke-linecap:butt;stroke-linejoin:miter;stroke-miterlimit:10;stroke-dasharray:none;stroke-opacity:1"
       transform="matrix(1.3333333,0,0,-1.3333333,30.768,64.702667)" />
    <path
       id="path2"
       d="m 4.3699453,-2.9179609 c 0.046875,-0.234375 0.1523438,-0.6445313 0.1523438,-0.6914063 0,-0.1054687 -0.082031,-0.2578125 -0.2695313,-0.2578125 -0.1289062,0 -0.2695312,0.082031 -0.328125,0.1875 -0.046875,0.09375 -0.65625,2.5195313 -0.703125,2.82421876 -0.1875,0.31640625 -0.5507812,0.7265625 -1.0429687,0.7265625 -0.5625,0 -0.5625,-0.5625 -0.5625,-0.7265625 0,-0.41015626 0.1171875,-0.84374996 0.5039062,-1.85156246 0.070312,-0.2109375 0.1289063,-0.328125 0.1289063,-0.5039063 0,-0.4335937 -0.328125,-0.75 -0.7734375,-0.75 -0.85546879,0 -1.21875004,1.2773438 -1.21875004,1.3828125 0,0.082031 0.0703125,0.1054688 0.12890625,0.1054688 0.09375,0 0.10546875,-0.058594 0.140625,-0.1757813 0.1875,-0.6445312 0.53906249,-1.0898437 0.92578129,-1.0898437 0.1875,0 0.2109375,0.1289062 0.2109375,0.2929687 0,0.1523438 -0.035156,0.3164063 -0.1171875,0.5273438 -0.421875,1.1132812 -0.5390625,1.4882812 -0.5390625,1.92187496 0,0.9960937525 0.8085937,1.08984375 1.1484375,1.08984375 0.5039062,0 0.8789062,-0.3046875 1.0898437,-0.5859375 0.1640625,0.5859375 0.7617188,0.5859375 0.8203125,0.5859375 0.2578125,0 0.4804688,-0.1171875 0.6679688,-0.46875 0.1640625,-0.29296875 0.2929687,-0.86718751 0.2929687,-0.90234371 0,-0.046875 -0.023437,-0.1171875 -0.1171875,-0.1171875 -0.1054687,0 -0.1171875,0.046875 -0.1523437,0.2226562 -0.1757813,0.70312501 -0.3632813,1.04296876 -0.6679688,1.04296876 -0.2226562,0 -0.28125,-0.1875 -0.28125,-0.41015625 0,-0.1640625 0.046875,-0.3515625 0.1289063,-0.66796871 l 0.2226562,-0.9140625 z m 0,0"
       style="fill:#000000;fill-opacity:1;fill-rule:nonzero;stroke:none"
       aria-label="u"
       transform="matrix(1.3333333,0,0,1.3333333,27.232,67.277333)" />
    <path
       id="path3"
       d="M 23.07603,-11.33876 H 68.4311 V 11.33876 H 23.07603 Z"
       style="fill:none;stroke:#000000;stroke-width:0.3985;stroke-linecap:butt;stroke-linejoin:miter;stroke-miterlimit:10;stroke-dasharray:none;stroke-opacity:1"
       transform="matrix(1.3333333,0,0,-1.3333333,30.768,64.702667)" />
    <path
       id="path4"
       d="m 4.3131641,-3.3046797 c 0,-0.6328125 -0.328125,-0.6679687 -0.4101563,-0.6679687 -0.2226562,0 -0.4570312,0.2460937 -0.4570312,0.4453125 0,0.140625 0.082031,0.2109375 0.140625,0.2695312 0.2460937,0.2226563 0.328125,0.5039063 0.328125,0.7382813 0,0.3984375 -0.5742188,2.39062496 -1.6054688,2.39062496 -0.6796875,0 -0.6796875,-0.62109375 -0.6796875,-0.78515625 0,-0.38671871 0.1289063,-0.84375001 0.4453125,-1.66406251 0.140625,-0.375 0.1757813,-0.4570312 0.1757813,-0.6328125 0,-0.4335937 -0.328125,-0.75 -0.7734375,-0.75 -0.85546879,0 -1.21875004,1.2773438 -1.21875004,1.3828125 0,0.082031 0.0703125,0.1054688 0.12890625,0.1054688 0.09375,0 0.10546875,-0.058594 0.140625,-0.1757813 0.1875,-0.65625 0.55078129,-1.0898437 0.92578129,-1.0898437 0.1757812,0 0.2109375,0.1171875 0.2109375,0.2929687 0,0.1523438 -0.035156,0.3164063 -0.1171875,0.5273438 -0.3164063,0.8671875 -0.5390625,1.4414062 -0.5390625,1.8867187 0,0.84375001 0.6445312,1.12500001 1.265625,1.12500001 1.5,0 2.0390625,-2.82421871 2.0390625,-3.39843751 z m 0,0"
       style="fill:#000000;fill-opacity:1;fill-rule:nonzero;stroke:none"
       aria-label="v"
       transform="matrix(1.3333333,0,0,1.3333333,88.573333,67.277333)" />
    <path
       id="path5"
       d="m 68.8296,-11.33876 h 45.35507 V 11.33876 H 68.8296 Z"
       style="fill:none;stroke:#000000;stroke-width:0.3985;stroke-linecap:butt;stroke-linejoin:miter;stroke-miterlimit:10;stroke-dasharray:none;stroke-opacity:1"
       transform="matrix(1.3333333,0,0,-1.3333333,30.768,64.702667)" />
    <path
       id="path6"
       d="m 4.4059766,-3.6210859 c -0.328125,0.058594 -0.421875,0.3515625 -0.421875,0.4804687 0,0.1757813 0.1171875,0.328125 0.3398437,0.328125 0.2578125,0 0.5039063,-0.2226562 0.5039063,-0.5273437 0,-0.421875 -0.4570313,-0.6210938 -0.8789063,-0.6210938 -0.5390625,0 -0.84375,0.46875 -0.9492187,0.65625 -0.1757813,-0.4335937 -0.5742188,-0.65625 -0.9960938,-0.65625 -0.9609375,0 -1.48828124,1.1484375 -1.48828124,1.3828125 0,0.082031 0.0703125,0.1054688 0.12890625,0.1054688 0.0820313,0 0.10546875,-0.046875 0.12890625,-0.1054688 0.28125004,-0.8789062 0.86718754,-1.1601562 1.20703124,-1.1601562 0.2578125,0 0.4921875,0.1757812 0.4921875,0.5859375 0,0.328125 -0.3867187,1.7578125 -0.5039062,2.19140621 -0.070312,0.28125 -0.3398438,0.83203125 -0.8320313,0.83203125 -0.17578124,0 -0.36328124,-0.0585938 -0.45703124,-0.1171875 0.24609375,-0.0351563 0.42187504,-0.24609375 0.42187504,-0.48046875 0,-0.22265625 -0.16406254,-0.32812501 -0.33984379,-0.32812501 -0.2578125,0 -0.4921875,0.23437501 -0.4921875,0.53906251 0,0.43359375 0.48046875,0.609375 0.85546879,0.609375 0.5273437,0 0.8320312,-0.421875 0.9609375,-0.66796875 0.2226562,0.59765625 0.7617187,0.66796875 0.9960937,0.66796875 0.9726563,0 1.4765625,-1.16015621 1.4765625,-1.37109371 0,-0.046875 -0.023437,-0.1171875 -0.1171875,-0.1171875 -0.09375,0 -0.1054687,0.035156 -0.1523437,0.1757812 -0.1875,0.64453126 -0.7148438,1.08984376 -1.1835938,1.08984376 -0.2578125,0 -0.4921875,-0.15234375 -0.4921875,-0.5859375 0,-0.19921875 0.1171875,-0.69140626 0.1992188,-1.03124996 0.035156,-0.1640625 0.28125,-1.1367188 0.2929687,-1.1953125 0.1171875,-0.3164063 0.3867188,-0.796875 0.84375,-0.796875 0.1523438,0 0.328125,0.023437 0.4570313,0.1171875 z m 0,0"
       style="fill:#000000;fill-opacity:1;fill-rule:nonzero;stroke:none"
       aria-label="x"
       transform="matrix(1.3333333,0,0,1.3333333,149.29333,67.277333)" />
    <path
       id="path7"
       d="m 114.58319,-11.33876 h 45.35507 v 22.67752 h -45.35507 z"
       style="fill:none;stroke:#000000;stroke-width:0.3985;stroke-linecap:butt;stroke-linejoin:miter;stroke-miterlimit:10;stroke-dasharray:none;stroke-opacity:1"
       transform="matrix(1.3333333,0,0,-1.3333333,30.768,64.702667)" />
    <path
       id="path8"
       d="m 4.4992969,-3.4580703 c 0.011719,-0.035156 0.023437,-0.09375 0.023437,-0.1523438 0,-0.1054687 -0.082031,-0.2578125 -0.2695313,-0.2578125 -0.1171875,0 -0.28125,0.070312 -0.3515625,0.2460938 -0.011719,0.035156 -0.1054687,0.3984375 -0.1523437,0.5976562 l -0.4453125,1.7929688 c -0.082031,0.25781249 -0.082031,0.28124999 -0.09375,0.36328124 -0.011719,0.0351563 -0.3867188,0.73828125 -1.03125,0.73828125 -0.5625,0 -0.5625,-0.5625 -0.5625,-0.7265625 0,-0.41015629 0.1171875,-0.84374999 0.5039062,-1.85156249 0.070312,-0.2109375 0.1289063,-0.328125 0.1289063,-0.5039063 0,-0.4335937 -0.328125,-0.75 -0.7734375,-0.75 -0.85546878,0 -1.21875003,1.2773438 -1.21875003,1.3828125 0,0.082031 0.0703125,0.1054688 0.12890625,0.1054688 0.09375,0 0.10546875,-0.058594 0.140625,-0.1757813 0.1875,-0.65625 0.55078128,-1.0898437 0.92578128,-1.0898437 0.2109375,0 0.2109375,0.1757812 0.2109375,0.2929687 0,0.1523438 -0.035156,0.3164063 -0.1171875,0.5273438 -0.421875,1.1132812 -0.5390625,1.4882812 -0.5390625,1.92187499 0,0.99609375 0.8085937,1.08984375 1.1484375,1.08984375 0.4335937,0 0.75,-0.22265625 0.9140625,-0.38671875 -0.117187,0.45703125 -0.2226558,0.85546875 -0.5742183,1.30078121 -0.2695312,0.3632813 -0.6210937,0.609375 -1.0195312,0.609375 -0.2460938,0 -0.53906253,-0.09375 -0.66796878,-0.3398437 0.46874998,0 0.53906248,-0.39843751 0.53906248,-0.49218751 0,-0.19921875 -0.140625,-0.31640625 -0.3398437,-0.31640625 -0.22265628,0 -0.50390628,0.1640625 -0.50390628,0.58593746 0,0.4570313 0.41015625,0.7851563 0.97265628,0.7851563 0.9140625,0 1.8984375,-0.7851563 2.15625,-1.82812501 z m 0,0"
       style="fill:#000000;fill-opacity:1;fill-rule:nonzero;stroke:none"
       aria-label="y"
       transform="matrix(1.3333333,0,0,1.3333333,210.54,66.114667)" />
    <path
       id="path9"
       d="m 160.33676,-11.33876 h 45.35507 v 22.67752 h -45.35507 z"
       style="fill:none;stroke:#000000;stroke-width:0.3985;stroke-linecap:butt;stroke-linejoin:miter;stroke-miterlimit:10;stroke-dasharray:none;stroke-opacity:1"
       transform="matrix(1.3333333,0,0,-1.3333333,30.768,64.702667)" />
    <path
       id="path10"
       d="m 1.2421641,-0.76171094 c 0.1875,-0.22265625 0.6796875,-0.66796876 1.0664062,-0.99609376 0.6679688,-0.5625 0.8789063,-0.7617187 0.9960938,-0.890625 0.7265625,-0.703125 0.9726562,-1.1601562 0.9726562,-1.21875 0,0 0,-0.09375 -0.1171875,-0.09375 -0.082031,0 -0.09375,0.023437 -0.140625,0.09375 -0.1171875,0.1875 -0.3632812,0.5625 -0.6679687,0.5625 -0.1757813,0 -0.2929688,-0.09375 -0.5039063,-0.328125 -0.2109375,-0.234375 -0.3867187,-0.328125 -0.6210937,-0.328125 -0.6796875,0 -1.1015625,0.8203125 -1.1015625,1.0429688 0,0.035156 0.011719,0.1054687 0.1171875,0.1054687 0.082031,0 0.1171875,-0.058594 0.1171875,-0.082031 0.1757812,-0.4335938 0.703125,-0.4335938 0.7734375,-0.4335938 0.2109375,0 0.421875,0.070312 0.6210937,0.140625 0.3515625,0.1171875 0.5039063,0.1171875 0.6445313,0.1171875 -0.28125,0.3046875 -0.7851563,0.7382813 -1.3476563,1.21875 -0.4453125,0.3867188 -0.7265625,0.65625 -0.9257812,0.85546876 -0.32812504,0.3515625 -0.72656254,0.90234375 -0.72656254,0.9960937525 0,0.0585937475 0.0351563,0.0937499975 0.1171875,0.0937499975 0.0703125,0 0.09375,-0.03515625 0.140625,-0.08203125 0.35156254,-0.5390625 0.67968754,-0.57421875 0.77343754,-0.57421875 0.234375,0 0.3515625,0.12890625 0.5507812,0.36328125 0.2109375,0.22265625 0.3984375,0.29296875 0.5859375,0.29296875 0.9257813,0 1.453125,-1.14843751 1.453125,-1.38281251 0,-0.082031 -0.058594,-0.1054687 -0.1171875,-0.1054687 -0.09375,0 -0.1054687,0.058594 -0.1289062,0.09375 -0.2460938,0.66796871 -0.8789063,0.76171871 -1.1132813,0.76171871 -0.1640625,0 -0.3515625,-0.046875 -0.6210937,-0.12890625 -0.1757813,-0.0585938 -0.3867188,-0.1171875 -0.5742188,-0.1171875 -0.09375,0 -0.1875,0.0117188 -0.2226562,0.0234373 z m 0,0"
       style="fill:#000000;fill-opacity:1;fill-rule:nonzero;stroke:none"
       aria-label="z"
       transform="matrix(1.3333333,0,0,1.3333333,271.668,67.277333)" />
    <g
       id="g10"
       aria-label="s=uvxyz"
       transform="matrix(1.3333333,0,0,1.3333333,117.596,11.290667)">
      <path
         id="path11"
         d="m 2.7317109,-2.3918281 c 0.1992188,0.035156 0.515625,0.1054687 0.5976563,0.1171875 0.1523437,0.046875 0.6914062,0.2460937 0.6914062,0.8203125 0,0.3632812 -0.3398437,1.33593747 -1.7226562,1.33593747 -0.2578125,0 -1.1484375,-0.0351563 -1.38281251,-0.69140625 0.46875001,0.0585938 0.71484371,-0.31640622 0.71484371,-0.57421872 0,-0.2578125 -0.1757812,-0.3867188 -0.4101562,-0.3867188 -0.25781251,0 -0.60937501,0.1992188 -0.60937501,0.7382813 0,0.70312497 0.71484371,1.14843747 1.67578121,1.14843747 1.8164063,0 2.3554688,-1.33593747 2.3554688,-1.95703127 0,-0.1757812 0,-0.515625 -0.3867188,-0.9023437 -0.2929687,-0.28125 -0.5859375,-0.3398438 -1.2304687,-0.46875 -0.3164063,-0.082031 -0.8320313,-0.1875 -0.8320313,-0.7265625 0,-0.234375 0.2109375,-1.0898438 1.3476563,-1.0898438 0.5039062,0 0.9960937,0.1875 1.1132812,0.6210938 -0.5273437,0 -0.5507812,0.4453125 -0.5507812,0.4570312 0,0.2578125 0.2226562,0.328125 0.328125,0.328125 0.1757812,0 0.5039062,-0.1289062 0.5039062,-0.6328125 0,-0.5039062 -0.4453125,-1.0195312 -1.3828125,-1.0195312 -1.5703125,0 -1.9804687,1.2304687 -1.9804687,1.7226562 0,0.9140625 0.8789062,1.1015625 1.1601562,1.1601563 z m 0,0"
         style="fill:#000000;fill-opacity:1;fill-rule:nonzero;stroke:none" />
      <path
         id="path12"
         d="m 16.911398,-3.8683906 c 0.164063,0 0.375,0 0.375,-0.2226563 0,-0.2226562 -0.199218,-0.2226562 -0.375,-0.2226562 H 9.8684297 c -0.1757813,0 -0.3867188,0 -0.3867188,0.2109375 0,0.234375 0.1992188,0.234375 0.3867188,0.234375 z m 0,2.2148437 c 0.164063,0 0.375,0 0.375,-0.2109375 0,-0.234375 -0.199218,-0.234375 -0.375,-0.234375 H 9.8684297 c -0.1757813,0 -0.3867188,0 -0.3867188,0.2226563 0,0.2226562 0.1992188,0.2226562 0.3867188,0.2226562 z m 0,0"
         style="fill:#000000;fill-opacity:1;fill-rule:nonzero;stroke:none" />
      <path
         id="path13"
         d="m 25.33132,-0.69260938 c 0.152344,0.66796875 0.726563,0.80859375 1.019532,0.80859375 0.375,0 0.667968,-0.24609375 0.855468,-0.65625 0.199219,-0.43359375 0.363282,-1.13671877 0.363282,-1.17187497 0,-0.058594 -0.05859,-0.1054688 -0.128907,-0.1054688 -0.105468,0 -0.117187,0.058594 -0.164062,0.234375 -0.210938,0.83203127 -0.433594,1.46484377 -0.902344,1.46484377 -0.363281,0 -0.363281,-0.3984375 -0.363281,-0.55078125 0,-0.28125 0.03516,-0.39843752 0.152344,-0.90234372 0.08203,-0.3164063 0.175781,-0.6445313 0.246093,-0.9726563 l 0.480469,-1.9570312 c 0.09375,-0.2929688 0.09375,-0.3164063 0.09375,-0.3515625 0,-0.1757813 -0.152344,-0.3046875 -0.328125,-0.3046875 -0.351562,0 -0.433594,0.3046875 -0.503906,0.5976562 -0.117188,0.46875 -0.761719,3.0351563 -0.84375,3.4570313 -0.01172,0 -0.480469,0.98437497 -1.347656,0.98437497 -0.632813,0 -0.75,-0.5390625 -0.75,-0.98437497 0,-0.6796875 0.339843,-1.640625 0.644531,-2.4375 0.152344,-0.3867188 0.210937,-0.5390625 0.210937,-0.7734375 0,-0.515625 -0.375,-0.9609375 -0.949218,-0.9609375 -1.101563,0 -1.535157,1.734375 -1.535157,1.828125 0,0.046875 0.04687,0.1054687 0.128907,0.1054687 0.105468,0 0.117187,-0.046875 0.164062,-0.2109375 0.292969,-1.03125 0.75,-1.4765625 1.207031,-1.4765625 0.117188,0 0.316407,0.011719 0.316407,0.3867188 0,0.3164062 -0.140625,0.65625 -0.316407,1.1132812 -0.527343,1.4179688 -0.585937,1.875 -0.585937,2.2382813 0,1.21874997 0.925781,1.40624997 1.40625,1.40624997 0.773437,0 1.183594,-0.52734375 1.429687,-0.80859375 z m 8.044922,-3.77343752 c 0,-0.7617187 -0.375,-0.8085937 -0.480469,-0.8085937 -0.28125,0 -0.550781,0.2929687 -0.550781,0.5273437 0,0.140625 0.09375,0.2226563 0.140625,0.28125 0.117188,0.1054688 0.421875,0.421875 0.421875,1.0429688 0,0.5039062 -0.714844,3.30468747 -2.144531,3.30468747 -0.726563,0 -0.878906,-0.609375 -0.878906,-1.05468747 0,-0.5976563 0.28125,-1.4296875 0.597656,-2.296875 0.199219,-0.4921875 0.246094,-0.609375 0.246094,-0.84375 0,-0.5039063 -0.363282,-0.9609375 -0.949219,-0.9609375 -1.101563,0 -1.535156,1.734375 -1.535156,1.828125 0,0.046875 0.04687,0.1054687 0.128906,0.1054687 0.105469,0 0.117187,-0.046875 0.164062,-0.2109375 0.292969,-1.03125 0.75,-1.4765625 1.207032,-1.4765625 0.105468,0 0.316406,0 0.316406,0.3867188 0,0.3164062 -0.140625,0.65625 -0.316406,1.1132812 -0.574219,1.5351563 -0.574219,1.8984375 -0.574219,2.1914063 0,0.2578125 0.03516,0.74999997 0.410156,1.08984372 0.433594,0.36328125 1.03125,0.36328125 1.136719,0.36328125 1.980469,0 2.660156,-3.90234377 2.660156,-4.58203127 z m 6.290039,-0.4101562 c -0.375,0.070312 -0.515625,0.3515625 -0.515625,0.5859375 0,0.28125 0.222657,0.375 0.386719,0.375 0.363281,0 0.609375,-0.3046875 0.609375,-0.6328125 0,-0.4921875 -0.574219,-0.7265625 -1.078125,-0.7265625 -0.726562,0 -1.125,0.7148437 -1.242187,0.9492187 -0.269532,-0.9023437 -1.007813,-0.9492187 -1.230469,-0.9492187 -1.21875,0 -1.863281,1.5703125 -1.863281,1.828125 0,0.046875 0.04687,0.1054687 0.128906,0.1054687 0.105469,0 0.128906,-0.070312 0.152344,-0.1171875 0.398437,-1.3242187 1.207031,-1.5703125 1.546875,-1.5703125 0.539062,0 0.644531,0.4921875 0.644531,0.7851563 0,0.2578125 -0.07031,0.5390625 -0.210938,1.1132812 l -0.410156,1.6289063 c -0.175781,0.72656247 -0.527344,1.38281247 -1.160156,1.38281247 -0.05859,0 -0.351563,0 -0.609375,-0.15234375 0.433594,-0.09375 0.527344,-0.4453125 0.527344,-0.5859375 0,-0.24609372 -0.175782,-0.38671872 -0.398438,-0.38671872 -0.292969,0 -0.597656,0.24609372 -0.597656,0.63281247 0,0.50390625 0.5625,0.7265625 1.066406,0.7265625 0.574219,0 0.984375,-0.45703125 1.230469,-0.9375 0.199219,0.703125 0.796875,0.9375 1.230469,0.9375 1.230468,0 1.875,-1.55859377 1.875,-1.82812497 0,-0.058594 -0.04687,-0.1054688 -0.128907,-0.1054688 -0.105468,0 -0.117187,0.058594 -0.152343,0.1523438 -0.316407,1.05468747 -1.019532,1.54687497 -1.546875,1.54687497 -0.421875,0 -0.65625,-0.31640625 -0.65625,-0.80859375 0,-0.25781252 0.05859,-0.44531252 0.246093,-1.24218752 l 0.421875,-1.6171875 c 0.175782,-0.7265625 0.585938,-1.2421875 1.125,-1.2421875 0.03516,0 0.363282,0 0.609375,0.1523438 z m 4.133789,6.2109375 c -0.316406,0.4570312 -0.785156,0.8671875 -1.371093,0.8671875 -0.140625,0 -0.714844,-0.023437 -0.902344,-0.5742188 0.04687,0.011719 0.105469,0.011719 0.128906,0.011719 0.351563,0 0.597656,-0.3164063 0.597656,-0.5859375 0,-0.28125003 -0.234375,-0.37500003 -0.410156,-0.37500003 -0.1875,0 -0.609375,0.140625 -0.609375,0.72656253 0,0.609375 0.515625,1.03125 1.195313,1.03125 1.195312,0 2.402343,-1.1015625 2.742187,-2.42578128 l 1.171875,-4.66406252 c 0.01172,-0.058594 0.03516,-0.1289062 0.03516,-0.1992187 0,-0.1757813 -0.152343,-0.3046875 -0.328125,-0.3046875 -0.105468,0 -0.363281,0.046875 -0.457031,0.4101562 l -0.878906,3.515625 c -0.05859,0.2109375 -0.05859,0.23437502 -0.152344,0.37500002 -0.246094,0.328125 -0.644531,0.73828125 -1.207031,0.73828125 -0.679688,0 -0.738281,-0.65625 -0.738281,-0.98437497 0,-0.6796875 0.328125,-1.6054688 0.644531,-2.4609375 0.140625,-0.3515625 0.210937,-0.515625 0.210937,-0.75 0,-0.5039063 -0.363281,-0.9609375 -0.949218,-0.9609375 -1.101563,0 -1.535157,1.734375 -1.535157,1.828125 0,0.046875 0.04687,0.1054687 0.128907,0.1054687 0.105468,0 0.117187,-0.046875 0.164062,-0.2109375 0.292969,-1.0078125 0.738281,-1.4765625 1.207031,-1.4765625 0.105469,0 0.316407,0 0.316407,0.3867188 0,0.3164062 -0.140625,0.65625 -0.316407,1.1132812 -0.585937,1.5703125 -0.585937,1.9570313 -0.585937,2.25 0,1.13671877 0.808594,1.39453127 1.40625,1.39453127 0.351562,0 0.785156,-0.10546875 1.195312,-0.55078125 l 0.01172,0.0117188 c -0.175781,0.703125 -0.292969,1.171875 -0.714844,1.75781248 z m 4.520508,-2.30859378 c 0.503906,-0.58593752 0.925781,-0.94921872 1.523438,-1.48828122 0.714843,-0.6210938 1.03125,-0.9257813 1.195312,-1.1015625 0.84375,-0.8203125 1.253906,-1.5234375 1.253906,-1.6171875 0,-0.09375 -0.09375,-0.09375 -0.117187,-0.09375 -0.08203,0 -0.105469,0.046875 -0.164063,0.1289062 -0.304687,0.515625 -0.585937,0.7734375 -0.902343,0.7734375 -0.246094,0 -0.375,-0.1171875 -0.609375,-0.3984375 -0.246094,-0.2929687 -0.457032,-0.5039062 -0.796875,-0.5039062 -0.878907,0 -1.394532,1.0898437 -1.394532,1.3359375 0,0.035156 0.01172,0.1171875 0.117188,0.1171875 0.09375,0 0.105469,-0.046875 0.140625,-0.140625 0.199219,-0.46875 0.773437,-0.5625 1.007812,-0.5625 0.246094,0 0.480469,0.09375 0.738282,0.1992187 0.457031,0.1875 0.644531,0.1875 0.761718,0.1875 0.08203,0 0.128907,0 0.1875,-0.011719 -0.386718,0.46875 -1.03125,1.0429687 -1.570312,1.5351562 l -1.207031,1.1015625 c -0.726563,0.75000002 -1.171875,1.45312502 -1.171875,1.53515627 0,0.0703125 0.05859,0.09375 0.128906,0.09375 0.07031,0 0.08203,-0.0117188 0.164062,-0.15234375 0.199219,-0.3046875 0.574219,-0.73828125 1.019532,-0.73828125 0.246093,0 0.375,0.0820313 0.609375,0.375 0.222656,0.26953125 0.433593,0.515625 0.808593,0.515625 1.171875,0 1.851563,-1.51171877 1.851563,-1.79296877 0,-0.046875 -0.01172,-0.1171875 -0.140625,-0.1171875 -0.09375,0 -0.105469,0.046875 -0.140625,0.1640625 -0.257813,0.70312502 -0.972656,0.99609377 -1.429688,0.99609377 -0.257812,0 -0.492187,-0.0820313 -0.75,-0.1875 -0.46875,-0.19921877 -0.609375,-0.19921877 -0.761718,-0.19921877 -0.117188,0 -0.246094,0 -0.351563,0.0468753 z m 0,0"
         style="fill:#000000;fill-opacity:1;fill-rule:nonzero;stroke:none" />
    </g>
    <path
       id="path14"
       d="m 22.87679,-11.53801 c 0.8966,1.79332 2.98883,2.98883 5.97766,2.98883 h 56.67503 c 2.98883,0 5.08105,1.19553 5.97766,2.98883 0.89662,-1.7933 2.98883,-2.98883 5.97766,-2.98883 h 56.67505 c 2.98883,0 5.08105,-1.19551 5.97766,-2.98883"
       style="fill:none;stroke:#000000;stroke-width:0.3985;stroke-linecap:butt;stroke-linejoin:miter;stroke-miterlimit:10;stroke-dasharray:none;stroke-opacity:1"
       transform="matrix(1.3333333,0,0,-1.3333333,30.768,64.702667)" />
    <g
       id="g14"
       aria-label="|vxy|≤p"
       transform="matrix(1.3333333,0,0,1.3333333,128.16667,101.716)">
      <path
         id="path15"
         d="m 1.4658203,-6.3875859 c 0,-0.1523438 0,-0.3398438 -0.1875,-0.3398438 -0.1875,0 -0.1875,0.1757813 -0.1875,0.3398438 v 8.296875 c 0,0.1523437 0,0.328125 0.1875,0.328125 0.1875,0 0.1875,-0.1640625 0.1875,-0.328125 z m 0,0"
         style="fill:#000000;fill-opacity:1;fill-rule:nonzero;stroke:none" />
      <path
         id="path16"
         d="m 6.8710937,-3.3055547 c 0,-0.6328125 -0.328125,-0.6679687 -0.4101562,-0.6679687 -0.2226563,0 -0.4570313,0.2460937 -0.4570313,0.4453125 0,0.140625 0.082031,0.2109375 0.140625,0.2695312 0.2460938,0.2226563 0.328125,0.5039063 0.328125,0.7382813 0,0.3984375 -0.5742187,2.39062496 -1.6054687,2.39062496 -0.6796875,0 -0.6796875,-0.62109375 -0.6796875,-0.78515625 0,-0.38671871 0.1289062,-0.84375001 0.4453125,-1.66406251 0.140625,-0.375 0.1757812,-0.4570312 0.1757812,-0.6328125 0,-0.4335937 -0.328125,-0.75 -0.7734375,-0.75 -0.8554687,0 -1.21875,1.2773438 -1.21875,1.3828125 0,0.082031 0.070312,0.1054688 0.1289063,0.1054688 0.09375,0 0.1054687,-0.058594 0.140625,-0.1757813 0.1875,-0.65625 0.5507812,-1.0898437 0.9257812,-1.0898437 0.1757813,0 0.2109375,0.1171875 0.2109375,0.2929687 0,0.1523438 -0.035156,0.3164063 -0.1171875,0.5273438 -0.3164062,0.8671875 -0.5390625,1.4414062 -0.5390625,1.8867187 0,0.84375001 0.6445313,1.12500001 1.265625,1.12500001 1.5,0 2.0390625,-2.82421871 2.0390625,-3.39843751 z m 4.8925783,-0.3164062 c -0.328125,0.058594 -0.421875,0.3515625 -0.421875,0.4804687 0,0.1757813 0.117187,0.328125 0.339844,0.328125 0.257812,0 0.503906,-0.2226562 0.503906,-0.5273437 0,-0.421875 -0.457031,-0.6210938 -0.878906,-0.6210938 -0.539063,0 -0.84375,0.46875 -0.949219,0.65625 -0.175781,-0.4335937 -0.5742189,-0.65625 -0.9960939,-0.65625 -0.9609375,0 -1.4882812,1.1484375 -1.4882812,1.3828125 0,0.082031 0.070312,0.1054688 0.1289062,0.1054688 0.082031,0 0.1054688,-0.046875 0.1289063,-0.1054688 0.28125,-0.8789062 0.8671875,-1.1601562 1.2070312,-1.1601562 0.2578125,0 0.4921875,0.1757812 0.4921875,0.5859375 0,0.328125 -0.3867187,1.7578125 -0.5039062,2.19140621 -0.070312,0.28125 -0.3398438,0.83203125 -0.8320313,0.83203125 -0.1757812,0 -0.3632812,-0.0585938 -0.4570312,-0.1171875 0.2460937,-0.0351563 0.421875,-0.24609375 0.421875,-0.48046875 0,-0.22265625 -0.1640625,-0.32812501 -0.3398438,-0.32812501 -0.2578125,0 -0.4921875,0.23437501 -0.4921875,0.53906251 0,0.43359375 0.4804688,0.609375 0.8554688,0.609375 0.5273437,0 0.8320312,-0.421875 0.9609375,-0.66796875 0.2226562,0.59765625 0.7617186,0.66796875 0.9960936,0.66796875 0.972656,0 1.476563,-1.16015621 1.476563,-1.37109371 0,-0.046875 -0.02344,-0.1171875 -0.117188,-0.1171875 -0.09375,0 -0.105469,0.035156 -0.152344,0.1757812 -0.1875,0.64453126 -0.714843,1.08984376 -1.183593,1.08984376 -0.257813,0 -0.4921879,-0.15234375 -0.4921879,-0.5859375 0,-0.19921875 0.1171879,-0.69140626 0.1992189,-1.03124996 0.03516,-0.1640625 0.28125,-1.1367188 0.292969,-1.1953125 0.117187,-0.3164063 0.386718,-0.796875 0.84375,-0.796875 0.152343,0 0.328125,0.023437 0.457031,0.1171875 z m 5.320312,0.1640625 c 0.01172,-0.035156 0.02344,-0.09375 0.02344,-0.1523438 0,-0.1054687 -0.08203,-0.2578125 -0.269531,-0.2578125 -0.117188,0 -0.28125,0.070312 -0.351563,0.2460938 -0.01172,0.035156 -0.105469,0.3984375 -0.152344,0.5976562 l -0.445312,1.7929688 c -0.08203,0.25781246 -0.08203,0.28124996 -0.09375,0.36328121 -0.01172,0.0351563 -0.386719,0.73828125 -1.03125,0.73828125 -0.5625,0 -0.5625,-0.5625 -0.5625,-0.7265625 0,-0.41015626 0.117187,-0.84374996 0.503906,-1.85156246 0.07031,-0.2109375 0.128906,-0.328125 0.128906,-0.5039063 0,-0.4335937 -0.328125,-0.75 -0.773437,-0.75 -0.855469,0 -1.21875,1.2773438 -1.21875,1.3828125 0,0.082031 0.07031,0.1054688 0.128906,0.1054688 0.09375,0 0.105469,-0.058594 0.140625,-0.1757813 0.1875,-0.65625 0.550781,-1.0898437 0.925781,-1.0898437 0.210938,0 0.210938,0.1757812 0.210938,0.2929687 0,0.1523438 -0.03516,0.3164063 -0.117188,0.5273438 -0.421875,1.1132812 -0.539062,1.4882812 -0.539062,1.92187496 0,0.9960937525 0.808594,1.08984375 1.148437,1.08984375 0.433594,0 0.75,-0.22265625 0.914063,-0.38671875 -0.117188,0.45703125 -0.222656,0.85546875 -0.574219,1.30078124 -0.269531,0.3632813 -0.621094,0.609375 -1.019531,0.609375 -0.246094,0 -0.539063,-0.09375 -0.667969,-0.3398437 0.46875,0 0.539063,-0.39843754 0.539063,-0.49218754 0,-0.19921875 -0.140625,-0.31640625 -0.339844,-0.31640625 -0.222656,0 -0.503906,0.1640625 -0.503906,0.58593749 0,0.4570313 0.410156,0.7851563 0.972656,0.7851563 0.914062,0 1.898437,-0.7851563 2.15625,-1.82812504 z m 0,0"
         style="fill:#000000;fill-opacity:1;fill-rule:nonzero;stroke:none" />
      <path
         id="path17"
         d="m 18.90918,-6.3875859 c 0,-0.1523438 0,-0.3398438 -0.1875,-0.3398438 -0.1875,0 -0.1875,0.1757813 -0.1875,0.3398438 v 8.296875 c 0,0.1523437 0,0.328125 0.1875,0.328125 0.1875,0 0.1875,-0.1640625 0.1875,-0.328125 z m 9.849609,0.9492187 c 0.08203,-0.035156 0.1875,-0.09375 0.1875,-0.2109375 0,-0.1171875 -0.09375,-0.1992187 -0.1875,-0.1992187 -0.02344,0 -0.07031,0 -0.175781,0.058594 l -5.074219,2.4375 c -0.128906,0.058594 -0.175781,0.1054688 -0.175781,0.2109375 0,0.1171875 0.09375,0.1757813 0.175781,0.2109375 l 5.0625,2.42578126 c 0.117188,0.0703125 0.152344,0.0703125 0.175781,0.0703125 0.140625,0 0.199219,-0.12890625 0.199219,-0.19921875 0,-0.10546875 -0.07031,-0.15234375 -0.164062,-0.1875 L 23.96582,-3.1532109 Z m -0.152344,6.8203125 c 0.152344,0 0.339844,0 0.339844,-0.1875 0,-0.19921874 -0.199219,-0.19921874 -0.339844,-0.19921874 h -4.945312 c -0.128906,0 -0.328125,0 -0.328125,0.19921874 0,0.1875 0.175781,0.1875 0.328125,0.1875 z m 0,0"
         style="fill:#000000;fill-opacity:1;fill-rule:nonzero;stroke:none" />
      <path
         id="path18"
         d="m 32.702148,1.1241328 c -0.05859,0.2578125 -0.08203,0.3398438 -0.46875,0.3398438 -0.09375,0 -0.199218,0 -0.199218,0.1523437 0,0.046875 0.01172,0.1171875 0.117187,0.1171875 l 0.386719,-0.011719 c 0.04687,-0.011719 0.257812,-0.011719 0.386719,-0.011719 0.152343,0 0.304687,0.011719 0.457031,0.011719 0.140625,0 0.292969,0.011719 0.421875,0.011719 0.05859,0 0.175781,0 0.175781,-0.1523437 0,-0.1171875 -0.09375,-0.1171875 -0.246094,-0.1171875 -0.421875,0 -0.421875,-0.070312 -0.421875,-0.1523438 0,-0.046875 0.07031,-0.2929687 0.105469,-0.43359374 l 0.328125,-1.3359375 c 0.09375,0.1875 0.339844,0.55078125 0.855469,0.55078125 1.042969,0 2.191406,-1.25390621 2.191406,-2.60156251 0,-0.9140625 -0.5625,-1.453125 -1.242187,-1.453125 -0.1875,0 -0.632813,0.046875 -1.183594,0.65625 -0.128906,-0.5039062 -0.539063,-0.65625 -0.84375,-0.65625 -0.375,0 -0.5625,0.28125 -0.691406,0.515625 -0.152344,0.3164063 -0.28125,0.8320313 -0.28125,0.8671875 0,0.082031 0.07031,0.1054688 0.128906,0.1054688 0.09375,0 0.117187,-0.046875 0.164062,-0.2226563 0.164063,-0.7148437 0.351563,-1.0429687 0.65625,-1.0429687 0.269532,0 0.269532,0.28125 0.269532,0.421875 0,0.070312 -0.01172,0.2109375 -0.02344,0.28125 z m 1.628907,-3.890625 c 0.03516,-0.1757812 0.03516,-0.1875 0.152343,-0.328125 0.246094,-0.3046875 0.65625,-0.6445312 1.054688,-0.6445312 0.421875,0 0.585937,0.421875 0.585937,0.84375 0,0.3984375 -0.246093,1.5117187 -0.527343,1.99218746 -0.304688,0.50390625 -0.679688,0.7734375 -1.007813,0.7734375 -0.585937,0 -0.726562,-0.703125 -0.726562,-0.76171875 0,-0.0585938 0.01172,-0.10546875 0.02344,-0.15234371 z m 0,0"
         style="fill:#000000;fill-opacity:1;fill-rule:nonzero;stroke:none" />
    </g>
    <path
       id="path19"
       d="m -22.87679,11.53801 c 0.89663,1.7933 2.98884,2.98883 5.97767,2.98883 h 102.4286 c 2.98883,0 5.08105,1.19551 5.97766,2.98883 0.89662,-1.79332 2.98883,-2.98883 5.97766,-2.98883 h 102.42862 c 2.98883,0 5.08106,-1.19553 5.97766,-2.98883"
       style="fill:none;stroke:#000000;stroke-width:0.3985;stroke-linecap:butt;stroke-linejoin:miter;stroke-miterlimit:10;stroke-dasharray:none;stroke-opacity:1"
       transform="matrix(1.3333333,0,0,-1.3333333,30.768,64.702667)" />
    <g
       id="g19"
       aria-label="|s|≥p"
       transform="matrix(1.3333333,0,0,1.3333333,135.22533,33.666667)">
      <path
         id="path20"
         d="m 1.4657656,-6.3857422 c 0,-0.1523437 0,-0.3398437 -0.1875,-0.3398437 -0.1875,0 -0.1875,0.1757812 -0.1875,0.3398437 v 8.296875 c 0,0.1523438 0,0.328125 0.1875,0.328125 0.1875,0 0.1875,-0.1640625 0.1875,-0.328125 z m 0,0"
         style="fill:#000000;fill-opacity:1;fill-rule:nonzero;stroke:none" />
      <path
         id="path21"
         d="m 6.1210391,-3.3505859 c -0.3867188,0.035156 -0.421875,0.3398437 -0.421875,0.3984375 0,0.1523437 0.1171875,0.2695312 0.28125,0.2695312 0.2578125,0 0.421875,-0.1992187 0.421875,-0.5039062 0,-0.4453125 -0.4335938,-0.7734375 -1.1015625,-0.7734375 -1.1953125,0 -1.5351563,0.890625 -1.5351563,1.3125 0,0.3398437 0.1640625,0.515625 0.28125,0.6210937 0.1757813,0.1757813 0.421875,0.2226563 0.7382813,0.2929688 0.4101562,0.070312 0.5039062,0.09375 0.65625,0.2109375 0.1523437,0.1054687 0.2226562,0.2460937 0.2226562,0.4335937 0,0.23437501 -0.2109375,0.96093751 -1.2890625,0.96093751 -0.2109375,0 -0.84375,-0.0234375 -1.03125,-0.43359375 0.4453125,0 0.5273438,-0.36328125 0.5273438,-0.49218746 0,-0.2578125 -0.234375,-0.3164063 -0.3398438,-0.3164063 -0.1523437,0 -0.4921875,0.1289063 -0.4921875,0.58593751 0,0.5625 0.5625,0.87890625 1.3242188,0.87890625 1.5,0 1.8398437,-1.10156246 1.8398437,-1.48828126 0,-0.3398437 -0.1875,-0.5507812 -0.3046875,-0.65625 -0.234375,-0.2460937 -0.515625,-0.2929687 -0.8320312,-0.3632812 -0.1054688,-0.023437 -0.3046875,-0.058594 -0.328125,-0.070312 -0.2929688,-0.058594 -0.4570313,-0.2460938 -0.4570313,-0.46875 0,-0.09375 0.058594,-0.3867188 0.3164063,-0.5742188 0.2460937,-0.1992187 0.5859375,-0.2109375 0.703125,-0.2109375 0.3164062,0 0.6796875,0.09375 0.8203125,0.3867183 z m 0,0"
         style="fill:#000000;fill-opacity:1;fill-rule:nonzero;stroke:none" />
      <path
         id="path22"
         d="m 8.3183047,-6.3857422 c 0,-0.1523437 0,-0.3398437 -0.1875,-0.3398437 -0.1875,0 -0.1875,0.1757812 -0.1875,0.3398437 v 8.296875 c 0,0.1523438 0,0.328125 0.1875,0.328125 0.1875,0 0.1875,-0.1640625 0.1875,-0.328125 z m 9.8496093,3.4570313 c 0.08203,-0.035156 0.1875,-0.09375 0.1875,-0.2109375 0,-0.1171875 -0.07031,-0.1523438 -0.164062,-0.1992188 l -5.074219,-2.4375 c -0.128906,-0.070312 -0.175781,-0.070312 -0.1875,-0.070312 -0.105469,0 -0.1875,0.082031 -0.1875,0.1992188 0,0.1171875 0.09375,0.1757812 0.175781,0.2109375 l 4.792969,2.2851562 -4.757813,2.29687501 c -0.140625,0.0703125 -0.210937,0.10546875 -0.210937,0.22265625 0,0.0820313 0.04687,0.19921875 0.199219,0.19921875 0,0 0.04687,0 0.152343,-0.0585938 z m -0.152344,4.3125 c 0.152344,0 0.339844,0 0.339844,-0.1875 0,-0.19921879 -0.199219,-0.19921879 -0.339844,-0.19921879 h -4.945312 c -0.128906,0 -0.328125,0 -0.328125,0.19921879 0,0.1875 0.175781,0.1875 0.328125,0.1875 z m 0,0"
         style="fill:#000000;fill-opacity:1;fill-rule:nonzero;stroke:none" />
      <path
         id="path23"
         d="m 22.111273,1.1259766 c -0.05859,0.2578125 -0.08203,0.3398437 -0.46875,0.3398437 -0.09375,0 -0.199218,0 -0.199218,0.1523438 0,0.046875 0.01172,0.1171875 0.117187,0.1171875 l 0.386719,-0.011719 c 0.04687,-0.011719 0.257812,-0.011719 0.386719,-0.011719 0.152343,0 0.304687,0.011719 0.457031,0.011719 0.140625,0 0.292969,0.011719 0.421875,0.011719 0.05859,0 0.175781,0 0.175781,-0.1523438 0,-0.1171875 -0.09375,-0.1171875 -0.246094,-0.1171875 -0.421875,0 -0.421875,-0.070312 -0.421875,-0.1523437 0,-0.046875 0.07031,-0.2929688 0.105469,-0.43359379 l 0.328125,-1.3359375 c 0.09375,0.1875 0.339844,0.55078125 0.855469,0.55078125 1.042969,0 2.191406,-1.25390626 2.191406,-2.60156246 0,-0.9140625 -0.5625,-1.453125 -1.242187,-1.453125 -0.1875,0 -0.632813,0.046875 -1.183594,0.65625 -0.128906,-0.5039063 -0.539063,-0.65625 -0.84375,-0.65625 -0.375,0 -0.5625,0.28125 -0.691406,0.515625 -0.152344,0.3164062 -0.28125,0.8320312 -0.28125,0.8671875 0,0.082031 0.07031,0.1054687 0.128906,0.1054687 0.09375,0 0.117187,-0.046875 0.164062,-0.2226562 0.164063,-0.7148438 0.351563,-1.0429688 0.65625,-1.0429688 0.269532,0 0.269532,0.28125 0.269532,0.421875 0,0.070312 -0.01172,0.2109375 -0.02344,0.28125 z m 1.628907,-3.890625 c 0.03516,-0.1757813 0.03516,-0.1875 0.152343,-0.328125 0.246094,-0.3046875 0.65625,-0.6445313 1.054688,-0.6445313 0.421875,0 0.585937,0.421875 0.585937,0.84375 0,0.3984375 -0.246093,1.5117188 -0.527343,1.99218751 -0.304688,0.50390625 -0.679688,0.7734375 -1.007813,0.7734375 -0.585937,0 -0.726562,-0.703125 -0.726562,-0.76171875 0,-0.0585938 0.01172,-0.10546875 0.02344,-0.15234376 z m 0,0"
         style="fill:#000000;fill-opacity:1;fill-rule:nonzero;stroke:none" />
    </g>
    <path
       id="path24"
       d="M 91.50714,-34.21553 V -54.3153"
       style="fill:none;stroke:#000000;stroke-width:0.79701;stroke-linecap:butt;stroke-linejoin:miter;stroke-miterlimit:10;stroke-dasharray:none;stroke-opacity:1"
       transform="matrix(1.3333333,0,0,-1.3333333,30.768,64.702667)" />
    <path
       id="path25"
       d="M 7.36906,0 1.28693,2.29385 3.2911,0 1.28693,-2.29385 Z"
       style="fill:#000000;fill-opacity:1;fill-rule:nonzero;stroke:#000000;stroke-width:0.79701;stroke-linecap:butt;stroke-linejoin:miter;stroke-miterlimit:10;stroke-dasharray:none;stroke-opacity:1"
       transform="matrix(0,1.3333333,1.3333333,0,152.77752,133.00057)" />
    <path
       id="path26"
       d="m 1.6169687,-3.0120781 c 0.3046875,-0.515625 0.8085938,-0.703125 1.1835938,-0.703125 0.6914062,0 1.2304687,0.8085937 1.2304687,1.78125 0,1.01953123 -0.609375,1.80468748 -1.3359375,1.80468748 -0.3984375,0 -0.7382812,-0.234375 -0.9609375,-0.5390625 -0.1171875,-0.1875 -0.1171875,-0.19921875 -0.1171875,-0.37499998 z m 0,2.57812498 c 0.234375,0.234375 0.5390625,0.52734375 1.1367188,0.52734375 1.0664062,0 2.0507812,-0.85546875 2.0507812,-2.02734373 0,-1.1367188 -0.8789062,-2.0273438 -1.9335937,-2.0273438 -0.4921875,0 -0.9375,0.1992188 -1.2773438,0.5625 v -0.5625 l -1.3242187,0.09375 v 0.28125 c 0.6328125,0 0.69140625,0.058594 0.69140625,0.4335938 v 4.2070312 c 0,0.4101563 -0.10546875,0.4101563 -0.69140625,0.4101563 v 0.2695312 c 0.421875,-0.011719 0.5859375,-0.023437 1.0195312,-0.023437 0.4335938,0 0.5507813,0.011719 1.0195313,0.023437 V 1.4644844 c -0.5859375,0 -0.6914063,0 -0.6914063,-0.4101563 z M 8.6716562,-1.5003594 c 0,0.79687503 -0.4453125,1.37109378 -1.0898437,1.37109378 -0.75,0 -0.796875,-0.38671875 -0.796875,-0.8671875 V -3.9612969 l -1.3476563,0.09375 v 0.28125 c 0.6914063,0 0.6914063,0.023437 0.6914063,0.8203125 v 1.3476563 c 0,0.58593748 0,0.96093748 0.4101562,1.27734373 0.2578125,0.17578125 0.6210938,0.234375 0.984375,0.234375 0.46875,0 0.9023438,-0.19921875 1.1601563,-0.73828125 H 8.695094 V 0.09339063 L 10.019312,-3.59375e-4 V -0.28160937 c -0.6093745,0 -0.679687,-0.0585938 -0.679687,-0.50390625 V -3.9612969 l -1.359375,0.09375 v 0.28125 c 0.609375,0 0.6914062,0.058594 0.6914062,0.5039063 z m 3.2314458,-0.8203125 c 0,-0.9726562 0.703125,-1.4179687 1.242187,-1.4179687 0.492188,0 0.65625,0.3515625 0.65625,0.9726562 v 2.07421878 c 0,0.41015625 -0.105469,0.41015625 -0.691406,0.41015625 v 0.281249995 c 0.421875,-0.023437495 0.585937,-0.023437495 1.019531,-0.023437495 0.433594,0 0.550781,0 1.019531,0.023437495 V -0.28160937 c -0.585937,0 -0.691406,0 -0.691406,-0.41015625 V -2.3206719 c 0,-0.9726562 0.703125,-1.4179687 1.242188,-1.4179687 0.492187,0 0.65625,0.3515625 0.65625,0.9726562 v 2.07421878 c 0,0.41015625 -0.105469,0.41015625 -0.691407,0.41015625 v 0.281249995 c 0.421875,-0.023437495 0.585938,-0.023437495 1.019532,-0.023437495 0.433593,0 0.550781,0 1.019531,0.023437495 V -0.28160937 c -0.457031,0 -0.679688,0 -0.691406,-0.26953125 V -2.2737969 c 0,-0.7851562 0,-1.03125 -0.292969,-1.3710937 -0.1875,-0.2109375 -0.550781,-0.3164063 -0.960938,-0.3164063 -0.644531,0 -1.078125,0.375 -1.335937,0.8554688 -0.105469,-0.5390625 -0.46875,-0.8554688 -1.21875,-0.8554688 -0.714844,0 -1.148438,0.46875 -1.347656,0.8789063 v -0.8789063 l -1.300782,0.09375 v 0.28125 c 0.609375,0 0.691407,0.058594 0.691407,0.5039063 v 2.39062498 c 0,0.41015625 -0.105469,0.41015625 -0.691407,0.41015625 v 0.281249995 c 0.421875,-0.023437495 0.585938,-0.023437495 1.019532,-0.023437495 0.433593,0 0.550781,0 1.019531,0.023437495 V -0.28160937 c -0.585938,0 -0.691406,0 -0.691406,-0.41015625 z m 7.634765,-0.6914062 c 0.304688,-0.515625 0.808594,-0.703125 1.183594,-0.703125 0.691406,0 1.230469,0.8085937 1.230469,1.78125 0,1.01953123 -0.609375,1.80468748 -1.335938,1.80468748 -0.398437,0 -0.738281,-0.234375 -0.960937,-0.5390625 -0.117188,-0.1875 -0.117188,-0.19921875 -0.117188,-0.37499998 z m 0,2.57812498 c 0.234375,0.234375 0.539063,0.52734375 1.136719,0.52734375 1.066406,0 2.050781,-0.85546875 2.050781,-2.02734373 0,-1.1367188 -0.878906,-2.0273438 -1.933594,-2.0273438 -0.492187,0 -0.9375,0.1992188 -1.277343,0.5625 v -0.5625 l -1.324219,0.09375 v 0.28125 c 0.632812,0 0.691406,0.058594 0.691406,0.4335938 v 4.2070312 c 0,0.4101563 -0.105469,0.4101563 -0.691406,0.4101563 v 0.2695312 c 0.421875,-0.011719 0.585937,-0.023437 1.019531,-0.023437 0.433594,0 0.550781,0.011719 1.019531,0.023437 V 1.4644844 c -0.585937,0 -0.691406,0 -0.691406,-0.4101563 z m 0,0"
       style="fill:#000000;fill-opacity:1;fill-rule:nonzero;stroke:none"
       aria-label="pump"
       transform="matrix(1.3333333,0,0,1.3333333,157.73467,128.74267)" />
    <g
       id="g26"
       aria-label="uv&#10;i&#10;xy&#10;i&#10;z∈Lforalli≥0"
       transform="matrix(1.3333333,0,0,1.3333333,86.952,178.288)">
      <path
         id="path27"
         d="m 4.3719375,-2.9171719 c 0.046875,-0.234375 0.1523438,-0.6445312 0.1523438,-0.6914062 0,-0.1054688 -0.082031,-0.2578125 -0.2695313,-0.2578125 -0.1289062,0 -0.2695312,0.082031 -0.328125,0.1875 -0.046875,0.09375 -0.65625,2.5195312 -0.703125,2.82421872 -0.1875,0.31640625 -0.5507812,0.7265625 -1.0429687,0.7265625 -0.5625,0 -0.5625,-0.5625 -0.5625,-0.7265625 0,-0.41015622 0.1171875,-0.84375002 0.5039062,-1.85156252 0.070312,-0.2109375 0.1289063,-0.328125 0.1289063,-0.5039062 0,-0.4335938 -0.328125,-0.75 -0.7734375,-0.75 -0.8554688,0 -1.21875005,1.2773437 -1.21875005,1.3828125 0,0.082031 0.0703125,0.1054687 0.12890625,0.1054687 0.09375,0 0.10546875,-0.058594 0.140625,-0.1757812 0.1875,-0.6445313 0.5390625,-1.0898438 0.9257813,-1.0898438 0.1875,0 0.2109375,0.1289063 0.2109375,0.2929688 0,0.1523437 -0.035156,0.3164062 -0.1171875,0.5273437 -0.421875,1.1132813 -0.5390625,1.4882813 -0.5390625,1.92187502 0,0.996093755 0.8085937,1.08984375 1.1484375,1.08984375 0.5039062,0 0.8789062,-0.3046875 1.0898437,-0.5859375 0.1640625,0.5859375 0.7617188,0.5859375 0.8203125,0.5859375 0.2578125,0 0.4804688,-0.1171875 0.6679688,-0.46875 0.1640625,-0.29296875 0.2929687,-0.86718747 0.2929687,-0.90234377 0,-0.046875 -0.023437,-0.1171875 -0.1171875,-0.1171875 -0.1054687,0 -0.1171875,0.046875 -0.1523437,0.2226563 -0.1757813,0.70312497 -0.3632813,1.04296872 -0.6679688,1.04296872 -0.2226562,0 -0.28125,-0.1875 -0.28125,-0.41015625 0,-0.1640625 0.046875,-0.3515625 0.1289063,-0.66796877 L 4.161,-2.1202969 Z m 5.2441406,-0.3867187 c 0,-0.6328125 -0.328125,-0.6679688 -0.4101562,-0.6679688 -0.2226563,0 -0.4570313,0.2460938 -0.4570313,0.4453125 0,0.140625 0.082031,0.2109375 0.140625,0.2695313 0.2460938,0.2226562 0.328125,0.5039062 0.328125,0.7382812 0,0.3984375 -0.5742187,2.39062502 -1.6054687,2.39062502 -0.6796875,0 -0.6796875,-0.62109375 -0.6796875,-0.78515625 0,-0.38671877 0.1289062,-0.84374997 0.4453125,-1.66406247 0.140625,-0.375 0.1757812,-0.4570313 0.1757812,-0.6328125 0,-0.4335938 -0.328125,-0.75 -0.7734375,-0.75 -0.8554687,0 -1.21875,1.2773437 -1.21875,1.3828125 0,0.082031 0.070312,0.1054687 0.1289063,0.1054687 0.09375,0 0.1054687,-0.058594 0.140625,-0.1757812 0.1875,-0.65625 0.5507812,-1.0898438 0.9257812,-1.0898438 0.1757813,0 0.2109375,0.1171875 0.2109375,0.2929688 0,0.1523437 -0.035156,0.3164062 -0.1171875,0.5273437 -0.3164062,0.8671875 -0.5390625,1.4414063 -0.5390625,1.8867188 0,0.84374997 0.6445313,1.12499997 1.265625,1.12499997 1.5,0 2.0390625,-2.82421877 2.0390625,-3.39843747 z m 0,0"
         style="fill:#000000;fill-opacity:1;fill-rule:nonzero;stroke:none" />
      <path
         id="path28"
         d="m 12.176625,-7.5343594 c 0,-0.140625 -0.105469,-0.2460937 -0.234375,-0.2460937 -0.164062,0 -0.339844,0.1640625 -0.339844,0.328125 0,0.1523437 0.105469,0.2460937 0.234375,0.2460937 0.199219,0 0.339844,-0.1757812 0.339844,-0.328125 z m -0.351562,2.0859375 c 0.02344,-0.058594 0.08203,-0.2109375 0.105468,-0.2578125 0.01172,-0.058594 0.03516,-0.1171875 0.03516,-0.2226562 0,-0.328125 -0.292969,-0.515625 -0.597657,-0.515625 -0.609375,0 -0.902343,0.7851562 -0.902343,0.9257812 0,0.023437 0.02344,0.082031 0.105468,0.082031 0.08203,0 0.105469,-0.035156 0.117188,-0.09375 0.175781,-0.5742188 0.492187,-0.7148438 0.65625,-0.7148438 0.117187,0 0.164062,0.082031 0.164062,0.2109375 0,0.1171875 -0.03516,0.2109375 -0.04687,0.2578125 l -0.316406,0.7617188 c -0.07031,0.1757812 -0.07031,0.1875 -0.152344,0.3867187 -0.07031,0.1757813 -0.105468,0.2578125 -0.105468,0.3632813 0,0.3046875 0.28125,0.515625 0.609375,0.515625 0.597656,0 0.902343,-0.7851563 0.902343,-0.9140625 0,-0.011719 -0.01172,-0.09375 -0.117187,-0.09375 -0.08203,0 -0.09375,0.035156 -0.128906,0.1523437 -0.09375,0.3046875 -0.339844,0.65625 -0.644532,0.65625 -0.105468,0 -0.152343,-0.070312 -0.152343,-0.2109375 0,-0.1171875 0.03516,-0.2109375 0.105468,-0.3984375 z m 0,0"
         style="fill:#000000;fill-opacity:1;fill-rule:nonzero;stroke:none" />
      <path
         id="path29"
         d="m 17.669789,-3.6202969 c -0.328125,0.058594 -0.421875,0.3515625 -0.421875,0.4804688 0,0.1757812 0.117188,0.328125 0.339844,0.328125 0.257812,0 0.503906,-0.2226563 0.503906,-0.5273438 0,-0.421875 -0.457031,-0.6210937 -0.878906,-0.6210937 -0.539063,0 -0.84375,0.46875 -0.949219,0.65625 -0.175781,-0.4335938 -0.574219,-0.65625 -0.996094,-0.65625 -0.960937,0 -1.488281,1.1484375 -1.488281,1.3828125 0,0.082031 0.07031,0.1054687 0.128906,0.1054687 0.08203,0 0.105469,-0.046875 0.128907,-0.1054687 0.28125,-0.8789063 0.867187,-1.1601563 1.207031,-1.1601563 0.257812,0 0.492187,0.1757813 0.492187,0.5859375 0,0.328125 -0.386718,1.7578125 -0.503906,2.19140627 -0.07031,0.28125 -0.339844,0.83203125 -0.832031,0.83203125 -0.175781,0 -0.363281,-0.0585938 -0.457031,-0.1171875 0.246093,-0.0351563 0.421875,-0.24609375 0.421875,-0.48046875 0,-0.22265625 -0.164063,-0.32812497 -0.339844,-0.32812497 -0.257813,0 -0.492188,0.23437497 -0.492188,0.53906247 0,0.43359375 0.480469,0.609375 0.855469,0.609375 0.527344,0 0.832031,-0.421875 0.960938,-0.66796875 0.222656,0.59765625 0.761718,0.66796875 0.996093,0.66796875 0.972657,0 1.476563,-1.16015627 1.476563,-1.37109377 0,-0.046875 -0.02344,-0.1171875 -0.117188,-0.1171875 -0.09375,0 -0.105468,0.035156 -0.152343,0.1757813 -0.1875,0.64453122 -0.714844,1.08984372 -1.183594,1.08984372 -0.257813,0 -0.492188,-0.15234375 -0.492188,-0.5859375 0,-0.19921875 0.117188,-0.69140622 0.199219,-1.03125002 0.03516,-0.1640625 0.28125,-1.1367187 0.292969,-1.1953125 0.117187,-0.3164062 0.386719,-0.796875 0.84375,-0.796875 0.152344,0 0.328125,0.023437 0.457031,0.1171875 z m 5.317383,0.1640625 c 0.01172,-0.035156 0.02344,-0.09375 0.02344,-0.1523437 0,-0.1054688 -0.08203,-0.2578125 -0.269531,-0.2578125 -0.117187,0 -0.28125,0.070312 -0.351562,0.2460937 -0.01172,0.035156 -0.105469,0.3984375 -0.152344,0.5976563 l -0.445313,1.7929687 c -0.08203,0.25781252 -0.08203,0.28125002 -0.09375,0.36328127 -0.01172,0.0351563 -0.386718,0.73828125 -1.03125,0.73828125 -0.5625,0 -0.5625,-0.5625 -0.5625,-0.7265625 0,-0.41015622 0.117188,-0.84375002 0.503907,-1.85156252 0.07031,-0.2109375 0.128906,-0.328125 0.128906,-0.5039062 0,-0.4335938 -0.328125,-0.75 -0.773438,-0.75 -0.855468,0 -1.21875,1.2773437 -1.21875,1.3828125 0,0.082031 0.07031,0.1054687 0.128907,0.1054687 0.09375,0 0.105468,-0.058594 0.140625,-0.1757812 0.1875,-0.65625 0.550781,-1.0898438 0.925781,-1.0898438 0.210937,0 0.210937,0.1757813 0.210937,0.2929688 0,0.1523437 -0.03516,0.3164062 -0.117187,0.5273437 -0.421875,1.1132813 -0.539063,1.4882813 -0.539063,1.92187502 0,0.996093755 0.808594,1.08984375 1.148438,1.08984375 0.433594,0 0.75,-0.22265625 0.914062,-0.38671875 -0.117187,0.45703125 -0.222656,0.85546875 -0.574218,1.30078128 -0.269532,0.3632812 -0.621094,0.609375 -1.019532,0.609375 -0.246093,0 -0.539062,-0.09375 -0.667968,-0.3398438 0.46875,0 0.539062,-0.39843748 0.539062,-0.49218748 0,-0.19921875 -0.140625,-0.31640625 -0.339844,-0.31640625 -0.222656,0 -0.503906,0.1640625 -0.503906,0.58593753 0,0.4570312 0.410156,0.7851562 0.972656,0.7851562 0.914063,0 1.898438,-0.7851562 2.15625,-1.82812498 z m 0,0"
         style="fill:#000000;fill-opacity:1;fill-rule:nonzero;stroke:none" />
      <path
         id="path30"
         d="m 25.421742,-7.5343594 c 0,-0.140625 -0.105469,-0.2460937 -0.234375,-0.2460937 -0.164062,0 -0.339844,0.1640625 -0.339844,0.328125 0,0.1523437 0.105469,0.2460937 0.234375,0.2460937 0.199219,0 0.339844,-0.1757812 0.339844,-0.328125 z m -0.351562,2.0859375 c 0.02344,-0.058594 0.08203,-0.2109375 0.105468,-0.2578125 0.01172,-0.058594 0.03516,-0.1171875 0.03516,-0.2226562 0,-0.328125 -0.292969,-0.515625 -0.597657,-0.515625 -0.609375,0 -0.902343,0.7851562 -0.902343,0.9257812 0,0.023437 0.02344,0.082031 0.105468,0.082031 0.08203,0 0.105469,-0.035156 0.117188,-0.09375 0.175781,-0.5742188 0.492187,-0.7148438 0.65625,-0.7148438 0.117187,0 0.164062,0.082031 0.164062,0.2109375 0,0.1171875 -0.03516,0.2109375 -0.04687,0.2578125 L 24.3905,-5.0148284 c -0.07031,0.1757812 -0.07031,0.1875 -0.152344,0.3867187 -0.07031,0.1757813 -0.105468,0.2578125 -0.105468,0.3632813 0,0.3046875 0.28125,0.515625 0.609375,0.515625 0.597656,0 0.902343,-0.7851563 0.902343,-0.9140625 0,-0.011719 -0.01172,-0.09375 -0.117187,-0.09375 -0.08203,0 -0.09375,0.035156 -0.128906,0.1523437 -0.09375,0.3046875 -0.339844,0.65625 -0.644532,0.65625 -0.105468,0 -0.152343,-0.070312 -0.152343,-0.2109375 0,-0.1171875 0.03516,-0.2109375 0.105468,-0.3984375 z m 0,0"
         style="fill:#000000;fill-opacity:1;fill-rule:nonzero;stroke:none" />
      <path
         id="path31"
         d="m 27.750844,-0.76092188 c 0.1875,-0.22265625 0.679687,-0.66796872 1.066406,-0.99609372 0.667969,-0.5625 0.878906,-0.7617188 0.996094,-0.890625 0.726562,-0.703125 0.972656,-1.1601563 0.972656,-1.21875 0,0 0,-0.09375 -0.117187,-0.09375 -0.08203,0 -0.09375,0.023437 -0.140625,0.09375 -0.117188,0.1875 -0.363282,0.5625 -0.667969,0.5625 -0.175781,0 -0.292969,-0.09375 -0.503906,-0.328125 -0.210938,-0.234375 -0.386719,-0.328125 -0.621094,-0.328125 -0.679688,0 -1.101563,0.8203125 -1.101563,1.0429687 0,0.035156 0.01172,0.1054688 0.117188,0.1054688 0.08203,0 0.117187,-0.058594 0.117187,-0.082031 0.175782,-0.4335937 0.703125,-0.4335937 0.773438,-0.4335937 0.210937,0 0.421875,0.070312 0.621094,0.140625 0.351562,0.1171875 0.503906,0.1171875 0.644531,0.1171875 -0.28125,0.3046875 -0.785156,0.7382812 -1.347656,1.21875 -0.445313,0.3867187 -0.726563,0.65625 -0.925782,0.85546872 -0.328125,0.3515625 -0.726562,0.90234375 -0.726562,0.996093755 0,0.058593745 0.03516,0.093749995 0.117187,0.093749995 0.07031,0 0.09375,-0.03515625 0.140625,-0.08203125 0.351563,-0.5390625 0.679688,-0.57421875 0.773438,-0.57421875 0.234375,0 0.351562,0.12890625 0.550781,0.36328125 0.210938,0.22265625 0.398438,0.29296875 0.585938,0.29296875 0.925781,0 1.453125,-1.14843747 1.453125,-1.38281247 0,-0.082031 -0.05859,-0.1054688 -0.117188,-0.1054688 -0.09375,0 -0.105469,0.058594 -0.128906,0.09375 -0.246094,0.66796877 -0.878906,0.76171877 -1.113281,0.76171877 -0.164063,0 -0.351563,-0.046875 -0.621094,-0.12890625 -0.175781,-0.0585938 -0.386719,-0.1171875 -0.574219,-0.1171875 -0.09375,0 -0.1875,0.0117188 -0.222656,0.0234372 z m 0,0"
         style="fill:#000000;fill-opacity:1;fill-rule:nonzero;stroke:none" />
      <path
         id="path32"
         d="m 38.772328,-2.0499844 c 0.152344,0 0.328125,0 0.328125,-0.1875 0,-0.1992187 -0.164062,-0.1992187 -0.328125,-0.1992187 h -3.867187 c 0.09375,-1.1132813 1.066406,-2.1210938 2.449218,-2.1210938 h 1.417969 c 0.152344,0 0.328125,0 0.328125,-0.1875 0,-0.1992187 -0.164062,-0.1992187 -0.328125,-0.1992187 h -1.441406 c -1.582031,0 -2.8125,1.2304687 -2.8125,2.6953125 0,1.49999997 1.253906,2.70703122 2.8125,2.70703122 h 1.441406 c 0.152344,0 0.328125,0 0.328125,-0.1875 0,-0.19921875 -0.164062,-0.19921875 -0.328125,-0.19921875 h -1.417969 c -1.394531,0 -2.355468,-1.0078125 -2.449218,-2.12109377 z m 0,0"
         style="fill:#000000;fill-opacity:1;fill-rule:nonzero;stroke:none" />
      <path
         id="path33"
         d="m 45.853383,-5.4132656 c 0.08203,-0.3398438 0.117187,-0.4335938 0.949219,-0.4335938 0.246093,0 0.328125,0 0.328125,-0.1640625 0,-0.1054687 -0.117188,-0.1054687 -0.140625,-0.1054687 -0.210938,0 -0.445313,0.011719 -0.65625,0.011719 -0.210938,0 -0.433594,0.011719 -0.644532,0.011719 -0.210937,0 -0.421875,0 -0.621093,-0.011719 -0.164063,-0.011719 -0.433594,-0.011719 -0.585938,-0.011719 -0.05859,0 -0.1875,0 -0.1875,0.1523437 0,0.1171875 0.08203,0.1171875 0.269531,0.1171875 0.03516,0 0.199219,0 0.339844,0.023437 0.152344,0.011719 0.222656,0.035156 0.222656,0.1289063 0,0.046875 -0.01172,0.082031 -0.03516,0.1875 l -1.21875,4.82812497 c -0.07031,0.31640625 -0.09375,0.3984375 -0.761719,0.3984375 -0.175781,0 -0.269531,0 -0.269531,0.1640625 0,0.117187505 0.08203,0.117187505 0.246094,0.117187505 h 4.230469 c 0.222656,0 0.222656,-0.011718755 0.292968,-0.199218755 0.09375,-0.22265625 0.738282,-1.92187502 0.738282,-1.99218752 0,-0.082031 -0.05859,-0.1171875 -0.128907,-0.1171875 -0.08203,0 -0.09375,0.035156 -0.164062,0.2109375 -0.304688,0.796875 -0.703125,1.81640627 -2.273438,1.81640627 H 44.90416 c -0.128906,0 -0.152344,0 -0.1875,0 -0.08203,-0.0117188 -0.117187,-0.0234375 -0.117187,-0.0820313 0,-0.0351563 0,-0.046875 0.04687,-0.2109375 z m 0,0"
         style="fill:#000000;fill-opacity:1;fill-rule:nonzero;stroke:none" />
      <path
         id="path34"
         d="m 54.475453,-3.5851406 v -0.28125 h -1.066406 v -1.0078125 c 0,-0.8203125 0.445312,-1.21875 0.832031,-1.21875 0.08203,0 0.175781,0.011719 0.269531,0.046875 -0.09375,0.035156 -0.234375,0.1523437 -0.234375,0.375 0,0.234375 0.164063,0.3867187 0.398438,0.3867187 0.234375,0 0.398437,-0.1640625 0.398437,-0.3984375 0,-0.3398437 -0.339843,-0.6328125 -0.832031,-0.6328125 -0.703125,0 -1.441406,0.5273438 -1.441406,1.4179688 v 1.03125 h -0.703125 v 0.28125 h 0.703125 v 2.89453122 c 0,0.41015625 -0.09375,0.41015625 -0.679688,0.41015625 V 7.96875e-4 c 0.46875,-0.023437505 0.585938,-0.023437505 1.042969,-0.023437505 0.363281,0 0.574219,0 1.136719,0.023437505 V -0.28045313 h -0.175781 c -0.65625,0 -0.679688,-0.09375 -0.679688,-0.421875 V -3.5851406 Z m 4.467774,1.6757812 c 0,-1.171875 -0.925782,-2.109375 -2.027344,-2.109375 -1.148438,0 -2.050781,0.9609375 -2.050781,2.109375 0,1.12500002 0.9375,2.00390627 2.039062,2.00390627 1.136719,0 2.039063,-0.90234375 2.039063,-2.00390627 z m -2.027344,1.75781252 c -0.457031,0 -0.832031,-0.22265625 -1.03125,-0.57421875 -0.234375,-0.37499997 -0.246094,-0.85546877 -0.246094,-1.26562497 0,-0.328125 0,-0.84375 0.222656,-1.2070313 0.269532,-0.4570312 0.714844,-0.5976562 1.042969,-0.5976562 0.503906,0 0.878906,0.2929687 1.054688,0.5976562 0.210937,0.375 0.210937,0.8320313 0.210937,1.2070313 0,0.328125 0,0.8554687 -0.222656,1.25390622 -0.246094,0.41015625 -0.65625,0.5859375 -1.03125,0.5859375 z m 3.890625,-1.89843752 c 0,-0.375 0.105469,-1.6875 1.125,-1.6875 v 0.011719 c -0.02344,0.011719 -0.164063,0.1171875 -0.164063,0.328125 0,0.2460937 0.1875,0.3984375 0.398438,0.3984375 0.1875,0 0.386719,-0.140625 0.386719,-0.4101563 0,-0.28125 -0.269532,-0.5507812 -0.667969,-0.5507812 -0.539063,0 -0.914063,0.375 -1.125,0.9257812 v -0.9257812 l -1.277344,0.09375 v 0.28125 c 0.609375,0 0.691406,0.058594 0.691406,0.5039062 v 2.39062502 c 0,0.41015625 -0.105468,0.41015625 -0.691406,0.41015625 V 7.96875e-4 c 0.46875,-0.023437505 0.585938,-0.023437505 1.042969,-0.023437505 0.363281,0 0.574219,0 1.148437,0.023437505 V -0.28045313 h -0.1875 c -0.65625,0 -0.679687,-0.09375 -0.679687,-0.421875 z m 8.147461,1.40625002 c 0.03516,0.375 0.304687,0.703125 0.691406,0.703125 0.222656,0 0.785156,-0.140625 0.785156,-0.85546875 V -1.2999844 h -0.257812 v 0.49218752 c 0,0.10546875 0,0.55078125 -0.316406,0.55078125 -0.328125,0 -0.328125,-0.43359375 -0.328125,-0.57421875 V -2.4015469 c 0,-0.515625 0,-0.8203125 -0.398438,-1.1835937 -0.328125,-0.2929688 -0.761719,-0.4335938 -1.207031,-0.4335938 -0.761719,0 -1.382813,0.375 -1.382813,0.9492188 0,0.28125 0.1875,0.4335937 0.421875,0.4335937 0.234375,0 0.410157,-0.1757812 0.410157,-0.4101562 0,-0.3867188 -0.398438,-0.4335938 -0.398438,-0.4335938 0.234375,-0.234375 0.667969,-0.3164062 0.925781,-0.3164062 0.457032,0 0.972657,0.3398437 0.972657,1.1367187 v 0.2929688 c -0.492188,0.023437 -1.160157,0.058594 -1.757813,0.3515625 -0.644531,0.3164062 -0.84375,0.7734375 -0.84375,1.13671872 0,0.73828125 0.867188,0.97265625 1.464844,0.97265625 0.75,0 1.089844,-0.4921875 1.21875,-0.73828125 z m -0.08203,-0.62109372 c 0,0.86718747 -0.679688,1.13671872 -1.066407,1.13671872 -0.421875,0 -0.820312,-0.3046875 -0.820312,-0.75 0,-0.58593752 0.515625,-1.21875002 1.886719,-1.27734372 z m 3.27246,-4.9570313 -1.324218,0.1054688 v 0.2695312 c 0.609375,0 0.679687,0.070312 0.679687,0.5039063 v 4.65234372 c 0,0.41015625 -0.09375,0.41015625 -0.679687,0.41015625 V 7.96875e-4 c 0.410156,-0.023437505 0.585937,-0.023437505 0.996093,-0.023437505 0.421875,0 0.574219,0 1.019532,0.023437505 V -0.28045313 c -0.597657,0 -0.691407,0 -0.691407,-0.41015625 z m 2.560547,0 -1.324218,0.1054688 v 0.2695312 c 0.609375,0 0.679687,0.070312 0.679687,0.5039063 v 4.65234372 c 0,0.41015625 -0.09375,0.41015625 -0.679687,0.41015625 V 7.96875e-4 c 0.410156,-0.023437505 0.585937,-0.023437505 0.996093,-0.023437505 0.421875,0 0.574219,0 1.019532,0.023437505 V -0.28045313 c -0.597657,0 -0.691407,0 -0.691407,-0.41015625 z m 0,0"
         style="fill:#000000;fill-opacity:1;fill-rule:nonzero;stroke:none" />
      <path
         id="path35"
         d="m 81.290883,-5.5890469 c 0,-0.1992187 -0.140625,-0.3398437 -0.339844,-0.3398437 -0.246094,0 -0.492187,0.234375 -0.492187,0.4804687 0,0.1757813 0.140625,0.328125 0.351562,0.328125 0.234375,0 0.480469,-0.2226562 0.480469,-0.46875 z m 0.128906,4.3125 c 0,-0.046875 -0.03516,-0.1171875 -0.117187,-0.1171875 -0.105469,0 -0.117188,0.046875 -0.152344,0.1640625 -0.210938,0.73828127 -0.574219,1.10156252 -0.914063,1.10156252 -0.152343,0 -0.222656,-0.0703125 -0.222656,-0.29296875 0,-0.2109375 0.07031,-0.41015625 0.140625,-0.58593747 0.164063,-0.421875 0.164063,-0.4453125 0.28125,-0.7265625 0.140625,-0.3867188 0.339844,-0.890625 0.433594,-1.1484375 0.05859,-0.1523438 0.05859,-0.2460938 0.05859,-0.328125 0,-0.5039063 -0.398438,-0.75 -0.761719,-0.75 -0.867188,0 -1.21875,1.2773437 -1.21875,1.3828125 0,0.082031 0.07031,0.1054687 0.128906,0.1054687 0.09375,0 0.105469,-0.058594 0.140625,-0.1757812 0.1875,-0.6328125 0.527344,-1.0898438 0.925781,-1.0898438 0.09375,0 0.210938,0.023437 0.210938,0.28125 0,0.234375 -0.08203,0.4570313 -0.164063,0.6679688 l -0.644531,1.6640625 c -0.05859,0.16406247 -0.117187,0.30468747 -0.117187,0.46874997 0,0.421875 0.316406,0.75 0.773437,0.75 0.867188,0 1.21875,-1.28906247 1.21875,-1.37109377 z m 0,0"
         style="fill:#000000;fill-opacity:1;fill-rule:nonzero;stroke:none" />
      <path
         id="path36"
         d="m 90.59557,-2.9288906 c 0.08203,-0.035156 0.1875,-0.09375 0.1875,-0.2109375 0,-0.1171875 -0.07031,-0.1523438 -0.164062,-0.1992188 l -5.074219,-2.4375 c -0.128906,-0.070312 -0.175781,-0.070312 -0.1875,-0.070312 -0.105469,0 -0.1875,0.082031 -0.1875,0.1992188 0,0.1171875 0.09375,0.1757812 0.175781,0.2109375 l 4.792969,2.2851562 -4.757812,2.29687502 c -0.140625,0.0703125 -0.210938,0.10546875 -0.210938,0.22265625 0,0.0820313 0.04687,0.19921875 0.199219,0.19921875 0,0 0.04687,0 0.152344,-0.0585938 z m -0.152343,4.3125 c 0.152343,0 0.339843,0 0.339843,-0.1875 0,-0.19921878 -0.199218,-0.19921878 -0.339843,-0.19921878 h -4.945313 c -0.128906,0 -0.328125,0 -0.328125,0.19921878 0,0.1875 0.175781,0.1875 0.328125,0.1875 z m 0,0"
         style="fill:#000000;fill-opacity:1;fill-rule:nonzero;stroke:none" />
      <path
         id="path37"
         d="m 98.370961,-2.8702969 c 0,-0.5976562 -0.02344,-1.3710937 -0.339844,-2.0390625 -0.398437,-0.84375 -1.078125,-1.0546875 -1.59375,-1.0546875 -0.539062,0 -1.21875,0.2109375 -1.617187,1.0664063 -0.292969,0.6210937 -0.328125,1.3476562 -0.328125,2.0273437 0,0.5859375 0.01172,1.453125 0.398437,2.16796877 0.421875,0.76171875 1.125,0.90234375 1.535156,0.90234375 0.585938,0 1.242188,-0.2578125 1.617188,-1.078125 0.269531,-0.59765622 0.328125,-1.27734372 0.328125,-1.99218752 z m -1.933594,2.84765627 c -0.269531,0 -0.914062,-0.12890625 -1.089844,-1.13671877 -0.09375,-0.5390625 -0.09375,-1.3007812 -0.09375,-1.8164062 0,-0.609375 0,-1.3125 0.117188,-1.8164063 0.175781,-0.796875 0.75,-0.9492187 1.054687,-0.9492187 0.339844,0 0.902344,0.1757812 1.078125,1.0078125 0.09375,0.4921875 0.09375,1.1953125 0.09375,1.7578125 0,0.5507812 0,1.3125 -0.09375,1.8398437 -0.1875,1.01953127 -0.84375,1.11328127 -1.066406,1.11328127 z m 0,0"
         style="fill:#000000;fill-opacity:1;fill-rule:nonzero;stroke:none" />
    </g>
    <path
       id="path38"
       d="m 27.08116,-147.34634 h 45.35507 v 22.67752 H 27.08116 Z"
       style="fill:none;stroke:#000000;stroke-width:0.3985;stroke-linecap:butt;stroke-linejoin:miter;stroke-miterlimit:10;stroke-dasharray:none;stroke-opacity:1"
       transform="matrix(1.3333333,0,0,-1.3333333,30.768,64.702667)" />
    <path
       id="path39"
       d="m 4.3697578,-2.9180781 c 0.046875,-0.234375 0.1523438,-0.6445313 0.1523438,-0.6914063 0,-0.1054687 -0.082031,-0.2578125 -0.2695313,-0.2578125 -0.1289062,0 -0.2695312,0.082031 -0.328125,0.1875 -0.046875,0.09375 -0.65625,2.5195313 -0.703125,2.82421877 -0.1875,0.31640625 -0.5507812,0.7265625 -1.0429687,0.7265625 -0.5625,0 -0.5625,-0.5625 -0.5625,-0.7265625 0,-0.41015627 0.1171875,-0.84374997 0.5039062,-1.85156247 0.070312,-0.2109375 0.1289063,-0.328125 0.1289063,-0.5039063 0,-0.4335937 -0.328125,-0.75 -0.7734375,-0.75 -0.85546879,0 -1.21875004,1.2773438 -1.21875004,1.3828125 0,0.082031 0.0703125,0.1054688 0.12890625,0.1054688 0.09375,0 0.10546875,-0.058594 0.140625,-0.1757813 0.1875,-0.6445312 0.53906249,-1.0898437 0.92578129,-1.0898437 0.1875,0 0.2109375,0.1289062 0.2109375,0.2929687 0,0.1523438 -0.035156,0.3164063 -0.1171875,0.5273438 -0.421875,1.1132812 -0.5390625,1.4882812 -0.5390625,1.92187497 0,0.996093755 0.8085937,1.08984375 1.1484375,1.08984375 0.5039062,0 0.8789062,-0.3046875 1.0898437,-0.5859375 0.1640625,0.5859375 0.7617188,0.5859375 0.8203125,0.5859375 0.2578125,0 0.4804688,-0.1171875 0.6679688,-0.46875 0.1640625,-0.29296875 0.2929687,-0.86718752 0.2929687,-0.90234372 0,-0.046875 -0.023437,-0.1171875 -0.1171875,-0.1171875 -0.1054687,0 -0.1171875,0.046875 -0.1523437,0.2226562 -0.1757813,0.70312502 -0.3632813,1.04296877 -0.6679688,1.04296877 -0.2226562,0 -0.28125,-0.1875 -0.28125,-0.41015625 0,-0.1640625 0.046875,-0.3515625 0.1289063,-0.66796872 l 0.2226562,-0.9140625 z m 0,0"
       style="fill:#000000;fill-opacity:1;fill-rule:nonzero;stroke:none"
       aria-label="u"
       transform="matrix(1.3333333,0,0,1.3333333,93.576,248.61733)" />
    <path
       id="path40"
       d="m 72.83473,-147.34634 h 45.35507 v 22.67752 H 72.83473 Z"
       style="fill:none;stroke:#000000;stroke-width:0.3985;stroke-linecap:butt;stroke-linejoin:miter;stroke-miterlimit:10;stroke-dasharray:none;stroke-opacity:1"
       transform="matrix(1.3333333,0,0,-1.3333333,30.768,64.702667)" />
    <g
       id="g40"
       aria-label="v&#10;i"
       transform="matrix(1.3333333,0,0,1.3333333,152.80933,251.224)">
      <path
         id="path41"
         d="m 4.3119453,-3.3056953 c 0,-0.6328125 -0.328125,-0.6679688 -0.4101562,-0.6679688 -0.2226563,0 -0.4570313,0.2460938 -0.4570313,0.4453125 0,0.140625 0.082031,0.2109375 0.140625,0.2695313 0.2460938,0.2226562 0.328125,0.5039062 0.328125,0.7382812 0,0.3984375 -0.5742187,2.39062504 -1.6054687,2.39062504 -0.6796875,0 -0.6796875,-0.62109375 -0.6796875,-0.78515625 0,-0.38671879 0.1289062,-0.84374999 0.4453125,-1.66406249 0.140625,-0.375 0.1757812,-0.4570313 0.1757812,-0.6328125 0,-0.4335938 -0.328125,-0.75 -0.7734375,-0.75 -0.85546874,0 -1.21874999,1.2773437 -1.21874999,1.3828125 0,0.082031 0.0703125,0.1054687 0.12890625,0.1054687 0.09375,0 0.10546875,-0.058594 0.140625,-0.1757812 0.1875,-0.65625 0.55078124,-1.0898438 0.92578124,-1.0898438 0.1757813,0 0.2109375,0.1171875 0.2109375,0.2929688 0,0.1523437 -0.035156,0.3164062 -0.1171875,0.5273437 -0.3164062,0.8671875 -0.5390625,1.4414063 -0.5390625,1.8867188 0,0.84374999 0.6445313,1.12499999 1.265625,1.12499999 1.5,0 2.0390625,-2.82421879 2.0390625,-3.39843749 z m 0,0"
         style="fill:#000000;fill-opacity:1;fill-rule:nonzero;stroke:none" />
      <path
         id="path42"
         d="m 6.8724922,-7.5361641 c 0,-0.140625 -0.1054688,-0.2460937 -0.234375,-0.2460937 -0.1640625,0 -0.3398438,0.1640625 -0.3398438,0.328125 0,0.1523437 0.1054688,0.2460937 0.234375,0.2460937 0.1992188,0 0.3398438,-0.1757812 0.3398438,-0.328125 z m -0.3515625,2.0859375 c 0.023437,-0.058594 0.082031,-0.2109375 0.1054687,-0.2578125 0.011719,-0.058594 0.035156,-0.1171875 0.035156,-0.2226562 0,-0.328125 -0.2929688,-0.515625 -0.5976563,-0.515625 -0.609375,0 -0.9023437,0.7851562 -0.9023437,0.9257812 0,0.023437 0.023437,0.082031 0.1054687,0.082031 0.082031,0 0.1054688,-0.035156 0.1171875,-0.09375 0.1757813,-0.5742188 0.4921875,-0.7148438 0.65625,-0.7148438 0.1171875,0 0.1640625,0.082031 0.1640625,0.2109375 0,0.1171875 -0.035156,0.2109375 -0.046875,0.2578125 l -0.3164062,0.7617188 c -0.070312,0.1757812 -0.070312,0.1875 -0.1523438,0.3867187 -0.070312,0.1757813 -0.1054687,0.2578125 -0.1054687,0.3632813 0,0.3046875 0.28125,0.515625 0.609375,0.515625 0.5976562,0 0.9023437,-0.7851563 0.9023437,-0.9140625 0,-0.011719 -0.011719,-0.09375 -0.1171875,-0.09375 -0.082031,0 -0.09375,0.035156 -0.1289062,0.1523437 -0.09375,0.3046875 -0.3398438,0.65625 -0.6445313,0.65625 -0.1054687,0 -0.1523437,-0.070312 -0.1523437,-0.2109375 0,-0.1171875 0.035156,-0.2109375 0.1054687,-0.3984375 z m 0,0"
         style="fill:#000000;fill-opacity:1;fill-rule:nonzero;stroke:none" />
    </g>
    <path
       id="path43"
       d="m 118.58832,-147.34634 h 45.35507 v 22.67752 h -45.35507 z"
       style="fill:none;stroke:#000000;stroke-width:0.3985;stroke-linecap:butt;stroke-linejoin:miter;stroke-miterlimit:10;stroke-dasharray:none;stroke-opacity:1"
       transform="matrix(1.3333333,0,0,-1.3333333,30.768,64.702667)" />
    <path
       id="path44"
       d="m 4.4057891,-3.6212031 c -0.328125,0.058594 -0.421875,0.3515625 -0.421875,0.4804687 0,0.1757813 0.1171875,0.328125 0.3398437,0.328125 0.2578125,0 0.5039063,-0.2226562 0.5039063,-0.5273437 0,-0.421875 -0.4570313,-0.6210938 -0.8789063,-0.6210938 -0.5390625,0 -0.84375,0.46875 -0.9492187,0.65625 -0.1757813,-0.4335937 -0.5742188,-0.65625 -0.9960938,-0.65625 -0.9609375,0 -1.48828124,1.1484375 -1.48828124,1.3828125 0,0.082031 0.0703125,0.1054688 0.12890625,0.1054688 0.0820313,0 0.10546875,-0.046875 0.12890625,-0.1054688 0.28125004,-0.8789062 0.86718754,-1.1601562 1.20703124,-1.1601562 0.2578125,0 0.4921875,0.1757812 0.4921875,0.5859375 0,0.328125 -0.3867187,1.7578125 -0.5039062,2.19140622 -0.070312,0.28125 -0.3398438,0.83203125 -0.8320313,0.83203125 -0.17578124,0 -0.36328124,-0.0585938 -0.45703124,-0.1171875 0.24609375,-0.0351563 0.42187504,-0.24609375 0.42187504,-0.48046875 0,-0.22265625 -0.16406254,-0.32812502 -0.33984379,-0.32812502 -0.2578125,0 -0.4921875,0.23437502 -0.4921875,0.53906252 0,0.43359375 0.48046875,0.609375 0.85546879,0.609375 0.5273437,0 0.8320312,-0.421875 0.9609375,-0.66796875 0.2226562,0.59765625 0.7617187,0.66796875 0.9960937,0.66796875 0.9726563,0 1.4765625,-1.16015622 1.4765625,-1.37109372 0,-0.046875 -0.023437,-0.1171875 -0.1171875,-0.1171875 -0.09375,0 -0.1054687,0.035156 -0.1523437,0.1757812 -0.1875,0.64453127 -0.7148438,1.08984377 -1.1835938,1.08984377 -0.2578125,0 -0.4921875,-0.15234375 -0.4921875,-0.5859375 0,-0.19921875 0.1171875,-0.69140627 0.1992188,-1.03124997 0.035156,-0.1640625 0.28125,-1.1367188 0.2929687,-1.1953125 0.1171875,-0.3164063 0.3867188,-0.796875 0.84375,-0.796875 0.1523438,0 0.328125,0.023437 0.4570313,0.1171875 z m 0,0"
       style="fill:#000000;fill-opacity:1;fill-rule:nonzero;stroke:none"
       aria-label="x"
       transform="matrix(1.3333333,0,0,1.3333333,215.63733,248.61733)" />
    <path
       id="path45"
       d="m 164.34189,-147.34634 h 45.35507 v 22.67752 h -45.35507 z"
       style="fill:none;stroke:#000000;stroke-width:0.3985;stroke-linecap:butt;stroke-linejoin:miter;stroke-miterlimit:10;stroke-dasharray:none;stroke-opacity:1"
       transform="matrix(1.3333333,0,0,-1.3333333,30.768,64.702667)" />
    <g
       id="g45"
       aria-label="y&#10;i"
       transform="matrix(1.3333333,0,0,1.3333333,274.776,250.06133)">
      <path
         id="path46"
         d="m 4.5010078,-3.4561562 c 0.011719,-0.035156 0.023437,-0.09375 0.023437,-0.1523438 0,-0.1054687 -0.082031,-0.2578125 -0.2695312,-0.2578125 -0.1171875,0 -0.28125,0.070312 -0.3515625,0.2460938 -0.011719,0.035156 -0.1054688,0.3984375 -0.1523438,0.5976562 l -0.4453125,1.7929688 c -0.082031,0.25781245 -0.082031,0.28124995 -0.09375,0.3632812 -0.011719,0.0351563 -0.3867187,0.73828125 -1.03125,0.73828125 -0.5625,0 -0.5625,-0.5625 -0.5625,-0.7265625 0,-0.41015625 0.1171875,-0.84374995 0.5039063,-1.85156245 0.070312,-0.2109375 0.1289062,-0.328125 0.1289062,-0.5039063 0,-0.4335937 -0.328125,-0.75 -0.7734375,-0.75 -0.85546874,0 -1.21874999,1.2773438 -1.21874999,1.3828125 0,0.082031 0.0703125,0.1054688 0.12890625,0.1054688 0.09375,0 0.10546875,-0.058594 0.140625,-0.1757813 0.1875,-0.65625 0.55078124,-1.0898437 0.92578124,-1.0898437 0.2109375,0 0.2109375,0.1757812 0.2109375,0.2929687 0,0.1523438 -0.035156,0.3164063 -0.1171875,0.5273438 -0.421875,1.1132812 -0.5390625,1.4882812 -0.5390625,1.92187495 0,0.99609375 0.8085938,1.08984375 1.1484375,1.08984375 0.4335938,0 0.75,-0.22265625 0.9140625,-0.38671875 C 2.9541328,0.1649375 2.8486641,0.563375 2.4971016,1.0086875 2.2275703,1.3719688 1.8760078,1.6180625 1.4775703,1.6180625 c -0.2460937,0 -0.53906249,-0.09375 -0.66796874,-0.3398437 0.46875004,0 0.53906254,-0.39843755 0.53906254,-0.49218755 0,-0.19921875 -0.140625,-0.31640625 -0.3398438,-0.31640625 -0.22265624,0 -0.50390624,0.1640625 -0.50390624,0.5859375 0,0.4570313 0.41015625,0.7851563 0.97265624,0.7851563 0.9140625,0 1.8984375,-0.7851563 2.15625,-1.82812505 z m 0,0"
         style="fill:#000000;fill-opacity:1;fill-rule:nonzero;stroke:none" />
      <path
         id="path47"
         d="m 6.9355781,-7.5342812 c 0,-0.140625 -0.1054687,-0.2460938 -0.234375,-0.2460938 -0.1640625,0 -0.3398437,0.1640625 -0.3398437,0.328125 0,0.1523438 0.1054687,0.2460938 0.234375,0.2460938 0.1992187,0 0.3398437,-0.1757813 0.3398437,-0.328125 z m -0.3515625,2.0859375 c 0.023437,-0.058594 0.082031,-0.2109375 0.1054688,-0.2578125 0.011719,-0.058594 0.035156,-0.1171875 0.035156,-0.2226563 0,-0.328125 -0.2929687,-0.515625 -0.5976562,-0.515625 -0.609375,0 -0.9023438,0.7851563 -0.9023438,0.9257813 0,0.023437 0.023437,0.082031 0.1054688,0.082031 0.082031,0 0.1054687,-0.035156 0.1171875,-0.09375 0.1757812,-0.5742187 0.4921875,-0.7148437 0.65625,-0.7148437 0.1171875,0 0.1640625,0.082031 0.1640625,0.2109375 0,0.1171875 -0.035156,0.2109375 -0.046875,0.2578125 L 5.9043281,-5.01475 c -0.070312,0.1757813 -0.070312,0.1875 -0.1523437,0.3867188 -0.070312,0.1757812 -0.1054688,0.2578125 -0.1054688,0.3632812 0,0.3046875 0.28125,0.515625 0.609375,0.515625 0.5976563,0 0.9023438,-0.7851562 0.9023438,-0.9140625 0,-0.011719 -0.011719,-0.09375 -0.1171875,-0.09375 -0.082031,0 -0.09375,0.035156 -0.1289063,0.1523438 -0.09375,0.3046875 -0.3398437,0.65625 -0.6445312,0.65625 -0.1054688,0 -0.1523438,-0.070312 -0.1523438,-0.2109375 0,-0.1171875 0.035156,-0.2109375 0.1054688,-0.3984375 z m 0,0"
         style="fill:#000000;fill-opacity:1;fill-rule:nonzero;stroke:none" />
    </g>
    <path
       id="path48"
       d="m 210.09547,-147.34634 h 45.35507 v 22.67752 h -45.35507 z"
       style="fill:none;stroke:#000000;stroke-width:0.3985;stroke-linecap:butt;stroke-linejoin:miter;stroke-miterlimit:10;stroke-dasharray:none;stroke-opacity:1"
       transform="matrix(1.3333333,0,0,-1.3333333,30.768,64.702667)" />
    <path
       id="path49"
       d="m 1.2419766,-0.76182813 c 0.1875,-0.22265625 0.6796875,-0.66796877 1.0664062,-0.99609377 0.6679688,-0.5625 0.8789063,-0.7617187 0.9960938,-0.890625 0.7265625,-0.703125 0.9726562,-1.1601562 0.9726562,-1.21875 0,0 0,-0.09375 -0.1171875,-0.09375 -0.082031,0 -0.09375,0.023437 -0.140625,0.09375 -0.1171875,0.1875 -0.3632812,0.5625 -0.6679687,0.5625 -0.1757813,0 -0.2929688,-0.09375 -0.5039063,-0.328125 -0.2109375,-0.234375 -0.3867187,-0.328125 -0.6210937,-0.328125 -0.6796875,0 -1.1015625,0.8203125 -1.1015625,1.0429688 0,0.035156 0.011719,0.1054687 0.1171875,0.1054687 0.082031,0 0.1171875,-0.058594 0.1171875,-0.082031 0.1757812,-0.4335938 0.703125,-0.4335938 0.7734375,-0.4335938 0.2109375,0 0.421875,0.070312 0.6210937,0.140625 0.3515625,0.1171875 0.5039063,0.1171875 0.6445313,0.1171875 -0.28125,0.3046875 -0.7851563,0.7382813 -1.3476563,1.21875 -0.4453125,0.3867188 -0.7265625,0.65625 -0.9257812,0.85546877 -0.32812504,0.3515625 -0.72656254,0.90234375 -0.72656254,0.996093755 0,0.058593745 0.0351563,0.093749995 0.1171875,0.093749995 0.0703125,0 0.09375,-0.03515625 0.140625,-0.08203125 0.35156254,-0.5390625 0.67968754,-0.57421875 0.77343754,-0.57421875 0.234375,0 0.3515625,0.12890625 0.5507812,0.36328125 0.2109375,0.22265625 0.3984375,0.29296875 0.5859375,0.29296875 0.9257813,0 1.453125,-1.14843752 1.453125,-1.38281252 0,-0.082031 -0.058594,-0.1054687 -0.1171875,-0.1054687 -0.09375,0 -0.1054687,0.058594 -0.1289062,0.09375 -0.2460938,0.66796872 -0.8789063,0.76171872 -1.1132813,0.76171872 -0.1640625,0 -0.3515625,-0.046875 -0.6210937,-0.12890625 -0.1757813,-0.0585938 -0.3867188,-0.1171875 -0.5742188,-0.1171875 -0.09375,0 -0.1875,0.0117188 -0.2226562,0.0234373 z m 0,0"
       style="fill:#000000;fill-opacity:1;fill-rule:nonzero;stroke:none"
       aria-label="z"
       transform="matrix(1.3333333,0,0,1.3333333,338.012,248.61733)" />
  </g>
</svg>
