<?xml version="1.0" encoding="UTF-8" standalone="no"?>
<!-- Created with Inkscape (http://www.inkscape.org/) -->

<svg
   version="1.1"
   id="svg1"
   width="131.23438"
   height="119.64019"
   viewBox="0 0 131.23437 119.64019"
   xmlns="http://www.w3.org/2000/svg"
   xmlns:svg="http://www.w3.org/2000/svg">
  <defs
     id="defs1" />
  <g
     id="g1"
     transform="translate(-4.7734375,-4.4257811)">
    <path
       id="path1"
       d="M -22.67754,-11.33876 H 22.67753 V 11.33876 H -22.67754 Z"
       style="fill:none;stroke:#000000;stroke-width:0.3985;stroke-linecap:butt;stroke-linejoin:miter;stroke-miterlimit:10;stroke-dasharray:none;stroke-opacity:1"
       transform="matrix(1.3333333,0,0,-1.3333333,70.250667,44.429333)" />
    <path
       id="path2"
       d="m 4.3712266,-2.9170391 c 0.046875,-0.234375 0.1523437,-0.6445312 0.1523437,-0.6914062 0,-0.1054688 -0.082031,-0.2578125 -0.2695312,-0.2578125 -0.1289063,0 -0.2695313,0.082031 -0.328125,0.1875 -0.046875,0.09375 -0.65625,2.5195312 -0.703125,2.82421874 -0.1875,0.31640625 -0.5507813,0.7265625 -1.0429688,0.7265625 -0.5625,0 -0.5625,-0.5625 -0.5625,-0.7265625 0,-0.41015624 0.1171875,-0.84375004 0.5039063,-1.85156254 0.070312,-0.2109375 0.1289062,-0.328125 0.1289062,-0.5039062 0,-0.4335938 -0.328125,-0.75 -0.7734375,-0.75 -0.85546874,0 -1.21874999,1.2773437 -1.21874999,1.3828125 0,0.082031 0.0703125,0.1054687 0.12890625,0.1054687 0.09375,0 0.10546875,-0.058594 0.140625,-0.1757812 0.1875,-0.6445313 0.53906254,-1.0898438 0.92578124,-1.0898438 0.1875,0 0.2109375,0.1289063 0.2109375,0.2929688 0,0.1523437 -0.035156,0.3164062 -0.1171875,0.5273437 -0.421875,1.1132813 -0.5390625,1.4882813 -0.5390625,1.92187504 0,0.9960937475 0.8085938,1.08984375 1.1484375,1.08984375 0.5039063,0 0.8789063,-0.3046875 1.0898438,-0.5859375 0.1640625,0.5859375 0.7617187,0.5859375 0.8203125,0.5859375 0.2578125,0 0.4804687,-0.1171875 0.6679687,-0.46875 0.1640625,-0.29296875 0.2929688,-0.86718749 0.2929688,-0.90234379 0,-0.046875 -0.023437,-0.1171875 -0.1171875,-0.1171875 -0.1054688,0 -0.1171875,0.046875 -0.1523438,0.2226563 -0.1757812,0.70312499 -0.3632812,1.04296874 -0.6679687,1.04296874 -0.2226563,0 -0.28125,-0.1875 -0.28125,-0.41015625 0,-0.1640625 0.046875,-0.3515625 0.1289062,-0.66796879 l 0.2226563,-0.9140625 z m 0,0"
       style="fill:#000000;fill-opacity:1;fill-rule:nonzero;stroke:none"
       aria-label="u"
       transform="matrix(1.3333333,0,0,1.3333333,66.714667,47.002667)" />
    <path
       id="path3"
       d="M 0.19925,-11.33876 H 45.55432 V 11.33876 H 0.19925 Z"
       style="fill:none;stroke:#000000;stroke-width:0.3985;stroke-linecap:butt;stroke-linejoin:miter;stroke-miterlimit:10;stroke-dasharray:none;stroke-opacity:1"
       transform="matrix(1.3333333,0,0,-1.3333333,70.250667,44.429333)" />
    <path
       id="path4"
       d="m 4.3135156,-3.3037578 c 0,-0.6328125 -0.328125,-0.6679688 -0.4101562,-0.6679688 -0.2226563,0 -0.4570313,0.2460938 -0.4570313,0.4453125 0,0.140625 0.082031,0.2109375 0.140625,0.2695313 0.2460938,0.2226562 0.328125,0.5039062 0.328125,0.7382812 0,0.3984375 -0.5742187,2.39062504 -1.6054687,2.39062504 -0.6796875,0 -0.6796875,-0.62109375 -0.6796875,-0.78515625 0,-0.38671879 0.1289062,-0.84374999 0.4453125,-1.66406249 0.140625,-0.375 0.1757812,-0.4570313 0.1757812,-0.6328125 0,-0.4335938 -0.328125,-0.75 -0.7734375,-0.75 -0.85546872,0 -1.21874997,1.2773437 -1.21874997,1.3828125 0,0.082031 0.0703125,0.1054687 0.12890625,0.1054687 0.09375,0 0.10546875,-0.058594 0.140625,-0.1757812 0.1875,-0.65625 0.55078122,-1.0898438 0.92578122,-1.0898438 0.1757813,0 0.2109375,0.1171875 0.2109375,0.2929688 0,0.1523437 -0.035156,0.3164062 -0.1171875,0.5273437 -0.3164062,0.8671875 -0.5390625,1.4414063 -0.5390625,1.8867188 0,0.84374999 0.6445313,1.12499999 1.265625,1.12499999 1.5,0 2.0390625,-2.82421879 2.0390625,-3.39843749 z m 0,0"
       style="fill:#000000;fill-opacity:1;fill-rule:nonzero;stroke:none"
       aria-label="v"
       transform="matrix(1.3333333,0,0,1.3333333,97.553333,47.002667)" />
    <path
       id="path5"
       d="M 0.19925,-11.33876 H 45.55432 V 11.33876 H 0.19925 Z"
       style="fill:none;stroke:#000000;stroke-width:0.3985;stroke-linecap:butt;stroke-linejoin:miter;stroke-miterlimit:10;stroke-dasharray:none;stroke-opacity:1"
       transform="matrix(1.3333333,0,0,-1.3333333,70.250667,44.429333)" />
    <path
       id="path6"
       d="m 4.4053984,-3.6201641 c -0.328125,0.058594 -0.421875,0.3515625 -0.421875,0.4804688 0,0.1757812 0.1171875,0.328125 0.3398438,0.328125 0.2578125,0 0.5039062,-0.2226563 0.5039062,-0.5273438 0,-0.421875 -0.4570312,-0.6210937 -0.8789062,-0.6210937 -0.5390625,0 -0.84375,0.46875 -0.9492188,0.65625 -0.1757812,-0.4335938 -0.5742187,-0.65625 -0.9960937,-0.65625 -0.9609375,0 -1.48828126,1.1484375 -1.48828126,1.3828125 0,0.082031 0.0703125,0.1054687 0.12890625,0.1054687 0.0820313,0 0.10546875,-0.046875 0.12890625,-0.1054687 0.28124996,-0.8789063 0.86718746,-1.1601563 1.20703126,-1.1601563 0.2578125,0 0.4921875,0.1757813 0.4921875,0.5859375 0,0.328125 -0.3867188,1.7578125 -0.5039063,2.19140629 -0.070312,0.28125 -0.3398437,0.83203125 -0.8320312,0.83203125 -0.17578126,0 -0.36328126,-0.0585938 -0.45703126,-0.1171875 0.24609375,-0.0351563 0.42187496,-0.24609375 0.42187496,-0.48046875 0,-0.22265625 -0.16406246,-0.32812499 -0.33984371,-0.32812499 -0.2578125,0 -0.4921875,0.23437499 -0.4921875,0.53906249 0,0.43359375 0.48046875,0.609375 0.85546871,0.609375 0.5273438,0 0.8320313,-0.421875 0.9609375,-0.66796875 0.2226563,0.59765625 0.7617188,0.66796875 0.9960938,0.66796875 0.9726562,0 1.4765625,-1.16015629 1.4765625,-1.37109379 0,-0.046875 -0.023437,-0.1171875 -0.1171875,-0.1171875 -0.09375,0 -0.1054688,0.035156 -0.1523438,0.1757813 -0.1875,0.64453124 -0.7148437,1.08984374 -1.1835937,1.08984374 -0.2578125,0 -0.4921875,-0.15234375 -0.4921875,-0.5859375 0,-0.19921875 0.1171875,-0.69140624 0.1992187,-1.03125004 0.035156,-0.1640625 0.28125,-1.1367187 0.2929688,-1.1953125 0.1171875,-0.3164062 0.3867187,-0.796875 0.84375,-0.796875 0.1523437,0 0.328125,0.023437 0.4570312,0.1171875 z m 0,0"
       style="fill:#000000;fill-opacity:1;fill-rule:nonzero;stroke:none"
       aria-label="x"
       transform="matrix(1.3333333,0,0,1.3333333,97.270667,47.002667)" />
    <path
       id="path7"
       d="M 0.19925,-11.33876 H 45.55432 V 11.33876 H 0.19925 Z"
       style="fill:none;stroke:#000000;stroke-width:0.3985;stroke-linecap:butt;stroke-linejoin:miter;stroke-miterlimit:10;stroke-dasharray:none;stroke-opacity:1"
       transform="matrix(1.3333333,0,0,-1.3333333,70.250667,44.429333)" />
    <path
       id="path8"
       d="m 4.4997891,-3.4571484 c 0.011719,-0.035156 0.023437,-0.09375 0.023437,-0.1523438 0,-0.1054687 -0.082031,-0.2578125 -0.2695313,-0.2578125 -0.1171875,0 -0.28125,0.070312 -0.3515625,0.2460938 -0.011719,0.035156 -0.1054687,0.3984375 -0.1523437,0.5976562 l -0.4453125,1.7929688 c -0.082031,0.25781246 -0.082031,0.28124996 -0.09375,0.36328121 -0.011719,0.0351563 -0.3867188,0.73828125 -1.03125,0.73828125 -0.5625,0 -0.5625,-0.5625 -0.5625,-0.7265625 0,-0.41015626 0.1171875,-0.84374996 0.5039062,-1.85156246 0.070312,-0.2109375 0.1289063,-0.328125 0.1289063,-0.5039063 0,-0.4335937 -0.328125,-0.75 -0.7734375,-0.75 -0.85546879,0 -1.21875004,1.2773438 -1.21875004,1.3828125 0,0.082031 0.0703125,0.1054688 0.12890625,0.1054688 0.09375,0 0.10546875,-0.058594 0.140625,-0.1757813 0.1875,-0.65625 0.55078129,-1.0898437 0.92578129,-1.0898437 0.2109375,0 0.2109375,0.1757812 0.2109375,0.2929687 0,0.1523438 -0.035156,0.3164063 -0.1171875,0.5273438 -0.421875,1.1132812 -0.5390625,1.4882812 -0.5390625,1.92187496 0,0.9960937525 0.8085937,1.08984375 1.1484375,1.08984375 0.4335937,0 0.75,-0.22265625 0.9140625,-0.38671875 -0.117187,0.45703125 -0.2226558,0.85546875 -0.5742183,1.30078124 -0.2695312,0.3632813 -0.6210937,0.609375 -1.0195312,0.609375 -0.2460938,0 -0.53906254,-0.09375 -0.66796879,-0.3398437 0.46874999,0 0.53906249,-0.39843754 0.53906249,-0.49218754 0,-0.19921875 -0.140625,-0.31640625 -0.3398437,-0.31640625 -0.22265629,0 -0.50390629,0.1640625 -0.50390629,0.58593749 0,0.4570313 0.41015625,0.7851563 0.97265629,0.7851563 0.9140625,0 1.8984375,-0.7851563 2.15625,-1.82812504 z m 0,0"
       style="fill:#000000;fill-opacity:1;fill-rule:nonzero;stroke:none"
       aria-label="y"
       transform="matrix(1.3333333,0,0,1.3333333,97.512,45.84)" />
    <path
       id="path9"
       d="M 0.19925,-11.33876 H 45.55432 V 11.33876 H 0.19925 Z"
       style="fill:none;stroke:#000000;stroke-width:0.3985;stroke-linecap:butt;stroke-linejoin:miter;stroke-miterlimit:10;stroke-dasharray:none;stroke-opacity:1"
       transform="matrix(1.3333333,0,0,-1.3333333,70.250667,44.429333)" />
    <path
       id="path10"
       d="m 1.2417266,-0.76078906 c 0.1875,-0.22265625 0.6796875,-0.66796874 1.0664062,-0.99609374 0.6679688,-0.5625 0.8789063,-0.7617188 0.9960938,-0.890625 0.7265625,-0.703125 0.9726562,-1.1601563 0.9726562,-1.21875 0,0 0,-0.09375 -0.1171875,-0.09375 -0.082031,0 -0.09375,0.023437 -0.140625,0.09375 -0.1171875,0.1875 -0.3632812,0.5625 -0.6679687,0.5625 -0.1757813,0 -0.2929688,-0.09375 -0.5039063,-0.328125 -0.2109375,-0.234375 -0.3867187,-0.328125 -0.6210937,-0.328125 -0.6796875,0 -1.1015625,0.8203125 -1.1015625,1.0429687 0,0.035156 0.011719,0.1054688 0.1171875,0.1054688 0.082031,0 0.1171875,-0.058594 0.1171875,-0.082031 0.1757812,-0.4335937 0.703125,-0.4335937 0.7734375,-0.4335937 0.2109375,0 0.421875,0.070312 0.6210937,0.140625 0.3515625,0.1171875 0.5039063,0.1171875 0.6445313,0.1171875 -0.28125,0.3046875 -0.7851563,0.7382812 -1.3476563,1.21875 -0.4453125,0.3867187 -0.7265625,0.65625 -0.9257812,0.85546874 -0.32812504,0.3515625 -0.72656254,0.90234375 -0.72656254,0.9960937475 0,0.0585937525 0.0351563,0.0937500025 0.1171875,0.0937500025 0.0703125,0 0.09375,-0.03515625 0.140625,-0.08203125 0.35156254,-0.5390625 0.67968754,-0.57421875 0.77343754,-0.57421875 0.234375,0 0.3515625,0.12890625 0.5507812,0.36328125 0.2109375,0.22265625 0.3984375,0.29296875 0.5859375,0.29296875 0.9257813,0 1.453125,-1.14843749 1.453125,-1.38281249 0,-0.082031 -0.058594,-0.1054688 -0.1171875,-0.1054688 -0.09375,0 -0.1054687,0.058594 -0.1289062,0.09375 -0.2460938,0.66796879 -0.8789063,0.76171879 -1.1132813,0.76171879 -0.1640625,0 -0.3515625,-0.046875 -0.6210937,-0.12890625 -0.1757813,-0.0585938 -0.3867188,-0.1171875 -0.5742188,-0.1171875 -0.09375,0 -0.1875,0.0117188 -0.2226562,0.0234372 z m 0,0"
       style="fill:#000000;fill-opacity:1;fill-rule:nonzero;stroke:none"
       aria-label="z"
       transform="matrix(1.3333333,0,0,1.3333333,97.637333,47.002667)" />
    <g
       id="g10"
       aria-label="s=uvxyz"
       transform="matrix(1.3333333,0,0,1.3333333,35.070667,36.636)">
      <path
         id="path11"
         d="m 2.7302031,-2.3900859 c 0.1992188,0.035156 0.515625,0.1054687 0.5976563,0.1171875 0.1523437,0.046875 0.6914062,0.2460937 0.6914062,0.8203125 0,0.3632812 -0.3398437,1.33593746 -1.7226562,1.33593746 -0.2578125,0 -1.1484375,-0.0351562 -1.38281253,-0.69140625 0.46875003,0.0585938 0.71484373,-0.31640621 0.71484373,-0.57421871 0,-0.2578125 -0.1757812,-0.3867188 -0.4101562,-0.3867188 -0.25781253,0 -0.60937503,0.1992188 -0.60937503,0.7382813 0,0.70312496 0.71484373,1.14843746 1.67578123,1.14843746 1.8164063,0 2.3554688,-1.33593746 2.3554688,-1.95703126 0,-0.1757812 0,-0.515625 -0.3867188,-0.9023437 -0.2929687,-0.28125 -0.5859375,-0.3398438 -1.2304687,-0.46875 -0.3164063,-0.082031 -0.8320313,-0.1875 -0.8320313,-0.7265625 0,-0.234375 0.2109375,-1.0898438 1.3476563,-1.0898438 0.5039062,0 0.9960937,0.1875 1.1132812,0.6210938 -0.5273437,0 -0.5507812,0.4453125 -0.5507812,0.4570312 0,0.2578125 0.2226562,0.328125 0.328125,0.328125 0.1757812,0 0.5039062,-0.1289062 0.5039062,-0.6328125 0,-0.5039062 -0.4453125,-1.0195312 -1.3828125,-1.0195312 -1.5703125,0 -1.9804687,1.2304687 -1.9804687,1.7226562 0,0.9140625 0.8789062,1.1015625 1.1601562,1.1601563 z m 0,0"
         style="fill:#000000;fill-opacity:1;fill-rule:nonzero;stroke:none" />
      <path
         id="path12"
         d="m 16.91282,-3.8666484 c 0.164063,0 0.375,0 0.375,-0.2226563 0,-0.2226562 -0.199218,-0.2226562 -0.375,-0.2226562 H 9.8698516 c -0.1757813,0 -0.3867188,0 -0.3867188,0.2109375 0,0.234375 0.1992188,0.234375 0.3867188,0.234375 z m 0,2.2148437 c 0.164063,0 0.375,0 0.375,-0.2109375 0,-0.234375 -0.199218,-0.234375 -0.375,-0.234375 H 9.8698516 c -0.1757813,0 -0.3867188,0 -0.3867188,0.2226563 0,0.2226562 0.1992188,0.2226562 0.3867188,0.2226562 z m 0,0"
         style="fill:#000000;fill-opacity:1;fill-rule:nonzero;stroke:none" />
      <path
         id="path13"
         d="m 25.344461,-0.69086719 c 0.152344,0.66796875 0.726562,0.80859375 1.019531,0.80859375 0.375,0 0.667969,-0.24609375 0.855469,-0.65625 0.199219,-0.43359375 0.363281,-1.13671876 0.363281,-1.17187496 0,-0.058594 -0.05859,-0.1054688 -0.128906,-0.1054688 -0.105469,0 -0.117188,0.058594 -0.164063,0.234375 -0.210937,0.83203126 -0.433593,1.46484376 -0.902343,1.46484376 -0.363282,0 -0.363282,-0.3984375 -0.363282,-0.55078125 0,-0.28125 0.03516,-0.39843751 0.152344,-0.90234371 0.08203,-0.3164063 0.175781,-0.6445313 0.246094,-0.9726563 l 0.480469,-1.9570312 c 0.09375,-0.2929688 0.09375,-0.3164063 0.09375,-0.3515625 0,-0.1757813 -0.152344,-0.3046875 -0.328125,-0.3046875 -0.351563,0 -0.433594,0.3046875 -0.503907,0.5976562 -0.117187,0.46875 -0.761718,3.0351563 -0.84375,3.4570313 -0.01172,0 -0.480468,0.98437496 -1.347656,0.98437496 -0.632812,0 -0.75,-0.5390625 -0.75,-0.98437496 0,-0.6796875 0.339844,-1.640625 0.644531,-2.4375 0.152344,-0.3867188 0.210938,-0.5390625 0.210938,-0.7734375 0,-0.515625 -0.375,-0.9609375 -0.949219,-0.9609375 -1.101562,0 -1.535156,1.734375 -1.535156,1.828125 0,0.046875 0.04687,0.1054687 0.128906,0.1054687 0.105469,0 0.117188,-0.046875 0.164063,-0.2109375 0.292968,-1.03125 0.75,-1.4765625 1.207031,-1.4765625 0.117187,0 0.316406,0.011719 0.316406,0.3867188 0,0.3164062 -0.140625,0.65625 -0.316406,1.1132812 -0.527344,1.4179688 -0.585938,1.875 -0.585938,2.2382813 0,1.21874996 0.925782,1.40624996 1.40625,1.40624996 0.773438,0 1.183594,-0.52734375 1.429688,-0.80859375 z m 8.033203,-3.77343751 c 0,-0.7617187 -0.375,-0.8085937 -0.480469,-0.8085937 -0.28125,0 -0.550781,0.2929687 -0.550781,0.5273437 0,0.140625 0.09375,0.2226563 0.140625,0.28125 0.117188,0.1054688 0.421875,0.421875 0.421875,1.0429688 0,0.5039062 -0.714844,3.30468746 -2.144531,3.30468746 -0.726563,0 -0.878906,-0.609375 -0.878906,-1.05468746 0,-0.5976563 0.28125,-1.4296875 0.597656,-2.296875 0.199219,-0.4921875 0.246094,-0.609375 0.246094,-0.84375 0,-0.5039063 -0.363282,-0.9609375 -0.949219,-0.9609375 -1.101563,0 -1.535156,1.734375 -1.535156,1.828125 0,0.046875 0.04687,0.1054687 0.128906,0.1054687 0.105469,0 0.117187,-0.046875 0.164062,-0.2109375 0.292969,-1.03125 0.75,-1.4765625 1.207032,-1.4765625 0.105468,0 0.316406,0 0.316406,0.3867188 0,0.3164062 -0.140625,0.65625 -0.316406,1.1132812 -0.574219,1.5351563 -0.574219,1.8984375 -0.574219,2.1914063 0,0.2578125 0.03516,0.74999996 0.410156,1.08984371 0.433594,0.36328125 1.03125,0.36328125 1.136719,0.36328125 1.980469,0 2.660156,-3.90234376 2.660156,-4.58203126 z m 6.290039,-0.4101562 c -0.375,0.070312 -0.515625,0.3515625 -0.515625,0.5859375 0,0.28125 0.222656,0.375 0.386719,0.375 0.363281,0 0.609375,-0.3046875 0.609375,-0.6328125 0,-0.4921875 -0.574219,-0.7265625 -1.078125,-0.7265625 -0.726563,0 -1.125,0.7148437 -1.242188,0.9492187 -0.269531,-0.9023437 -1.007812,-0.9492187 -1.230468,-0.9492187 -1.21875,0 -1.863282,1.5703125 -1.863282,1.828125 0,0.046875 0.04687,0.1054687 0.128907,0.1054687 0.105468,0 0.128906,-0.070312 0.152343,-0.1171875 0.398438,-1.3242187 1.207032,-1.5703125 1.546875,-1.5703125 0.539063,0 0.644532,0.4921875 0.644532,0.7851563 0,0.2578125 -0.07031,0.5390625 -0.210938,1.1132812 l -0.410156,1.6289063 c -0.175781,0.72656246 -0.527344,1.38281246 -1.160156,1.38281246 -0.05859,0 -0.351563,0 -0.609375,-0.15234375 0.433593,-0.09375 0.527343,-0.4453125 0.527343,-0.5859375 0,-0.24609371 -0.175781,-0.38671871 -0.398437,-0.38671871 -0.292969,0 -0.597656,0.24609371 -0.597656,0.63281246 0,0.50390625 0.5625,0.7265625 1.066406,0.7265625 0.574219,0 0.984375,-0.45703125 1.230469,-0.9375 0.199218,0.703125 0.796875,0.9375 1.230468,0.9375 1.230469,0 1.875,-1.55859376 1.875,-1.82812496 0,-0.058594 -0.04687,-0.1054688 -0.128906,-0.1054688 -0.105469,0 -0.117187,0.058594 -0.152344,0.1523438 -0.316406,1.05468746 -1.019531,1.54687496 -1.546875,1.54687496 -0.421875,0 -0.65625,-0.31640625 -0.65625,-0.80859375 0,-0.25781251 0.05859,-0.44531251 0.246094,-1.24218751 l 0.421875,-1.6171875 c 0.175781,-0.7265625 0.585938,-1.2421875 1.125,-1.2421875 0.03516,0 0.363281,0 0.609375,0.1523438 z m 4.13086,6.2109375 c -0.316407,0.4570312 -0.785157,0.8671875 -1.371094,0.8671875 -0.140625,0 -0.714844,-0.023437 -0.902344,-0.5742188 0.04687,0.011719 0.105469,0.011719 0.128906,0.011719 0.351563,0 0.597657,-0.3164063 0.597657,-0.5859375 0,-0.28125004 -0.234375,-0.37500004 -0.410157,-0.37500004 -0.1875,0 -0.609375,0.140625 -0.609375,0.72656254 0,0.609375 0.515625,1.03125 1.195313,1.03125 1.195312,0 2.402344,-1.1015625 2.742187,-2.42578129 l 1.171875,-4.66406251 c 0.01172,-0.058594 0.03516,-0.1289062 0.03516,-0.1992187 0,-0.1757813 -0.152344,-0.3046875 -0.328125,-0.3046875 -0.105469,0 -0.363282,0.046875 -0.457032,0.4101562 l -0.878906,3.515625 c -0.05859,0.2109375 -0.05859,0.23437501 -0.152344,0.37500001 -0.246093,0.328125 -0.644531,0.73828125 -1.207031,0.73828125 -0.679687,0 -0.738281,-0.65625 -0.738281,-0.98437496 0,-0.6796875 0.328125,-1.6054688 0.644531,-2.4609375 0.140625,-0.3515625 0.210938,-0.515625 0.210938,-0.75 0,-0.5039063 -0.363282,-0.9609375 -0.949219,-0.9609375 -1.101563,0 -1.535156,1.734375 -1.535156,1.828125 0,0.046875 0.04687,0.1054687 0.128906,0.1054687 0.105469,0 0.117187,-0.046875 0.164062,-0.2109375 0.292969,-1.0078125 0.738282,-1.4765625 1.207032,-1.4765625 0.105468,0 0.316406,0 0.316406,0.3867188 0,0.3164062 -0.140625,0.65625 -0.316406,1.1132812 -0.585938,1.5703125 -0.585938,1.9570313 -0.585938,2.25 0,1.13671876 0.808594,1.39453126 1.40625,1.39453126 0.351563,0 0.785156,-0.10546875 1.195313,-0.55078125 l 0.01172,0.0117188 c -0.175781,0.703125 -0.292968,1.171875 -0.714843,1.75781249 z m 4.520507,-2.30859379 c 0.503907,-0.58593751 0.925782,-0.94921871 1.523438,-1.48828121 0.714844,-0.6210938 1.03125,-0.9257813 1.195312,-1.1015625 0.84375,-0.8203125 1.253907,-1.5234375 1.253907,-1.6171875 0,-0.09375 -0.09375,-0.09375 -0.117188,-0.09375 -0.08203,0 -0.105469,0.046875 -0.164062,0.1289062 -0.304688,0.515625 -0.585938,0.7734375 -0.902344,0.7734375 -0.246094,0 -0.375,-0.1171875 -0.609375,-0.3984375 -0.246094,-0.2929687 -0.457031,-0.5039062 -0.796875,-0.5039062 -0.878906,0 -1.394531,1.0898437 -1.394531,1.3359375 0,0.035156 0.01172,0.1171875 0.117187,0.1171875 0.09375,0 0.105469,-0.046875 0.140625,-0.140625 0.199219,-0.46875 0.773438,-0.5625 1.007813,-0.5625 0.246093,0 0.480468,0.09375 0.738281,0.1992187 0.457031,0.1875 0.644531,0.1875 0.761719,0.1875 0.08203,0 0.128906,0 0.1875,-0.011719 -0.386719,0.46875 -1.03125,1.0429687 -1.570313,1.5351562 L 48.483133,-1.51118 c -0.726563,0.75000001 -1.171875,1.45312501 -1.171875,1.53515626 0,0.0703125 0.05859,0.09375 0.128906,0.09375 0.07031,0 0.08203,-0.0117188 0.164063,-0.15234375 0.199218,-0.3046875 0.574218,-0.73828125 1.019531,-0.73828125 0.246094,0 0.375,0.0820313 0.609375,0.375 0.222656,0.26953125 0.433594,0.515625 0.808594,0.515625 1.171875,0 1.851562,-1.51171876 1.851562,-1.79296876 0,-0.046875 -0.01172,-0.1171875 -0.140625,-0.1171875 -0.09375,0 -0.105469,0.046875 -0.140625,0.1640625 -0.257812,0.70312501 -0.972656,0.99609376 -1.429687,0.99609376 -0.257813,0 -0.492188,-0.0820313 -0.75,-0.1875 -0.46875,-0.19921876 -0.609375,-0.19921876 -0.761719,-0.19921876 -0.117188,0 -0.246094,0 -0.351563,0.0468753 z m 0,0"
         style="fill:#000000;fill-opacity:1;fill-rule:nonzero;stroke:none" />
    </g>
    <path
       id="path14"
       d="M 0,-11.53801 H 45.75357"
       style="fill:none;stroke:#000000;stroke-width:0.3985;stroke-linecap:butt;stroke-linejoin:miter;stroke-miterlimit:10;stroke-dasharray:none;stroke-opacity:1"
       transform="matrix(1.3333333,0,0,-1.3333333,70.250667,44.429333)" />
    <g
       id="g14"
       aria-label="|vxy|≤p"
       transform="matrix(1.3333333,0,0,1.3333333,76.142667,81.442667)">
      <path
         id="path15"
         d="m 1.4662422,-6.3876641 c 0,-0.1523437 0,-0.3398437 -0.1875,-0.3398437 -0.1875,0 -0.1875,0.1757812 -0.1875,0.3398437 v 8.296875 c 0,0.1523438 0,0.328125 0.1875,0.328125 0.1875,0 0.1875,-0.1640625 0.1875,-0.328125 z m 0,0"
         style="fill:#000000;fill-opacity:1;fill-rule:nonzero;stroke:none" />
      <path
         id="path16"
         d="m 6.8715156,-3.3056328 c 0,-0.6328125 -0.328125,-0.6679688 -0.4101562,-0.6679688 -0.2226563,0 -0.4570313,0.2460938 -0.4570313,0.4453125 0,0.140625 0.082031,0.2109375 0.140625,0.2695313 0.2460938,0.2226562 0.328125,0.5039062 0.328125,0.7382812 0,0.3984375 -0.5742187,2.39062504 -1.6054687,2.39062504 -0.6796875,0 -0.6796875,-0.62109375 -0.6796875,-0.78515625 0,-0.38671879 0.1289062,-0.84374999 0.4453125,-1.66406249 0.140625,-0.375 0.1757812,-0.4570313 0.1757812,-0.6328125 0,-0.4335938 -0.328125,-0.75 -0.7734375,-0.75 -0.8554687,0 -1.21875,1.2773437 -1.21875,1.3828125 0,0.082031 0.070312,0.1054687 0.1289063,0.1054687 0.09375,0 0.1054687,-0.058594 0.140625,-0.1757812 0.1875,-0.65625 0.5507812,-1.0898438 0.9257812,-1.0898438 0.1757813,0 0.2109375,0.1171875 0.2109375,0.2929688 0,0.1523437 -0.035156,0.3164062 -0.1171875,0.5273437 -0.3164062,0.8671875 -0.5390625,1.4414063 -0.5390625,1.8867188 0,0.84374999 0.6445313,1.12499999 1.265625,1.12499999 1.5,0 2.0390625,-2.82421879 2.0390625,-3.39843749 z m 4.8925784,-0.3164063 c -0.328125,0.058594 -0.421875,0.3515625 -0.421875,0.4804688 0,0.1757812 0.117187,0.328125 0.339844,0.328125 0.257812,0 0.503906,-0.2226563 0.503906,-0.5273438 0,-0.421875 -0.457031,-0.6210937 -0.878906,-0.6210937 -0.539063,0 -0.84375,0.46875 -0.949219,0.65625 -0.175781,-0.4335938 -0.574219,-0.65625 -0.996094,-0.65625 -0.9609375,0 -1.4882812,1.1484375 -1.4882812,1.3828125 0,0.082031 0.070312,0.1054687 0.1289062,0.1054687 0.082031,0 0.1054688,-0.046875 0.1289063,-0.1054687 0.28125,-0.8789063 0.8671875,-1.1601563 1.2070312,-1.1601563 0.2578125,0 0.4921875,0.1757813 0.4921875,0.5859375 0,0.328125 -0.3867187,1.7578125 -0.5039062,2.19140629 -0.070312,0.28125 -0.3398438,0.83203125 -0.8320313,0.83203125 -0.1757812,0 -0.3632812,-0.0585938 -0.4570312,-0.1171875 0.2460937,-0.0351562 0.421875,-0.24609375 0.421875,-0.48046875 0,-0.22265625 -0.1640625,-0.32812499 -0.3398438,-0.32812499 -0.2578125,0 -0.4921875,0.23437499 -0.4921875,0.53906249 0,0.43359375 0.4804688,0.609375 0.8554688,0.609375 0.5273437,0 0.8320312,-0.421875 0.9609375,-0.66796875 0.2226562,0.59765625 0.7617187,0.66796875 0.9960937,0.66796875 0.972656,0 1.476563,-1.16015629 1.476563,-1.37109379 0,-0.046875 -0.02344,-0.1171875 -0.117188,-0.1171875 -0.09375,0 -0.105469,0.035156 -0.152344,0.1757813 -0.1875,0.64453124 -0.714843,1.08984374 -1.183593,1.08984374 -0.257813,0 -0.492188,-0.15234375 -0.492188,-0.5859375 0,-0.19921875 0.117188,-0.69140624 0.199219,-1.03125004 0.03516,-0.1640625 0.28125,-1.1367187 0.292969,-1.1953125 0.117187,-0.3164062 0.386718,-0.796875 0.84375,-0.796875 0.152343,0 0.328125,0.023437 0.457031,0.1171875 z m 5.317383,0.1640625 c 0.01172,-0.035156 0.02344,-0.09375 0.02344,-0.1523437 0,-0.1054688 -0.08203,-0.2578125 -0.269531,-0.2578125 -0.117188,0 -0.28125,0.070312 -0.351563,0.2460937 -0.01172,0.035156 -0.105468,0.3984375 -0.152343,0.5976563 l -0.445313,1.7929687 c -0.08203,0.25781254 -0.08203,0.28125004 -0.09375,0.36328129 -0.01172,0.0351563 -0.386719,0.73828125 -1.03125,0.73828125 -0.5625,0 -0.5625,-0.5625 -0.5625,-0.7265625 0,-0.41015624 0.117188,-0.84375004 0.503906,-1.85156254 0.07031,-0.2109375 0.128907,-0.328125 0.128907,-0.5039062 0,-0.4335938 -0.328125,-0.75 -0.773438,-0.75 -0.855469,0 -1.21875,1.2773437 -1.21875,1.3828125 0,0.082031 0.07031,0.1054687 0.128906,0.1054687 0.09375,0 0.105469,-0.058594 0.140625,-0.1757812 0.1875,-0.65625 0.550782,-1.0898438 0.925782,-1.0898438 0.210937,0 0.210937,0.1757813 0.210937,0.2929688 0,0.1523437 -0.03516,0.3164062 -0.117187,0.5273437 -0.421875,1.1132813 -0.539063,1.4882813 -0.539063,1.92187504 0,0.9960937475 0.808594,1.08984375 1.148438,1.08984375 0.433593,0 0.75,-0.22265625 0.914062,-0.38671875 -0.117187,0.45703125 -0.222656,0.85546875 -0.574219,1.30078126 -0.269531,0.3632812 -0.621093,0.609375 -1.019531,0.609375 -0.246094,0 -0.539062,-0.09375 -0.667969,-0.3398438 0.46875,0 0.539063,-0.39843746 0.539063,-0.49218746 0,-0.19921875 -0.140625,-0.31640625 -0.339844,-0.31640625 -0.222656,0 -0.503906,0.1640625 -0.503906,0.58593751 0,0.4570312 0.410156,0.7851562 0.972656,0.7851562 0.914063,0 1.898438,-0.7851562 2.15625,-1.82812496 z m 0,0"
         style="fill:#000000;fill-opacity:1;fill-rule:nonzero;stroke:none" />
      <path
         id="path17"
         d="m 18.909602,-6.3876641 c 0,-0.1523437 0,-0.3398437 -0.1875,-0.3398437 -0.1875,0 -0.1875,0.1757812 -0.1875,0.3398437 v 8.296875 c 0,0.1523438 0,0.328125 0.1875,0.328125 0.1875,0 0.1875,-0.1640625 0.1875,-0.328125 z m 9.849609,0.9492188 c 0.08203,-0.035156 0.1875,-0.09375 0.1875,-0.2109375 0,-0.1171875 -0.09375,-0.1992188 -0.1875,-0.1992188 -0.02344,0 -0.07031,0 -0.175781,0.058594 l -5.074219,2.4375 c -0.128906,0.058594 -0.175781,0.1054687 -0.175781,0.2109375 0,0.1171875 0.09375,0.1757812 0.175781,0.2109375 l 5.0625,2.42578124 c 0.117187,0.0703125 0.152344,0.0703125 0.175781,0.0703125 0.140625,0 0.199219,-0.12890625 0.199219,-0.19921875 0,-0.10546875 -0.07031,-0.15234375 -0.164063,-0.1875 L 23.966242,-3.1532891 Z m -0.152344,6.8203125 c 0.152344,0 0.339844,0 0.339844,-0.1875 0,-0.19921876 -0.199219,-0.19921876 -0.339844,-0.19921876 h -4.945312 c -0.128907,0 -0.328125,0 -0.328125,0.19921876 0,0.1875 0.175781,0.1875 0.328125,0.1875 z m 0,0"
         style="fill:#000000;fill-opacity:1;fill-rule:nonzero;stroke:none" />
      <path
         id="path18"
         d="m 32.70257,1.1240547 c -0.05859,0.2578125 -0.08203,0.3398437 -0.46875,0.3398437 -0.09375,0 -0.199218,0 -0.199218,0.1523438 0,0.046875 0.01172,0.1171875 0.117187,0.1171875 l 0.386719,-0.011719 c 0.04687,-0.011719 0.257812,-0.011719 0.386719,-0.011719 0.152343,0 0.304687,0.011719 0.457031,0.011719 0.140625,0 0.292969,0.011719 0.421875,0.011719 0.05859,0 0.175781,0 0.175781,-0.1523438 0,-0.1171875 -0.09375,-0.1171875 -0.246094,-0.1171875 -0.421875,0 -0.421875,-0.070312 -0.421875,-0.1523437 0,-0.046875 0.07031,-0.2929688 0.105469,-0.43359376 l 0.328125,-1.3359375 c 0.09375,0.1875 0.339844,0.55078125 0.855469,0.55078125 1.042969,0 2.191406,-1.25390629 2.191406,-2.60156249 0,-0.9140625 -0.5625,-1.453125 -1.242187,-1.453125 -0.1875,0 -0.632813,0.046875 -1.183594,0.65625 -0.128906,-0.5039063 -0.539063,-0.65625 -0.84375,-0.65625 -0.375,0 -0.5625,0.28125 -0.691406,0.515625 -0.152344,0.3164062 -0.28125,0.8320312 -0.28125,0.8671875 0,0.082031 0.07031,0.1054687 0.128906,0.1054687 0.09375,0 0.117187,-0.046875 0.164062,-0.2226562 0.164063,-0.7148438 0.351563,-1.0429688 0.65625,-1.0429688 0.269532,0 0.269532,0.28125 0.269532,0.421875 0,0.070312 -0.01172,0.2109375 -0.02344,0.28125 z m 1.628907,-3.890625 c 0.03516,-0.1757813 0.03516,-0.1875 0.152343,-0.328125 0.246094,-0.3046875 0.65625,-0.6445313 1.054688,-0.6445313 0.421875,0 0.585937,0.421875 0.585937,0.84375 0,0.3984375 -0.246093,1.5117188 -0.527343,1.99218754 -0.304688,0.50390625 -0.679688,0.7734375 -1.007813,0.7734375 -0.585937,0 -0.726562,-0.703125 -0.726562,-0.76171875 0,-0.0585938 0.01172,-0.10546875 0.02344,-0.15234379 z m 0,0"
         style="fill:#000000;fill-opacity:1;fill-rule:nonzero;stroke:none" />
    </g>
    <path
       id="path19"
       d="M -22.87679,11.53801 H 45.75357"
       style="fill:none;stroke:#000000;stroke-width:0.3985;stroke-linecap:butt;stroke-linejoin:miter;stroke-miterlimit:10;stroke-dasharray:none;stroke-opacity:1"
       transform="matrix(1.3333333,0,0,-1.3333333,70.250667,44.429333)" />
    <g
       id="g19"
       aria-label="|s|≥p"
       transform="matrix(1.3333333,0,0,1.3333333,67.950667,13.393333)">
      <path
         id="path20"
         d="m 1.4637578,-6.3858203 c 0,-0.1523438 0,-0.3398438 -0.1875,-0.3398438 -0.1875,0 -0.1875,0.1757813 -0.1875,0.3398438 v 8.296875 c 0,0.1523437 0,0.328125 0.1875,0.328125 0.1875,0 0.1875,-0.1640625 0.1875,-0.328125 z m 0,0"
         style="fill:#000000;fill-opacity:1;fill-rule:nonzero;stroke:none" />
      <path
         id="path21"
         d="m 6.1219609,-3.3506641 c -0.3867187,0.035156 -0.421875,0.3398438 -0.421875,0.3984375 0,0.1523438 0.1171875,0.2695313 0.28125,0.2695313 0.2578125,0 0.421875,-0.1992188 0.421875,-0.5039063 0,-0.4453125 -0.4335937,-0.7734375 -1.1015625,-0.7734375 -1.1953125,0 -1.5351562,0.890625 -1.5351562,1.3125 0,0.3398438 0.1640625,0.515625 0.28125,0.6210938 0.1757812,0.1757812 0.421875,0.2226562 0.7382812,0.2929687 0.4101563,0.070312 0.5039063,0.09375 0.65625,0.2109375 0.1523438,0.1054688 0.2226563,0.2460938 0.2226563,0.4335938 0,0.23437499 -0.2109375,0.96093749 -1.2890625,0.96093749 -0.2109375,0 -0.84375,-0.0234375 -1.03125,-0.43359375 0.4453125,0 0.5273437,-0.36328125 0.5273437,-0.49218754 0,-0.2578125 -0.234375,-0.3164062 -0.3398437,-0.3164062 -0.1523438,0 -0.4921875,0.1289062 -0.4921875,0.58593749 0,0.5625 0.5625,0.87890625 1.3242187,0.87890625 1.5,0 1.8398438,-1.10156254 1.8398438,-1.48828124 0,-0.3398438 -0.1875,-0.5507813 -0.3046875,-0.65625 -0.234375,-0.2460938 -0.515625,-0.2929688 -0.8320313,-0.3632813 -0.1054687,-0.023437 -0.3046875,-0.058594 -0.328125,-0.070312 -0.2929687,-0.058594 -0.4570312,-0.2460937 -0.4570312,-0.46875 0,-0.09375 0.058594,-0.3867187 0.3164062,-0.5742187 0.2460938,-0.1992188 0.5859375,-0.2109375 0.703125,-0.2109375 0.3164063,0 0.6796875,0.09375 0.8203125,0.3867182 z m 0,0"
         style="fill:#000000;fill-opacity:1;fill-rule:nonzero;stroke:none" />
      <path
         id="path22"
         d="m 8.3192266,-6.3858203 c 0,-0.1523438 0,-0.3398438 -0.1875,-0.3398438 -0.1875,0 -0.1875,0.1757813 -0.1875,0.3398438 v 8.296875 c 0,0.1523437 0,0.328125 0.1875,0.328125 0.1875,0 0.1875,-0.1640625 0.1875,-0.328125 z m 9.8496094,3.4570312 c 0.08203,-0.035156 0.1875,-0.09375 0.1875,-0.2109375 0,-0.1171875 -0.07031,-0.1523437 -0.164063,-0.1992187 l -5.074218,-2.4375 c -0.128907,-0.070312 -0.175782,-0.070312 -0.1875,-0.070312 -0.105469,0 -0.1875,0.082031 -0.1875,0.1992187 0,0.1171875 0.09375,0.1757813 0.175781,0.2109375 l 4.792969,2.2851563 -4.757813,2.29687499 c -0.140625,0.0703125 -0.210937,0.10546875 -0.210937,0.22265625 0,0.0820313 0.04687,0.19921875 0.199218,0.19921875 0,0 0.04687,0 0.152344,-0.0585938 z m -0.152344,4.3125 c 0.152344,0 0.339844,0 0.339844,-0.1875 0,-0.19921871 -0.199219,-0.19921871 -0.339844,-0.19921871 H 13.07118 c -0.128907,0 -0.328125,0 -0.328125,0.19921871 0,0.1875 0.175781,0.1875 0.328125,0.1875 z m 0,0"
         style="fill:#000000;fill-opacity:1;fill-rule:nonzero;stroke:none" />
      <path
         id="path23"
         d="m 22.109266,1.1258984 c -0.05859,0.2578125 -0.08203,0.3398438 -0.46875,0.3398438 -0.09375,0 -0.199219,0 -0.199219,0.1523437 0,0.046875 0.01172,0.1171875 0.117187,0.1171875 l 0.386719,-0.011719 c 0.04687,-0.011719 0.257813,-0.011719 0.386719,-0.011719 0.152344,0 0.304687,0.011719 0.457031,0.011719 0.140625,0 0.292969,0.011719 0.421875,0.011719 0.05859,0 0.175781,0 0.175781,-0.1523437 0,-0.1171875 -0.09375,-0.1171875 -0.246093,-0.1171875 -0.421875,0 -0.421875,-0.070312 -0.421875,-0.1523438 0,-0.046875 0.07031,-0.2929687 0.105468,-0.43359371 l 0.328125,-1.3359375 c 0.09375,0.1875 0.339844,0.55078125 0.855469,0.55078125 1.042969,0 2.191406,-1.25390624 2.191406,-2.60156254 0,-0.9140625 -0.5625,-1.453125 -1.242187,-1.453125 -0.1875,0 -0.632813,0.046875 -1.183594,0.65625 -0.128906,-0.5039062 -0.539062,-0.65625 -0.84375,-0.65625 -0.375,0 -0.5625,0.28125 -0.691406,0.515625 -0.152344,0.3164063 -0.28125,0.8320313 -0.28125,0.8671875 0,0.082031 0.07031,0.1054688 0.128906,0.1054688 0.09375,0 0.117188,-0.046875 0.164063,-0.2226563 0.164062,-0.7148437 0.351562,-1.0429687 0.65625,-1.0429687 0.269531,0 0.269531,0.28125 0.269531,0.421875 0,0.070312 -0.01172,0.2109375 -0.02344,0.28125 z m 1.628906,-3.890625 c 0.03516,-0.1757812 0.03516,-0.1875 0.152344,-0.328125 0.246093,-0.3046875 0.65625,-0.6445312 1.054687,-0.6445312 0.421875,0 0.585938,0.421875 0.585938,0.84375 0,0.3984375 -0.246094,1.5117187 -0.527344,1.99218749 -0.304688,0.50390625 -0.679688,0.7734375 -1.007813,0.7734375 -0.585937,0 -0.726562,-0.703125 -0.726562,-0.76171875 0,-0.0585938 0.01172,-0.10546875 0.02344,-0.15234374 z m 0,0"
         style="fill:#000000;fill-opacity:1;fill-rule:nonzero;stroke:none" />
    </g>
    <path
       id="path24"
       d="M 22.87679,-34.21553 V -59.72748"
       style="fill:none;stroke:#000000;stroke-width:0.79701;stroke-linecap:butt;stroke-linejoin:miter;stroke-miterlimit:10;stroke-dasharray:none;stroke-opacity:1"
       transform="matrix(1.3333333,0,0,-1.3333333,70.250667,44.429333)" />
    <path
       id="path25"
       d="m 1.6173906,-3.0111563 c 0.3046875,-0.515625 0.8085938,-0.703125 1.1835938,-0.703125 0.6914062,0 1.2304687,0.8085938 1.2304687,1.78125 0,1.0195313 -0.609375,1.80468755 -1.3359375,1.80468755 -0.3984375,0 -0.7382812,-0.234375 -0.9609375,-0.5390625 -0.1171875,-0.1875 -0.1171875,-0.19921875 -0.1171875,-0.37500005 z m 0,2.57812505 c 0.234375,0.234375 0.5390625,0.52734375 1.1367188,0.52734375 1.0664062,0 2.0507812,-0.85546875 2.0507812,-2.0273438 0,-1.1367187 -0.8789062,-2.0273437 -1.9335937,-2.0273437 -0.4921875,0 -0.9375,0.1992187 -1.2773438,0.5625 v -0.5625 l -1.32421872,0.09375 v 0.28125 c 0.6328125,0 0.69140625,0.058594 0.69140625,0.4335937 V 1.05525 c 0,0.4101562 -0.10546875,0.4101562 -0.69140625,0.4101562 V 1.7349375 C 0.69160938,1.7232187 0.85567188,1.7115 1.2892656,1.7115 c 0.4335938,0 0.5507813,0.011719 1.0195313,0.023437 V 1.4654062 c -0.5859375,0 -0.6914063,0 -0.6914063,-0.4101562 z M 8.6691484,-1.4994375 c 0,0.796875 -0.4453125,1.37109375 -1.0898437,1.37109375 -0.75,0 -0.796875,-0.38671875 -0.796875,-0.8671875 V -3.960375 l -1.3476563,0.09375 v 0.28125 c 0.6914063,0 0.6914063,0.023437 0.6914063,0.8203125 v 1.3476562 c 0,0.58593755 0,0.96093755 0.4101562,1.2773438 0.2578125,0.17578125 0.6210938,0.234375 0.984375,0.234375 0.46875,0 0.9023438,-0.19921875 1.1601563,-0.73828125 h 0.011719 V 0.0943125 l 1.3242188,-0.09375 v -0.28125 c -0.609375,0 -0.6796875,-0.0585938 -0.6796875,-0.50390625 V -3.960375 l -1.359375,0.09375 v 0.28125 c 0.609375,0 0.6914062,0.058594 0.6914062,0.5039062 z M 11.903523,-2.31975 c 0,-0.9726563 0.703125,-1.4179688 1.242188,-1.4179688 0.492187,0 0.65625,0.3515625 0.65625,0.9726563 v 2.07421875 c 0,0.41015625 -0.105469,0.41015625 -0.691406,0.41015625 v 0.28125 c 0.421875,-0.0234375 0.585937,-0.0234375 1.019531,-0.0234375 0.433594,0 0.550781,0 1.019531,0.0234375 v -0.28125 c -0.585937,0 -0.691406,0 -0.691406,-0.41015625 V -2.31975 c 0,-0.9726563 0.703125,-1.4179688 1.242187,-1.4179688 0.492188,0 0.65625,0.3515625 0.65625,0.9726563 v 2.07421875 c 0,0.41015625 -0.105468,0.41015625 -0.691406,0.41015625 v 0.28125 c 0.421875,-0.0234375 0.585938,-0.0234375 1.019531,-0.0234375 0.433594,0 0.550782,0 1.019532,0.0234375 v -0.28125 c -0.457032,0 -0.679688,0 -0.691407,-0.26953125 V -2.272875 c 0,-0.7851563 0,-1.03125 -0.292968,-1.3710938 -0.1875,-0.2109375 -0.550782,-0.3164062 -0.960938,-0.3164062 -0.644531,0 -1.078125,0.375 -1.335937,0.8554687 -0.105469,-0.5390625 -0.46875,-0.8554687 -1.21875,-0.8554687 -0.714844,0 -1.148438,0.46875 -1.347657,0.8789062 V -3.960375 l -1.300781,0.09375 v 0.28125 c 0.609375,0 0.691406,0.058594 0.691406,0.5039062 v 2.39062505 c 0,0.41015625 -0.105468,0.41015625 -0.691406,0.41015625 v 0.28125 c 0.421875,-0.0234375 0.585938,-0.0234375 1.019531,-0.0234375 0.433594,0 0.550782,0 1.019532,0.0234375 v -0.28125 c -0.585938,0 -0.691407,0 -0.691407,-0.41015625 z m 7.631836,-0.6914063 c 0.304688,-0.515625 0.808594,-0.703125 1.183594,-0.703125 0.691406,0 1.230469,0.8085938 1.230469,1.78125 0,1.0195313 -0.609375,1.80468755 -1.335938,1.80468755 -0.398437,0 -0.738281,-0.234375 -0.960937,-0.5390625 -0.117188,-0.1875 -0.117188,-0.19921875 -0.117188,-0.37500005 z m 0,2.57812505 c 0.234375,0.234375 0.539063,0.52734375 1.136719,0.52734375 1.066406,0 2.050781,-0.85546875 2.050781,-2.0273438 0,-1.1367187 -0.878906,-2.0273437 -1.933593,-2.0273437 -0.492188,0 -0.9375,0.1992187 -1.277344,0.5625 v -0.5625 l -1.324219,0.09375 v 0.28125 c 0.632813,0 0.691406,0.058594 0.691406,0.4335937 V 1.05525 c 0,0.4101562 -0.105468,0.4101562 -0.691406,0.4101562 V 1.7349375 C 18.609578,1.7232187 18.773641,1.7115 19.207234,1.7115 c 0.433594,0 0.550782,0.011719 1.019532,0.023437 V 1.4654062 c -0.585938,0 -0.691407,0 -0.691407,-0.4101562 z m 0,0"
       style="fill:#000000;fill-opacity:1;fill-rule:nonzero;stroke:none"
       aria-label="pump"
       transform="matrix(1.3333333,0,0,1.3333333,105.71067,108.468)" />
    <g
       id="g25"
       aria-label="uv&#10;i&#10;xy&#10;i&#10;z∈Lforalli≥0"
       transform="matrix(1.3333333,0,0,1.3333333,4.428,59.481333)">
      <path
         id="path26"
         d="m 4.3723594,-2.9186172 c 0.046875,-0.234375 0.1523437,-0.6445312 0.1523437,-0.6914062 0,-0.1054688 -0.082031,-0.2578125 -0.2695312,-0.2578125 -0.1289063,0 -0.2695313,0.082031 -0.328125,0.1875 -0.046875,0.09375 -0.65625,2.5195312 -0.703125,2.82421871 -0.1875,0.31640625 -0.5507813,0.7265625 -1.0429688,0.7265625 -0.5625,0 -0.5625,-0.5625 -0.5625,-0.7265625 0,-0.41015621 0.1171875,-0.84375001 0.5039063,-1.85156251 0.070312,-0.2109375 0.1289062,-0.328125 0.1289062,-0.5039062 0,-0.4335938 -0.328125,-0.75 -0.7734375,-0.75 -0.85546872,0 -1.21874997,1.2773437 -1.21874997,1.3828125 0,0.082031 0.0703125,0.1054687 0.12890625,0.1054687 0.09375,0 0.10546875,-0.058594 0.140625,-0.1757812 0.1875,-0.6445313 0.53906252,-1.0898438 0.92578122,-1.0898438 0.1875,0 0.2109375,0.1289063 0.2109375,0.2929688 0,0.1523437 -0.035156,0.3164062 -0.1171875,0.5273437 -0.421875,1.1132813 -0.5390625,1.4882813 -0.5390625,1.92187501 0,0.9960937525 0.8085938,1.08984375 1.1484375,1.08984375 0.5039063,0 0.8789063,-0.3046875 1.0898438,-0.5859375 0.1640625,0.5859375 0.7617187,0.5859375 0.8203125,0.5859375 0.2578125,0 0.4804687,-0.1171875 0.6679687,-0.46875 0.1640625,-0.29296875 0.2929688,-0.86718746 0.2929688,-0.90234376 0,-0.046875 -0.023437,-0.1171875 -0.1171875,-0.1171875 -0.1054688,0 -0.1171875,0.046875 -0.1523438,0.2226563 -0.1757812,0.70312496 -0.3632812,1.04296871 -0.6679687,1.04296871 -0.2226563,0 -0.28125,-0.1875 -0.28125,-0.41015625 0,-0.1640625 0.046875,-0.3515625 0.1289062,-0.66796876 L 4.1614219,-2.1217422 Z M 9.6165,-3.3053359 c 0,-0.6328125 -0.328125,-0.6679688 -0.4101562,-0.6679688 -0.2226563,0 -0.4570313,0.2460938 -0.4570313,0.4453125 0,0.140625 0.082031,0.2109375 0.140625,0.2695313 0.2460938,0.2226562 0.328125,0.5039062 0.328125,0.7382812 0,0.3984375 -0.5742187,2.39062501 -1.6054687,2.39062501 -0.6796875,0 -0.6796875,-0.62109375 -0.6796875,-0.78515625 0,-0.38671876 0.1289062,-0.84374996 0.4453125,-1.66406246 0.140625,-0.375 0.1757812,-0.4570313 0.1757812,-0.6328125 0,-0.4335938 -0.328125,-0.75 -0.7734375,-0.75 -0.8554687,0 -1.21875,1.2773437 -1.21875,1.3828125 0,0.082031 0.070312,0.1054687 0.1289063,0.1054687 0.09375,0 0.1054687,-0.058594 0.140625,-0.1757812 0.1875,-0.65625 0.5507812,-1.0898438 0.9257812,-1.0898438 0.1757813,0 0.2109375,0.1171875 0.2109375,0.2929688 0,0.1523437 -0.035156,0.3164062 -0.1171875,0.5273437 -0.3164062,0.8671875 -0.5390625,1.4414063 -0.5390625,1.8867188 0,0.84374996 0.6445313,1.12499996 1.265625,1.12499996 1.5,0 2.0390625,-2.82421876 2.0390625,-3.39843746 z m 0,0"
         style="fill:#000000;fill-opacity:1;fill-rule:nonzero;stroke:none" />
      <path
         id="path27"
         d="m 12.174117,-7.5358047 c 0,-0.140625 -0.105469,-0.2460937 -0.234375,-0.2460937 -0.164062,0 -0.339844,0.1640625 -0.339844,0.328125 0,0.1523437 0.105469,0.2460937 0.234375,0.2460937 0.199219,0 0.339844,-0.1757812 0.339844,-0.328125 z m -0.351562,2.0859375 c 0.02344,-0.058594 0.08203,-0.2109375 0.105468,-0.2578125 0.01172,-0.058594 0.03516,-0.1171875 0.03516,-0.2226562 0,-0.328125 -0.292969,-0.515625 -0.597657,-0.515625 -0.609375,0 -0.902343,0.7851562 -0.902343,0.9257812 0,0.023437 0.02344,0.082031 0.105468,0.082031 0.08203,0 0.105469,-0.035156 0.117188,-0.09375 0.175781,-0.5742188 0.492187,-0.7148438 0.65625,-0.7148438 0.117187,0 0.164062,0.082031 0.164062,0.2109375 0,0.1171875 -0.03516,0.2109375 -0.04687,0.2578125 l -0.316406,0.7617188 c -0.07031,0.1757812 -0.07031,0.1875 -0.152344,0.3867187 -0.07031,0.1757813 -0.105468,0.2578125 -0.105468,0.3632813 0,0.3046875 0.28125,0.515625 0.609375,0.515625 0.597656,0 0.902343,-0.7851563 0.902343,-0.9140625 0,-0.011719 -0.01172,-0.09375 -0.117187,-0.09375 -0.08203,0 -0.09375,0.035156 -0.128906,0.1523437 -0.09375,0.3046875 -0.339844,0.65625 -0.644532,0.65625 -0.105468,0 -0.152343,-0.070312 -0.152343,-0.2109375 0,-0.1171875 0.03516,-0.2109375 0.105468,-0.3984375 z m 0,0"
         style="fill:#000000;fill-opacity:1;fill-rule:nonzero;stroke:none" />
      <path
         id="path28"
         d="m 17.667281,-3.6217422 c -0.328125,0.058594 -0.421875,0.3515625 -0.421875,0.4804688 0,0.1757812 0.117188,0.328125 0.339844,0.328125 0.257813,0 0.503906,-0.2226563 0.503906,-0.5273438 0,-0.421875 -0.457031,-0.6210937 -0.878906,-0.6210937 -0.539062,0 -0.84375,0.46875 -0.949219,0.65625 -0.175781,-0.4335938 -0.574218,-0.65625 -0.996093,-0.65625 -0.960938,0 -1.488282,1.1484375 -1.488282,1.3828125 0,0.082031 0.07031,0.1054687 0.128907,0.1054687 0.08203,0 0.105468,-0.046875 0.128906,-0.1054687 0.28125,-0.8789063 0.867187,-1.1601563 1.207031,-1.1601563 0.257813,0 0.492188,0.1757813 0.492188,0.5859375 0,0.328125 -0.386719,1.7578125 -0.503907,2.19140626 -0.07031,0.28125 -0.339843,0.83203125 -0.832031,0.83203125 -0.175781,0 -0.363281,-0.0585938 -0.457031,-0.1171875 0.246094,-0.0351562 0.421875,-0.24609375 0.421875,-0.48046875 0,-0.22265625 -0.164063,-0.32812496 -0.339844,-0.32812496 -0.257812,0 -0.492187,0.23437496 -0.492187,0.53906246 0,0.43359375 0.480468,0.609375 0.855468,0.609375 0.527344,0 0.832032,-0.421875 0.960938,-0.66796875 0.222656,0.59765625 0.761719,0.66796875 0.996094,0.66796875 0.972656,0 1.476562,-1.16015626 1.476562,-1.37109376 0,-0.046875 -0.02344,-0.1171875 -0.117187,-0.1171875 -0.09375,0 -0.105469,0.035156 -0.152344,0.1757813 -0.1875,0.64453121 -0.714844,1.08984371 -1.183594,1.08984371 -0.257812,0 -0.492187,-0.15234375 -0.492187,-0.5859375 0,-0.19921875 0.117187,-0.69140621 0.199218,-1.03125001 0.03516,-0.1640625 0.28125,-1.1367187 0.292969,-1.1953125 0.117188,-0.3164062 0.386719,-0.796875 0.84375,-0.796875 0.152344,0 0.328125,0.023437 0.457031,0.1171875 z m 5.317383,0.1640625 c 0.01172,-0.035156 0.02344,-0.09375 0.02344,-0.1523437 0,-0.1054688 -0.08203,-0.2578125 -0.269532,-0.2578125 -0.117187,0 -0.28125,0.070312 -0.351562,0.2460937 -0.01172,0.035156 -0.105469,0.3984375 -0.152344,0.5976563 l -0.445312,1.7929687 c -0.08203,0.25781251 -0.08203,0.28125001 -0.09375,0.36328126 -0.01172,0.0351563 -0.386719,0.73828125 -1.03125,0.73828125 -0.5625,0 -0.5625,-0.5625 -0.5625,-0.7265625 0,-0.41015621 0.117187,-0.84375001 0.503906,-1.85156251 0.07031,-0.2109375 0.128906,-0.328125 0.128906,-0.5039062 0,-0.4335938 -0.328125,-0.75 -0.773437,-0.75 -0.855469,0 -1.21875,1.2773437 -1.21875,1.3828125 0,0.082031 0.07031,0.1054687 0.128906,0.1054687 0.09375,0 0.105469,-0.058594 0.140625,-0.1757812 0.1875,-0.65625 0.550781,-1.0898438 0.925781,-1.0898438 0.210938,0 0.210938,0.1757813 0.210938,0.2929688 0,0.1523437 -0.03516,0.3164062 -0.117188,0.5273437 -0.421875,1.1132813 -0.539062,1.4882813 -0.539062,1.92187501 0,0.9960937525 0.808593,1.08984375 1.148437,1.08984375 0.433594,0 0.75,-0.22265625 0.914063,-0.38671875 -0.117188,0.45703125 -0.222657,0.85546875 -0.574219,1.30078129 -0.269531,0.3632812 -0.621094,0.609375 -1.019531,0.609375 -0.246094,0 -0.539063,-0.09375 -0.667969,-0.3398438 0.46875,0 0.539062,-0.39843749 0.539062,-0.49218749 0,-0.19921875 -0.140625,-0.31640625 -0.339843,-0.31640625 -0.222657,0 -0.503907,0.1640625 -0.503907,0.58593754 0,0.4570312 0.410157,0.7851562 0.972657,0.7851562 0.914062,0 1.898437,-0.7851562 2.15625,-1.82812499 z m 0,0"
         style="fill:#000000;fill-opacity:1;fill-rule:nonzero;stroke:none" />
      <path
         id="path29"
         d="m 25.419234,-7.5358047 c 0,-0.140625 -0.105468,-0.2460937 -0.234375,-0.2460937 -0.164062,0 -0.339843,0.1640625 -0.339843,0.328125 0,0.1523437 0.105468,0.2460937 0.234375,0.2460937 0.199218,0 0.339843,-0.1757812 0.339843,-0.328125 z m -0.351562,2.0859375 c 0.02344,-0.058594 0.08203,-0.2109375 0.105469,-0.2578125 0.01172,-0.058594 0.03516,-0.1171875 0.03516,-0.2226562 0,-0.328125 -0.292969,-0.515625 -0.597656,-0.515625 -0.609375,0 -0.902344,0.7851562 -0.902344,0.9257812 0,0.023437 0.02344,0.082031 0.105469,0.082031 0.08203,0 0.105468,-0.035156 0.117187,-0.09375 0.175781,-0.5742188 0.492188,-0.7148438 0.65625,-0.7148438 0.117188,0 0.164063,0.082031 0.164063,0.2109375 0,0.1171875 -0.03516,0.2109375 -0.04687,0.2578125 l -0.316407,0.7617188 c -0.07031,0.1757812 -0.07031,0.1875 -0.152343,0.3867187 -0.07031,0.1757813 -0.105469,0.2578125 -0.105469,0.3632813 0,0.3046875 0.28125,0.515625 0.609375,0.515625 0.597656,0 0.902344,-0.7851563 0.902344,-0.9140625 0,-0.011719 -0.01172,-0.09375 -0.117188,-0.09375 -0.08203,0 -0.09375,0.035156 -0.128906,0.1523437 -0.09375,0.3046875 -0.339844,0.65625 -0.644531,0.65625 -0.105469,0 -0.152344,-0.070312 -0.152344,-0.2109375 0,-0.1171875 0.03516,-0.2109375 0.105469,-0.3984375 z m 0,0"
         style="fill:#000000;fill-opacity:1;fill-rule:nonzero;stroke:none" />
      <path
         id="path30"
         d="m 27.751266,-0.76236719 c 0.1875,-0.22265625 0.679687,-0.66796871 1.066406,-0.99609371 0.667969,-0.5625 0.878906,-0.7617188 0.996094,-0.890625 0.726562,-0.703125 0.972656,-1.1601563 0.972656,-1.21875 0,0 0,-0.09375 -0.117188,-0.09375 -0.08203,0 -0.09375,0.023437 -0.140625,0.09375 -0.117187,0.1875 -0.363281,0.5625 -0.667968,0.5625 -0.175782,0 -0.292969,-0.09375 -0.503907,-0.328125 -0.210937,-0.234375 -0.386718,-0.328125 -0.621093,-0.328125 -0.679688,0 -1.101563,0.8203125 -1.101563,1.0429687 0,0.035156 0.01172,0.1054688 0.117188,0.1054688 0.08203,0 0.117187,-0.058594 0.117187,-0.082031 0.175781,-0.4335937 0.703125,-0.4335937 0.773438,-0.4335937 0.210937,0 0.421875,0.070312 0.621093,0.140625 0.351563,0.1171875 0.503907,0.1171875 0.644532,0.1171875 -0.28125,0.3046875 -0.785157,0.7382812 -1.347657,1.21875 -0.445312,0.3867187 -0.726562,0.65625 -0.925781,0.85546871 -0.328125,0.3515625 -0.726562,0.90234375 -0.726562,0.9960937525 0,0.0585937475 0.03516,0.0937499975 0.117187,0.0937499975 0.07031,0 0.09375,-0.03515625 0.140625,-0.08203125 0.351563,-0.5390625 0.679688,-0.57421875 0.773438,-0.57421875 0.234375,0 0.351562,0.12890625 0.550781,0.36328125 0.210937,0.22265625 0.398437,0.29296875 0.585937,0.29296875 0.925782,0 1.453125,-1.14843746 1.453125,-1.38281246 0,-0.082031 -0.05859,-0.1054688 -0.117187,-0.1054688 -0.09375,0 -0.105469,0.058594 -0.128906,0.09375 -0.246094,0.66796876 -0.878907,0.76171876 -1.113282,0.76171876 -0.164062,0 -0.351562,-0.046875 -0.621093,-0.12890625 -0.175782,-0.0585938 -0.386719,-0.1171875 -0.574219,-0.1171875 -0.09375,0 -0.1875,0.0117188 -0.222656,0.0234372 z m 0,0"
         style="fill:#000000;fill-opacity:1;fill-rule:nonzero;stroke:none" />
      <path
         id="path31"
         d="m 38.76982,-2.0514297 c 0.152344,0 0.328125,0 0.328125,-0.1875 0,-0.1992187 -0.164062,-0.1992187 -0.328125,-0.1992187 h -3.867187 c 0.09375,-1.1132813 1.066406,-2.1210938 2.449219,-2.1210938 h 1.417968 c 0.152344,0 0.328125,0 0.328125,-0.1875 0,-0.1992187 -0.164062,-0.1992187 -0.328125,-0.1992187 h -1.441406 c -1.582031,0 -2.8125,1.2304687 -2.8125,2.6953125 0,1.49999996 1.253906,2.70703121 2.8125,2.70703121 h 1.441406 c 0.152344,0 0.328125,0 0.328125,-0.1875 0,-0.19921875 -0.164062,-0.19921875 -0.328125,-0.19921875 h -1.417968 c -1.394532,0 -2.355469,-1.0078125 -2.449219,-2.12109376 z m 0,0"
         style="fill:#000000;fill-opacity:1;fill-rule:nonzero;stroke:none" />
      <path
         id="path32"
         d="m 45.853805,-5.4147109 c 0.08203,-0.3398438 0.117187,-0.4335938 0.949218,-0.4335938 0.246094,0 0.328125,0 0.328125,-0.1640625 0,-0.1054687 -0.117187,-0.1054687 -0.140625,-0.1054687 -0.210937,0 -0.445312,0.011719 -0.65625,0.011719 -0.210937,0 -0.433593,0.011719 -0.644531,0.011719 -0.210937,0 -0.421875,0 -0.621094,-0.011719 -0.164062,-0.011719 -0.433593,-0.011719 -0.585937,-0.011719 -0.05859,0 -0.1875,0 -0.1875,0.1523437 0,0.1171875 0.08203,0.1171875 0.269531,0.1171875 0.03516,0 0.199219,0 0.339844,0.023437 0.152344,0.011719 0.222656,0.035156 0.222656,0.1289063 0,0.046875 -0.01172,0.082031 -0.03516,0.1875 l -1.21875,4.82812496 c -0.07031,0.31640625 -0.09375,0.3984375 -0.761719,0.3984375 -0.175781,0 -0.269531,0 -0.269531,0.1640625 0,0.1171875025 0.08203,0.1171875025 0.246094,0.1171875025 h 4.230468 c 0.222657,0 0.222657,-0.0117187525 0.292969,-0.1992187525 0.09375,-0.22265625 0.738281,-1.92187501 0.738281,-1.99218751 0,-0.082031 -0.05859,-0.1171875 -0.128906,-0.1171875 -0.08203,0 -0.09375,0.035156 -0.164062,0.2109375 -0.304688,0.796875 -0.703125,1.81640626 -2.273438,1.81640626 h -0.878906 c -0.128906,0 -0.152344,0 -0.1875,0 -0.08203,-0.0117188 -0.117188,-0.0234375 -0.117188,-0.0820313 0,-0.0351563 0,-0.046875 0.04687,-0.2109375 z m 0,0"
         style="fill:#000000;fill-opacity:1;fill-rule:nonzero;stroke:none" />
      <path
         id="path33"
         d="m 54.472945,-3.5865859 v -0.28125 h -1.066406 v -1.0078125 c 0,-0.8203125 0.445313,-1.21875 0.832031,-1.21875 0.08203,0 0.175782,0.011719 0.269532,0.046875 -0.09375,0.035156 -0.234375,0.1523437 -0.234375,0.375 0,0.234375 0.164062,0.3867187 0.398437,0.3867187 0.234375,0 0.398438,-0.1640625 0.398438,-0.3984375 0,-0.3398437 -0.339844,-0.6328125 -0.832032,-0.6328125 -0.703125,0 -1.441406,0.5273438 -1.441406,1.4179688 v 1.03125 h -0.703125 v 0.28125 h 0.703125 v 2.89453121 c 0,0.41015625 -0.09375,0.41015625 -0.679687,0.41015625 v 0.2812500025 c 0.46875,-0.0234375025 0.585937,-0.0234375025 1.042968,-0.0234375025 0.363282,0 0.574219,0 1.136719,0.0234375025 V -0.28189844 h -0.175781 c -0.65625,0 -0.679688,-0.09375 -0.679688,-0.421875 V -3.5865859 Z m 4.467774,1.6757812 c 0,-1.171875 -0.925781,-2.109375 -2.027344,-2.109375 -1.148437,0 -2.050781,0.9609375 -2.050781,2.109375 0,1.12500001 0.9375,2.00390626 2.039062,2.00390626 1.136719,0 2.039063,-0.90234375 2.039063,-2.00390626 z m -2.027344,1.75781251 c -0.457031,0 -0.832031,-0.22265625 -1.03125,-0.57421875 -0.234375,-0.37499996 -0.246094,-0.85546876 -0.246094,-1.26562496 0,-0.328125 0,-0.84375 0.222657,-1.2070313 0.269531,-0.4570312 0.714843,-0.5976562 1.042968,-0.5976562 0.503907,0 0.878907,0.2929687 1.054688,0.5976562 0.210937,0.375 0.210937,0.8320313 0.210937,1.2070313 0,0.328125 0,0.8554687 -0.222656,1.25390621 -0.246094,0.41015625 -0.65625,0.5859375 -1.03125,0.5859375 z M 60.80693,-2.0514297 c 0,-0.375 0.105468,-1.6875 1.125,-1.6875 v 0.011719 c -0.02344,0.011719 -0.164063,0.1171875 -0.164063,0.328125 0,0.2460937 0.1875,0.3984375 0.398438,0.3984375 0.1875,0 0.386718,-0.140625 0.386718,-0.4101563 0,-0.28125 -0.269531,-0.5507812 -0.667968,-0.5507812 -0.539063,0 -0.914063,0.375 -1.125,0.9257812 v -0.9257812 l -1.277344,0.09375 v 0.28125 c 0.609375,0 0.691406,0.058594 0.691406,0.5039062 v 2.39062501 c 0,0.41015625 -0.105469,0.41015625 -0.691406,0.41015625 V -6.484375e-4 C 59.951461,-0.02408594 60.068648,-0.02408594 60.52568,-0.02408594 c 0.363281,0 0.574218,0 1.148437,0.0234375025 V -0.28189844 h -0.1875 c -0.65625,0 -0.679687,-0.09375 -0.679687,-0.421875 z m 8.147461,1.40625001 c 0.03516,0.375 0.304687,0.703125 0.691406,0.703125 0.222656,0 0.785156,-0.140625 0.785156,-0.85546875 V -1.3014297 h -0.257812 v 0.49218751 c 0,0.10546875 0,0.55078125 -0.316407,0.55078125 -0.328125,0 -0.328125,-0.43359375 -0.328125,-0.57421875 V -2.4029922 c 0,-0.515625 0,-0.8203125 -0.398437,-1.1835937 -0.328125,-0.2929688 -0.761719,-0.4335938 -1.207031,-0.4335938 -0.761719,0 -1.382813,0.375 -1.382813,0.9492188 0,0.28125 0.1875,0.4335937 0.421875,0.4335937 0.234375,0 0.410156,-0.1757812 0.410156,-0.4101562 0,-0.3867188 -0.398437,-0.4335938 -0.398437,-0.4335938 0.234375,-0.234375 0.667969,-0.3164062 0.925781,-0.3164062 0.457031,0 0.972656,0.3398437 0.972656,1.1367187 v 0.2929688 c -0.492187,0.023437 -1.160156,0.058594 -1.757812,0.3515625 -0.644531,0.3164062 -0.84375,0.7734375 -0.84375,1.13671871 0,0.73828125 0.867187,0.97265625 1.464844,0.97265625 0.75,0 1.089843,-0.4921875 1.21875,-0.73828125 z m -0.08203,-0.62109371 c 0,0.86718746 -0.679687,1.13671871 -1.066406,1.13671871 -0.421875,0 -0.820312,-0.3046875 -0.820312,-0.75 0,-0.58593751 0.515625,-1.21875001 1.886718,-1.27734371 z m 3.272461,-4.9570313 -1.324218,0.1054688 v 0.2695312 c 0.609375,0 0.679687,0.070312 0.679687,0.5039063 v 4.65234371 c 0,0.41015625 -0.09375,0.41015625 -0.679687,0.41015625 V -6.484375e-4 C 71.230758,-0.02408594 71.406539,-0.02408594 71.816695,-0.02408594 c 0.421875,0 0.574219,0 1.019532,0.0234375025 V -0.28189844 c -0.597657,0 -0.691407,0 -0.691407,-0.41015625 z m 2.560547,0 -1.324219,0.1054688 v 0.2695312 c 0.609375,0 0.679688,0.070312 0.679688,0.5039063 v 4.65234371 c 0,0.41015625 -0.09375,0.41015625 -0.679688,0.41015625 V -6.484375e-4 C 73.791305,-0.02408594 73.967086,-0.02408594 74.377242,-0.02408594 c 0.421875,0 0.574219,0 1.019531,0.0234375025 V -0.28189844 c -0.597656,0 -0.691406,0 -0.691406,-0.41015625 z m 0,0"
         style="fill:#000000;fill-opacity:1;fill-rule:nonzero;stroke:none" />
      <path
         id="path34"
         d="m 81.288375,-5.5904922 c 0,-0.1992187 -0.140625,-0.3398437 -0.339844,-0.3398437 -0.246093,0 -0.492187,0.234375 -0.492187,0.4804687 0,0.1757813 0.140625,0.328125 0.351562,0.328125 0.234375,0 0.480469,-0.2226562 0.480469,-0.46875 z m 0.128906,4.3125 c 0,-0.046875 -0.03516,-0.1171875 -0.117187,-0.1171875 -0.105469,0 -0.117188,0.046875 -0.152344,0.1640625 -0.210937,0.73828126 -0.574219,1.10156251 -0.914062,1.10156251 -0.152344,0 -0.222657,-0.0703125 -0.222657,-0.29296875 0,-0.2109375 0.07031,-0.41015625 0.140625,-0.58593746 0.164063,-0.421875 0.164063,-0.4453125 0.28125,-0.7265625 0.140625,-0.3867188 0.339844,-0.890625 0.433594,-1.1484375 0.05859,-0.1523438 0.05859,-0.2460938 0.05859,-0.328125 0,-0.5039063 -0.398438,-0.75 -0.761719,-0.75 -0.867187,0 -1.21875,1.2773437 -1.21875,1.3828125 0,0.082031 0.07031,0.1054687 0.128906,0.1054687 0.09375,0 0.105469,-0.058594 0.140625,-0.1757812 0.1875,-0.6328125 0.527344,-1.0898438 0.925782,-1.0898438 0.09375,0 0.210937,0.023437 0.210937,0.28125 0,0.234375 -0.08203,0.4570313 -0.164062,0.6679688 l -0.644532,1.6640625 c -0.05859,0.16406246 -0.117187,0.30468746 -0.117187,0.46874996 0,0.421875 0.316406,0.75 0.773437,0.75 0.867188,0 1.21875,-1.28906246 1.21875,-1.37109376 z m 0,0"
         style="fill:#000000;fill-opacity:1;fill-rule:nonzero;stroke:none" />
      <path
         id="path35"
         d="m 90.595992,-2.9303359 c 0.08203,-0.035156 0.1875,-0.09375 0.1875,-0.2109375 0,-0.1171875 -0.07031,-0.1523438 -0.164062,-0.1992188 l -5.074219,-2.4375 c -0.128906,-0.070312 -0.175781,-0.070312 -0.1875,-0.070312 -0.105469,0 -0.1875,0.082031 -0.1875,0.1992188 0,0.1171875 0.09375,0.1757812 0.175781,0.2109375 l 4.792969,2.2851562 -4.757813,2.29687501 c -0.140625,0.0703125 -0.210937,0.10546875 -0.210937,0.22265625 0,0.0820313 0.04687,0.19921875 0.199219,0.19921875 0,0 0.04687,0 0.152343,-0.0585938 z m -0.152344,4.3125 c 0.152344,0 0.339844,0 0.339844,-0.1875 0,-0.19921879 -0.199219,-0.19921879 -0.339844,-0.19921879 h -4.945312 c -0.128906,0 -0.328125,0 -0.328125,0.19921879 0,0.1875 0.175781,0.1875 0.328125,0.1875 z m 0,0"
         style="fill:#000000;fill-opacity:1;fill-rule:nonzero;stroke:none" />
      <path
         id="path36"
         d="m 98.371383,-2.8717422 c 0,-0.5976562 -0.02344,-1.3710937 -0.339844,-2.0390625 -0.398437,-0.84375 -1.078125,-1.0546875 -1.59375,-1.0546875 -0.539062,0 -1.21875,0.2109375 -1.617187,1.0664063 -0.292969,0.6210937 -0.328125,1.3476562 -0.328125,2.0273437 0,0.5859375 0.01172,1.453125 0.398437,2.16796876 0.421875,0.76171875 1.125,0.90234375 1.535156,0.90234375 0.585938,0 1.242188,-0.2578125 1.617188,-1.078125 0.269531,-0.59765621 0.328125,-1.27734371 0.328125,-1.99218751 z m -1.933594,2.84765626 c -0.269531,0 -0.914062,-0.12890625 -1.089844,-1.13671876 -0.09375,-0.5390625 -0.09375,-1.3007812 -0.09375,-1.8164062 0,-0.609375 0,-1.3125 0.117188,-1.8164063 0.175781,-0.796875 0.75,-0.9492187 1.054687,-0.9492187 0.339844,0 0.902344,0.1757812 1.078125,1.0078125 0.09375,0.4921875 0.09375,1.1953125 0.09375,1.7578125 0,0.5507812 0,1.3125 -0.09375,1.8398437 -0.1875,1.01953126 -0.84375,1.11328126 -1.066406,1.11328126 z m 0,0"
         style="fill:#000000;fill-opacity:1;fill-rule:nonzero;stroke:none" />
    </g>
    <path
       id="path37"
       d="M -45.55432,-22.87677 H -0.19925 V -0.19925 H -45.55432 Z"
       style="fill:none;stroke:#000000;stroke-width:0.3985;stroke-linecap:butt;stroke-linejoin:miter;stroke-miterlimit:10;stroke-dasharray:none;stroke-opacity:1"
       transform="matrix(1.3333333,0,0,-1.3333333,70.250667,44.429333)" />
    <path
       id="path38"
       d="m 4.3722266,-2.9179297 c 0.046875,-0.234375 0.1523437,-0.6445312 0.1523437,-0.6914062 0,-0.1054688 -0.082031,-0.2578125 -0.2695312,-0.2578125 -0.1289063,0 -0.2695313,0.082031 -0.328125,0.1875 -0.046875,0.09375 -0.65625,2.5195312 -0.703125,2.82421871 -0.1875,0.31640625 -0.5507813,0.7265625 -1.0429688,0.7265625 -0.5625,0 -0.5625,-0.5625 -0.5625,-0.7265625 0,-0.41015621 0.1171875,-0.84375001 0.5039063,-1.85156251 0.070312,-0.2109375 0.1289062,-0.328125 0.1289062,-0.5039062 0,-0.4335938 -0.328125,-0.75 -0.7734375,-0.75 -0.85546874,0 -1.21874999,1.2773437 -1.21874999,1.3828125 0,0.082031 0.0703125,0.1054687 0.12890625,0.1054687 0.09375,0 0.10546875,-0.058594 0.140625,-0.1757812 0.1875,-0.6445313 0.53906254,-1.0898438 0.92578124,-1.0898438 0.1875,0 0.2109375,0.1289063 0.2109375,0.2929688 0,0.1523437 -0.035156,0.3164062 -0.1171875,0.5273437 -0.421875,1.1132813 -0.5390625,1.4882813 -0.5390625,1.92187501 0,0.9960937525 0.8085938,1.08984375 1.1484375,1.08984375 0.5039063,0 0.8789063,-0.3046875 1.0898438,-0.5859375 0.1640625,0.5859375 0.7617187,0.5859375 0.8203125,0.5859375 0.2578125,0 0.4804687,-0.1171875 0.6679687,-0.46875 0.1640625,-0.29296875 0.2929688,-0.86718746 0.2929688,-0.90234376 0,-0.046875 -0.023437,-0.1171875 -0.1171875,-0.1171875 -0.1054688,0 -0.1171875,0.046875 -0.1523438,0.2226563 -0.1757812,0.70312496 -0.3632812,1.04296871 -0.6679687,1.04296871 -0.2226563,0 -0.28125,-0.1875 -0.28125,-0.41015625 0,-0.1640625 0.046875,-0.3515625 0.1289062,-0.66796876 l 0.2226563,-0.9140625 z m 0,0"
       style="fill:#000000;fill-opacity:1;fill-rule:nonzero;stroke:none"
       aria-label="u"
       transform="matrix(1.3333333,0,0,1.3333333,36.213333,62.386667)" />
    <path
       id="path39"
       d="M 0.19925,-11.33876 H 45.55432 V 11.33876 H 0.19925 Z"
       style="fill:none;stroke:#000000;stroke-width:0.3985;stroke-linecap:butt;stroke-linejoin:miter;stroke-miterlimit:10;stroke-dasharray:none;stroke-opacity:1"
       transform="matrix(1.3333333,0,0,-1.3333333,70.250667,44.429333)" />
    <g
       id="g39"
       aria-label="v&#10;i"
       transform="matrix(1.3333333,0,0,1.3333333,95.445333,49.608)">
      <path
         id="path40"
         d="m 4.3124844,-3.3036563 c 0,-0.6328125 -0.328125,-0.6679687 -0.4101563,-0.6679687 -0.2226562,0 -0.4570312,0.2460937 -0.4570312,0.4453125 0,0.140625 0.082031,0.2109375 0.140625,0.2695312 0.2460937,0.2226563 0.328125,0.5039063 0.328125,0.7382813 0,0.3984375 -0.5742188,2.390625 -1.6054688,2.390625 -0.6796875,0 -0.6796875,-0.62109375 -0.6796875,-0.78515625 0,-0.38671875 0.1289063,-0.84375005 0.4453125,-1.66406255 0.140625,-0.375 0.1757813,-0.4570312 0.1757813,-0.6328125 0,-0.4335937 -0.328125,-0.75 -0.7734375,-0.75 -0.85546877,0 -1.21875002,1.2773438 -1.21875002,1.3828125 0,0.082031 0.0703125,0.1054688 0.12890625,0.1054688 0.09375,0 0.10546875,-0.058594 0.140625,-0.1757813 0.1875,-0.65625 0.55078127,-1.0898437 0.92578127,-1.0898437 0.1757812,0 0.2109375,0.1171875 0.2109375,0.2929687 0,0.1523438 -0.035156,0.3164063 -0.1171875,0.5273438 -0.3164063,0.8671875 -0.5390625,1.4414062 -0.5390625,1.8867187 0,0.84375005 0.6445312,1.12500005 1.265625,1.12500005 1.5,0 2.0390625,-2.82421875 2.0390625,-3.39843755 z m 0,0"
         style="fill:#000000;fill-opacity:1;fill-rule:nonzero;stroke:none" />
      <path
         id="path41"
         d="m 6.8730313,-7.534125 c 0,-0.140625 -0.1054688,-0.2460938 -0.234375,-0.2460938 -0.1640625,0 -0.3398438,0.1640625 -0.3398438,0.328125 0,0.1523438 0.1054688,0.2460938 0.234375,0.2460938 0.1992188,0 0.3398438,-0.1757813 0.3398438,-0.328125 z M 6.5214688,-5.4481875 C 6.5449063,-5.5067813 6.6035,-5.659125 6.6269375,-5.706 c 0.011719,-0.058594 0.035156,-0.1171875 0.035156,-0.2226563 0,-0.328125 -0.2929688,-0.515625 -0.5976563,-0.515625 -0.609375,0 -0.9023437,0.7851563 -0.9023437,0.9257813 0,0.023437 0.023437,0.082031 0.1054687,0.082031 0.082031,0 0.1054688,-0.035156 0.1171875,-0.09375 0.1757813,-0.5742187 0.4921875,-0.7148437 0.65625,-0.7148437 0.1171875,0 0.1640625,0.082031 0.1640625,0.2109375 0,0.1171875 -0.035156,0.2109375 -0.046875,0.2578125 L 5.841781,-5.014594 c -0.070312,0.1757813 -0.070312,0.1875 -0.1523438,0.3867188 -0.070312,0.1757812 -0.1054687,0.2578125 -0.1054687,0.3632812 0,0.3046875 0.28125,0.515625 0.609375,0.515625 0.5976562,0 0.9023437,-0.7851562 0.9023437,-0.9140625 0,-0.011719 -0.011719,-0.09375 -0.1171875,-0.09375 -0.082031,0 -0.09375,0.035156 -0.1289062,0.1523438 -0.09375,0.3046875 -0.3398438,0.65625 -0.6445313,0.65625 -0.1054687,0 -0.1523437,-0.070313 -0.1523437,-0.2109375 0,-0.1171875 0.035156,-0.2109375 0.1054687,-0.3984375 z m 0,0"
         style="fill:#000000;fill-opacity:1;fill-rule:nonzero;stroke:none" />
    </g>
    <path
       id="path42"
       d="M 0.19925,-11.33876 H 45.55432 V 11.33876 H 0.19925 Z"
       style="fill:none;stroke:#000000;stroke-width:0.3985;stroke-linecap:butt;stroke-linejoin:miter;stroke-miterlimit:10;stroke-dasharray:none;stroke-opacity:1"
       transform="matrix(1.3333333,0,0,-1.3333333,70.250667,44.429333)" />
    <path
       id="path43"
       d="m 4.4053984,-3.6201641 c -0.328125,0.058594 -0.421875,0.3515625 -0.421875,0.4804688 0,0.1757812 0.1171875,0.328125 0.3398438,0.328125 0.2578125,0 0.5039062,-0.2226563 0.5039062,-0.5273438 0,-0.421875 -0.4570312,-0.6210937 -0.8789062,-0.6210937 -0.5390625,0 -0.84375,0.46875 -0.9492188,0.65625 -0.1757812,-0.4335938 -0.5742187,-0.65625 -0.9960937,-0.65625 -0.9609375,0 -1.48828126,1.1484375 -1.48828126,1.3828125 0,0.082031 0.0703125,0.1054687 0.12890625,0.1054687 0.0820313,0 0.10546875,-0.046875 0.12890625,-0.1054687 0.28124996,-0.8789063 0.86718746,-1.1601563 1.20703126,-1.1601563 0.2578125,0 0.4921875,0.1757813 0.4921875,0.5859375 0,0.328125 -0.3867188,1.7578125 -0.5039063,2.19140629 -0.070312,0.28125 -0.3398437,0.83203125 -0.8320312,0.83203125 -0.17578126,0 -0.36328126,-0.0585938 -0.45703126,-0.1171875 0.24609375,-0.0351563 0.42187496,-0.24609375 0.42187496,-0.48046875 0,-0.22265625 -0.16406246,-0.32812499 -0.33984371,-0.32812499 -0.2578125,0 -0.4921875,0.23437499 -0.4921875,0.53906249 0,0.43359375 0.48046875,0.609375 0.85546871,0.609375 0.5273438,0 0.8320313,-0.421875 0.9609375,-0.66796875 0.2226563,0.59765625 0.7617188,0.66796875 0.9960938,0.66796875 0.9726562,0 1.4765625,-1.16015629 1.4765625,-1.37109379 0,-0.046875 -0.023437,-0.1171875 -0.1171875,-0.1171875 -0.09375,0 -0.1054688,0.035156 -0.1523438,0.1757813 -0.1875,0.64453124 -0.7148437,1.08984374 -1.1835937,1.08984374 -0.2578125,0 -0.4921875,-0.15234375 -0.4921875,-0.5859375 0,-0.19921875 0.1171875,-0.69140624 0.1992187,-1.03125004 0.035156,-0.1640625 0.28125,-1.1367187 0.2929688,-1.1953125 0.1171875,-0.3164062 0.3867187,-0.796875 0.84375,-0.796875 0.1523437,0 0.328125,0.023437 0.4570312,0.1171875 z m 0,0"
       style="fill:#000000;fill-opacity:1;fill-rule:nonzero;stroke:none"
       aria-label="x"
       transform="matrix(1.3333333,0,0,1.3333333,97.270667,47.002667)" />
    <path
       id="path44"
       d="M 0.19925,-11.33876 H 45.55432 V 11.33876 H 0.19925 Z"
       style="fill:none;stroke:#000000;stroke-width:0.3985;stroke-linecap:butt;stroke-linejoin:miter;stroke-miterlimit:10;stroke-dasharray:none;stroke-opacity:1"
       transform="matrix(1.3333333,0,0,-1.3333333,70.250667,44.429333)" />
    <g
       id="g44"
       aria-label="y&#10;i"
       transform="matrix(1.3333333,0,0,1.3333333,95.404,48.446667)">
      <path
         id="path45"
         d="m 4.4987578,-3.4580469 c 0.011719,-0.035156 0.023437,-0.09375 0.023437,-0.1523437 0,-0.1054688 -0.082031,-0.2578125 -0.2695312,-0.2578125 -0.1171875,0 -0.28125,0.070312 -0.3515625,0.2460937 -0.011719,0.035156 -0.1054688,0.3984375 -0.1523438,0.5976563 l -0.4453125,1.7929687 c -0.082031,0.25781252 -0.082031,0.28125002 -0.09375,0.36328127 -0.011719,0.0351563 -0.3867187,0.73828125 -1.03125,0.73828125 -0.5625,0 -0.5625,-0.5625 -0.5625,-0.7265625 0,-0.41015622 0.1171875,-0.84375002 0.5039063,-1.85156252 0.070312,-0.2109375 0.1289062,-0.328125 0.1289062,-0.5039062 0,-0.4335938 -0.328125,-0.75 -0.7734375,-0.75 -0.85546874,0 -1.21874999,1.2773437 -1.21874999,1.3828125 0,0.082031 0.0703125,0.1054687 0.12890625,0.1054687 0.09375,0 0.10546875,-0.058594 0.140625,-0.1757812 0.1875,-0.65625 0.55078124,-1.0898438 0.92578124,-1.0898438 0.2109375,0 0.2109375,0.1757813 0.2109375,0.2929688 0,0.1523437 -0.035156,0.3164062 -0.1171875,0.5273437 -0.421875,1.1132813 -0.5390625,1.4882813 -0.5390625,1.92187502 0,0.99609375 0.8085938,1.08984375 1.1484375,1.08984375 0.4335938,0 0.75,-0.22265625 0.9140625,-0.38671875 -0.117187,0.45703125 -0.2226557,0.85546875 -0.5742182,1.30078128 -0.2695313,0.3632812 -0.6210938,0.609375 -1.0195313,0.609375 -0.2460937,0 -0.53906249,-0.09375 -0.66796874,-0.3398438 0.46875004,0 0.53906254,-0.39843748 0.53906254,-0.49218748 0,-0.19921875 -0.140625,-0.31640625 -0.3398438,-0.31640625 -0.22265624,0 -0.50390624,0.1640625 -0.50390624,0.58593753 0,0.4570312 0.41015625,0.7851562 0.97265624,0.7851562 0.9140625,0 1.8984375,-0.7851562 2.15625,-1.82812498 z m 0,0"
         style="fill:#000000;fill-opacity:1;fill-rule:nonzero;stroke:none" />
      <path
         id="path46"
         d="m 6.9362578,-7.5361719 c 0,-0.140625 -0.1054687,-0.2460937 -0.234375,-0.2460937 -0.1640625,0 -0.3398437,0.1640625 -0.3398437,0.328125 0,0.1523437 0.1054687,0.2460937 0.234375,0.2460937 0.1992187,0 0.3398437,-0.1757812 0.3398437,-0.328125 z m -0.3515625,2.0859375 c 0.023437,-0.058594 0.082031,-0.2109375 0.1054688,-0.2578125 0.011719,-0.058594 0.035156,-0.1171875 0.035156,-0.2226562 0,-0.328125 -0.2929687,-0.515625 -0.5976562,-0.515625 -0.609375,0 -0.9023438,0.7851562 -0.9023438,0.9257812 0,0.023437 0.023437,0.082031 0.1054688,0.082031 0.082031,0 0.1054687,-0.035156 0.1171875,-0.09375 0.1757812,-0.5742188 0.4921875,-0.7148438 0.65625,-0.7148438 0.1171875,0 0.1640625,0.082031 0.1640625,0.2109375 0,0.1171875 -0.035156,0.2109375 -0.046875,0.2578125 l -0.3164063,0.7617188 c -0.070312,0.1757812 -0.070312,0.1875 -0.1523437,0.3867187 -0.070312,0.1757813 -0.1054688,0.2578125 -0.1054688,0.3632813 0,0.3046875 0.28125,0.515625 0.609375,0.515625 0.5976563,0 0.9023438,-0.7851563 0.9023438,-0.9140625 0,-0.011719 -0.011719,-0.09375 -0.1171875,-0.09375 -0.082031,0 -0.09375,0.035156 -0.1289063,0.1523437 -0.09375,0.3046875 -0.3398437,0.65625 -0.6445312,0.65625 -0.1054688,0 -0.1523438,-0.070313 -0.1523438,-0.2109375 0,-0.1171875 0.035156,-0.2109375 0.1054688,-0.3984375 z m 0,0"
         style="fill:#000000;fill-opacity:1;fill-rule:nonzero;stroke:none" />
    </g>
    <path
       id="path47"
       d="M 0.19925,-11.33876 H 45.55432 V 11.33876 H 0.19925 Z"
       style="fill:none;stroke:#000000;stroke-width:0.3985;stroke-linecap:butt;stroke-linejoin:miter;stroke-miterlimit:10;stroke-dasharray:none;stroke-opacity:1"
       transform="matrix(1.3333333,0,0,-1.3333333,70.250667,44.429333)" />
    <path
       id="path48"
       d="m 1.2417266,-0.76078906 c 0.1875,-0.22265625 0.6796875,-0.66796874 1.0664062,-0.99609374 0.6679688,-0.5625 0.8789063,-0.7617188 0.9960938,-0.890625 0.7265625,-0.703125 0.9726562,-1.1601563 0.9726562,-1.21875 0,0 0,-0.09375 -0.1171875,-0.09375 -0.082031,0 -0.09375,0.023437 -0.140625,0.09375 -0.1171875,0.1875 -0.3632812,0.5625 -0.6679687,0.5625 -0.1757813,0 -0.2929688,-0.09375 -0.5039063,-0.328125 -0.2109375,-0.234375 -0.3867187,-0.328125 -0.6210937,-0.328125 -0.6796875,0 -1.1015625,0.8203125 -1.1015625,1.0429687 0,0.035156 0.011719,0.1054688 0.1171875,0.1054688 0.082031,0 0.1171875,-0.058594 0.1171875,-0.082031 0.1757812,-0.4335937 0.703125,-0.4335937 0.7734375,-0.4335937 0.2109375,0 0.421875,0.070312 0.6210937,0.140625 0.3515625,0.1171875 0.5039063,0.1171875 0.6445313,0.1171875 -0.28125,0.3046875 -0.7851563,0.7382812 -1.3476563,1.21875 -0.4453125,0.3867187 -0.7265625,0.65625 -0.9257812,0.85546874 -0.32812504,0.3515625 -0.72656254,0.90234375 -0.72656254,0.9960937475 0,0.0585937525 0.0351563,0.0937500025 0.1171875,0.0937500025 0.0703125,0 0.09375,-0.03515625 0.140625,-0.08203125 0.35156254,-0.5390625 0.67968754,-0.57421875 0.77343754,-0.57421875 0.234375,0 0.3515625,0.12890625 0.5507812,0.36328125 0.2109375,0.22265625 0.3984375,0.29296875 0.5859375,0.29296875 0.9257813,0 1.453125,-1.14843749 1.453125,-1.38281249 0,-0.082031 -0.058594,-0.1054688 -0.1171875,-0.1054688 -0.09375,0 -0.1054687,0.058594 -0.1289062,0.09375 -0.2460938,0.66796879 -0.8789063,0.76171879 -1.1132813,0.76171879 -0.1640625,0 -0.3515625,-0.046875 -0.6210937,-0.12890625 -0.1757813,-0.0585938 -0.3867188,-0.1171875 -0.5742188,-0.1171875 -0.09375,0 -0.1875,0.0117188 -0.2226562,0.0234372 z m 0,0"
       style="fill:#000000;fill-opacity:1;fill-rule:nonzero;stroke:none"
       aria-label="z"
       transform="matrix(1.3333333,0,0,1.3333333,97.637333,47.002667)" />
  </g>
</svg>
