<?xml version="1.0" encoding="UTF-8" standalone="no"?>
<!-- Created with Inkscape (http://www.inkscape.org/) -->

<svg
   version="1.1"
   id="svg1"
   width="223.85948"
   height="12.09375"
   viewBox="0 0 223.85948 12.09375"
   xmlns="http://www.w3.org/2000/svg"
   xmlns:svg="http://www.w3.org/2000/svg">
  <defs
     id="defs1" />
  <g
     id="g1"
     transform="translate(-19.925781,0.13671897)">
    <path
       id="path1"
       d="M 9.9495547,-2.5439766 V -2.7549141 H 3.359375e-4 v 0.2109375 z m 5.0888673,-4.3710937 -1.429688,0.1054687 v 0.3164063 c 0.703125,0 0.773438,0.070312 0.773438,0.5507812 v 5.17968754 c 0,0.45703125 -0.105469,0.45703125 -0.773438,0.45703125 v 0.3046875 c 0.328125,-0.01171875 0.855469,-0.03515625 1.101563,-0.03515625 0.257812,0 0.738281,0.0234375 1.113281,0.03515625 v -0.3046875 c -0.667969,0 -0.785156,0 -0.785156,-0.45703125 z m 4.327148,6.15234374 c 0.03516,0.3984375 0.304688,0.8203125 0.773438,0.8203125 0.210937,0 0.820312,-0.140625 0.820312,-0.94921875 V -1.4424141 h -0.246093 v 0.55078129 c 0,0.5859375 -0.246094,0.64453125 -0.363282,0.64453125 -0.328125,0 -0.363281,-0.45703125 -0.363281,-0.50390625 V -2.7431953 c 0,-0.4101563 0,-0.8085938 -0.363281,-1.171875 -0.386719,-0.3867188 -0.878906,-0.5507813 -1.359375,-0.5507813 -0.820313,0 -1.511719,0.46875 -1.511719,1.125 0,0.3046875 0.199219,0.46875 0.457031,0.46875 0.28125,0 0.46875,-0.1992187 0.46875,-0.4570312 0,-0.1171875 -0.05859,-0.4453125 -0.515625,-0.4570313 0.269532,-0.3515625 0.761719,-0.4570312 1.078125,-0.4570312 0.492188,0 1.054688,0.3867187 1.054688,1.2773437 v 0.3632813 c -0.503906,0.035156 -1.207031,0.058594 -1.828125,0.3632812 -0.75,0.3398438 -0.996094,0.8554688 -0.996094,1.28906254 0,0.80859375 0.960938,1.0546875 1.59375,1.0546875 0.65625,0 1.113281,-0.3984375 1.300781,-0.8671875 z M 19.29526,-2.3916328 v 0.9960937 c 0,0.94921879 -0.714844,1.28906254 -1.160156,1.28906254 -0.492188,0 -0.902344,-0.3515625 -0.902344,-0.85546875 0,-0.53906249 0.421875,-1.37109379 2.0625,-1.42968749 z m 3.445312,-1.359375 v -3.1640625 l -1.429687,0.1054687 v 0.3164063 c 0.691406,0 0.773437,0.070312 0.773437,0.5507812 v 5.94140629 h 0.246094 c 0.01172,-0.01171875 0.09375,-0.15234375 0.363281,-0.62109375 0.152344,0.234375 0.5625,0.7265625 1.300782,0.7265625 1.183593,0 2.226562,-0.97265625 2.226562,-2.26171874 0,-1.265625 -0.972656,-2.25 -2.109375,-2.25 -0.785156,0 -1.207031,0.46875 -1.371094,0.65625 z m 0.03516,2.6132812 v -2.0507812 c 0,-0.1875 0,-0.1992188 0.105468,-0.3632813 0.386719,-0.5507812 0.9375,-0.6328125 1.171875,-0.6328125 0.457032,0 0.808594,0.2578125 1.054688,0.6328125 0.257812,0.4101563 0.28125,0.984375 0.28125,1.3945313 0,0.3632812 -0.01172,0.9609375 -0.304688,1.40624999 -0.210937,0.31640625 -0.585937,0.64453125 -1.125,0.64453125 -0.445312,0 -0.808593,-0.24609375 -1.042968,-0.609375 -0.140625,-0.2109375 -0.140625,-0.24609375 -0.140625,-0.42187504 z m 5.179687,-1.3710937 c 0.05859,-1.4882813 0.902344,-1.734375 1.242188,-1.734375 1.019531,0 1.125,1.3476562 1.125,1.734375 z m -0.01172,0.2109375 h 2.789063 c 0.210937,0 0.246094,0 0.246094,-0.2109375 0,-0.984375 -0.539063,-1.9570313 -1.78125,-1.9570313 -1.160157,0 -2.074219,1.03125 -2.074219,2.2734375 0,1.33593754 1.042969,2.29687504 2.191406,2.29687504 1.21875,0 1.664063,-1.1015625 1.664063,-1.28906254 0,-0.1054687 -0.08203,-0.1171875 -0.128907,-0.1171875 -0.09375,0 -0.117187,0.058594 -0.128906,0.140625 -0.351562,1.01953129 -1.253906,1.01953129 -1.347656,1.01953129 -0.503906,0 -0.902344,-0.29296875 -1.125,-0.66796875 C 27.943695,-1.2900703 27.943695,-1.9463203 27.943695,-2.2978828 Z m 5.085938,-4.6171875 -1.429688,0.1054687 v 0.3164063 c 0.703125,0 0.773438,0.070312 0.773438,0.5507812 v 5.17968754 c 0,0.45703125 -0.105469,0.45703125 -0.773438,0.45703125 v 0.3046875 c 0.328125,-0.01171875 0.855469,-0.03515625 1.101563,-0.03515625 0.257812,0 0.738281,0.0234375 1.113281,0.03515625 v -0.3046875 c -0.667969,0 -0.785156,0 -0.785156,-0.45703125 z m 2.917969,3.1523437 c 0,-0.2929687 -0.234375,-0.5273437 -0.527344,-0.5273437 -0.28125,0 -0.527344,0.234375 -0.527344,0.5273437 0,0.28125 0.246094,0.5273438 0.527344,0.5273438 0.292969,0 0.527344,-0.2460938 0.527344,-0.5273438 z m 0,3.23437504 c 0,-0.29296875 -0.234375,-0.52734374 -0.527344,-0.52734374 -0.28125,0 -0.527344,0.23437499 -0.527344,0.52734374 0,0.29296875 0.246094,0.52734375 0.527344,0.52734375 0.292969,0 0.527344,-0.234375 0.527344,-0.52734375 z M 44.53159,-3.9853828 c 0.457031,0 0.527344,0.1289062 0.527344,0.5390625 v 2.68359374 c 0,0.45703125 -0.117188,0.45703125 -0.785157,0.45703125 v 0.3046875 c 0.328125,-0.01171875 0.855469,-0.03515625 1.113282,-0.03515625 0.246093,0 0.738281,0.0234375 1.101562,0.03515625 v -0.3046875 c -0.667969,0 -0.773437,0 -0.773437,-0.45703125 V -4.4189766 l -1.253907,0.09375 c -0.164062,0.011719 -0.175781,0.023437 -0.1875,0.023437 -0.01172,0.011719 -0.03516,0.011719 -0.175781,0.011719 h -1.171875 v -1.125 c 0,-0.9960938 0.855469,-1.3945313 1.464844,-1.3945313 0.304687,0 0.667969,0.1054688 0.867187,0.328125 -0.410156,0.023437 -0.46875,0.3046875 -0.46875,0.46875 0,0.328125 0.257813,0.4570313 0.445313,0.4570313 0.222656,0 0.457031,-0.1640625 0.457031,-0.4570313 0,-0.5976562 -0.550781,-1.0078125 -1.289062,-1.0078125 -0.925782,0 -2.109375,0.5039063 -2.109375,1.59375 v 1.1367188 h -0.785157 v 0.3046875 h 0.785157 v 3.22265624 c 0,0.45703125 -0.105469,0.45703125 -0.773438,0.45703125 v 0.3046875 c 0.328125,-0.01171875 0.855469,-0.03515625 1.101563,-0.03515625 0.246093,0 0.738281,0.0234375 1.113281,0.03515625 v -0.3046875 c -0.667969,0 -0.785156,0 -0.785156,-0.45703125 V -3.9853828 Z m 4.447266,2.2734375 c -0.867188,0 -0.867188,-0.9960938 -0.867188,-1.2304688 0,-0.2695312 0.01172,-0.5859375 0.152344,-0.8320312 0.08203,-0.1171875 0.316406,-0.3984375 0.714844,-0.3984375 0.867187,0 0.867187,0.9960937 0.867187,1.21875 0,0.2695312 -0.01172,0.5976562 -0.164062,0.84375 -0.08203,0.1171875 -0.304688,0.3984375 -0.703125,0.3984375 z m -1.160157,0.3867187 c 0,-0.035156 0,-0.2695312 0.175782,-0.46875 0.386718,0.28125 0.796875,0.3046875 0.984375,0.3046875 0.925781,0 1.605468,-0.6796875 1.605468,-1.453125 0,-0.3632812 -0.152343,-0.7382812 -0.398437,-0.9609375 0.351562,-0.3398437 0.714844,-0.3867187 0.890625,-0.3867187 0.02344,0 0.07031,0 0.105469,0 -0.117188,0.046875 -0.164063,0.1523437 -0.164063,0.2695312 0,0.1757813 0.128906,0.2929688 0.292969,0.2929688 0.09375,0 0.28125,-0.070312 0.28125,-0.2929688 0,-0.1757812 -0.117188,-0.4921875 -0.503906,-0.4921875 -0.199219,0 -0.632813,0.058594 -1.054688,0.46875 -0.421875,-0.328125 -0.84375,-0.3632812 -1.054687,-0.3632812 -0.925782,0 -1.617188,0.6914062 -1.617188,1.453125 0,0.4453125 0.222656,0.8203125 0.46875,1.03125 -0.128906,0.1523437 -0.304687,0.4804687 -0.304687,0.8203125 0,0.31640624 0.128906,0.69140624 0.433593,0.89062499 -0.597656,0.17578125 -0.914062,0.59765625 -0.914062,0.99609375 0,0.71484376 0.984375,1.26562496 2.203125,1.26562496 1.171875,0 2.203125,-0.5039062 2.203125,-1.28906246 0,-0.33984375 -0.140625,-0.85546875 -0.644531,-1.125 -0.527344,-0.28125 -1.101563,-0.28125 -1.710938,-0.28125 -0.246094,0 -0.679687,0 -0.75,-0.0117188 -0.316406,-0.046875 -0.527344,-0.35156254 -0.527344,-0.66796874 z m 1.441407,3.1523438 c -1.007813,0 -1.699219,-0.515625 -1.699219,-1.04296876 0,-0.45703125 0.375,-0.8203125 0.820312,-0.85546875 h 0.585938 c 0.855469,0 1.96875,0 1.96875,0.85546875 0,0.53906246 -0.703125,1.04296876 -1.675781,1.04296876 z m 5.238281,-3.6914063 v -0.5742187 h -2.648438 v 0.5742187 z m 2.288086,-1.8867187 v -0.65625 l -1.429688,0.1171875 v 0.3046875 c 0.703125,0 0.773438,0.058594 0.773438,0.4921875 v 4.6640625 c 0,0.4570312 -0.105469,0.4570312 -0.773438,0.4570312 v 0.3046875 c 0.339844,-0.011719 0.855469,-0.035156 1.113281,-0.035156 0.269532,0 0.773438,0.023437 1.125,0.035156 V 1.6278984 c -0.667968,0 -0.773437,0 -0.773437,-0.4570312 v -1.75781251 c 0.04687,0.15234375 0.46875,0.69140625 1.21875,0.69140625 1.183594,0 2.226562,-0.97265625 2.226562,-2.26171874 0,-1.265625 -0.972656,-2.25 -2.085937,-2.25 -0.773438,0 -1.195313,0.4453125 -1.394531,0.65625 z m 0.03516,2.6132812 v -2.2148437 c 0.28125,-0.515625 0.773437,-0.796875 1.277344,-0.796875 0.726562,0 1.335937,0.8671875 1.335937,1.9921875 0,1.20703124 -0.691406,2.05078124 -1.429687,2.05078124 -0.398438,0 -0.773438,-0.19921875 -1.042969,-0.609375 -0.140625,-0.2109375 -0.140625,-0.22265625 -0.140625,-0.42187504 z m 7.669922,0.35156254 v 0.890625 l 1.441406,-0.10546875 v -0.3046875 c -0.703125,0 -0.785156,-0.0703125 -0.785156,-0.5625 V -4.4072578 l -1.453125,0.1171875 v 0.3046875 c 0.691406,0 0.773437,0.070312 0.773437,0.5625 v 1.7695312 c 0,0.86718754 -0.480468,1.54687504 -1.207031,1.54687504 -0.832031,0 -0.878906,-0.46875 -0.878906,-0.99609374 v -3.3046875 l -1.464844,0.1171875 v 0.3046875 c 0.785156,0 0.785156,0.035156 0.785156,0.9140625 v 1.5 c 0,0.77343749 0,1.67578124 1.511719,1.67578124 0.550781,0 0.996094,-0.26953125 1.277344,-0.890625 z m 2.748047,-2.63671874 v 2.66015624 c 0,0.45703125 -0.117188,0.45703125 -0.785157,0.45703125 v 0.3046875 c 0.351563,-0.01171875 0.855469,-0.03515625 1.125,-0.03515625 0.257813,0 0.785157,0.0234375 1.113282,0.03515625 v -0.3046875 c -0.65625,0 -0.773438,0 -0.773438,-0.45703125 V -2.5908516 c 0,-1.03125 0.714844,-1.59375 1.347656,-1.59375 0.621094,0 0.738282,0.5390625 0.738282,1.1015625 v 2.32031254 c 0,0.45703125 -0.117188,0.45703125 -0.773438,0.45703125 v 0.3046875 c 0.339844,-0.01171875 0.855469,-0.03515625 1.125,-0.03515625 0.257813,0 0.773438,0.0234375 1.113281,0.03515625 v -0.3046875 c -0.667968,0 -0.785156,0 -0.785156,-0.45703125 V -2.5908516 c 0,-1.03125 0.714844,-1.59375 1.347656,-1.59375 0.632813,0 0.738282,0.5390625 0.738282,1.1015625 v 2.32031254 c 0,0.45703125 -0.105469,0.45703125 -0.773438,0.45703125 v 0.3046875 c 0.351563,-0.01171875 0.855469,-0.03515625 1.125,-0.03515625 0.257813,0 0.773438,0.0234375 1.113281,0.03515625 v -0.3046875 c -0.515625,0 -0.761718,0 -0.773437,-0.3046875 V -2.5088203 c 0,-0.8554688 0,-1.171875 -0.316406,-1.5234375 -0.128907,-0.1757813 -0.46875,-0.375 -1.042969,-0.375 -0.832031,0 -1.277344,0.5976562 -1.441406,0.984375 -0.140625,-0.8671875 -0.878907,-0.984375 -1.324219,-0.984375 -0.726563,0 -1.195313,0.4335937 -1.476563,1.0546875 v -1.0546875 l -1.40625,0.1171875 v 0.3046875 c 0.703125,0 0.785157,0.070312 0.785157,0.5625 z m 8.909179,-0.328125 v -0.65625 l -1.429687,0.1171875 v 0.3046875 c 0.703125,0 0.773437,0.058594 0.773437,0.4921875 v 4.6640625 c 0,0.4570312 -0.105468,0.4570312 -0.773437,0.4570312 v 0.3046875 c 0.339844,-0.011719 0.855469,-0.035156 1.113281,-0.035156 0.269531,0 0.773438,0.023437 1.125,0.035156 V 1.6278984 c -0.667969,0 -0.773437,0 -0.773437,-0.4570312 v -1.75781251 c 0.04687,0.15234375 0.46875,0.69140625 1.21875,0.69140625 1.183593,0 2.226562,-0.97265625 2.226562,-2.26171874 0,-1.265625 -0.972656,-2.25 -2.085937,-2.25 -0.773438,0 -1.195313,0.4453125 -1.394532,0.65625 z m 0.03516,2.6132812 v -2.2148437 c 0.28125,-0.515625 0.773437,-0.796875 1.277343,-0.796875 0.726563,0 1.335938,0.8671875 1.335938,1.9921875 0,1.20703124 -0.691406,2.05078124 -1.429688,2.05078124 -0.398437,0 -0.773437,-0.19921875 -1.042968,-0.609375 C 76.18393,-0.92678906 76.18393,-0.93850781 76.18393,-1.1377266 Z m 5.548828,-3.2695312 -1.394531,0.1171875 v 0.3046875 c 0.65625,0 0.738281,0.058594 0.738281,0.5507812 v 2.67187504 c 0,0.45703125 -0.105469,0.45703125 -0.773438,0.45703125 v 0.3046875 c 0.316407,-0.01171875 0.855469,-0.03515625 1.101563,-0.03515625 0.339844,0 0.691406,0.0234375 1.03125,0.03515625 v -0.3046875 c -0.65625,0 -0.703125,-0.0585938 -0.703125,-0.4453125 z m 0.04687,-1.734375 c 0,-0.3164063 -0.246094,-0.5273438 -0.527344,-0.5273438 -0.316406,0 -0.527344,0.2695313 -0.527344,0.5273438 0,0.2695312 0.210938,0.5273437 0.527344,0.5273437 0.28125,0 0.527344,-0.1992187 0.527344,-0.5273437 z m 2.0625,2.71875 v 2.66015624 c 0,0.45703125 -0.117188,0.45703125 -0.785156,0.45703125 v 0.3046875 c 0.351562,-0.01171875 0.855468,-0.03515625 1.125,-0.03515625 0.257812,0 0.785156,0.0234375 1.113281,0.03515625 v -0.3046875 c -0.65625,0 -0.773438,0 -0.773438,-0.45703125 V -2.5908516 c 0,-1.03125 0.714844,-1.59375 1.347657,-1.59375 0.621093,0 0.738281,0.5390625 0.738281,1.1015625 v 2.32031254 c 0,0.45703125 -0.117188,0.45703125 -0.773438,0.45703125 v 0.3046875 c 0.339844,-0.01171875 0.855469,-0.03515625 1.125,-0.03515625 0.257813,0 0.773438,0.0234375 1.113282,0.03515625 v -0.3046875 c -0.515625,0 -0.773438,0 -0.785157,-0.3046875 V -2.5088203 c 0,-0.8554688 0,-1.171875 -0.304687,-1.5234375 -0.140625,-0.1757813 -0.46875,-0.375 -1.042969,-0.375 -0.726562,0 -1.195312,0.4335937 -1.476562,1.0546875 v -1.0546875 l -1.40625,0.1171875 v 0.3046875 c 0.703125,0 0.785156,0.070312 0.785156,0.5625 z m 6.65039,1.7109375 c -0.867187,0 -0.867187,-0.9960938 -0.867187,-1.2304688 0,-0.2695312 0.01172,-0.5859375 0.152344,-0.8320312 0.08203,-0.1171875 0.316406,-0.3984375 0.714843,-0.3984375 0.867188,0 0.867188,0.9960937 0.867188,1.21875 0,0.2695312 -0.01172,0.5976562 -0.164063,0.84375 -0.08203,0.1171875 -0.304687,0.3984375 -0.703125,0.3984375 z m -1.160156,0.3867187 c 0,-0.035156 0,-0.2695312 0.175781,-0.46875 0.386719,0.28125 0.796875,0.3046875 0.984375,0.3046875 0.925782,0 1.605469,-0.6796875 1.605469,-1.453125 0,-0.3632812 -0.152344,-0.7382812 -0.398437,-0.9609375 0.351562,-0.3398437 0.714843,-0.3867187 0.890625,-0.3867187 0.02344,0 0.07031,0 0.105468,0 -0.117187,0.046875 -0.164062,0.1523437 -0.164062,0.2695312 0,0.1757813 0.128906,0.2929688 0.292969,0.2929688 0.09375,0 0.28125,-0.070312 0.28125,-0.2929688 0,-0.1757812 -0.117188,-0.4921875 -0.503907,-0.4921875 -0.199218,0 -0.632812,0.058594 -1.054687,0.46875 -0.421875,-0.328125 -0.84375,-0.3632812 -1.054688,-0.3632812 -0.925781,0 -1.617187,0.6914062 -1.617187,1.453125 0,0.4453125 0.222656,0.8203125 0.46875,1.03125 -0.128906,0.1523437 -0.304688,0.4804687 -0.304688,0.8203125 0,0.31640624 0.128907,0.69140624 0.433594,0.89062499 -0.597656,0.17578125 -0.914062,0.59765625 -0.914062,0.99609375 0,0.71484376 0.984375,1.26562496 2.203125,1.26562496 1.171875,0 2.203125,-0.5039062 2.203125,-1.28906246 0,-0.33984375 -0.140625,-0.85546875 -0.644532,-1.125 -0.527343,-0.28125 -1.101562,-0.28125 -1.710937,-0.28125 -0.246094,0 -0.679688,0 -0.75,-0.0117188 -0.316406,-0.046875 -0.527344,-0.35156254 -0.527344,-0.66796874 z m 1.441406,3.1523438 c -1.007812,0 -1.699218,-0.515625 -1.699218,-1.04296876 0,-0.45703125 0.375,-0.8203125 0.820312,-0.85546875 h 0.585938 c 0.855468,0 1.96875,0 1.96875,0.85546875 0,0.53906246 -0.703125,1.04296876 -1.675782,1.04296876 z M 106.5355,-2.5439766 v -0.2109375 h -9.949221 v 0.2109375 z m 6.62403,-1.4414062 c 0.45703,0 0.52734,0.1289062 0.52734,0.5390625 v 2.68359374 c 0,0.45703125 -0.11719,0.45703125 -0.78516,0.45703125 v 0.3046875 c 0.32813,-0.01171875 0.85547,-0.03515625 1.11328,-0.03515625 0.2461,0 0.73829,0.0234375 1.10157,0.03515625 v -0.3046875 c -0.66797,0 -0.77344,0 -0.77344,-0.45703125 V -4.4189766 l -1.25391,0.09375 c -0.16406,0.011719 -0.17578,0.023437 -0.1875,0.023437 -0.0117,0.011719 -0.0352,0.011719 -0.17578,0.011719 h -1.17187 v -1.125 c 0,-0.9960938 0.85547,-1.3945313 1.46484,-1.3945313 0.30469,0 0.66797,0.1054688 0.86719,0.328125 -0.41016,0.023437 -0.46875,0.3046875 -0.46875,0.46875 0,0.328125 0.25781,0.4570313 0.44531,0.4570313 0.22266,0 0.45703,-0.1640625 0.45703,-0.4570313 0,-0.5976562 -0.55078,-1.0078125 -1.28906,-1.0078125 -0.92578,0 -2.10938,0.5039063 -2.10938,1.59375 v 1.1367188 h -0.78515 v 0.3046875 h 0.78515 v 3.22265624 c 0,0.45703125 -0.10546,0.45703125 -0.77343,0.45703125 v 0.3046875 c 0.32812,-0.01171875 0.85547,-0.03515625 1.10156,-0.03515625 0.24609,0 0.73828,0.0234375 1.11328,0.03515625 v -0.3046875 c -0.66797,0 -0.78516,0 -0.78516,-0.45703125 V -3.9853828 Z m 4.45605,2.2734375 c -0.86719,0 -0.86719,-0.9960938 -0.86719,-1.2304688 0,-0.2695312 0.0117,-0.5859375 0.15235,-0.8320312 0.082,-0.1171875 0.3164,-0.3984375 0.71484,-0.3984375 0.86719,0 0.86719,0.9960937 0.86719,1.21875 0,0.2695312 -0.0117,0.5976562 -0.16406,0.84375 -0.082,0.1171875 -0.30469,0.3984375 -0.70313,0.3984375 z m -1.16016,0.3867187 c 0,-0.035156 0,-0.2695312 0.17579,-0.46875 0.38671,0.28125 0.79687,0.3046875 0.98437,0.3046875 0.92578,0 1.60547,-0.6796875 1.60547,-1.453125 0,-0.3632812 -0.15234,-0.7382812 -0.39844,-0.9609375 0.35156,-0.3398437 0.71485,-0.3867187 0.89063,-0.3867187 0.0234,0 0.0703,0 0.10547,0 -0.11719,0.046875 -0.16407,0.1523437 -0.16407,0.2695312 0,0.1757813 0.12891,0.2929688 0.29297,0.2929688 0.0937,0 0.28125,-0.070312 0.28125,-0.2929688 0,-0.1757812 -0.11719,-0.4921875 -0.5039,-0.4921875 -0.19922,0 -0.63282,0.058594 -1.05469,0.46875 -0.42188,-0.328125 -0.84375,-0.3632812 -1.05469,-0.3632812 -0.92578,0 -1.61719,0.6914062 -1.61719,1.453125 0,0.4453125 0.22266,0.8203125 0.46875,1.03125 -0.1289,0.1523437 -0.30468,0.4804687 -0.30468,0.8203125 0,0.31640624 0.1289,0.69140624 0.43359,0.89062499 -0.59766,0.17578125 -0.91406,0.59765625 -0.91406,0.99609375 0,0.71484376 0.98437,1.26562496 2.20312,1.26562496 1.17188,0 2.20313,-0.5039062 2.20313,-1.28906246 0,-0.33984375 -0.14063,-0.85546875 -0.64453,-1.125 -0.52735,-0.28125 -1.10157,-0.28125 -1.71094,-0.28125 -0.2461,0 -0.67969,0 -0.75,-0.0117188 -0.31641,-0.046875 -0.52735,-0.35156254 -0.52735,-0.66796874 z m 1.44141,3.1523438 c -1.00781,0 -1.69922,-0.515625 -1.69922,-1.04296876 0,-0.45703125 0.375,-0.8203125 0.82031,-0.85546875 h 0.58594 c 0.85547,0 1.96875,0 1.96875,0.85546875 0,0.53906246 -0.70312,1.04296876 -1.67578,1.04296876 z m 5.23828,-3.6914063 v -0.5742187 h -2.64844 v 0.5742187 z m 1.72852,-0.3046875 c 0,-1.6289062 0.82031,-2.0507812 1.34765,-2.0507812 0.0937,0 0.71485,0.011719 1.06641,0.375 -0.41016,0.023437 -0.46875,0.328125 -0.46875,0.4570312 0,0.2578125 0.1875,0.4570313 0.45703,0.4570313 0.25781,0 0.45703,-0.1640625 0.45703,-0.46875 0,-0.6796875 -0.75,-1.0664063 -1.52344,-1.0664063 -1.24218,0 -2.15625,1.078125 -2.15625,2.3085938 0,1.27734374 0.98438,2.26171874 2.14454,2.26171874 1.33593,0 1.65234,-1.19531254 1.65234,-1.28906254 0,-0.1054687 -0.10547,-0.1054687 -0.12891,-0.1054687 -0.0937,0 -0.11718,0.046875 -0.1289,0.1054687 -0.29297,0.92578129 -0.9375,1.04296879 -1.3125,1.04296879 -0.52735,0 -1.40625,-0.421875 -1.40625,-2.02734379 z m 6.583,1.40625004 c 0.0352,0.3984375 0.30469,0.8203125 0.77344,0.8203125 0.21094,0 0.82031,-0.140625 0.82031,-0.94921875 V -1.4424141 h -0.24609 v 0.55078129 c 0,0.5859375 -0.24609,0.64453125 -0.36328,0.64453125 -0.32813,0 -0.36328,-0.45703125 -0.36328,-0.50390625 V -2.7431953 c 0,-0.4101563 0,-0.8085938 -0.36328,-1.171875 -0.38672,-0.3867188 -0.87891,-0.5507813 -1.35938,-0.5507813 -0.82031,0 -1.51172,0.46875 -1.51172,1.125 0,0.3046875 0.19922,0.46875 0.45703,0.46875 0.28125,0 0.46875,-0.1992187 0.46875,-0.4570312 0,-0.1171875 -0.0586,-0.4453125 -0.51562,-0.4570313 0.26953,-0.3515625 0.76172,-0.4570312 1.07812,-0.4570312 0.49219,0 1.05469,0.3867187 1.05469,1.2773437 v 0.3632813 c -0.5039,0.035156 -1.20703,0.058594 -1.82812,0.3632812 -0.75,0.3398438 -0.9961,0.8554688 -0.9961,1.28906254 0,0.80859375 0.96094,1.0546875 1.59375,1.0546875 0.65625,0 1.11328,-0.3984375 1.30078,-0.8671875 z m -0.0703,-1.62890624 v 0.9960937 c 0,0.94921879 -0.71484,1.28906254 -1.16015,1.28906254 -0.49219,0 -0.90235,-0.3515625 -0.90235,-0.85546875 0,-0.53906249 0.42188,-1.37109379 2.0625,-1.42968749 z m 3.44531,-1.359375 v -0.65625 l -1.42968,0.1171875 v 0.3046875 c 0.70312,0 0.77343,0.058594 0.77343,0.4921875 v 4.6640625 c 0,0.4570312 -0.10546,0.4570312 -0.77343,0.4570312 v 0.3046875 c 0.33984,-0.011719 0.85547,-0.035156 1.11328,-0.035156 0.26953,0 0.77344,0.023437 1.125,0.035156 V 1.6278984 c -0.66797,0 -0.77344,0 -0.77344,-0.4570312 v -1.75781251 c 0.0469,0.15234375 0.46875,0.69140625 1.21875,0.69140625 1.18359,0 2.22656,-0.97265625 2.22656,-2.26171874 0,-1.265625 -0.97265,-2.25 -2.08593,-2.25 -0.77344,0 -1.19532,0.4453125 -1.39454,0.65625 z m 0.0352,2.6132812 v -2.2148437 c 0.28125,-0.515625 0.77344,-0.796875 1.27734,-0.796875 0.72657,0 1.33594,0.8671875 1.33594,1.9921875 0,1.20703124 -0.6914,2.05078124 -1.42969,2.05078124 -0.39843,0 -0.77343,-0.19921875 -1.04296,-0.609375 -0.14063,-0.2109375 -0.14063,-0.22265625 -0.14063,-0.42187504 z m 5.70117,-2.625 c 0,-0.2929687 -0.23437,-0.5273437 -0.52734,-0.5273437 -0.28125,0 -0.52734,0.234375 -0.52734,0.5273437 0,0.28125 0.24609,0.5273438 0.52734,0.5273438 0.29297,0 0.52734,-0.2460938 0.52734,-0.5273438 z m 0,3.23437504 c 0,-0.29296875 -0.23437,-0.52734374 -0.52734,-0.52734374 -0.28125,0 -0.52734,0.23437499 -0.52734,0.52734374 0,0.29296875 0.24609,0.52734375 0.52734,0.52734375 0.29297,0 0.52734,-0.234375 0.52734,-0.52734375 z m 11.91211,-6.21093754 h -6.08203 l -0.1875,2.2382813 h 0.24609 c 0.14063,-1.6054688 0.29297,-1.9335938 1.79297,-1.9335938 0.17578,0 0.4336,0 0.53907,0.023437 0.21093,0.035156 0.21093,0.140625 0.21093,0.375 v 5.25000004 c 0,0.33984375 0,0.48046875 -1.05468,0.48046875 h -0.39844 v 0.3046875 c 0.41015,-0.03515625 1.42969,-0.03515625 1.88672,-0.03515625 0.45703,0 1.48828,0 1.89843,0.03515625 v -0.3046875 h -0.39843 c -1.05469,0 -1.05469,-0.140625 -1.05469,-0.48046875 V -6.0361641 c 0,-0.1992187 0,-0.3398437 0.1875,-0.375 0.10547,-0.023437 0.375,-0.023437 0.5625,-0.023437 1.5,0 1.65234,0.328125 1.79297,1.9335938 h 0.24609 z m 0.84961,4.2304688 c 0.0586,-1.4882813 0.90235,-1.734375 1.24219,-1.734375 1.01953,0 1.125,1.3476562 1.125,1.734375 z m -0.0117,0.2109375 h 2.78907 c 0.21093,0 0.24609,0 0.24609,-0.2109375 0,-0.984375 -0.53906,-1.9570313 -1.78125,-1.9570313 -1.16016,0 -2.07422,1.03125 -2.07422,2.2734375 0,1.33593754 1.04297,2.29687504 2.19141,2.29687504 1.21875,0 1.66406,-1.1015625 1.66406,-1.28906254 0,-0.1054687 -0.082,-0.1171875 -0.12891,-0.1171875 -0.0937,0 -0.11718,0.058594 -0.1289,0.140625 -0.35157,1.01953129 -1.25391,1.01953129 -1.34766,1.01953129 -0.50391,0 -0.90234,-0.29296875 -1.125,-0.66796875 -0.30469,-0.48046874 -0.30469,-1.13671874 -0.30469,-1.48828124 z m 5.39942,0.3632812 c 0.22265,0.035156 1.03125,0.1992188 1.03125,0.9140625 0,0.51562504 -0.35157,0.91406254 -1.125,0.91406254 -0.83203,0 -1.19532,-0.57421875 -1.38282,-1.41796874 -0.0351,-0.1289063 -0.0351,-0.1757813 -0.14062,-0.1757813 -0.12891,0 -0.12891,0.070312 -0.12891,0.2578125 v 1.31250004 c 0,0.1640625 0,0.234375 0.10547,0.234375 0.0586,0 0.0703,0 0.25781,-0.19921875 0.0117,-0.01171875 0.0117,-0.03515625 0.19922,-0.22265625 0.4336,0.421875 0.87891,0.421875 1.08985,0.421875 1.14843,0 1.60547,-0.66796875 1.60547,-1.38281254 0,-0.5273437 -0.29297,-0.8203125 -0.42188,-0.9492187 -0.32812,-0.3164063 -0.71484,-0.3984375 -1.13672,-0.46875 -0.55078,-0.1171875 -1.21875,-0.2460938 -1.21875,-0.8203125 0,-0.3515625 0.25781,-0.7617188 1.11328,-0.7617188 1.10157,0 1.14844,0.9023438 1.17188,1.2070313 0,0.09375 0.0937,0.09375 0.11719,0.09375 0.1289,0 0.1289,-0.046875 0.1289,-0.2460938 v -0.9960937 c 0,-0.1757813 0,-0.2460938 -0.11719,-0.2460938 -0.0469,0 -0.0703,0 -0.19921,0.1171875 -0.0234,0.046875 -0.12891,0.1289063 -0.16407,0.1640625 -0.375,-0.28125 -0.78515,-0.28125 -0.9375,-0.28125 -1.21875,0 -1.59375,0.6679688 -1.59375,1.2304688 0,0.3398437 0.16407,0.6210937 0.4336,0.84375 0.3164,0.2578125 0.59765,0.3164062 1.3125,0.4570312 z m 3.57715,-2.0507812 h 1.42968 v -0.3046875 h -1.42968 v -1.8398438 h -0.2461 c -0.0117,0.8203125 -0.3164,1.8867188 -1.28906,1.921875 v 0.2226563 h 0.84375 v 2.7539062 c 0,1.21875004 0.92578,1.33593754 1.28906,1.33593754 0.70313,0 0.98438,-0.703125 0.98438,-1.33593754 v -0.5742187 h -0.2461 v 0.5507812 c 0,0.73828129 -0.30468,1.11328129 -0.66797,1.11328129 -0.66796,0 -0.66796,-0.90234379 -0.66796,-1.07812499 z m 3.67675,-1.8867188 c 0,-0.5976562 -0.23437,-1.0429687 -0.66797,-1.0429687 -0.35156,0 -0.52734,0.2695312 -0.52734,0.5273437 0,0.2578125 0.17578,0.5273438 0.52734,0.5273438 0.19922,0 0.33985,-0.09375 0.39844,-0.1523438 0.0117,-0.023437 0.0234,-0.035156 0.0352,-0.035156 0.0117,0 0.0117,0.140625 0.0117,0.1757812 0,0.328125 -0.0703,1.0429688 -0.69141,1.6523438 -0.11719,0.1289062 -0.11719,0.140625 -0.11719,0.1757812 0,0.070312 0.0469,0.1054688 0.0937,0.1054688 0.11719,0 0.9375,-0.75 0.9375,-1.9335938 z m 1.9336,0 c 0,-0.5976562 -0.23438,-1.0429687 -0.66797,-1.0429687 -0.35156,0 -0.52735,0.2695312 -0.52735,0.5273437 0,0.2578125 0.16407,0.5273438 0.52735,0.5273438 0.19922,0 0.33984,-0.09375 0.39844,-0.1523438 0.0117,-0.023437 0.0234,-0.035156 0.0352,-0.035156 0.0117,0 0.0117,0.140625 0.0117,0.1757812 0,0.328125 -0.0703,1.0429688 -0.69141,1.6523438 -0.11718,0.1289062 -0.11718,0.140625 -0.11718,0.1757812 0,0.070312 0.0469,0.1054688 0.0937,0.1054688 0.10547,0 0.9375,-0.75 0.9375,-1.9335938 z m 0,0"
       style="fill:#000000;fill-opacity:1;fill-rule:nonzero;stroke:none"
       aria-label="—label:fg-pumping—fg-cap:Test”"
       transform="matrix(1.3333333,0,0,1.3333333,19.925333,9.224)" />
  </g>
</svg>
