<?xml version="1.0" encoding="UTF-8" standalone="no"?>
<!-- Created with Inkscape (http://www.inkscape.org/) -->

<svg
   version="1.1"
   id="svg1"
   width="299.11746"
   height="142.47266"
   viewBox="0 0 299.11746 142.47266"
   xmlns="http://www.w3.org/2000/svg"
   xmlns:svg="http://www.w3.org/2000/svg">
  <defs
     id="defs1" />
  <g
     id="g1"
     transform="translate(4.6594834e-4,-4.4218755)">
    <path
       id="path1"
       d="M -21.2601,-11.33876 H 21.2601 V 11.33876 H -21.2601 Z"
       style="fill:none;stroke:#000000;stroke-width:0.3985;stroke-linecap:butt;stroke-linejoin:miter;stroke-miterlimit:10;stroke-dasharray:none;stroke-opacity:1"
       transform="matrix(1.3333333,0,0,-1.3333333,28.612,53.052)" />
    <path
       id="path2"
       d="m 3.4916328,-0.56388281 c 0.1054688,0.41015625 0.4570313,0.66796875 0.8789063,0.66796875 0.3515625,0 0.5742187,-0.22265625 0.7382812,-0.5390625 0.1757813,-0.36328125 0.3046875,-0.97265624 0.3046875,-0.99609374 0,-0.09375 -0.09375,-0.09375 -0.1289062,-0.09375 -0.09375,0 -0.1054688,0.035156 -0.140625,0.1757812 -0.1289063,0.56250004 -0.328125,1.24218754 -0.7382813,1.24218754 -0.2109375,0 -0.3164062,-0.12890625 -0.3164062,-0.45703125 0,-0.22265625 0.1289062,-0.69140629 0.1992187,-1.04296879 l 0.28125,-1.078125 c 0.035156,-0.140625 0.1289063,-0.5273437 0.1757813,-0.6679687 0.046875,-0.234375 0.140625,-0.609375 0.140625,-0.6679688 0,-0.1875 -0.140625,-0.2695312 -0.28125,-0.2695312 -0.058594,0 -0.3164063,0 -0.3867188,0.3398437 -0.1992187,0.7265625 -0.6328125,2.4726563 -0.75,3.00000004 -0.011719,0.046875 -0.4101562,0.84375 -1.1367187,0.84375 -0.515625,0 -0.6210938,-0.45703125 -0.6210938,-0.8203125 0,-0.56250004 0.28125,-1.34765624 0.5390625,-2.02734374 0.1171875,-0.3046875 0.1757813,-0.4453125 0.1757813,-0.6328125 0,-0.4453125 -0.328125,-0.8203125 -0.8203125,-0.8203125 -0.94921879,0 -1.31250004,1.453125 -1.31250004,1.5351562 0,0.1054688 0.09375,0.1054688 0.1171875,0.1054688 0.09375,0 0.10546875,-0.023437 0.15234375,-0.1875 0.2578125,-0.8671875 0.63281249,-1.2304688 1.00781249,-1.2304688 0.09375,0 0.2578125,0.011719 0.2578125,0.328125 0,0.234375 -0.1171875,0.5273438 -0.1757812,0.6796875 -0.3632813,0.984375 -0.5742188,1.6054688 -0.5742188,2.0859375 0,0.94921879 0.6796875,1.19531254 1.21875,1.19531254 0.65625,0 1.0195313,-0.4453125 1.1953125,-0.66796875 z m 0,0"
       style="fill:#000000;fill-opacity:1;fill-rule:nonzero;stroke:none"
       aria-label="u"
       transform="matrix(1.3333333,0,0,1.3333333,24.809333,55.912)" />
    <path
       id="path3"
       d="m 24.09494,-11.33876 h 42.5202 v 22.67752 h -42.5202 z"
       style="fill:none;stroke:#000000;stroke-width:0.3985;stroke-linecap:butt;stroke-linejoin:miter;stroke-miterlimit:10;stroke-dasharray:none;stroke-opacity:1"
       transform="matrix(1.3333333,0,0,-1.3333333,28.612,53.052)" />
    <path
       id="path4"
       d="m 4.6628125,-3.7045078 c 0,-0.5390625 -0.2578125,-0.703125 -0.4453125,-0.703125 -0.2460937,0 -0.4804687,0.2578125 -0.4804687,0.4804687 0,0.1289063 0.046875,0.1875 0.1523437,0.3046875 0.2109375,0.1992188 0.3398438,0.4570313 0.3398438,0.8085938 0,0.421875 -0.609375,2.70703124 -1.7695313,2.70703124 -0.5039062,0 -0.7382812,-0.3515625 -0.7382812,-0.8671875 0,-0.56250004 0.2695312,-1.28906254 0.5742187,-2.12109374 0.070312,-0.1640625 0.1289063,-0.3046875 0.1289063,-0.4921875 0,-0.4453125 -0.328125,-0.8203125 -0.8203125,-0.8203125 -0.93750005,0 -1.31250005,1.453125 -1.31250005,1.5351562 0,0.1054688 0.09375,0.1054688 0.1171875,0.1054688 0.09375,0 0.10546875,-0.023437 0.15234375,-0.1875 0.29296875,-0.9960938 0.7265625,-1.2304688 1.0078125,-1.2304688 0.082031,0 0.2578125,0 0.2578125,0.3164063 0,0.2460937 -0.1054687,0.515625 -0.1757812,0.703125 -0.4335938,1.1484375 -0.5625,1.6054687 -0.5625,2.0390625 0,1.07812499 0.8671875,1.23046874 1.3359375,1.23046874 1.6640625,0 2.2382812,-3.29296874 2.2382812,-3.80859374 z m 0,0"
       style="fill:#000000;fill-opacity:1;fill-rule:nonzero;stroke:none"
       aria-label="v"
       transform="matrix(1.3333333,0,0,1.3333333,85.626667,55.912)" />
    <path
       id="path5"
       d="m 69.44958,-11.33876 h 42.5202 v 22.67752 h -42.5202 z"
       style="fill:none;stroke:#000000;stroke-width:0.3985;stroke-linecap:butt;stroke-linejoin:miter;stroke-miterlimit:10;stroke-dasharray:none;stroke-opacity:1"
       transform="matrix(1.3333333,0,0,-1.3333333,28.612,53.052)" />
    <path
       id="path6"
       d="m 3.3284141,-3.0131016 c 0.058594,-0.2578125 0.2929687,-1.171875 0.984375,-1.171875 0.046875,0 0.2929687,0 0.5039062,0.1289063 -0.28125,0.046875 -0.4804687,0.3046875 -0.4804687,0.5390625 0,0.1640625 0.1054687,0.3515625 0.375,0.3515625 0.2226562,0 0.5390625,-0.1875 0.5390625,-0.5859375 0,-0.515625 -0.5859375,-0.65625 -0.9257813,-0.65625 -0.5742187,0 -0.9257812,0.5273437 -1.0429687,0.7617187 -0.2578125,-0.65625 -0.7851563,-0.7617187 -1.078125,-0.7617187 -1.0429688,0 -1.60546879,1.2890625 -1.60546879,1.5351562 0,0.1054688 0.10546875,0.1054688 0.1171875,0.1054688 0.0820313,0 0.1171875,-0.023437 0.12890625,-0.1171875 0.33984374,-1.0546875 0.99609374,-1.3007813 1.33593754,-1.3007813 0.1875,0 0.5390625,0.09375 0.5390625,0.6679688 0,0.3046875 -0.1640625,0.9726562 -0.5390625,2.3671875 -0.1523438,0.62109374 -0.5039063,1.04296874 -0.9492188,1.04296874 -0.058594,0 -0.28124999,0 -0.49218749,-0.12890625 0.24609375,-0.0585938 0.46874999,-0.26953125 0.46874999,-0.5390625 0,-0.26953129 -0.22265624,-0.35156249 -0.37499999,-0.35156249 -0.29296875,0 -0.5390625,0.25781249 -0.5390625,0.57421874 0,0.45703125 0.4921875,0.65625 0.93749999,0.65625 0.65625,0 1.0078125,-0.69140625 1.0429688,-0.75 0.1171875,0.36328125 0.4804687,0.75 1.078125,0.75 1.0195312,0 1.59375,-1.27734374 1.59375,-1.53515624 0,-0.09375 -0.09375,-0.09375 -0.1289063,-0.09375 -0.082031,0 -0.1054687,0.035156 -0.1289062,0.1054687 -0.328125,1.06640629 -0.9960938,1.31250004 -1.3242188,1.31250004 -0.3867187,0 -0.5390625,-0.328125 -0.5390625,-0.65625 0,-0.22265625 0.058594,-0.44531254 0.1640625,-0.87890624 z m 0,0"
       style="fill:#000000;fill-opacity:1;fill-rule:nonzero;stroke:none"
       aria-label="x"
       transform="matrix(1.3333333,0,0,1.3333333,145.76133,55.912)" />
    <path
       id="path7"
       d="m 114.80464,-11.33876 h 42.5202 v 22.67752 h -42.5202 z"
       style="fill:none;stroke:#000000;stroke-width:0.3985;stroke-linecap:butt;stroke-linejoin:miter;stroke-miterlimit:10;stroke-dasharray:none;stroke-opacity:1"
       transform="matrix(1.3333333,0,0,-1.3333333,28.612,53.052)" />
    <path
       id="path8"
       d="m 4.8402109,-3.7960547 c 0.046875,-0.140625 0.046875,-0.1523437 0.046875,-0.2226562 0,-0.1875 -0.140625,-0.2695313 -0.2929687,-0.2695313 -0.1054688,0 -0.2578125,0.058594 -0.3515625,0.1992188 -0.023437,0.058594 -0.09375,0.3632812 -0.140625,0.5390625 -0.070312,0.2578125 -0.140625,0.5273437 -0.1992188,0.796875 l -0.4453125,1.79296871 c -0.035156,0.15234375 -0.46875,0.85546875 -1.125,0.85546875 -0.5039062,0 -0.6210937,-0.4453125 -0.6210937,-0.80859375 0,-0.45703121 0.1757812,-1.07812501 0.515625,-1.95703121 0.1523437,-0.4101563 0.1992187,-0.515625 0.1992187,-0.7148438 0,-0.4453125 -0.328125,-0.8203125 -0.8203125,-0.8203125 -0.94921871,0 -1.31249996,1.453125 -1.31249996,1.5351563 0,0.1054687 0.09375,0.1054687 0.1171875,0.1054687 0.09375,0 0.10546875,-0.023437 0.15234375,-0.1875 0.26953125,-0.9375 0.66796871,-1.2304687 1.00781251,-1.2304687 0.082031,0 0.2578125,0 0.2578125,0.3164062 0,0.2460938 -0.1054688,0.515625 -0.1757813,0.703125 -0.3984375,1.0546875 -0.5742187,1.6171875 -0.5742187,2.0859375 0,0.89062501 0.6210937,1.18359376 1.21875,1.18359376 0.3867187,0 0.7265625,-0.1640625 0.9960937,-0.4453125 -0.1289062,0.515625 -0.2460937,1.0078125 -0.6445312,1.53515624 -0.2578125,0.3398438 -0.6328125,0.6328125 -1.0898438,0.6328125 -0.140625,0 -0.59765621,-0.035156 -0.76171871,-0.421875 0.1640625,0 0.29296871,0 0.43359371,-0.1171875 0.09375,-0.09375 0.1992188,-0.2226562 0.1992188,-0.41015624 0,-0.31640625 -0.2695313,-0.3515625 -0.375,-0.3515625 -0.22265626,0 -0.55078126,0.1640625 -0.55078126,0.64453124 0,0.5039063 0.43359375,0.8671875 1.05468746,0.8671875 1.0195313,0 2.0507813,-0.9023437 2.3320313,-2.02734374 z m 0,0"
       style="fill:#000000;fill-opacity:1;fill-rule:nonzero;stroke:none"
       aria-label="y"
       transform="matrix(1.3333333,0,0,1.3333333,206.53467,54.62)" />
    <path
       id="path9"
       d="m 160.1593,-11.33876 h 42.5202 v 22.67752 h -42.5202 z"
       style="fill:none;stroke:#000000;stroke-width:0.3985;stroke-linecap:butt;stroke-linejoin:miter;stroke-miterlimit:10;stroke-dasharray:none;stroke-opacity:1"
       transform="matrix(1.3333333,0,0,-1.3333333,28.612,53.052)" />
    <path
       id="path10"
       d="M 1.3250391,-0.83341406 C 1.8641016,-1.4076328 2.1570703,-1.6537266 2.5086328,-1.9584141 c 0,-0.011719 0.6210938,-0.5390625 0.984375,-0.9023437 0.9375,-0.9257813 1.1601563,-1.40625 1.1601563,-1.4414063 0,-0.1054687 -0.09375,-0.1054687 -0.1054688,-0.1054687 -0.070312,0 -0.1054687,0.023437 -0.1523437,0.1171875 -0.3046875,0.46875 -0.5039063,0.6328125 -0.75,0.6328125 -0.234375,0 -0.3515625,-0.1523438 -0.5039063,-0.3164063 -0.1875,-0.234375 -0.3632812,-0.4335937 -0.6914062,-0.4335937 -0.75,0 -1.2070313,0.9257812 -1.2070313,1.1367187 0,0.046875 0.035156,0.1171875 0.1171875,0.1171875 0.09375,0 0.1171875,-0.058594 0.140625,-0.1171875 0.1875,-0.4570312 0.7617188,-0.46875 0.84375,-0.46875 0.2109375,0 0.3984375,0.070312 0.6210938,0.1523438 0.3984375,0.1523437 0.515625,0.1523437 0.7734375,0.1523437 -0.3632813,0.421875 -1.1953125,1.1367188 -1.3828125,1.3007813 l -0.9023438,0.8320312 c -0.67968749,0.66796879 -1.01953124,1.24218754 -1.01953124,1.31250004 0,0.09375 0.09375,0.09375 0.1171875,0.09375 0.0820313,0 0.09375,-0.01171875 0.15234375,-0.12890625 0.234375,-0.33984375 0.52734379,-0.609375 0.85546879,-0.609375 0.2226562,0 0.328125,0.0820313 0.5742187,0.375 0.1640625,0.2109375 0.3515625,0.36328125 0.6328125,0.36328125 0.984375,0 1.5703125,-1.26562504 1.5703125,-1.53515624 0,-0.046875 -0.046875,-0.09375 -0.1171875,-0.09375 -0.09375,0 -0.1171875,0.058594 -0.140625,0.1289062 -0.234375,0.64453129 -0.8671875,0.83203129 -1.1953125,0.83203129 -0.1992187,0 -0.3867187,-0.0585938 -0.5859375,-0.12890625 -0.3398437,-0.12890625 -0.4921875,-0.1640625 -0.703125,-0.1640625 -0.023437,0 -0.1757812,0 -0.2695312,0.0234375 z m 0,0"
       style="fill:#000000;fill-opacity:1;fill-rule:nonzero;stroke:none"
       aria-label="z"
       transform="matrix(1.3333333,0,0,1.3333333,267.12,55.912)" />
    <g
       id="g10"
       aria-label="s=uvxyz"
       transform="matrix(1.3333333,0,0,1.3333333,119.656,16.825333)">
      <path
         id="path11"
         d="m 3.8908125,-3.7273984 c -0.2695312,0.011719 -0.46875,0.234375 -0.46875,0.4453125 0,0.140625 0.082031,0.2929687 0.3046875,0.2929687 0.2226563,0 0.4570313,-0.1640625 0.4570313,-0.5625 0,-0.4453125 -0.4335938,-0.8554687 -1.1835938,-0.8554687 -1.3125,0 -1.6875,1.0195312 -1.6875,1.453125 0,0.7851562 0.7382813,0.9257812 1.03125,0.9960937 0.515625,0.09375 1.03125,0.1992188 1.03125,0.75 0,0.25781251 -0.2226562,1.10156251 -1.4179687,1.10156251 -0.140625,0 -0.9140625,0 -1.1367188,-0.52734375 0.375,0.046875 0.6210938,-0.2578125 0.6210938,-0.52734376 0,-0.234375 -0.1523438,-0.3515625 -0.3632813,-0.3515625 -0.2578125,0 -0.5625,0.2109375 -0.5625,0.65625001 0,0.5625 0.5742188,0.9609375 1.4296875,0.9609375 1.6054688,0 2.0039063,-1.20703121 2.0039063,-1.65234371 0,-0.3515625 -0.1992188,-0.609375 -0.3164063,-0.7265625 -0.2695312,-0.28125 -0.5507812,-0.328125 -0.9960937,-0.421875 -0.3515625,-0.070312 -0.75,-0.140625 -0.75,-0.5976563 0,-0.28125 0.234375,-0.890625 1.1132812,-0.890625 0.2460938,0 0.75,0.070312 0.890625,0.4570313 z m 0,0"
         style="fill:#000000;fill-opacity:1;fill-rule:nonzero;stroke:none" />
      <path
         id="path12"
         d="m 14.282414,-3.2586484 c 0.152344,0 0.339844,0 0.339844,-0.1992188 0,-0.1992187 -0.1875,-0.1992187 -0.328125,-0.1992187 H 8.3292891 c -0.140625,0 -0.328125,0 -0.328125,0.1992187 0,0.1992188 0.1875,0.1992188 0.3398437,0.1992188 z m 0.01172,1.9335937 c 0.140625,0 0.328125,0 0.328125,-0.1992187 0,-0.1992188 -0.1875,-0.1992188 -0.339844,-0.1992188 H 8.3410078 c -0.1523437,0 -0.3398437,0 -0.3398437,0.1992188 0,0.1992187 0.1875,0.1992187 0.328125,0.1992187 z m 0,0"
         style="fill:#000000;fill-opacity:1;fill-rule:nonzero;stroke:none" />
      <path
         id="path13"
         d="m 21.451359,-0.56333594 c 0.105469,0.41015625 0.457032,0.66796875 0.878907,0.66796875 0.351562,0 0.574218,-0.22265625 0.738281,-0.5390625 0.175781,-0.36328125 0.304687,-0.97265621 0.304687,-0.99609371 0,-0.09375 -0.09375,-0.09375 -0.128906,-0.09375 -0.09375,0 -0.105469,0.035156 -0.140625,0.1757812 -0.128906,0.56250001 -0.328125,1.24218751 -0.738281,1.24218751 -0.210938,0 -0.316406,-0.12890625 -0.316406,-0.45703125 0,-0.22265625 0.128906,-0.69140626 0.199218,-1.04296876 l 0.28125,-1.078125 c 0.03516,-0.140625 0.128907,-0.5273437 0.175782,-0.6679687 0.04687,-0.234375 0.140625,-0.609375 0.140625,-0.6679688 0,-0.1875 -0.140625,-0.2695312 -0.28125,-0.2695312 -0.05859,0 -0.316407,0 -0.386719,0.3398437 -0.199219,0.7265625 -0.632813,2.4726563 -0.75,3.00000001 -0.01172,0.046875 -0.410156,0.84375 -1.136719,0.84375 -0.515625,0 -0.621094,-0.45703125 -0.621094,-0.8203125 0,-0.56250001 0.28125,-1.34765621 0.539063,-2.02734371 0.117187,-0.3046875 0.175781,-0.4453125 0.175781,-0.6328125 0,-0.4453125 -0.328125,-0.8203125 -0.820312,-0.8203125 -0.949219,0 -1.3125,1.453125 -1.3125,1.5351562 0,0.1054688 0.09375,0.1054688 0.117187,0.1054688 0.09375,0 0.105469,-0.023437 0.152344,-0.1875 0.257812,-0.8671875 0.632812,-1.2304688 1.007812,-1.2304688 0.09375,0 0.257813,0.011719 0.257813,0.328125 0,0.234375 -0.117188,0.5273438 -0.175781,0.6796875 -0.363282,0.984375 -0.574219,1.6054688 -0.574219,2.0859375 0,0.94921876 0.679687,1.19531251 1.21875,1.19531251 0.65625,0 1.019531,-0.4453125 1.195312,-0.66796875 z m 6.864258,-3.14062496 c 0,-0.5390625 -0.257812,-0.703125 -0.445312,-0.703125 -0.246094,0 -0.480469,0.2578125 -0.480469,0.4804687 0,0.1289063 0.04687,0.1875 0.152344,0.3046875 0.210937,0.1992188 0.339843,0.4570313 0.339843,0.8085938 0,0.421875 -0.609375,2.70703121 -1.769531,2.70703121 -0.503906,0 -0.738281,-0.3515625 -0.738281,-0.8671875 0,-0.56250001 0.269531,-1.28906251 0.574219,-2.12109371 0.07031,-0.1640625 0.128906,-0.3046875 0.128906,-0.4921875 0,-0.4453125 -0.328125,-0.8203125 -0.820313,-0.8203125 -0.9375,0 -1.3125,1.453125 -1.3125,1.5351562 0,0.1054688 0.09375,0.1054688 0.117188,0.1054688 0.09375,0 0.105469,-0.023437 0.152344,-0.1875 0.292968,-0.9960938 0.726562,-1.2304688 1.007812,-1.2304688 0.08203,0 0.257813,0 0.257813,0.3164063 0,0.2460937 -0.105469,0.515625 -0.175782,0.703125 -0.433593,1.1484375 -0.5625,1.6054687 -0.5625,2.0390625 0,1.07812496 0.867188,1.23046871 1.335938,1.23046871 1.664062,0 2.238281,-3.29296871 2.238281,-3.80859371 z m 3.852539,0.6914062 c 0.05859,-0.2578125 0.292969,-1.171875 0.984375,-1.171875 0.04687,0 0.292969,0 0.503907,0.1289063 -0.28125,0.046875 -0.480469,0.3046875 -0.480469,0.5390625 0,0.1640625 0.105469,0.3515625 0.375,0.3515625 0.222656,0 0.539062,-0.1875 0.539062,-0.5859375 0,-0.515625 -0.585937,-0.65625 -0.925781,-0.65625 -0.574219,0 -0.925781,0.5273437 -1.042969,0.7617187 -0.257812,-0.65625 -0.785156,-0.7617187 -1.078125,-0.7617187 -1.042968,0 -1.605468,1.2890625 -1.605468,1.5351562 0,0.1054688 0.105468,0.1054688 0.117187,0.1054688 0.08203,0 0.117188,-0.023437 0.128906,-0.1171875 0.339844,-1.0546875 0.996094,-1.3007813 1.335938,-1.3007813 0.1875,0 0.539062,0.09375 0.539062,0.6679688 0,0.3046875 -0.164062,0.9726562 -0.539062,2.3671875 -0.152344,0.62109371 -0.503906,1.04296871 -0.949219,1.04296871 -0.05859,0 -0.28125,0 -0.492187,-0.12890625 0.246093,-0.0585937 0.46875,-0.26953125 0.46875,-0.5390625 0,-0.26953126 -0.222657,-0.35156246 -0.375,-0.35156246 -0.292969,0 -0.539063,0.25781246 -0.539063,0.57421871 0,0.45703125 0.492188,0.65625 0.9375,0.65625 0.65625,0 1.007813,-0.69140625 1.042969,-0.75 0.117187,0.36328125 0.480469,0.75 1.078125,0.75 1.019531,0 1.59375,-1.27734371 1.59375,-1.53515621 0,-0.09375 -0.09375,-0.09375 -0.128906,-0.09375 -0.08203,0 -0.105469,0.035156 -0.128907,0.1054687 -0.328125,1.06640626 -0.996093,1.31250001 -1.324218,1.31250001 -0.386719,0 -0.539063,-0.328125 -0.539063,-0.65625 0,-0.22265625 0.05859,-0.44531251 0.164063,-0.87890621 z m 7.204102,-0.7851562 c 0.04687,-0.140625 0.04687,-0.1523438 0.04687,-0.2226563 0,-0.1875 -0.140625,-0.2695312 -0.292969,-0.2695312 -0.105469,0 -0.257812,0.058594 -0.351562,0.1992187 -0.02344,0.058594 -0.09375,0.3632813 -0.140625,0.5390625 -0.07031,0.2578125 -0.140625,0.5273438 -0.199219,0.796875 l -0.445313,1.79296876 c -0.03516,0.15234375 -0.46875,0.85546875 -1.125,0.85546875 -0.503906,0 -0.621093,-0.4453125 -0.621093,-0.80859375 0,-0.45703126 0.175781,-1.07812496 0.515625,-1.95703126 0.152343,-0.4101562 0.199218,-0.515625 0.199218,-0.7148437 0,-0.4453125 -0.328125,-0.8203125 -0.820312,-0.8203125 -0.949219,0 -1.3125,1.453125 -1.3125,1.5351562 0,0.1054688 0.09375,0.1054688 0.117187,0.1054688 0.09375,0 0.105469,-0.023437 0.152344,-0.1875 0.269531,-0.9375 0.667969,-1.2304688 1.007813,-1.2304688 0.08203,0 0.257812,0 0.257812,0.3164063 0,0.2460937 -0.105469,0.515625 -0.175781,0.703125 -0.398438,1.0546875 -0.574219,1.6171875 -0.574219,2.0859375 0,0.89062496 0.621094,1.18359371 1.21875,1.18359371 0.386719,0 0.726563,-0.1640625 0.996094,-0.4453125 -0.128906,0.515625 -0.246094,1.0078125 -0.644531,1.53515629 -0.257813,0.3398437 -0.632813,0.6328125 -1.089844,0.6328125 -0.140625,0 -0.597656,-0.035156 -0.761719,-0.421875 0.164063,0 0.292969,0 0.433594,-0.1171875 0.09375,-0.09375 0.199219,-0.2226563 0.199219,-0.41015629 0,-0.31640625 -0.269532,-0.3515625 -0.375,-0.3515625 -0.222657,0 -0.550782,0.1640625 -0.550782,0.64453129 0,0.5039062 0.433594,0.8671875 1.054688,0.8671875 1.019531,0 2.050781,-0.9023438 2.332031,-2.02734379 z m 1.728515,2.96484371 c 0.539063,-0.57421871 0.832032,-0.82031251 1.183594,-1.12500001 0,-0.011719 0.621094,-0.5390625 0.984375,-0.9023437 0.9375,-0.9257813 1.160156,-1.40625 1.160156,-1.4414063 0,-0.1054687 -0.09375,-0.1054687 -0.105468,-0.1054687 -0.07031,0 -0.105469,0.023437 -0.152344,0.1171875 -0.304688,0.46875 -0.503906,0.6328125 -0.75,0.6328125 -0.234375,0 -0.351563,-0.1523438 -0.503906,-0.3164063 -0.1875,-0.234375 -0.363282,-0.4335937 -0.691407,-0.4335937 -0.75,0 -1.207031,0.9257812 -1.207031,1.1367187 0,0.046875 0.03516,0.1171875 0.117188,0.1171875 0.09375,0 0.117187,-0.058594 0.140625,-0.1171875 0.1875,-0.4570312 0.761718,-0.46875 0.84375,-0.46875 0.210937,0 0.398437,0.070312 0.621093,0.1523438 0.398438,0.1523437 0.515625,0.1523437 0.773438,0.1523437 -0.363281,0.421875 -1.195313,1.1367188 -1.382813,1.3007813 l -0.902343,0.8320312 c -0.679688,0.66796876 -1.019532,1.24218751 -1.019532,1.31250001 0,0.09375 0.09375,0.09375 0.117188,0.09375 0.08203,0 0.09375,-0.01171875 0.152344,-0.12890625 0.234375,-0.33984375 0.527343,-0.609375 0.855468,-0.609375 0.222657,0 0.328125,0.0820313 0.574219,0.375 0.164063,0.2109375 0.351563,0.36328125 0.632813,0.36328125 0.984375,0 1.570312,-1.26562501 1.570312,-1.53515621 0,-0.046875 -0.04687,-0.09375 -0.117187,-0.09375 -0.09375,0 -0.117188,0.058594 -0.140625,0.1289062 -0.234375,0.64453126 -0.867188,0.83203126 -1.195313,0.83203126 -0.199219,0 -0.386719,-0.0585938 -0.585937,-0.12890625 -0.339844,-0.12890625 -0.492188,-0.1640625 -0.703125,-0.1640625 -0.02344,0 -0.175782,0 -0.269532,0.0234375 z m 0,0"
         style="fill:#000000;fill-opacity:1;fill-rule:nonzero;stroke:none" />
    </g>
    <path
       id="path14"
       d="m 45.35506,-14.17339 c 0.74717,1.49443 2.49069,2.49069 4.98138,2.49069 h 35.39208 c 2.49069,0 4.2342,0.99627 4.98138,2.4907 0.74718,-1.49443 2.49069,-2.4907 4.98138,-2.4907 h 35.39209 c 2.4907,0 4.23421,-0.99626 4.98139,-2.49069"
       style="fill:none;stroke:#000000;stroke-width:0.3985;stroke-linecap:butt;stroke-linejoin:miter;stroke-miterlimit:10;stroke-dasharray:none;stroke-opacity:1"
       transform="matrix(1.3333333,0,0,-1.3333333,28.612,53.052)" />
    <g
       id="g14"
       aria-label="|vxy|≤p"
       transform="matrix(1.3333333,0,0,1.3333333,122.92133,94.576)">
      <path
         id="path15"
         d="m 1.5824375,-7.1146172 c 0,-0.1757812 0,-0.3632812 -0.1992187,-0.3632812 -0.1992188,0 -0.1992188,0.1875 -0.1992188,0.3632812 v 9.2460938 c 0,0.1757812 0,0.3632812 0.1992188,0.3632812 0.1992187,0 0.1992187,-0.1875 0.1992187,-0.3632812 z m 0,0"
         style="fill:#000000;fill-opacity:1;fill-rule:nonzero;stroke:none" />
      <path
         id="path16"
         d="m 7.4330234,-3.7044609 c 0,-0.5390625 -0.2578125,-0.703125 -0.4453125,-0.703125 -0.2460937,0 -0.4804687,0.2578125 -0.4804687,0.4804687 0,0.1289063 0.046875,0.1875 0.1523437,0.3046875 0.2109375,0.1992188 0.3398438,0.4570313 0.3398438,0.8085938 0,0.421875 -0.609375,2.70703121 -1.7695313,2.70703121 -0.5039062,0 -0.7382812,-0.3515625 -0.7382812,-0.8671875 0,-0.56250001 0.2695312,-1.28906251 0.5742187,-2.12109371 0.070312,-0.1640625 0.1289063,-0.3046875 0.1289063,-0.4921875 0,-0.4453125 -0.328125,-0.8203125 -0.8203125,-0.8203125 -0.9375,0 -1.3125,1.453125 -1.3125,1.5351562 0,0.1054688 0.09375,0.1054688 0.1171875,0.1054688 0.09375,0 0.1054687,-0.023437 0.1523437,-0.1875 0.2929688,-0.9960938 0.7265625,-1.2304688 1.0078125,-1.2304688 0.082031,0 0.2578125,0 0.2578125,0.3164063 0,0.2460937 -0.1054687,0.515625 -0.1757812,0.703125 -0.4335938,1.1484375 -0.5625,1.6054687 -0.5625,2.0390625 0,1.07812496 0.8671875,1.23046871 1.3359375,1.23046871 1.6640625,0 2.2382812,-3.29296871 2.2382812,-3.80859371 z m 3.8496096,0.6914062 c 0.05859,-0.2578125 0.292969,-1.171875 0.984375,-1.171875 0.04687,0 0.292969,0 0.503906,0.1289063 -0.28125,0.046875 -0.480469,0.3046875 -0.480469,0.5390625 0,0.1640625 0.105469,0.3515625 0.375,0.3515625 0.222657,0 0.539063,-0.1875 0.539063,-0.5859375 0,-0.515625 -0.585938,-0.65625 -0.925781,-0.65625 -0.574219,0 -0.925782,0.5273437 -1.042969,0.7617187 -0.257813,-0.65625 -0.785156,-0.7617187 -1.078125,-0.7617187 -1.0429689,0 -1.6054689,1.2890625 -1.6054689,1.5351562 0,0.1054688 0.1054687,0.1054688 0.1171875,0.1054688 0.082031,0 0.1171875,-0.023437 0.1289062,-0.1171875 0.3398438,-1.0546875 0.9960938,-1.3007813 1.3359372,-1.3007813 0.1875,0 0.539063,0.09375 0.539063,0.6679688 0,0.3046875 -0.164063,0.9726562 -0.539063,2.3671875 -0.1523434,0.62109371 -0.5039059,1.04296871 -0.9492184,1.04296871 -0.058594,0 -0.28125,0 -0.4921875,-0.12890625 0.2460937,-0.0585937 0.46875,-0.26953125 0.46875,-0.5390625 0,-0.26953126 -0.2226563,-0.35156246 -0.375,-0.35156246 -0.2929688,0 -0.5390625,0.25781246 -0.5390625,0.57421871 0,0.45703125 0.4921875,0.65625 0.9375,0.65625 0.65625,0 1.0078124,-0.69140625 1.0429684,-0.75 0.117188,0.36328125 0.480469,0.75 1.078125,0.75 1.019532,0 1.59375,-1.27734371 1.59375,-1.53515621 0,-0.09375 -0.09375,-0.09375 -0.128906,-0.09375 -0.08203,0 -0.105469,0.035156 -0.128906,0.1054687 -0.328125,1.06640626 -0.996094,1.31250001 -1.324219,1.31250001 -0.386719,0 -0.539062,-0.328125 -0.539062,-0.65625 0,-0.22265625 0.05859,-0.44531251 0.164062,-0.87890621 z m 7.207031,-0.7851562 c 0.04687,-0.140625 0.04687,-0.1523438 0.04687,-0.2226563 0,-0.1875 -0.140625,-0.2695312 -0.292969,-0.2695312 -0.105468,0 -0.257812,0.058594 -0.351562,0.1992187 -0.02344,0.058594 -0.09375,0.3632813 -0.140625,0.5390625 -0.07031,0.2578125 -0.140625,0.5273438 -0.199219,0.796875 l -0.445312,1.79296876 c -0.03516,0.15234375 -0.46875,0.85546875 -1.125,0.85546875 -0.503907,0 -0.621094,-0.4453125 -0.621094,-0.80859375 0,-0.45703126 0.175781,-1.07812496 0.515625,-1.95703126 0.152344,-0.4101562 0.199219,-0.515625 0.199219,-0.7148437 0,-0.4453125 -0.328125,-0.8203125 -0.820313,-0.8203125 -0.949219,0 -1.3125,1.453125 -1.3125,1.5351562 0,0.1054688 0.09375,0.1054688 0.117188,0.1054688 0.09375,0 0.105468,-0.023437 0.152343,-0.1875 0.269532,-0.9375 0.667969,-1.2304688 1.007813,-1.2304688 0.08203,0 0.257812,0 0.257812,0.3164063 0,0.2460937 -0.105468,0.515625 -0.175781,0.703125 -0.398437,1.0546875 -0.574219,1.6171875 -0.574219,2.0859375 0,0.89062496 0.621094,1.18359371 1.21875,1.18359371 0.386719,0 0.726563,-0.1640625 0.996094,-0.4453125 -0.128906,0.515625 -0.246094,1.0078125 -0.644531,1.53515629 -0.257813,0.3398437 -0.632813,0.6328125 -1.089844,0.6328125 -0.140625,0 -0.597656,-0.035156 -0.761719,-0.421875 0.164063,0 0.292969,0 0.433594,-0.1171875 0.09375,-0.09375 0.199219,-0.2226563 0.199219,-0.41015629 0,-0.31640625 -0.269531,-0.3515625 -0.375,-0.3515625 -0.222656,0 -0.550781,0.1640625 -0.550781,0.64453129 0,0.5039062 0.433593,0.8671875 1.054687,0.8671875 1.019531,0 2.050781,-0.9023438 2.332031,-2.02734379 z m 0,0"
         style="fill:#000000;fill-opacity:1;fill-rule:nonzero;stroke:none" />
      <path
         id="path17"
         d="m 20.473063,-7.1146172 c 0,-0.1757812 0,-0.3632812 -0.199219,-0.3632812 -0.199219,0 -0.199219,0.1875 -0.199219,0.3632812 v 9.2460938 c 0,0.1757812 0,0.3632812 0.199219,0.3632812 0.199219,0 0.199219,-0.1875 0.199219,-0.3632812 z m 10.68164,1.1953125 c 0.105469,-0.046875 0.1875,-0.09375 0.1875,-0.2226562 0,-0.1054688 -0.08203,-0.1992188 -0.199219,-0.1992188 -0.04687,0 -0.140625,0.046875 -0.175781,0.058594 l -5.507812,2.6015625 c -0.175782,0.082031 -0.199219,0.1523437 -0.199219,0.234375 0,0.09375 0.05859,0.1523437 0.199219,0.2226562 l 5.507812,2.58984376 c 0.128906,0.0703125 0.140625,0.0703125 0.175781,0.0703125 0.105469,0 0.199219,-0.09375 0.199219,-0.19921875 0,-0.09375 -0.03516,-0.15234375 -0.210937,-0.234375 L 25.928141,-3.4466484 Z m -0.164062,7.2773438 c 0.175781,0 0.351562,0 0.351562,-0.1992188 0,-0.19921874 -0.210937,-0.19921874 -0.363281,-0.19921874 h -5.367188 c -0.152343,0 -0.351562,0 -0.351562,0.19921874 0,0.1992188 0.175781,0.1992188 0.339844,0.1992188 z m 0,0"
         style="fill:#000000;fill-opacity:1;fill-rule:nonzero;stroke:none" />
      <path
         id="path18"
         d="m 35.382242,1.2174141 c -0.08203,0.3398437 -0.09375,0.4101562 -0.539062,0.4101562 -0.117188,0 -0.222657,0 -0.222657,0.1875 0,0.082031 0.04687,0.1171875 0.128907,0.1171875 0.269531,0 0.550781,-0.035156 0.832031,-0.035156 0.328125,0 0.667969,0.035156 0.984375,0.035156 0.05859,0 0.1875,0 0.1875,-0.1992187 0,-0.1054688 -0.105469,-0.1054688 -0.246094,-0.1054688 -0.492187,0 -0.492187,-0.070312 -0.492187,-0.1640625 0,-0.1171875 0.421875,-1.74609374 0.480468,-1.99218749 0.140625,0.29296875 0.410157,0.6328125 0.925782,0.6328125 1.148437,0 2.402343,-1.45312501 2.402343,-2.91796871 0,-0.9375 -0.574218,-1.59375 -1.335937,-1.59375 -0.492188,0 -0.972656,0.3632812 -1.300781,0.75 -0.09375,-0.5390625 -0.527344,-0.75 -0.890625,-0.75 -0.457032,0 -0.65625,0.3867187 -0.738282,0.5742187 -0.1875,0.3398438 -0.316406,0.9375 -0.316406,0.9609375 0,0.1054688 0.105469,0.1054688 0.128906,0.1054688 0.09375,0 0.105469,-0.011719 0.164063,-0.234375 0.164062,-0.703125 0.363281,-1.1835938 0.726562,-1.1835938 0.175782,0 0.304688,0.082031 0.304688,0.4570313 0,0.234375 -0.02344,0.3398437 -0.07031,0.5039062 z m 1.757813,-4.3242188 c 0.07031,-0.2695312 0.339843,-0.5507812 0.515625,-0.703125 0.351562,-0.3046875 0.632812,-0.375 0.808593,-0.375 0.398438,0 0.632813,0.3515625 0.632813,0.9375 0,0.5859375 -0.328125,1.734375 -0.503906,2.109375 -0.339844,0.70312501 -0.820313,1.03125001 -1.183594,1.03125001 -0.65625,0 -0.785156,-0.83203125 -0.785156,-0.890625 0,-0.0234375 0,-0.0351562 0.02344,-0.16406251 z m 0,0"
         style="fill:#000000;fill-opacity:1;fill-rule:nonzero;stroke:none" />
    </g>
    <path
       id="path19"
       d="m 0,17.00824 c 0.74718,1.49443 2.49069,2.49069 4.98138,2.49069 h 80.74694 c 2.49069,0 4.2342,0.99627 4.98138,2.49069 0.74718,-1.49442 2.4907,-2.49069 4.98139,-2.49069 h 80.74693 c 2.49069,0 4.23421,-0.99626 4.98138,-2.49069"
       style="fill:none;stroke:#000000;stroke-width:0.3985;stroke-linecap:butt;stroke-linejoin:miter;stroke-miterlimit:10;stroke-dasharray:none;stroke-opacity:1"
       transform="matrix(1.3333333,0,0,-1.3333333,28.612,53.052)" />
    <g
       id="g19"
       aria-label="|s|≥p"
       transform="matrix(1.3333333,0,0,1.3333333,130.556,14.390667)">
      <path
         id="path20"
         d="m 1.5810469,-7.1133125 c 0,-0.1757813 0,-0.3632813 -0.1992188,-0.3632813 -0.1992187,0 -0.1992187,0.1875 -0.1992187,0.3632813 v 9.2460937 c 0,0.1757813 0,0.3632813 0.1992187,0.3632813 0.1992188,0 0.1992188,-0.1875 0.1992188,-0.3632813 z m 0,0"
         style="fill:#000000;fill-opacity:1;fill-rule:nonzero;stroke:none" />
      <path
         id="path21"
         d="m 6.6581953,-3.7265938 c -0.2695312,0.011719 -0.46875,0.234375 -0.46875,0.4453125 0,0.140625 0.082031,0.2929688 0.3046875,0.2929688 0.2226563,0 0.4570313,-0.1640625 0.4570313,-0.5625 0,-0.4453125 -0.4335938,-0.8554688 -1.1835938,-0.8554688 -1.3125,0 -1.6875,1.0195313 -1.6875,1.453125 0,0.7851563 0.7382813,0.9257813 1.03125,0.9960938 0.515625,0.09375 1.03125,0.1992187 1.03125,0.75 0,0.2578125 -0.2226562,1.1015625 -1.4179687,1.1015625 -0.140625,0 -0.9140625,0 -1.1367188,-0.52734375 0.375,0.046875 0.6210938,-0.2578125 0.6210938,-0.52734375 0,-0.234375 -0.1523438,-0.3515625 -0.3632813,-0.3515625 -0.2578125,0 -0.5625,0.2109375 -0.5625,0.65625 0,0.5625 0.5742188,0.9609375 1.4296875,0.9609375 1.6054688,0 2.0039063,-1.2070313 2.0039063,-1.6523438 0,-0.3515625 -0.1992188,-0.609375 -0.3164063,-0.7265625 -0.2695312,-0.28125 -0.5507812,-0.328125 -0.9960937,-0.421875 -0.3515625,-0.070312 -0.75,-0.140625 -0.75,-0.5976562 0,-0.28125 0.234375,-0.890625 1.1132812,-0.890625 0.2460938,0 0.75,0.070312 0.890625,0.4570312 z m 0,0"
         style="fill:#000000;fill-opacity:1;fill-rule:nonzero;stroke:none" />
      <path
         id="path22"
         d="m 9.0195234,-7.1133125 c 0,-0.1757813 0,-0.3632813 -0.1992187,-0.3632813 -0.1992188,0 -0.1992188,0.1875 -0.1992188,0.3632813 v 9.2460937 c 0,0.1757813 0,0.3632813 0.1992188,0.3632813 0.1992187,0 0.1992187,-0.1875 0.1992187,-0.3632813 z m 10.6699216,3.890625 c 0.140625,-0.070312 0.199219,-0.1289063 0.199219,-0.2226563 0,-0.1054687 -0.03516,-0.1640625 -0.199219,-0.234375 L 14.20507,-6.2695625 c -0.140625,-0.070312 -0.1875,-0.070312 -0.199218,-0.070312 -0.128907,0 -0.199219,0.09375 -0.199219,0.1992187 0,0.1289063 0.07031,0.1757813 0.1875,0.2226563 l 5.226562,2.4609375 -5.214843,2.4609375 c -0.199219,0.09375 -0.199219,0.1640625 -0.199219,0.234375 0,0.10546875 0.08203,0.19921875 0.199219,0.19921875 0.02344,0 0.04687,0 0.175781,-0.0703125 z m -0.152343,4.5820312 c 0.175781,0 0.351562,0 0.351562,-0.1992187 0,-0.19921875 -0.210937,-0.19921875 -0.363281,-0.19921875 h -5.367188 c -0.152343,0 -0.351562,0 -0.351562,0.19921875 0,0.1992187 0.175781,0.1992187 0.339844,0.1992187 z m 0,0"
         style="fill:#000000;fill-opacity:1;fill-rule:nonzero;stroke:none" />
      <path
         id="path23"
         d="m 23.928703,1.2187187 c -0.08203,0.3398438 -0.09375,0.4101563 -0.539062,0.4101563 -0.117188,0 -0.222657,0 -0.222657,0.1875 0,0.082031 0.04687,0.1171875 0.128907,0.1171875 0.269531,0 0.550781,-0.035156 0.832031,-0.035156 0.328125,0 0.667969,0.035156 0.984375,0.035156 0.05859,0 0.1875,0 0.1875,-0.1992188 0,-0.1054687 -0.105469,-0.1054687 -0.246094,-0.1054687 -0.492187,0 -0.492187,-0.070312 -0.492187,-0.1640625 0,-0.1171875 0.421875,-1.74609375 0.480468,-1.9921875 0.140625,0.29296875 0.410157,0.6328125 0.925782,0.6328125 1.148437,0 2.402343,-1.453125 2.402343,-2.9179688 0,-0.9375 -0.574218,-1.59375 -1.335937,-1.59375 -0.492188,0 -0.972656,0.3632813 -1.300781,0.75 -0.09375,-0.5390625 -0.527344,-0.75 -0.890625,-0.75 -0.457032,0 -0.65625,0.3867188 -0.738282,0.5742188 -0.1875,0.3398437 -0.316406,0.9375 -0.316406,0.9609375 0,0.1054687 0.105469,0.1054687 0.128906,0.1054687 0.09375,0 0.105469,-0.011719 0.164063,-0.234375 0.164062,-0.703125 0.363281,-1.1835937 0.726562,-1.1835937 0.175782,0 0.304688,0.082031 0.304688,0.4570312 0,0.234375 -0.02344,0.3398438 -0.07031,0.5039063 z M 25.686516,-3.1055 c 0.07031,-0.2695313 0.339843,-0.5507813 0.515625,-0.703125 0.351562,-0.3046875 0.632812,-0.375 0.808593,-0.375 0.398438,0 0.632813,0.3515625 0.632813,0.9375 0,0.5859375 -0.328125,1.734375 -0.503906,2.109375 -0.339844,0.703125 -0.820313,1.03125 -1.183594,1.03125 -0.65625,0 -0.785156,-0.83203125 -0.785156,-0.890625 0,-0.0234375 0,-0.0351563 0.02344,-0.1640625 z m 0,0"
         style="fill:#000000;fill-opacity:1;fill-rule:nonzero;stroke:none" />
    </g>
    <path
       id="path24"
       d="M 90.7097,-25.51193 V -50.31696"
       style="fill:none;stroke:#000000;stroke-width:0.79701;stroke-linecap:butt;stroke-linejoin:miter;stroke-miterlimit:10;stroke-dasharray:none;stroke-opacity:1"
       transform="matrix(1.3333333,0,0,-1.3333333,28.612,53.052)" />
    <path
       id="path25"
       d="M -1.55415,2.0722 C -1.42464,1.29512 0,0.1295 0.38852,0 0,-0.1295 -1.42464,-1.29512 -1.55415,-2.0722"
       style="fill:none;stroke:#000000;stroke-width:0.6376;stroke-linecap:round;stroke-linejoin:round;stroke-miterlimit:10;stroke-dasharray:none;stroke-opacity:1"
       transform="matrix(0,1.3333333,1.3333333,0,149.55827,120.14128)" />
    <g
       id="g25"
       aria-label="uv&#10;i&#10;xy&#10;i&#10;z∈L"
       transform="matrix(1.3333333,0,0,1.3333333,114.56533,144.176)">
      <path
         id="path26"
         d="m 3.4929922,-0.56266406 c 0.1054687,0.41015625 0.4570312,0.66796875 0.8789062,0.66796875 0.3515625,0 0.5742188,-0.22265625 0.7382813,-0.5390625 0.1757812,-0.36328125 0.3046875,-0.97265629 0.3046875,-0.99609379 0,-0.09375 -0.09375,-0.09375 -0.1289063,-0.09375 -0.09375,0 -0.1054687,0.035156 -0.140625,0.1757813 -0.1289062,0.56249999 -0.328125,1.24218749 -0.7382812,1.24218749 -0.2109375,0 -0.3164063,-0.12890625 -0.3164063,-0.45703125 0,-0.22265625 0.1289063,-0.69140624 0.1992188,-1.04296874 l 0.28125,-1.078125 c 0.035156,-0.140625 0.1289062,-0.5273438 0.1757812,-0.6679688 0.046875,-0.234375 0.140625,-0.609375 0.140625,-0.6679687 0,-0.1875 -0.140625,-0.2695313 -0.28125,-0.2695313 -0.058594,0 -0.3164062,0 -0.3867187,0.3398438 -0.1992188,0.7265625 -0.6328125,2.4726562 -0.75,2.99999999 -0.011719,0.046875 -0.4101563,0.84375 -1.1367188,0.84375 -0.515625,0 -0.6210937,-0.45703125 -0.6210937,-0.8203125 0,-0.56249999 0.28125,-1.34765629 0.5390625,-2.02734379 0.1171875,-0.3046875 0.1757812,-0.4453125 0.1757812,-0.6328125 0,-0.4453125 -0.328125,-0.8203125 -0.8203125,-0.8203125 -0.94921871,0 -1.31249996,1.453125 -1.31249996,1.5351563 0,0.1054687 0.09375,0.1054687 0.1171875,0.1054687 0.09375,0 0.10546875,-0.023437 0.15234375,-0.1875 0.2578125,-0.8671875 0.63281251,-1.2304687 1.00781251,-1.2304687 0.09375,0 0.2578125,0.011719 0.2578125,0.328125 0,0.234375 -0.1171875,0.5273437 -0.1757813,0.6796875 -0.3632812,0.984375 -0.5742187,1.6054687 -0.5742187,2.0859375 0,0.94921874 0.6796875,1.19531249 1.21875,1.19531249 0.65625,0 1.0195312,-0.4453125 1.1953125,-0.66796875 z M 10.368969,-3.7032891 c 0,-0.5390625 -0.257813,-0.703125 -0.4453127,-0.703125 -0.2460938,0 -0.4804688,0.2578125 -0.4804688,0.4804688 0,0.1289062 0.046875,0.1875 0.1523438,0.3046875 0.2109375,0.1992187 0.3398437,0.4570312 0.3398437,0.8085937 0,0.421875 -0.609375,2.70703129 -1.7695312,2.70703129 -0.5039063,0 -0.7382813,-0.3515625 -0.7382813,-0.8671875 0,-0.56249999 0.2695313,-1.28906249 0.5742188,-2.12109379 0.070312,-0.1640625 0.1289062,-0.3046875 0.1289062,-0.4921875 0,-0.4453125 -0.328125,-0.8203125 -0.8203125,-0.8203125 -0.9375,0 -1.3125,1.453125 -1.3125,1.5351563 0,0.1054687 0.09375,0.1054687 0.1171875,0.1054687 0.09375,0 0.1054688,-0.023437 0.1523438,-0.1875 0.2929687,-0.9960937 0.7265625,-1.2304687 1.0078125,-1.2304687 0.082031,0 0.2578125,0 0.2578125,0.3164062 0,0.2460938 -0.1054688,0.515625 -0.1757813,0.703125 -0.4335937,1.1484375 -0.5625,1.6054688 -0.5625,2.0390625 0,1.07812504 0.8671875,1.23046879 1.3359375,1.23046879 1.6640625,0 2.2382815,-3.29296879 2.2382815,-3.80859379 z m 0,0"
         style="fill:#000000;fill-opacity:1;fill-rule:nonzero;stroke:none" />
      <path
         id="path27"
         d="m 13.152172,-7.9747734 c 0,-0.1054688 -0.08203,-0.2578125 -0.28125,-0.2578125 -0.1875,0 -0.386719,0.1757812 -0.386719,0.375 0,0.1171875 0.08203,0.2695312 0.269531,0.2695312 0.210938,0 0.398438,-0.1992187 0.398438,-0.3867187 z m -1.429688,3.5390625 c -0.02344,0.09375 -0.05859,0.1757812 -0.05859,0.2929687 0,0.328125 0.28125,0.5976563 0.667968,0.5976563 0.691407,0 0.996094,-0.9609375 0.996094,-1.0664063 0,-0.09375 -0.08203,-0.09375 -0.105469,-0.09375 -0.105468,0 -0.105468,0.046875 -0.140625,0.1171875 -0.152343,0.5625 -0.457031,0.84375 -0.738281,0.84375 -0.140625,0 -0.175781,-0.082031 -0.175781,-0.2460937 0,-0.1523438 0.05859,-0.2929688 0.117187,-0.4453125 0.07031,-0.1875 0.140625,-0.375 0.222657,-0.5507813 0.05859,-0.1640625 0.316406,-0.8085937 0.339843,-0.890625 0.02344,-0.070312 0.04687,-0.1523437 0.04687,-0.2226562 0,-0.328125 -0.28125,-0.5859375 -0.667968,-0.5859375 -0.691407,0 -1.007813,0.9492187 -1.007813,1.0664062 0,0.082031 0.09375,0.082031 0.117188,0.082031 0.09375,0 0.105468,-0.035156 0.128906,-0.1054688 0.175781,-0.5976562 0.480469,-0.8554687 0.738281,-0.8554687 0.117188,0 0.175781,0.058594 0.175781,0.2460937 0,0.1640625 -0.03516,0.2695313 -0.210937,0.703125 z m 0,0"
         style="fill:#000000;fill-opacity:1;fill-rule:nonzero;stroke:none" />
      <path
         id="path28"
         d="m 17.534984,-3.0118828 c 0.05859,-0.2578125 0.292969,-1.171875 0.984375,-1.171875 0.04687,0 0.292969,0 0.503907,0.1289062 -0.28125,0.046875 -0.480469,0.3046875 -0.480469,0.5390625 0,0.1640625 0.105469,0.3515625 0.375,0.3515625 0.222656,0 0.539062,-0.1875 0.539062,-0.5859375 0,-0.515625 -0.585937,-0.65625 -0.925781,-0.65625 -0.574219,0 -0.925781,0.5273438 -1.042969,0.7617188 -0.257812,-0.65625 -0.785156,-0.7617188 -1.078125,-0.7617188 -1.042968,0 -1.605468,1.2890625 -1.605468,1.5351563 0,0.1054687 0.105468,0.1054687 0.117187,0.1054687 0.08203,0 0.117188,-0.023437 0.128906,-0.1171875 0.339844,-1.0546875 0.996094,-1.3007812 1.335938,-1.3007812 0.1875,0 0.539062,0.09375 0.539062,0.6679687 0,0.3046875 -0.164062,0.9726563 -0.539062,2.3671875 -0.152344,0.62109379 -0.503906,1.04296879 -0.949219,1.04296879 -0.05859,0 -0.28125,0 -0.492187,-0.12890625 0.246093,-0.0585938 0.46875,-0.26953125 0.46875,-0.5390625 0,-0.26953124 -0.222657,-0.35156254 -0.375,-0.35156254 -0.292969,0 -0.539063,0.25781254 -0.539063,0.57421879 0,0.45703125 0.492188,0.65625 0.9375,0.65625 0.65625,0 1.007813,-0.69140625 1.042969,-0.75 0.117187,0.36328125 0.480469,0.75 1.078125,0.75 1.019531,0 1.59375,-1.27734379 1.59375,-1.53515629 0,-0.09375 -0.09375,-0.09375 -0.128906,-0.09375 -0.08203,0 -0.105469,0.035156 -0.128907,0.1054688 -0.328125,1.06640624 -0.996093,1.31249999 -1.324218,1.31249999 -0.386719,0 -0.539063,-0.328125 -0.539063,-0.65625 0,-0.22265625 0.05859,-0.44531249 0.164063,-0.87890629 z m 7.204102,-0.7851563 c 0.04687,-0.140625 0.04687,-0.1523437 0.04687,-0.2226562 0,-0.1875 -0.140625,-0.2695313 -0.292969,-0.2695313 -0.105469,0 -0.257812,0.058594 -0.351562,0.1992188 -0.02344,0.058594 -0.09375,0.3632812 -0.140625,0.5390625 -0.07031,0.2578125 -0.140625,0.5273437 -0.199219,0.796875 l -0.445313,1.79296874 c -0.03516,0.15234375 -0.46875,0.85546875 -1.125,0.85546875 -0.503906,0 -0.621093,-0.4453125 -0.621093,-0.80859375 0,-0.45703124 0.175781,-1.07812504 0.515625,-1.95703124 0.152343,-0.4101563 0.199218,-0.515625 0.199218,-0.7148438 0,-0.4453125 -0.328125,-0.8203125 -0.820312,-0.8203125 -0.949219,0 -1.3125,1.453125 -1.3125,1.5351563 0,0.1054687 0.09375,0.1054687 0.117187,0.1054687 0.09375,0 0.105469,-0.023437 0.152344,-0.1875 0.269531,-0.9375 0.667969,-1.2304687 1.007813,-1.2304687 0.08203,0 0.257812,0 0.257812,0.3164062 0,0.2460938 -0.105469,0.515625 -0.175781,0.703125 -0.398438,1.0546875 -0.574219,1.6171875 -0.574219,2.0859375 0,0.89062504 0.621094,1.18359379 1.21875,1.18359379 0.386719,0 0.726563,-0.1640625 0.996094,-0.4453125 -0.128906,0.515625 -0.246094,1.0078125 -0.644531,1.53515621 -0.257813,0.3398438 -0.632813,0.6328125 -1.089844,0.6328125 -0.140625,0 -0.597656,-0.035156 -0.761719,-0.421875 0.164063,0 0.292969,0 0.433594,-0.1171875 0.09375,-0.09375 0.199219,-0.2226562 0.199219,-0.41015621 0,-0.31640625 -0.269532,-0.3515625 -0.375,-0.3515625 -0.222657,0 -0.550782,0.1640625 -0.550782,0.64453121 0,0.5039063 0.433594,0.8671875 1.054688,0.8671875 1.019531,0 2.050781,-0.9023437 2.332031,-2.02734371 z m 0,0"
         style="fill:#000000;fill-opacity:1;fill-rule:nonzero;stroke:none" />
      <path
         id="path29"
         d="m 27.405102,-7.9747734 c 0,-0.1054688 -0.08203,-0.2578125 -0.28125,-0.2578125 -0.1875,0 -0.386719,0.1757812 -0.386719,0.375 0,0.1171875 0.08203,0.2695312 0.269531,0.2695312 0.210938,0 0.398438,-0.1992187 0.398438,-0.3867187 z m -1.429688,3.5390625 c -0.02344,0.09375 -0.05859,0.1757812 -0.05859,0.2929687 0,0.328125 0.28125,0.5976563 0.667969,0.5976563 0.691406,0 0.996094,-0.9609375 0.996094,-1.0664063 0,-0.09375 -0.08203,-0.09375 -0.105469,-0.09375 -0.105469,0 -0.105469,0.046875 -0.140625,0.1171875 -0.152344,0.5625 -0.457031,0.84375 -0.738281,0.84375 -0.140625,0 -0.175781,-0.082031 -0.175781,-0.2460937 0,-0.1523438 0.05859,-0.2929688 0.117187,-0.4453125 0.07031,-0.1875 0.140625,-0.375 0.222656,-0.5507813 0.05859,-0.1640625 0.316407,-0.8085937 0.339844,-0.890625 0.02344,-0.070312 0.04687,-0.1523437 0.04687,-0.2226562 0,-0.328125 -0.28125,-0.5859375 -0.667969,-0.5859375 -0.691406,0 -1.007812,0.9492187 -1.007812,1.0664062 0,0.082031 0.09375,0.082031 0.117187,0.082031 0.09375,0 0.105469,-0.035156 0.128907,-0.1054688 0.175781,-0.5976562 0.480468,-0.8554687 0.738281,-0.8554687 0.117187,0 0.175781,0.058594 0.175781,0.2460937 0,0.1640625 -0.03516,0.2695313 -0.210937,0.703125 z m 0,0"
         style="fill:#000000;fill-opacity:1;fill-rule:nonzero;stroke:none" />
      <path
         id="path30"
         d="m 29.784008,-0.83219531 c 0.539062,-0.57421879 0.832031,-0.82031249 1.183594,-1.12499999 0,-0.011719 0.621093,-0.5390625 0.984375,-0.9023438 0.9375,-0.9257812 1.160156,-1.40625 1.160156,-1.4414062 0,-0.1054688 -0.09375,-0.1054688 -0.105469,-0.1054688 -0.07031,0 -0.105469,0.023437 -0.152344,0.1171875 -0.304687,0.46875 -0.503906,0.6328125 -0.75,0.6328125 -0.234375,0 -0.351562,-0.1523437 -0.503906,-0.3164062 -0.1875,-0.234375 -0.363281,-0.4335938 -0.691406,-0.4335938 -0.75,0 -1.207031,0.9257813 -1.207031,1.1367188 0,0.046875 0.03516,0.1171875 0.117187,0.1171875 0.09375,0 0.117188,-0.058594 0.140625,-0.1171875 0.1875,-0.4570313 0.761719,-0.46875 0.84375,-0.46875 0.210938,0 0.398438,0.070312 0.621094,0.1523437 0.398437,0.1523438 0.515625,0.1523438 0.773437,0.1523438 -0.363281,0.421875 -1.195312,1.1367187 -1.382812,1.3007812 l -0.902344,0.8320313 c -0.679687,0.66796874 -1.019531,1.24218749 -1.019531,1.31249999 0,0.09375 0.09375,0.09375 0.117187,0.09375 0.08203,0 0.09375,-0.01171875 0.152344,-0.12890625 0.234375,-0.33984375 0.527344,-0.609375 0.855469,-0.609375 0.222656,0 0.328125,0.0820313 0.574219,0.375 0.164062,0.2109375 0.351562,0.36328125 0.632812,0.36328125 0.984375,0 1.570313,-1.26562499 1.570313,-1.53515629 0,-0.046875 -0.04687,-0.09375 -0.117188,-0.09375 -0.09375,0 -0.117187,0.058594 -0.140625,0.1289063 -0.234375,0.64453124 -0.867187,0.83203124 -1.195312,0.83203124 -0.199219,0 -0.386719,-0.0585938 -0.585938,-0.12890625 -0.339844,-0.12890625 -0.492187,-0.1640625 -0.703125,-0.1640625 -0.02344,0 -0.175781,0 -0.269531,0.0234375 z m 0,0"
         style="fill:#000000;fill-opacity:1;fill-rule:nonzero;stroke:none" />
      <path
         id="path31"
         d="m 41.76057,-2.2970391 c 0.164063,0 0.351563,0 0.351563,-0.1992187 0,-0.1992188 -0.1875,-0.1992188 -0.351563,-0.1992188 h -4.230468 c 0.128906,-1.3242187 1.265625,-2.2851562 2.671875,-2.2851562 h 1.558593 c 0.164063,0 0.351563,0 0.351563,-0.1992188 0,-0.1992187 -0.1875,-0.1992187 -0.351563,-0.1992187 h -1.570312 c -1.710938,0 -3.058594,1.2890625 -3.058594,2.8828125 0,1.59374999 1.347656,2.89453124 3.058594,2.89453124 h 1.570312 c 0.164063,0 0.351563,0 0.351563,-0.19921875 0,-0.1992187525 -0.1875,-0.1992187525 -0.351563,-0.1992187525 h -1.558593 c -1.40625,0 -2.542969,-0.9609374975 -2.671875,-2.2968750375 z m 0,0"
         style="fill:#000000;fill-opacity:1;fill-rule:nonzero;stroke:none" />
      <path
         id="path32"
         d="m 49.427563,-6.0236016 c 0.09375,-0.3632812 0.117187,-0.46875 1.054687,-0.46875 0.304688,0 0.375,0 0.375,-0.1875 0,-0.1289062 -0.105469,-0.1289062 -0.152344,-0.1289062 -0.328125,0 -1.148437,0.035156 -1.476562,0.035156 -0.304688,0 -1.03125,-0.035156 -1.324219,-0.035156 -0.07031,0 -0.1875,0 -0.1875,0.1992187 0,0.1171875 0.08203,0.1171875 0.28125,0.1171875 0.01172,0 0.199219,0 0.375,0.011719 0.175781,0.023437 0.269531,0.035156 0.269531,0.1640625 0,0.035156 -0.01172,0.070312 -0.04687,0.1875 l -1.335937,5.35546874 c -0.09375,0.38671875 -0.117188,0.46875 -0.902344,0.46875 -0.164062,0 -0.269531,0 -0.269531,0.19921875 0,0.1054687475 0.09375,0.1054687475 0.269531,0.1054687475 h 4.617188 c 0.234375,0 0.246093,0 0.304687,-0.1640624975 l 0.785156,-2.15625004 c 0.04687,-0.1054687 0.04687,-0.1289062 0.04687,-0.140625 0,-0.035156 -0.03516,-0.1054687 -0.128906,-0.1054687 -0.08203,0 -0.09375,0.046875 -0.164062,0.2109375 -0.339844,0.9140625 -0.773438,2.05078124 -2.496094,2.05078124 h -0.9375 c -0.140625,0 -0.164063,0 -0.222656,-0.0117188 -0.105469,-0.0117188 -0.128907,-0.0234375 -0.128907,-0.10546875 0,-0.0234375 0,-0.046875 0.04687,-0.22265625 z m 0,0"
         style="fill:#000000;fill-opacity:1;fill-rule:nonzero;stroke:none" />
    </g>
  </g>
</svg>
