<?xml version="1.0" encoding="UTF-8" standalone="no"?>
<!-- Created with Inkscape (http://www.inkscape.org/) -->

<svg
   version="1.1"
   id="svg1"
   width="459.85938"
   height="254"
   viewBox="0 0 459.85938 254"
   xmlns="http://www.w3.org/2000/svg"
   xmlns:svg="http://www.w3.org/2000/svg">
  <defs
     id="defs1" />
  <g
     id="g1"
     transform="translate(-4.8203125,-4.1445314)">
    <path
       id="path1"
       d="M 0,0 170.11317,170.11317 340.2264,0 Z"
       style="fill:none;stroke:#000000;stroke-width:0.3985;stroke-linecap:butt;stroke-linejoin:miter;stroke-miterlimit:10;stroke-dasharray:none;stroke-opacity:1"
       transform="matrix(1.3333333,0,0,-1.3333333,8.2293333,245.012)" />
    <path
       id="path2"
       d="M 68.04524,0 H 0 238.15846 Z"
       style="fill:none;stroke:#000000;stroke-width:0.3985;stroke-linecap:butt;stroke-linejoin:miter;stroke-miterlimit:10;stroke-dasharray:none;stroke-opacity:1"
       transform="matrix(1.3333333,0,0,-1.3333333,8.2293333,245.012)" />
    <path
       id="path3"
       d="M 170.11317,0 H 0 238.15846 Z"
       style="fill:none;stroke:#000000;stroke-width:0.3985;stroke-linecap:butt;stroke-linejoin:miter;stroke-miterlimit:10;stroke-dasharray:none;stroke-opacity:1"
       transform="matrix(1.3333333,0,0,-1.3333333,8.2293333,245.012)" />
    <path
       id="path4"
       d="M 68.04524,0 H 0 238.15846 Z"
       style="fill:#e6e6e6;fill-opacity:1;fill-rule:nonzero;stroke:none"
       transform="matrix(1.3333333,0,0,-1.3333333,8.2293333,245.012)" />
    <path
       id="path5"
       d="M 170.11317,0 H 0 238.15846 Z"
       style="fill:#cccccc;fill-opacity:1;fill-rule:nonzero;stroke:none"
       transform="matrix(1.3333333,0,0,-1.3333333,8.2293333,245.012)" />
    <path
       id="path6"
       d="M 170.11317,170.11317 0,0 v 0"
       style="fill:none;stroke:#000000;stroke-width:0.79701;stroke-linecap:butt;stroke-linejoin:miter;stroke-miterlimit:10;stroke-dasharray:0.79701, 1.99255;stroke-dashoffset:0;stroke-opacity:1"
       transform="matrix(1.3333333,0,0,-1.3333333,8.2293333,245.012)" />
    <path
       id="path7"
       d="m 172.50423,170.11317 c 0,1.32055 -1.07051,2.39106 -2.39106,2.39106 -1.32055,0 -2.39107,-1.07051 -2.39107,-2.39106 0,-1.32055 1.07052,-2.39107 2.39107,-2.39107 1.32055,0 2.39106,1.07052 2.39106,2.39107 z"
       style="fill:#000000;fill-opacity:1;fill-rule:nonzero;stroke:none"
       transform="matrix(1.3333333,0,0,-1.3333333,8.2293333,245.012)" />
    <path
       id="path8"
       d="M 2.39105,0 C 2.39105,1.32054 1.32054,2.39105 0,2.39105 -1.32054,2.39105 -2.39105,1.32054 -2.39105,0 c 0,-1.32054 1.07051,-2.39105 2.39105,-2.39105 1.32054,0 2.39105,1.07051 2.39105,2.39105 z"
       style="fill:#000000;fill-opacity:1;fill-rule:nonzero;stroke:none"
       transform="matrix(1.3333333,0,0,-1.3333333,8.2293333,245.012)" />
    <path
       id="path9"
       d="M 2.39105,0 C 2.39105,1.32054 1.32054,2.39105 0,2.39105 -1.32054,2.39105 -2.39105,1.32054 -2.39105,0 c 0,-1.32054 1.07051,-2.39105 2.39105,-2.39105 1.32054,0 2.39105,1.07051 2.39105,2.39105 z"
       style="fill:#000000;fill-opacity:1;fill-rule:nonzero;stroke:none"
       transform="matrix(1.3333333,0,0,-1.3333333,8.2293333,245.012)" />
    <path
       id="path10"
       d="m 6.4232578,-6.9258516 c 0,-0.023437 -0.011719,-0.09375 -0.1054687,-0.09375 -0.046875,0 -0.058594,0.011719 -0.1757813,0.140625 l -0.4804687,0.5742188 c -0.2578125,-0.46875 -0.7734375,-0.7148438 -1.4296875,-0.7148438 -1.265625,0 -2.4609375,1.1367188 -2.4609375,2.34375 0,0.8085938 0.5273437,1.265625 1.0429687,1.4179688 l 1.0664063,0.28125 c 0.3632812,0.082031 0.9140625,0.234375 0.9140625,1.0546875 0,0.890625 -0.8203125,1.82812499 -1.7929688,1.82812499 -0.6445312,0 -1.7460937,-0.2109375 -1.7460937,-1.45312499 0,-0.234375 0.046875,-0.4804688 0.058594,-0.5390625 0.011719,-0.035156 0.023437,-0.046875 0.023437,-0.070312 0,-0.09375 -0.070312,-0.1054688 -0.1171875,-0.1054688 -0.058594,0 -0.070312,0.011719 -0.1054687,0.035156 -0.035156,0.046875 -0.59765629,2.32031249 -0.59765629,2.34374999 0,0.0585938 0.046875,0.10546875 0.1171875,0.10546875 0.046875,0 0.0585938,-0.0117188 0.17578125,-0.15234375 L 1.3021641,-0.50397656 c 0.421875,0.5859375 1.1015625,0.7265625 1.6757812,0.7265625 1.359375,0 2.53125,-1.32421874 2.53125,-2.56640624 0,-0.6796875 -0.3398437,-1.0195313 -0.4921875,-1.1601563 -0.2226562,-0.234375 -0.375,-0.2695312 -1.265625,-0.5039062 -0.2109375,-0.058594 -0.5742187,-0.1523438 -0.65625,-0.1757813 -0.2695312,-0.09375 -0.609375,-0.375 -0.609375,-0.9023437 0,-0.8085938 0.796875,-1.6523438 1.734375,-1.6523438 0.8320313,0 1.4414063,0.421875 1.4414063,1.5351563 0,0.3164062 -0.046875,0.5039062 -0.046875,0.5625 0,0.011719 0,0.09375 0.1289062,0.09375 0.09375,0 0.1054688,-0.023437 0.140625,-0.1992188 z m 0,0"
       style="fill:#000000;fill-opacity:1;fill-rule:nonzero;stroke:none"
       aria-label="S"
       transform="matrix(1.3333333,0,0,1.3333333,230.588,13.504)" />
    <path
       id="path11"
       d="M 4.8275312,-4.0897578 3.9955,-6.0819453 c -0.035156,-0.070312 -0.046875,-0.1171875 -0.046875,-0.1289063 0,-0.058594 0.1640625,-0.2460937 0.5859375,-0.28125 0.09375,-0.011719 0.1992187,-0.023437 0.1992187,-0.1875 0,-0.1289062 -0.1171875,-0.1289062 -0.1523437,-0.1289062 -0.4101563,0 -0.8320313,0.035156 -1.2539063,0.035156 -0.2460937,0 -0.8671875,-0.035156 -1.1132812,-0.035156 -0.058594,0 -0.1875,0 -0.1875,0.1992187 0,0.1171875 0.1054687,0.1171875 0.234375,0.1171875 0.5976563,0 0.65625,0.09375 0.75,0.3164063 L 4.183,-3.3983516 2.0853437,-1.1366328 1.9564375,-1.0311641 C 1.46425,-0.50382031 0.9955,-0.33975781 0.49159375,-0.30460156 c -0.12890625,0 -0.22265625,0 -0.22265625,0.19921875 0,0 0,0.1054687475 0.12890625,0.1054687475 0.3046875,0 0.63281245,-0.0351562475 0.93749995,-0.0351562475 0.3632813,0 0.7617188,0.0351562475 1.1132813,0.0351562475 0.058594,0 0.1757812,0 0.1757812,-0.1992187475 0,-0.10546875 -0.09375,-0.10546875 -0.1171875,-0.10546875 -0.082031,-0.0117188 -0.3984375,-0.0351563 -0.3984375,-0.31640625 0,-0.15234375 0.1523438,-0.31640625 0.2695313,-0.44531249 l 1.0195312,-1.078125 0.890625,-0.9726563 1.0078125,2.37890629 c 0.046875,0.10546875 0.046875,0.1171875 0.046875,0.140625 0,0.0820313 -0.1875,0.24609375 -0.5742187,0.29296875 -0.1054688,0 -0.1992188,0.0117188 -0.1992188,0.1875 0,0.1171874975 0.1171875,0.1171874975 0.1523438,0.1171874975 0.28125,0 0.9726562,-0.0351562475 1.2539062,-0.0351562475 0.2460938,0 0.8554688,0.0351562475 1.1015625,0.0351562475 0.070312,0 0.1992188,0 0.1992188,-0.1874999975 0,-0.1171875 -0.1054688,-0.1171875 -0.1875,-0.1171875 -0.6679688,-0.0117188 -0.6796875,-0.046875 -0.8554688,-0.4453125 C 5.8470625,-1.6756953 5.1790937,-3.2225703 4.9447187,-3.8202266 5.6244062,-4.5233516 6.6790937,-5.7069453 6.9955,-5.9881953 c 0.28125,-0.234375 0.6679687,-0.4804688 1.265625,-0.5039063 0.1289063,-0.011719 0.2109375,-0.011719 0.2109375,-0.1992187 0,-0.011719 0,-0.1171875 -0.1289062,-0.1171875 -0.2929688,0 -0.6210938,0.035156 -0.9375001,0.035156 -0.3632812,0 -0.7382812,-0.035156 -1.1015625,-0.035156 -0.058594,0 -0.1875,0 -0.1875,0.1992187 0,0.070312 0.046875,0.1054688 0.1171875,0.1171875 0.09375,0.011719 0.3984375,0.023437 0.3984375,0.3046875 0,0.140625 -0.1054687,0.2695313 -0.1875,0.3632813 z m 0,0"
       style="fill:#000000;fill-opacity:1;fill-rule:nonzero;stroke:none"
       aria-label="X"
       transform="matrix(1.3333333,0,0,1.3333333,12.922667,249.55067)" />
    <path
       id="path12"
       d="M 4.8275312,-4.0897578 3.9955,-6.0819453 c -0.035156,-0.070312 -0.046875,-0.1171875 -0.046875,-0.1289063 0,-0.058594 0.1640625,-0.2460937 0.5859375,-0.28125 0.09375,-0.011719 0.1992187,-0.023437 0.1992187,-0.1875 0,-0.1289062 -0.1171875,-0.1289062 -0.1523437,-0.1289062 -0.4101563,0 -0.8320313,0.035156 -1.2539063,0.035156 -0.2460937,0 -0.8671875,-0.035156 -1.1132812,-0.035156 -0.058594,0 -0.1875,0 -0.1875,0.1992187 0,0.1171875 0.1054687,0.1171875 0.234375,0.1171875 0.5976563,0 0.65625,0.09375 0.75,0.3164063 L 4.183,-3.3983516 2.0853437,-1.1366328 1.9564375,-1.0311641 C 1.46425,-0.50382031 0.9955,-0.33975781 0.49159375,-0.30460156 c -0.12890625,0 -0.22265625,0 -0.22265625,0.19921875 0,0 0,0.1054687475 0.12890625,0.1054687475 0.3046875,0 0.63281245,-0.0351562475 0.93749995,-0.0351562475 0.3632813,0 0.7617188,0.0351562475 1.1132813,0.0351562475 0.058594,0 0.1757812,0 0.1757812,-0.1992187475 0,-0.10546875 -0.09375,-0.10546875 -0.1171875,-0.10546875 -0.082031,-0.0117188 -0.3984375,-0.0351563 -0.3984375,-0.31640625 0,-0.15234375 0.1523438,-0.31640625 0.2695313,-0.44531249 l 1.0195312,-1.078125 0.890625,-0.9726563 1.0078125,2.37890629 c 0.046875,0.10546875 0.046875,0.1171875 0.046875,0.140625 0,0.0820313 -0.1875,0.24609375 -0.5742187,0.29296875 -0.1054688,0 -0.1992188,0.0117188 -0.1992188,0.1875 0,0.1171874975 0.1171875,0.1171874975 0.1523438,0.1171874975 0.28125,0 0.9726562,-0.0351562475 1.2539062,-0.0351562475 0.2460938,0 0.8554688,0.0351562475 1.1015625,0.0351562475 0.070312,0 0.1992188,0 0.1992188,-0.1874999975 0,-0.1171875 -0.1054688,-0.1171875 -0.1875,-0.1171875 -0.6679688,-0.0117188 -0.6796875,-0.046875 -0.8554688,-0.4453125 C 5.8470625,-1.6756953 5.1790937,-3.2225703 4.9447187,-3.8202266 5.6244062,-4.5233516 6.6790937,-5.7069453 6.9955,-5.9881953 c 0.28125,-0.234375 0.6679687,-0.4804688 1.265625,-0.5039063 0.1289063,-0.011719 0.2109375,-0.011719 0.2109375,-0.1992187 0,-0.011719 0,-0.1171875 -0.1289062,-0.1171875 -0.2929688,0 -0.6210938,0.035156 -0.9375001,0.035156 -0.3632812,0 -0.7382812,-0.035156 -1.1015625,-0.035156 -0.058594,0 -0.1875,0 -0.1875,0.1992187 0,0.070312 0.046875,0.1054688 0.1171875,0.1171875 0.09375,0.011719 0.3984375,0.023437 0.3984375,0.3046875 0,0.140625 -0.1054687,0.2695313 -0.1875,0.3632813 z m 0,0"
       style="fill:#000000;fill-opacity:1;fill-rule:nonzero;stroke:none"
       aria-label="X"
       transform="matrix(1.3333333,0,0,1.3333333,12.922667,249.55067)" />
    <path
       id="path13"
       d="m 3.4934531,-0.56116406 c 0.1054688,0.41015625 0.4570313,0.66796875 0.8789063,0.66796875 0.3515625,0 0.5742187,-0.22265625 0.7382812,-0.5390625 0.1757813,-0.36328125 0.3046875,-0.97265629 0.3046875,-0.99609379 0,-0.09375 -0.09375,-0.09375 -0.1289062,-0.09375 -0.09375,0 -0.1054688,0.035156 -0.140625,0.1757813 -0.1289063,0.56249999 -0.328125,1.24218749 -0.7382813,1.24218749 -0.2109375,0 -0.3164062,-0.12890625 -0.3164062,-0.45703125 0,-0.22265625 0.1289062,-0.69140624 0.1992187,-1.04296874 l 0.28125,-1.078125 c 0.035156,-0.140625 0.1289063,-0.5273438 0.1757813,-0.6679688 0.046875,-0.234375 0.140625,-0.609375 0.140625,-0.6679687 0,-0.1875 -0.140625,-0.2695313 -0.28125,-0.2695313 -0.058594,0 -0.3164063,0 -0.3867188,0.3398438 -0.1992187,0.7265625 -0.6328125,2.4726562 -0.75,2.99999999 -0.011719,0.046875 -0.4101562,0.84375 -1.1367187,0.84375 -0.515625,0 -0.6210938,-0.45703125 -0.6210938,-0.8203125 0,-0.56249999 0.28125,-1.34765629 0.5390625,-2.02734379 0.1171875,-0.3046875 0.1757813,-0.4453125 0.1757813,-0.6328125 0,-0.4453125 -0.328125,-0.8203125 -0.8203125,-0.8203125 -0.94921878,0 -1.31250003,1.453125 -1.31250003,1.5351563 0,0.1054687 0.09375,0.1054687 0.1171875,0.1054687 0.09375,0 0.10546875,-0.023437 0.15234375,-0.1875 0.2578125,-0.8671875 0.63281248,-1.2304687 1.00781248,-1.2304687 0.09375,0 0.2578125,0.011719 0.2578125,0.328125 0,0.234375 -0.1171875,0.5273437 -0.1757812,0.6796875 -0.3632813,0.984375 -0.5742188,1.6054687 -0.5742188,2.0859375 0,0.94921874 0.6796875,1.19531249 1.21875,1.19531249 0.65625,0 1.0195313,-0.4453125 1.1953125,-0.66796875 z m 0,0"
       style="fill:#000000;fill-opacity:1;fill-rule:nonzero;stroke:none"
       aria-label="u"
       transform="matrix(1.3333333,0,0,1.3333333,4.428,255.424)" />
    <path
       id="path14"
       d="m 4.6631328,-3.7017891 c 0,-0.5390625 -0.2578125,-0.703125 -0.4453125,-0.703125 -0.2460937,0 -0.4804687,0.2578125 -0.4804687,0.4804688 0,0.1289062 0.046875,0.1875 0.1523437,0.3046875 0.2109375,0.1992187 0.3398438,0.4570312 0.3398438,0.8085937 0,0.421875 -0.609375,2.70703129 -1.7695313,2.70703129 -0.5039062,0 -0.7382812,-0.3515625 -0.7382812,-0.8671875 0,-0.56249999 0.2695312,-1.28906249 0.5742187,-2.12109379 0.070312,-0.1640625 0.1289063,-0.3046875 0.1289063,-0.4921875 0,-0.4453125 -0.328125,-0.8203125 -0.8203125,-0.8203125 -0.93750004,0 -1.31250004,1.453125 -1.31250004,1.5351563 0,0.1054687 0.09375,0.1054687 0.1171875,0.1054687 0.09375,0 0.10546875,-0.023437 0.15234375,-0.1875 0.29296875,-0.9960937 0.72656249,-1.2304687 1.00781249,-1.2304687 0.082031,0 0.2578125,0 0.2578125,0.3164062 0,0.2460938 -0.1054687,0.515625 -0.1757812,0.703125 -0.4335938,1.1484375 -0.5625,1.6054688 -0.5625,2.0390625 0,1.07812504 0.8671875,1.23046879 1.3359375,1.23046879 1.6640625,0 2.2382812,-3.29296879 2.2382812,-3.80859379 z m 0,0"
       style="fill:#000000;fill-opacity:1;fill-rule:nonzero;stroke:none"
       aria-label="v"
       transform="matrix(1.3333333,0,0,1.3333333,95.497333,255.424)" />
    <path
       id="path15"
       d="m 3.3266953,-3.0103828 c 0.058594,-0.2578125 0.2929688,-1.171875 0.984375,-1.171875 0.046875,0 0.2929688,0 0.5039063,0.1289062 -0.28125,0.046875 -0.4804688,0.3046875 -0.4804688,0.5390625 0,0.1640625 0.1054688,0.3515625 0.375,0.3515625 0.2226563,0 0.5390625,-0.1875 0.5390625,-0.5859375 0,-0.515625 -0.5859375,-0.65625 -0.9257812,-0.65625 -0.5742188,0 -0.9257813,0.5273438 -1.0429688,0.7617188 -0.2578125,-0.65625 -0.7851562,-0.7617188 -1.078125,-0.7617188 -1.0429687,0 -1.60546874,1.2890625 -1.60546874,1.5351563 0,0.1054687 0.10546875,0.1054687 0.1171875,0.1054687 0.0820313,0 0.1171875,-0.023437 0.12890625,-0.1171875 0.33984379,-1.0546875 0.99609379,-1.3007812 1.33593749,-1.3007812 0.1875,0 0.5390625,0.09375 0.5390625,0.6679687 0,0.3046875 -0.1640625,0.9726563 -0.5390625,2.3671875 -0.1523437,0.62109379 -0.5039062,1.04296879 -0.9492187,1.04296879 -0.058594,0 -0.28125004,0 -0.49218754,-0.12890625 0.24609375,-0.0585938 0.46875004,-0.26953125 0.46875004,-0.5390625 0,-0.26953124 -0.22265629,-0.35156254 -0.37500004,-0.35156254 -0.29296875,0 -0.5390625,0.25781254 -0.5390625,0.57421879 0,0.45703125 0.4921875,0.65625 0.93750004,0.65625 0.65625,0 1.0078125,-0.69140625 1.0429687,-0.75 0.1171875,0.36328125 0.4804688,0.75 1.078125,0.75 1.0195313,0 1.59375,-1.27734379 1.59375,-1.53515629 0,-0.09375 -0.09375,-0.09375 -0.1289062,-0.09375 -0.082031,0 -0.1054688,0.035156 -0.1289063,0.1054688 -0.328125,1.06640624 -0.9960937,1.31249999 -1.3242187,1.31249999 -0.3867188,0 -0.5390625,-0.328125 -0.5390625,-0.65625 0,-0.22265625 0.058594,-0.44531249 0.1640625,-0.87890629 z m 0,0"
       style="fill:#000000;fill-opacity:1;fill-rule:nonzero;stroke:none"
       aria-label="x"
       transform="matrix(1.3333333,0,0,1.3333333,231.248,255.424)" />
    <path
       id="path16"
       d="m 4.8408516,-3.7955391 c 0.046875,-0.140625 0.046875,-0.1523437 0.046875,-0.2226562 0,-0.1875 -0.140625,-0.2695313 -0.2929688,-0.2695313 -0.1054687,0 -0.2578125,0.058594 -0.3515625,0.1992188 -0.023437,0.058594 -0.09375,0.3632812 -0.140625,0.5390625 -0.070312,0.2578125 -0.140625,0.5273437 -0.1992187,0.796875 l -0.4453125,1.79296874 c -0.035156,0.15234375 -0.46875,0.85546875 -1.125,0.85546875 -0.5039063,0 -0.6210938,-0.4453125 -0.6210938,-0.80859375 0,-0.45703124 0.1757813,-1.07812504 0.515625,-1.95703124 0.1523438,-0.4101563 0.1992188,-0.515625 0.1992188,-0.7148438 0,-0.4453125 -0.328125,-0.8203125 -0.8203125,-0.8203125 -0.94921879,0 -1.31250004,1.453125 -1.31250004,1.5351563 0,0.1054687 0.09375,0.1054687 0.1171875,0.1054687 0.09375,0 0.10546875,-0.023437 0.15234375,-0.1875 0.26953125,-0.9375 0.66796879,-1.2304687 1.00781249,-1.2304687 0.082031,0 0.2578125,0 0.2578125,0.3164062 0,0.2460938 -0.1054687,0.515625 -0.1757812,0.703125 -0.3984375,1.0546875 -0.5742188,1.6171875 -0.5742188,2.0859375 0,0.89062504 0.6210938,1.18359379 1.21875,1.18359379 0.3867188,0 0.7265625,-0.1640625 0.9960938,-0.4453125 -0.1289063,0.515625 -0.2460938,1.0078125 -0.6445313,1.53515621 -0.2578125,0.3398438 -0.6328125,0.6328125 -1.0898437,0.6328125 -0.140625,0 -0.59765629,-0.035156 -0.76171879,-0.421875 0.1640625,0 0.29296879,0 0.43359379,-0.1171875 0.09375,-0.09375 0.1992187,-0.2226562 0.1992187,-0.41015621 0,-0.31640625 -0.2695312,-0.3515625 -0.375,-0.3515625 -0.22265624,0 -0.55078124,0.1640625 -0.55078124,0.64453121 0,0.5039063 0.43359375,0.8671875 1.05468754,0.8671875 1.0195312,0 2.0507812,-0.9023437 2.3320312,-2.02734371 z m 0,0"
       style="fill:#000000;fill-opacity:1;fill-rule:nonzero;stroke:none"
       aria-label="y"
       transform="matrix(1.3333333,0,0,1.3333333,322.276,255.424)" />
    <path
       id="path17"
       d="M 1.3236406,-0.83069531 C 1.8627031,-1.4049141 2.1556719,-1.6510078 2.5072344,-1.9556953 c 0,-0.011719 0.6210937,-0.5390625 0.984375,-0.9023438 0.9375,-0.9257812 1.1601562,-1.40625 1.1601562,-1.4414062 0,-0.1054688 -0.09375,-0.1054688 -0.1054687,-0.1054688 -0.070312,0 -0.1054688,0.023437 -0.1523438,0.1171875 -0.3046875,0.46875 -0.5039062,0.6328125 -0.75,0.6328125 -0.234375,0 -0.3515625,-0.1523437 -0.5039062,-0.3164062 -0.1875,-0.234375 -0.3632813,-0.4335938 -0.6914063,-0.4335938 -0.75,0 -1.2070312,0.9257813 -1.2070312,1.1367188 0,0.046875 0.035156,0.1171875 0.1171875,0.1171875 0.09375,0 0.1171875,-0.058594 0.140625,-0.1171875 0.1875,-0.4570313 0.7617187,-0.46875 0.84375,-0.46875 0.2109375,0 0.3984375,0.070312 0.6210937,0.1523437 0.3984375,0.1523438 0.515625,0.1523438 0.7734375,0.1523438 -0.3632812,0.421875 -1.1953125,1.1367187 -1.3828125,1.3007812 l -0.9023437,0.8320313 c -0.67968752,0.66796874 -1.01953127,1.24218749 -1.01953127,1.31249999 0,0.09375 0.09375,0.09375 0.1171875,0.09375 0.0820313,0 0.09375,-0.01171875 0.15234375,-0.12890625 0.234375,-0.33984375 0.52734372,-0.609375 0.85546872,-0.609375 0.2226563,0 0.328125,0.0820313 0.5742188,0.375 0.1640625,0.2109375 0.3515625,0.36328125 0.6328125,0.36328125 0.984375,0 1.5703125,-1.26562499 1.5703125,-1.53515629 0,-0.046875 -0.046875,-0.09375 -0.1171875,-0.09375 -0.09375,0 -0.1171875,0.058594 -0.140625,0.1289063 -0.234375,0.64453124 -0.8671875,0.83203124 -1.1953125,0.83203124 -0.1992188,0 -0.3867188,-0.0585938 -0.5859375,-0.12890625 -0.3398438,-0.12890625 -0.4921875,-0.1640625 -0.703125,-0.1640625 -0.023437,0 -0.1757813,0 -0.2695313,0.0234375 z m 0,0"
       style="fill:#000000;fill-opacity:1;fill-rule:nonzero;stroke:none"
       aria-label="z"
       transform="matrix(1.3333333,0,0,1.3333333,458.47733,255.424)" />
    <path
       id="path18"
       d="m 4.2550313,-6.047125 c 0.070312,-0.28125 0.1054687,-0.3398437 0.234375,-0.3632812 0.082031,-0.023437 0.4101562,-0.023437 0.6210937,-0.023437 1.0078125,0 1.453125,0.035156 1.453125,0.8203125 0,0.140625 -0.035156,0.5273437 -0.082031,0.796875 0,0.035156 -0.023437,0.1523437 -0.023437,0.1875 0,0.058594 0.023437,0.1289062 0.1171875,0.1289062 0.1054687,0 0.1289062,-0.082031 0.1523437,-0.234375 L 6.9972188,-6.469 c 0.011719,-0.035156 0.011719,-0.140625 0.011719,-0.1640625 0,-0.1054687 -0.09375,-0.1054687 -0.2695312,-0.1054687 H 1.219875 c -0.24609375,0 -0.2578125,0 -0.31640625,0.1992187 L 0.3058125,-4.7932187 C 0.29409375,-4.7697812 0.2355,-4.6291562 0.2355,-4.6174375 c 0,0.070312 0.0585938,0.1171875 0.12890625,0.1171875 0.09375,0 0.10546875,-0.046875 0.1640625,-0.2109375 C 1.0675313,-6.2580625 1.3253438,-6.4338437 2.8019063,-6.4338437 H 3.188625 c 0.28125,0 0.28125,0.035156 0.28125,0.1171875 0,0.058594 -0.035156,0.1757812 -0.046875,0.2109375 L 2.0987813,-0.78540625 C 2.0050313,-0.422125 1.969875,-0.3049375 0.90346875,-0.3049375 c -0.3515625,0 -0.41015625,0 -0.41015625,0.1875 0,0.1171875 0.10546875,0.1171875 0.1640625,0.1171875 0.26953125,0 0.5507813,-0.0234375 0.8203125,-0.0234375 0.28125,0 0.5625,-0.01171875 0.84375,-0.01171875 0.28125,0 0.5625,0.01171875 0.8320313,0.01171875 0.28125,0 0.5859375,0.0234375 0.8671875,0.0234375 0.09375,0 0.2109375,0 0.2109375,-0.19921875 0,-0.10546875 -0.082031,-0.10546875 -0.3398438,-0.10546875 -0.2460937,0 -0.375,0 -0.6328125,-0.0234375 -0.2929687,-0.0351563 -0.3632812,-0.0585938 -0.3632812,-0.22265625 0,-0.0117188 0,-0.0585938 0.035156,-0.2109375 z m 0,0"
       style="fill:#000000;fill-opacity:1;fill-rule:nonzero;stroke:none"
       aria-label="T"
       transform="matrix(1.3333333,0,0,1.3333333,388.936,195.12533)" />
    <g
       id="g18"
       aria-label="T&#10;1"
       transform="matrix(1.3333333,0,0,1.3333333,296.17067,194.12933)">
      <path
         id="path19"
         d="m 4.2548125,-6.0471953 c 0.070312,-0.28125 0.1054688,-0.3398438 0.234375,-0.3632813 0.082031,-0.023437 0.4101563,-0.023437 0.6210938,-0.023437 1.0078125,0 1.453125,0.035156 1.453125,0.8203125 0,0.140625 -0.035156,0.5273438 -0.082031,0.796875 0,0.035156 -0.023437,0.1523438 -0.023437,0.1875 0,0.058594 0.023437,0.1289063 0.1171875,0.1289063 0.1054688,0 0.1289063,-0.082031 0.1523438,-0.234375 L 6.997,-6.4690703 c 0.011719,-0.035156 0.011719,-0.140625 0.011719,-0.1640625 0,-0.1054688 -0.09375,-0.1054688 -0.2695313,-0.1054688 H 1.2196563 c -0.2460938,0 -0.25781255,0 -0.3164063,0.1992188 l -0.59765625,1.7460937 c -0.0117188,0.023437 -0.0703125,0.1640625 -0.0703125,0.1757813 0,0.070312 0.0585938,0.1171875 0.12890625,0.1171875 0.09375,0 0.10546875,-0.046875 0.1640625,-0.2109375 0.5390625,-1.546875 0.796875,-1.7226563 2.2734375,-1.7226563 h 0.3867188 c 0.28125,0 0.28125,0.035156 0.28125,0.1171875 0,0.058594 -0.035156,0.1757813 -0.046875,0.2109375 l -1.3242188,5.32031254 c -0.09375,0.36328125 -0.1289062,0.48046875 -1.1953125,0.48046875 -0.3515625,0 -0.41015625,0 -0.41015625,0.1875 0,0.1171874975 0.10546875,0.1171874975 0.1640625,0.1171874975 0.26953125,0 0.55078125,-0.0234374975 0.82031255,-0.0234374975 0.28125,0 0.5625,-0.01171875 0.84375,-0.01171875 0.28125,0 0.5625,0.01171875 0.8320312,0.01171875 0.28125,0 0.5859375,0.0234374975 0.8671875,0.0234374975 0.09375,0 0.2109375,0 0.2109375,-0.1992187475 0,-0.10546875 -0.082031,-0.10546875 -0.3398437,-0.10546875 -0.2460938,0 -0.375,0 -0.6328125,-0.0234375 -0.2929688,-0.0351563 -0.3632813,-0.0585938 -0.3632813,-0.22265625 0,-0.0117188 0,-0.0585938 0.035156,-0.2109375 z m 0,0"
         style="fill:#000000;fill-opacity:1;fill-rule:nonzero;stroke:none" />
      <path
         id="path20"
         d="m 8.1542266,-2.9358672 c 0,-0.1875 -0.011719,-0.1992187 -0.2109375,-0.1992187 -0.4453125,0.4335937 -1.078125,0.4453125 -1.359375,0.4453125 v 0.2460937 c 0.1640625,0 0.6210937,0 1.0078125,-0.1875 v 3.55078126 c 0,0.23437504 0,0.32812504 -0.6914063,0.32812504 H 6.6307891 v 0.2460937 c 0.1289062,-0.011719 0.984375,-0.023437 1.2421875,-0.023437 0.2109375,0 1.0898437,0.011719 1.2421875,0.023437 V 1.2477266 H 8.8573516 c -0.703125,0 -0.703125,-0.09375 -0.703125,-0.32812504 z m 0,0"
         style="fill:#000000;fill-opacity:1;fill-rule:nonzero;stroke:none" />
    </g>
    <g
       id="g20"
       aria-label="T&#10;2"
       transform="matrix(1.3333333,0,0,1.3333333,237.21067,207.736)">
      <path
         id="path21"
         d="m 4.2541094,-6.0480937 c 0.070312,-0.28125 0.1054687,-0.3398438 0.234375,-0.3632813 0.082031,-0.023437 0.4101562,-0.023437 0.6210937,-0.023437 1.0078125,0 1.453125,0.035156 1.453125,0.8203125 0,0.140625 -0.035156,0.5273438 -0.082031,0.796875 0,0.035156 -0.023437,0.1523438 -0.023437,0.1875 0,0.058594 0.023437,0.1289063 0.1171875,0.1289063 0.1054687,0 0.1289062,-0.082031 0.1523437,-0.234375 l 0.2695313,-1.734375 c 0.011719,-0.035156 0.011719,-0.140625 0.011719,-0.1640625 0,-0.1054688 -0.09375,-0.1054688 -0.2695312,-0.1054688 H 1.2189531 c -0.24609372,0 -0.25781247,0 -0.31640622,0.1992188 L 0.30489063,-4.794187 c -0.0117188,0.023437 -0.0703125,0.1640625 -0.0703125,0.1757813 0,0.070312 0.0585938,0.1171875 0.12890625,0.1171875 0.09375,0 0.10546875,-0.046875 0.1640625,-0.2109375 C 1.0666094,-6.2590307 1.3244219,-6.434812 2.8009844,-6.434812 h 0.3867187 c 0.28125,0 0.28125,0.035156 0.28125,0.1171875 0,0.058594 -0.035156,0.1757813 -0.046875,0.2109375 l -1.3242187,5.320312 c -0.09375,0.36328125 -0.1289063,0.48046875 -1.19531252,0.48046875 -0.3515625,0 -0.41015625,0 -0.41015625,0.1875 0,0.1171875 0.10546875,0.1171875 0.1640625,0.1171875 0.26953125,0 0.55078127,-0.0234375 0.82031247,-0.0234375 0.28125,0 0.5625,-0.01171875 0.84375,-0.01171875 0.28125,0 0.5625,0.01171875 0.8320313,0.01171875 0.28125,0 0.5859375,0.0234375 0.8671875,0.0234375 0.09375,0 0.2109375,0 0.2109375,-0.19921875 0,-0.10546875 -0.082031,-0.10546875 -0.3398438,-0.10546875 -0.2460937,0 -0.375,0 -0.6328125,-0.0234375 C 2.9650469,-0.3645 2.8947344,-0.3879375 2.8947344,-0.552 c 0,-0.0117188 0,-0.0585938 0.035156,-0.2109375 z m 0,0"
         style="fill:#000000;fill-opacity:1;fill-rule:nonzero;stroke:none" />
      <path
         id="path22"
         d="m 9.3371172,0.22729688 h -0.234375 c -0.023437,0.15234375 -0.082031,0.5625 -0.1757813,0.6328125 -0.058594,0.0351563 -0.5976562,0.0351563 -0.6914062,0.0351563 H 6.9464922 c 0.7382812,-0.64453125 0.984375,-0.84375 1.3945312,-1.171875 0.515625,-0.41015625 0.9960938,-0.84374998 0.9960938,-1.49999998 0,-0.8437501 -0.7382813,-1.3593751 -1.6289063,-1.3593751 -0.8671875,0 -1.453125,0.609375 -1.453125,1.2421875 0,0.3632813 0.3046875,0.3984375 0.375,0.3984375 0.1640625,0 0.375,-0.1171875 0.375,-0.375 0,-0.1289062 -0.058594,-0.3632812 -0.421875,-0.3632812 0.2226563,-0.5039063 0.6914063,-0.65625 1.0195313,-0.65625 0.703125,0 1.0664062,0.5507812 1.0664062,1.1132813 0,0.609375 -0.4335937,1.08984373 -0.65625,1.33593748 l -1.6875,1.66406242 c -0.070312,0.058594 -0.070312,0.070312 -0.070312,0.2695313 h 2.8828125 z m 0,0"
         style="fill:#000000;fill-opacity:1;fill-rule:nonzero;stroke:none" />
    </g>
  </g>
</svg>
