<?xml version="1.0" encoding="UTF-8" standalone="no"?>
<!-- Created with Inkscape (http://www.inkscape.org/) -->

<svg
   version="1.1"
   id="svg1"
   width="204.93439"
   height="82.523438"
   viewBox="0 0 204.93438 82.523438"
   xmlns="http://www.w3.org/2000/svg"
   xmlns:svg="http://www.w3.org/2000/svg">
  <defs
     id="defs1" />
  <g
     id="g1"
     transform="translate(-4.8671875,-4.433594)">
    <path
       id="path1"
       d="M 12.45346,0 C 12.45346,6.87794 6.87794,12.45346 0,12.45346 -6.87794,12.45346 -12.45346,6.87794 -12.45346,0 c 0,-6.87794 5.57552,-12.45346 12.45346,-12.45346 6.87794,0 12.45346,5.57552 12.45346,12.45346 z"
       style="fill:none;stroke:#000000;stroke-width:1.39478;stroke-linecap:butt;stroke-linejoin:miter;stroke-miterlimit:10;stroke-dasharray:none;stroke-opacity:1"
       transform="matrix(1.3333333,0,0,-1.3333333,79.544,55.562667)" />
    <path
       id="path2"
       d="M 12.45346,0 C 12.45346,6.87794 6.87794,12.45346 0,12.45346 -6.87794,12.45346 -12.45346,6.87794 -12.45346,0 c 0,-6.87794 5.57552,-12.45346 12.45346,-12.45346 6.87794,0 12.45346,5.57552 12.45346,12.45346 z"
       style="fill:none;stroke:#ffffff;stroke-width:0.59776;stroke-linecap:butt;stroke-linejoin:miter;stroke-miterlimit:10;stroke-dasharray:none;stroke-opacity:1"
       transform="matrix(1.3333333,0,0,-1.3333333,79.544,55.562667)" />
    <g
       id="g2"
       aria-label="q&#10;0"
       transform="matrix(1.3333333,0,0,1.3333333,73.598667,57.130667)">
      <path
         id="path3"
         d="m 4.4992422,-4.2903828 c 0,-0.046875 -0.023437,-0.1054688 -0.09375,-0.1054688 -0.1171875,0 -0.515625,0.3984375 -0.6796875,0.6914063 -0.2226563,-0.5390625 -0.609375,-0.703125 -0.9257813,-0.703125 -1.171875,0 -2.40234371,1.4765625 -2.40234371,2.9179687 0,0.98437504 0.5859375,1.59375004 1.31250001,1.59375004 0.4335937,0 0.8203125,-0.234375 1.1835937,-0.59765625 -0.09375,0.3515625 -0.421875,1.69921871 -0.4570312,1.79296871 -0.082031,0.2695313 -0.1523438,0.3164063 -0.7148438,0.328125 -0.1289062,0 -0.2226562,0 -0.2226562,0.1992188 0,0 0,0.1054687 0.1289062,0.1054687 0.3164063,0 0.6679688,-0.035156 0.9960938,-0.035156 0.328125,0 0.6914062,0.035156 1.0195312,0.035156 0.046875,0 0.1757813,0 0.1757813,-0.1992187 0,-0.1054688 -0.09375,-0.1054688 -0.2578125,-0.1054688 -0.46875,0 -0.46875,-0.070312 -0.46875,-0.1640625 0,-0.070312 0.011719,-0.1289062 0.035156,-0.2226562 z m -2.7539063,4.18359374 c -0.5976562,0 -0.6445312,-0.7734375 -0.6445312,-0.93750004 0,-0.4804687 0.2929687,-1.5703125 0.4570312,-1.9804687 0.3164063,-0.7382813 0.8320313,-1.1601563 1.2421875,-1.1601563 0.6445313,0 0.7851563,0.8085938 0.7851563,0.8789063 0,0.058594 -0.5507813,2.2382812 -0.5742188,2.2734375 -0.1523437,0.28124999 -0.7148437,0.92578124 -1.265625,0.92578124 z m 0,0"
         style="fill:#000000;fill-opacity:1;fill-rule:nonzero;stroke:none" />
      <path
         id="path4"
         d="m 8.0470938,-0.7308125 c 0,-0.7617188 -0.09375,-1.3125 -0.4101563,-1.8046875 -0.2226562,-0.3164063 -0.6445312,-0.5976563 -1.2070312,-0.5976563 -1.6171875,0 -1.6171875,1.8984375 -1.6171875,2.4023438 0,0.50390625 0,2.3671875 1.6171875,2.3671875 1.6171875,0 1.6171875,-1.86328125 1.6171875,-2.3671875 z M 6.4299063,1.4371562 c -0.3164063,0 -0.75,-0.1875 -0.890625,-0.7617187 -0.09375,-0.41015625 -0.09375,-0.984375 -0.09375,-1.5 0,-0.5039063 0,-1.03125 0.1054687,-1.4179688 0.1523438,-0.5507812 0.5976563,-0.6914062 0.8789063,-0.6914062 0.375,0 0.7382812,0.2226562 0.8671875,0.6328125 0.1054687,0.375 0.1171875,0.8789062 0.1171875,1.4765625 0,0.515625 0,1.04296875 -0.09375,1.4765625 -0.140625,0.6328125 -0.609375,0.7851562 -0.890625,0.7851562 z m 0,0"
         style="fill:#000000;fill-opacity:1;fill-rule:nonzero;stroke:none" />
    </g>
    <path
       id="path5"
       d="M -32.25598,0 H -14.9457"
       style="fill:none;stroke:#000000;stroke-width:0.3985;stroke-linecap:butt;stroke-linejoin:miter;stroke-miterlimit:10;stroke-dasharray:none;stroke-opacity:1"
       transform="matrix(1.3333333,0,0,-1.3333333,79.544,55.562667)" />
    <path
       id="path6"
       d="M 1.99252,0 -1.19551,1.59401 0,0 -1.19551,-1.59401"
       style="fill:#000000;fill-opacity:1;fill-rule:nonzero;stroke:none"
       transform="matrix(1.3333333,0,0,-1.3333333,59.6164,55.562667)" />
    <path
       id="path7"
       d="m 2.0754844,-1.9332656 c 0.2226562,0.035156 1.03125,0.1992187 1.03125,0.9140625 0,0.51562497 -0.3515625,0.91406247 -1.125,0.91406247 -0.8320313,0 -1.19531253,-0.57421875 -1.38281253,-1.41796877 -0.0351563,-0.1289062 -0.0351563,-0.1757812 -0.140625,-0.1757812 -0.12890625,0 -0.12890625,0.070312 -0.12890625,0.2578125 v 1.31249997 c 0,0.1640625 0,0.234375 0.10546875,0.234375 0.0585938,0 0.0703125,0 0.2578125,-0.19921875 0.0117188,-0.01171875 0.0117188,-0.03515625 0.19921875,-0.22265625 0.43359378,0.421875 0.87890628,0.421875 1.08984378,0.421875 1.1484375,0 1.6054687,-0.66796875 1.6054687,-1.38281247 0,-0.5273438 -0.2929687,-0.8203125 -0.421875,-0.9492188 -0.328125,-0.3164062 -0.7148437,-0.3984375 -1.1367187,-0.46875 -0.5507813,-0.1171875 -1.21875003,-0.2460937 -1.21875003,-0.8203125 0,-0.3515625 0.25781253,-0.7617187 1.11328123,-0.7617187 1.1015625,0 1.1484375,0.9023437 1.171875,1.2070312 0,0.09375 0.09375,0.09375 0.1171875,0.09375 0.1289063,0 0.1289063,-0.046875 0.1289063,-0.2460937 v -0.9960938 c 0,-0.1757812 0,-0.2460937 -0.1171875,-0.2460937 -0.046875,0 -0.070312,0 -0.1992188,0.1171875 -0.023437,0.046875 -0.1289062,0.1289062 -0.1640625,0.1640625 -0.375,-0.28125 -0.7851562,-0.28125 -0.9375,-0.28125 -1.21874998,0 -1.59374998,0.6679687 -1.59374998,1.2304687 0,0.3398438 0.1640625,0.6210938 0.43359375,0.84375 0.31640623,0.2578125 0.59765623,0.3164063 1.31250003,0.4570313 z M 5.6526328,-3.9840469 H 7.0823203 V -4.2887344 H 5.6526328 V -6.1285781 H 5.4065391 c -0.011719,0.8203125 -0.3164063,1.8867187 -1.2890625,1.921875 v 0.2226562 h 0.84375 v 2.7539063 c 0,1.21874997 0.9257812,1.33593747 1.2890625,1.33593747 0.703125,0 0.984375,-0.703125 0.984375,-1.33593747 V -1.8043594 H 6.9885703 v 0.5507813 c 0,0.73828122 -0.3046875,1.11328122 -0.6679687,1.11328122 -0.6679688,0 -0.6679688,-0.90234372 -0.6679688,-1.07812502 z m 5.4667972,3.22265627 c 0.03516,0.3984375 0.304687,0.8203125 0.773437,0.8203125 0.210938,0 0.820313,-0.140625 0.820313,-0.94921875 V -1.4410781 h -0.246094 v 0.55078122 c 0,0.5859375 -0.246094,0.64453125 -0.363281,0.64453125 -0.328125,0 -0.363282,-0.45703125 -0.363282,-0.50390625 V -2.7418594 c 0,-0.4101562 0,-0.8085937 -0.363281,-1.171875 -0.386719,-0.3867187 -0.878906,-0.5507812 -1.359375,-0.5507812 -0.8203123,0 -1.5117186,0.46875 -1.5117186,1.125 0,0.3046875 0.1992188,0.46875 0.4570313,0.46875 0.28125,0 0.46875,-0.1992188 0.46875,-0.4570313 0,-0.1171875 -0.058594,-0.4453125 -0.515625,-0.4570312 0.2695312,-0.3515625 0.7617187,-0.4570313 1.078125,-0.4570313 0.4921873,0 1.0546873,0.3867188 1.0546873,1.2773438 v 0.3632812 c -0.503906,0.035156 -1.2070311,0.058594 -1.8281248,0.3632813 -0.75,0.3398437 -0.9960938,0.8554687 -0.9960938,1.28906247 0,0.80859375 0.9609375,1.0546875 1.59375,1.0546875 0.6562496,0 1.1132816,-0.3984375 1.3007816,-0.8671875 z M 11.04912,-2.3902969 v 0.9960938 c 0,0.94921872 -0.714844,1.28906247 -1.1601561,1.28906247 -0.4921875,0 -0.9023437,-0.3515625 -0.9023437,-0.85546875 0,-0.53906252 0.421875,-1.37109372 2.0624998,-1.42968752 z m 3.401367,-0.9140625 v -1.1015625 l -1.382812,0.1171875 v 0.3046875 c 0.691406,0 0.773437,0.070312 0.773437,0.5625 v 2.66015627 c 0,0.45703125 -0.105468,0.45703125 -0.773437,0.45703125 V 3.28125e-4 c 0.386719,-0.011718755 0.855469,-0.035156255 1.136719,-0.035156255 0.398437,0 0.867187,0 1.265625,0.035156255 V -0.30435938 h -0.210938 c -0.738281,0 -0.761719,-0.1171875 -0.761719,-0.46875 V -2.3082656 c 0,-0.984375 0.421875,-1.875 1.183594,-1.875 0.05859,0 0.08203,0 0.105469,0.011719 -0.03516,0.011719 -0.234375,0.1289063 -0.234375,0.3867188 0,0.28125 0.210937,0.4335937 0.433594,0.4335937 0.175781,0 0.421875,-0.1289062 0.421875,-0.4453125 0,-0.3164062 -0.304688,-0.609375 -0.726563,-0.609375 -0.738281,0 -1.089844,0.6679688 -1.230469,1.1015622 z m 3.960938,-0.6796875 h 1.429687 v -0.3046875 h -1.429687 v -1.8398437 h -0.246094 c -0.01172,0.8203125 -0.316406,1.8867187 -1.289062,1.921875 v 0.2226562 h 0.84375 v 2.7539063 c 0,1.21874997 0.925781,1.33593747 1.289062,1.33593747 0.703125,0 0.984375,-0.703125 0.984375,-1.33593747 v -0.5742188 h -0.246094 v 0.5507813 c 0,0.73828122 -0.304687,1.11328122 -0.667968,1.11328122 -0.667969,0 -0.667969,-0.90234372 -0.667969,-1.07812502 z m 0,0"
       style="fill:#000000;fill-opacity:1;fill-rule:nonzero;stroke:none"
       aria-label="start"
       transform="matrix(1.3333333,0,0,1.3333333,4.428,59.648)" />
    <path
       id="path8"
       d="m 97.49393,0 c 0,6.87794 -5.57552,12.45346 -12.45348,12.45346 C 78.1625,12.45346 72.58698,6.87794 72.58698,0 c 0,-6.87794 5.57552,-12.45346 12.45347,-12.45346 6.87796,0 12.45348,5.57552 12.45348,12.45346 z"
       style="fill:none;stroke:#000000;stroke-width:0.3985;stroke-linecap:butt;stroke-linejoin:miter;stroke-miterlimit:10;stroke-dasharray:none;stroke-opacity:1"
       transform="matrix(1.3333333,0,0,-1.3333333,79.544,55.562667)" />
    <g
       id="g8"
       aria-label="q&#10;1"
       transform="matrix(1.3333333,0,0,1.3333333,186.98533,57.130667)">
      <path
         id="path9"
         d="m 4.4992812,-4.2903828 c 0,-0.046875 -0.023437,-0.1054688 -0.09375,-0.1054688 -0.1171875,0 -0.515625,0.3984375 -0.6796875,0.6914063 -0.2226562,-0.5390625 -0.609375,-0.703125 -0.9257812,-0.703125 -1.171875,0 -2.40234375,1.4765625 -2.40234375,2.9179687 0,0.98437504 0.5859375,1.59375004 1.31249995,1.59375004 0.4335938,0 0.8203125,-0.234375 1.1835938,-0.59765625 -0.09375,0.3515625 -0.421875,1.69921871 -0.4570313,1.79296871 -0.082031,0.2695313 -0.1523437,0.3164063 -0.7148437,0.328125 -0.1289063,0 -0.2226563,0 -0.2226563,0.1992188 0,0 0,0.1054687 0.1289063,0.1054687 0.3164062,0 0.6679687,-0.035156 0.9960937,-0.035156 0.328125,0 0.6914063,0.035156 1.0195313,0.035156 0.046875,0 0.1757812,0 0.1757812,-0.1992187 0,-0.1054688 -0.09375,-0.1054688 -0.2578125,-0.1054688 -0.46875,0 -0.46875,-0.070312 -0.46875,-0.1640625 0,-0.070312 0.011719,-0.1289062 0.035156,-0.2226562 z M 1.745375,-0.10678906 c -0.5976563,0 -0.6445313,-0.7734375 -0.6445313,-0.93750004 0,-0.4804687 0.2929688,-1.5703125 0.4570313,-1.9804687 0.3164062,-0.7382813 0.8320312,-1.1601563 1.2421875,-1.1601563 0.6445312,0 0.7851562,0.8085938 0.7851562,0.8789063 0,0.058594 -0.5507812,2.2382812 -0.5742187,2.2734375 -0.1523438,0.28124999 -0.7148438,0.92578124 -1.265625,0.92578124 z m 0,0"
         style="fill:#000000;fill-opacity:1;fill-rule:nonzero;stroke:none" />
      <path
         id="path10"
         d="m 6.7785781,-2.9339375 c 0,-0.1875 -0.011719,-0.1992188 -0.2109375,-0.1992188 -0.4453125,0.4335938 -1.078125,0.4453125 -1.359375,0.4453125 V -2.44175 c 0.1640625,0 0.6210938,0 1.0078125,-0.1875 v 3.55078125 c 0,0.23437495 0,0.32812495 -0.6914062,0.32812495 H 5.2551406 V 1.49575 c 0.1289063,-0.011719 0.984375,-0.023437 1.2421875,-0.023437 0.2109375,0 1.0898438,0.011719 1.2421875,0.023437 V 1.2496562 H 7.4817031 c -0.703125,0 -0.703125,-0.09375 -0.703125,-0.32812495 z m 0,0"
         style="fill:#000000;fill-opacity:1;fill-rule:nonzero;stroke:none" />
    </g>
    <path
       id="path11"
       d="M 11.21759,6.47636 C 32.56331,18.7331 52.80493,18.68524 72.36931,7.32796"
       style="fill:none;stroke:#000000;stroke-width:0.3985;stroke-linecap:butt;stroke-linejoin:miter;stroke-miterlimit:10;stroke-dasharray:none;stroke-opacity:1"
       transform="matrix(1.3333333,0,0,-1.3333333,79.544,55.562667)" />
    <path
       id="path12"
       d="M 1.99252,0 -1.19551,1.59401 0,0 -1.19551,-1.59401"
       style="fill:#000000;fill-opacity:1;fill-rule:nonzero;stroke:none"
       transform="matrix(1.1530667,0.66934667,0.66934667,-1.1530667,176.03641,45.79204)" />
    <path
       id="path13"
       d="m 3.3171563,-0.76121094 c 0.035156,0.3984375 0.3046875,0.8203125 0.7734375,0.8203125 0.2109375,0 0.8203125,-0.140625 0.8203125,-0.94921875 V -1.4408984 H 4.6648125 v 0.55078121 c 0,0.5859375 -0.2460937,0.64453125 -0.3632812,0.64453125 -0.328125,0 -0.3632813,-0.45703125 -0.3632813,-0.50390625 V -2.7416797 c 0,-0.4101562 0,-0.8085937 -0.3632812,-1.171875 -0.3867188,-0.3867187 -0.8789063,-0.5507812 -1.359375,-0.5507812 -0.8203125,0 -1.5117188,0.46875 -1.5117188,1.125 0,0.3046875 0.19921875,0.46875 0.4570313,0.46875 0.28125,0 0.46875,-0.1992188 0.46875,-0.4570313 0,-0.1171875 -0.058594,-0.4453125 -0.515625,-0.4570312 0.2695312,-0.3515625 0.7617187,-0.4570313 1.078125,-0.4570313 0.4921875,0 1.0546875,0.3867188 1.0546875,1.2773438 v 0.3632812 c -0.5039063,0.035156 -1.2070313,0.058594 -1.828125,0.3632813 -0.75000005,0.3398437 -0.9960938,0.8554687 -0.9960938,1.28906246 0,0.80859375 0.9609375,1.0546875 1.59375,1.0546875 0.65625,0 1.1132813,-0.3984375 1.3007813,-0.8671875 z M 3.2468438,-2.3901172 v 0.9960938 c 0,0.94921871 -0.7148438,1.28906246 -1.1601563,1.28906246 -0.4921875,0 -0.9023437,-0.3515625 -0.9023437,-0.85546875 0,-0.53906251 0.421875,-1.37109371 2.0625,-1.42968751 z m 0,0"
       style="fill:#000000;fill-opacity:1;fill-rule:nonzero;stroke:none"
       aria-label="a"
       transform="matrix(1.3333333,0,0,1.3333333,133.124,30.026667)" />
    <path
       id="path14"
       d="M 74.09245,-6.3277 C 52.80493,-18.68524 32.56331,-18.7331 12.94545,-7.46849"
       style="fill:none;stroke:#000000;stroke-width:0.3985;stroke-linecap:butt;stroke-linejoin:miter;stroke-miterlimit:10;stroke-dasharray:none;stroke-opacity:1"
       transform="matrix(1.3333333,0,0,-1.3333333,79.544,55.562667)" />
    <path
       id="path15"
       d="M 1.99252,0 -1.19551,1.59401 0,0 -1.19551,-1.59401"
       style="fill:#000000;fill-opacity:1;fill-rule:nonzero;stroke:none"
       transform="matrix(-1.1562267,-0.66389333,-0.66389333,1.1562267,96.8046,65.520653)" />
    <path
       id="path16"
       d="m 3.3171563,-0.76241406 c 0.035156,0.3984375 0.3046875,0.8203125 0.7734375,0.8203125 0.2109375,0 0.8203125,-0.140625 0.8203125,-0.94921875 V -1.4421016 H 4.6648125 v 0.55078129 c 0,0.5859375 -0.2460937,0.64453125 -0.3632812,0.64453125 -0.328125,0 -0.3632813,-0.45703125 -0.3632813,-0.50390625 V -2.7428828 c 0,-0.4101563 0,-0.8085938 -0.3632812,-1.171875 -0.3867188,-0.3867188 -0.8789063,-0.5507813 -1.359375,-0.5507813 -0.8203125,0 -1.5117188,0.46875 -1.5117188,1.125 0,0.3046875 0.19921875,0.46875 0.4570313,0.46875 0.28125,0 0.46875,-0.1992187 0.46875,-0.4570312 0,-0.1171875 -0.058594,-0.4453125 -0.515625,-0.4570313 0.2695312,-0.3515625 0.7617187,-0.4570312 1.078125,-0.4570312 0.4921875,0 1.0546875,0.3867187 1.0546875,1.2773437 v 0.3632813 c -0.5039063,0.035156 -1.2070313,0.058594 -1.828125,0.3632812 -0.75000005,0.3398438 -0.9960938,0.8554688 -0.9960938,1.28906254 0,0.80859375 0.9609375,1.0546875 1.59375,1.0546875 0.65625,0 1.1132813,-0.3984375 1.3007813,-0.8671875 z M 3.2468438,-2.3913203 v 0.9960937 c 0,0.94921879 -0.7148438,1.28906254 -1.1601563,1.28906254 -0.4921875,0 -0.9023437,-0.3515625 -0.9023437,-0.85546875 0,-0.53906249 0.421875,-1.37109379 2.0625,-1.42968749 z m 0,0"
       style="fill:#000000;fill-opacity:1;fill-rule:nonzero;stroke:none"
       aria-label="a"
       transform="matrix(1.3333333,0,0,1.3333333,133.124,86.817333)" />
    <path
       id="path17"
       d="m -3.35213,12.5118 c -5.5025,20.5355 12.20676,20.5355 7.47771,2.88696"
       style="fill:none;stroke:#000000;stroke-width:0.3985;stroke-linecap:butt;stroke-linejoin:miter;stroke-miterlimit:10;stroke-dasharray:none;stroke-opacity:1"
       transform="matrix(1.3333333,0,0,-1.3333333,79.544,55.562667)" />
    <path
       id="path18"
       d="M 1.99252,0 -1.19551,1.59401 0,0 -1.19551,-1.59401"
       style="fill:#000000;fill-opacity:1;fill-rule:nonzero;stroke:none"
       transform="matrix(-0.34505333,1.2879067,1.2879067,0.34505333,85.0448,35.030987)" />
    <path
       id="path19"
       d="m 1.7096094,-3.7497422 v -3.1640625 l -1.42968752,0.1054688 v 0.3164062 c 0.69140625,0 0.77343752,0.070312 0.77343752,0.5507813 V 2.578125e-4 H 1.2994531 C 1.3111719,-0.01146094 1.3932031,-0.15208594 1.6627344,-0.62083594 c 0.1523437,0.234375 0.5625,0.7265625 1.3007812,0.7265625 1.1835938,0 2.2265625,-0.97265625 2.2265625,-2.26171876 0,-1.265625 -0.9726562,-2.25 -2.109375,-2.25 -0.7851562,0 -1.2070312,0.46875 -1.3710937,0.65625 z m 0.035156,2.6132813 v -2.0507813 c 0,-0.1875 0,-0.1992187 0.1054688,-0.3632812 0.3867187,-0.5507813 0.9375,-0.6328125 1.171875,-0.6328125 0.4570312,0 0.8085937,0.2578125 1.0546875,0.6328125 0.2578125,0.4101562 0.28125,0.984375 0.28125,1.3945312 0,0.3632813 -0.011719,0.9609375 -0.3046875,1.40625001 -0.2109375,0.31640625 -0.5859375,0.64453125 -1.125,0.64453125 -0.4453125,0 -0.8085938,-0.24609375 -1.0429688,-0.609375 -0.140625,-0.2109375 -0.140625,-0.24609375 -0.140625,-0.42187496 z m 0,0"
       style="fill:#000000;fill-opacity:1;fill-rule:nonzero;stroke:none"
       aria-label="b"
       transform="matrix(1.3333333,0,0,1.3333333,75.853333,13.652)" />
    <path
       id="path20"
       d="m 81.77953,12.22385 c -5.50602,20.53473 12.04858,20.53473 7.32273,2.88513"
       style="fill:none;stroke:#000000;stroke-width:0.3985;stroke-linecap:butt;stroke-linejoin:miter;stroke-miterlimit:10;stroke-dasharray:none;stroke-opacity:1"
       transform="matrix(1.3333333,0,0,-1.3333333,79.544,55.562667)" />
    <path
       id="path21"
       d="M 1.99252,0 -1.19551,1.59401 0,0 -1.19551,-1.59401"
       style="fill:#000000;fill-opacity:1;fill-rule:nonzero;stroke:none"
       transform="matrix(-0.34485333,1.2879467,1.2879467,0.34485333,198.34704,35.41736)" />
    <path
       id="path22"
       d="m 1.7103672,-3.7487031 v -3.1640625 l -1.42968751,0.1054687 v 0.3164063 c 0.69140625,0 0.77343751,0.070312 0.77343751,0.5507812 v 5.94140627 h 0.2460937 c 0.011719,-0.01171875 0.09375,-0.15234375 0.3632813,-0.62109375 0.1523437,0.234375 0.5625,0.7265625 1.3007812,0.7265625 1.1835938,0 2.2265625,-0.97265625 2.2265625,-2.26171872 0,-1.265625 -0.9726562,-2.25 -2.109375,-2.25 -0.7851562,0 -1.2070312,0.46875 -1.3710937,0.65625 z m 0.035156,2.6132812 v -2.0507812 c 0,-0.1875 0,-0.1992188 0.1054688,-0.3632813 0.3867187,-0.5507812 0.9375,-0.6328125 1.171875,-0.6328125 0.4570312,0 0.8085937,0.2578125 1.0546875,0.6328125 0.2578125,0.4101563 0.28125,0.984375 0.28125,1.3945313 0,0.3632812 -0.011719,0.9609375 -0.3046875,1.40624997 -0.2109375,0.31640625 -0.5859375,0.64453125 -1.125,0.64453125 -0.4453125,0 -0.8085938,-0.24609375 -1.0429688,-0.609375 -0.140625,-0.2109375 -0.140625,-0.24609375 -0.140625,-0.42187502 z m 0,0"
       style="fill:#000000;fill-opacity:1;fill-rule:nonzero;stroke:none"
       aria-label="b"
       transform="matrix(1.3333333,0,0,1.3333333,189.25467,14.037333)" />
  </g>
</svg>
