<?xml version="1.0" encoding="UTF-8" standalone="no"?>
<!-- Created with Inkscape (http://www.inkscape.org/) -->

<svg
   version="1.1"
   id="svg1"
   width="196.35304"
   height="62.875"
   viewBox="0 0 196.35304 62.875"
   xmlns="http://www.w3.org/2000/svg"
   xmlns:svg="http://www.w3.org/2000/svg">
  <defs
     id="defs1" />
  <g
     id="g1"
     transform="translate(-4.8671875,-4.195313)">
    <path
       id="path1"
       d="M 12.45346,0 C 12.45346,6.87794 6.87794,12.45346 0,12.45346 -6.87794,12.45346 -12.45346,6.87794 -12.45346,0 c 0,-6.87794 5.57552,-12.45346 12.45346,-12.45346 6.87794,0 12.45346,5.57552 12.45346,12.45346 z"
       style="fill:none;stroke:#000000;stroke-width:1.39478;stroke-linecap:butt;stroke-linejoin:miter;stroke-miterlimit:10;stroke-dasharray:none;stroke-opacity:1"
       transform="matrix(1.3333333,0,0,-1.3333333,70.962667,35.678667)" />
    <path
       id="path2"
       d="M 12.45346,0 C 12.45346,6.87794 6.87794,12.45346 0,12.45346 -6.87794,12.45346 -12.45346,6.87794 -12.45346,0 c 0,-6.87794 5.57552,-12.45346 12.45346,-12.45346 6.87794,0 12.45346,5.57552 12.45346,12.45346 z"
       style="fill:none;stroke:#ffffff;stroke-width:0.59776;stroke-linecap:butt;stroke-linejoin:miter;stroke-miterlimit:10;stroke-dasharray:none;stroke-opacity:1"
       transform="matrix(1.3333333,0,0,-1.3333333,70.962667,35.678667)" />
    <g
       id="g2"
       aria-label="q&#10;0"
       transform="matrix(1.3333333,0,0,1.3333333,65.018667,37.248)">
      <path
         id="path3"
         d="m 4.5006484,-4.2904922 c 0,-0.046875 -0.023437,-0.1054687 -0.09375,-0.1054687 -0.1171875,0 -0.515625,0.3984375 -0.6796875,0.6914062 -0.2226562,-0.5390625 -0.609375,-0.703125 -0.9257812,-0.703125 -1.171875,0 -2.40234376,1.4765625 -2.40234376,2.9179688 0,0.98437496 0.5859375,1.59374996 1.31249996,1.59374996 0.4335938,0 0.8203125,-0.234375 1.1835938,-0.59765625 -0.09375,0.3515625 -0.421875,1.69921879 -0.4570313,1.79296879 -0.082031,0.2695312 -0.1523437,0.3164062 -0.7148437,0.328125 -0.1289063,0 -0.2226563,0 -0.2226563,0.1992187 0,0 0,0.1054688 0.1289063,0.1054688 0.3164062,0 0.6679687,-0.035156 0.9960937,-0.035156 0.328125,0 0.6914063,0.035156 1.0195313,0.035156 0.046875,0 0.1757812,0 0.1757812,-0.1992188 0,-0.1054687 -0.09375,-0.1054687 -0.2578125,-0.1054687 -0.46875,0 -0.46875,-0.070312 -0.46875,-0.1640625 0,-0.070312 0.011719,-0.1289063 0.035156,-0.2226563 z m -2.7539062,4.18359376 c -0.5976563,0 -0.6445313,-0.7734375 -0.6445313,-0.93749996 0,-0.4804688 0.2929688,-1.5703125 0.4570313,-1.9804688 0.3164062,-0.7382812 0.8320312,-1.1601562 1.2421875,-1.1601562 0.6445312,0 0.7851562,0.8085937 0.7851562,0.8789062 0,0.058594 -0.5507812,2.2382813 -0.5742187,2.2734375 -0.1523438,0.28125001 -0.7148438,0.92578126 -1.265625,0.92578126 z m 0,0"
         style="fill:#000000;fill-opacity:1;fill-rule:nonzero;stroke:none" />
      <path
         id="path4"
         d="m 8.0455703,-0.73385156 c 0,-0.76171874 -0.09375,-1.31250004 -0.4101562,-1.80468754 -0.2226563,-0.3164062 -0.6445313,-0.5976562 -1.2070313,-0.5976562 -1.6171875,0 -1.6171875,1.8984375 -1.6171875,2.40234374 0,0.50390625 0,2.36718746 1.6171875,2.36718746 1.6171875,0 1.6171875,-1.86328121 1.6171875,-2.36718746 z M 6.4283828,1.4341172 c -0.3164062,0 -0.75,-0.1875 -0.890625,-0.76171876 -0.09375,-0.41015625 -0.09375,-0.984375 -0.09375,-1.5 0,-0.50390624 0,-1.03125004 0.1054688,-1.41796874 0.1523437,-0.5507813 0.5976562,-0.6914063 0.8789062,-0.6914063 0.375,0 0.7382813,0.2226563 0.8671875,0.6328125 0.1054688,0.375 0.1171875,0.8789063 0.1171875,1.47656254 0,0.515625 0,1.04296875 -0.09375,1.4765625 C 7.1783828,1.2817734 6.7096328,1.4341172 6.4283828,1.4341172 Z m 0,0"
         style="fill:#000000;fill-opacity:1;fill-rule:nonzero;stroke:none" />
    </g>
    <path
       id="path5"
       d="m -25.82014,0 h 10.876"
       style="fill:none;stroke:#000000;stroke-width:0.3985;stroke-linecap:butt;stroke-linejoin:miter;stroke-miterlimit:10;stroke-dasharray:none;stroke-opacity:1"
       transform="matrix(1.3333333,0,0,-1.3333333,70.962667,35.678667)" />
    <path
       id="path6"
       d="M 1.99252,0 -1.19551,1.59401 0,0 -1.19551,-1.59401"
       style="fill:#000000;fill-opacity:1;fill-rule:nonzero;stroke:none"
       transform="matrix(1.3333333,0,0,-1.3333333,51.037147,35.678667)" />
    <path
       id="path7"
       d="m 2.0754844,-1.932375 c 0.2226562,0.035156 1.03125,0.1992188 1.03125,0.9140625 0,0.515625 -0.3515625,0.9140625 -1.125,0.9140625 -0.8320313,0 -1.19531253,-0.57421875 -1.38281253,-1.4179687 C 0.56376562,-1.651125 0.56376562,-1.698 0.45829687,-1.698 c -0.12890625,0 -0.12890625,0.070312 -0.12890625,0.2578125 v 1.3125 c 0,0.1640625 0,0.234375 0.10546875,0.234375 0.0585938,0 0.0703125,0 0.2578125,-0.19921875 0.0117188,-0.01171875 0.0117188,-0.03515625 0.19921875,-0.22265625 0.43359378,0.421875 0.87890628,0.421875 1.08984378,0.421875 1.1484375,0 1.6054687,-0.66796875 1.6054687,-1.3828125 0,-0.5273437 -0.2929687,-0.8203125 -0.421875,-0.9492187 C 2.8372031,-2.54175 2.4504844,-2.6237812 2.0286094,-2.6940937 1.4778281,-2.8112812 0.80985937,-2.9401875 0.80985937,-3.5144062 c 0,-0.3515625 0.25781253,-0.7617188 1.11328123,-0.7617188 1.1015625,0 1.1484375,0.9023438 1.171875,1.2070313 0,0.09375 0.09375,0.09375 0.1171875,0.09375 0.1289063,0 0.1289063,-0.046875 0.1289063,-0.2460938 v -0.9960937 c 0,-0.1757813 0,-0.2460938 -0.1171875,-0.2460938 -0.046875,0 -0.070312,0 -0.1992188,0.1171875 -0.023437,0.046875 -0.1289062,0.1289063 -0.1640625,0.1640625 -0.375,-0.28125 -0.7851562,-0.28125 -0.9375,-0.28125 -1.21874998,0 -1.59374998,0.6679688 -1.59374998,1.2304688 0,0.3398437 0.1640625,0.6210937 0.43359375,0.84375 C 1.0793906,-2.1315937 1.3606406,-2.073 2.0754844,-1.932375 Z M 5.6526328,-3.9831562 H 7.0823203 V -4.2878437 H 5.6526328 V -6.1276875 H 5.4065391 c -0.011719,0.8203125 -0.3164063,1.8867188 -1.2890625,1.921875 v 0.2226563 h 0.84375 V -1.22925 c 0,1.21875 0.9257812,1.3359375 1.2890625,1.3359375 0.703125,0 0.984375,-0.703125 0.984375,-1.3359375 V -1.8034687 H 6.9885703 v 0.5507812 c 0,0.73828125 -0.3046875,1.11328125 -0.6679687,1.11328125 -0.6679688,0 -0.6679688,-0.90234375 -0.6679688,-1.07812495 z M 11.11943,-0.7605 c 0.03516,0.3984375 0.304687,0.8203125 0.773437,0.8203125 0.210938,0 0.820313,-0.140625 0.820313,-0.94921875 V -1.4401875 h -0.246094 v 0.55078125 c 0,0.5859375 -0.246094,0.64453125 -0.363281,0.64453125 -0.328125,0 -0.363282,-0.45703125 -0.363282,-0.50390625 V -2.7409687 c 0,-0.4101563 0,-0.8085938 -0.363281,-1.171875 -0.386719,-0.3867188 -0.878906,-0.5507813 -1.359375,-0.5507813 -0.8203123,0 -1.5117186,0.46875 -1.5117186,1.125 0,0.3046875 0.1992188,0.46875 0.4570313,0.46875 0.28125,0 0.46875,-0.1992187 0.46875,-0.4570312 0,-0.1171875 -0.058594,-0.4453125 -0.515625,-0.4570313 0.2695312,-0.3515625 0.7617187,-0.4570312 1.078125,-0.4570312 0.4921873,0 1.0546873,0.3867187 1.0546873,1.2773437 v 0.3632813 c -0.503906,0.035156 -1.2070311,0.058594 -1.8281248,0.3632812 -0.75,0.3398438 -0.9960938,0.8554688 -0.9960938,1.2890625 0,0.80859375 0.9609375,1.0546875 1.59375,1.0546875 0.6562496,0 1.1132816,-0.3984375 1.3007816,-0.8671875 z m -0.07031,-1.6289062 v 0.9960937 c 0,0.94921875 -0.714844,1.2890625 -1.1601561,1.2890625 -0.4921875,0 -0.9023437,-0.3515625 -0.9023437,-0.85546875 0,-0.53906245 0.421875,-1.37109375 2.0624998,-1.42968745 z m 3.401367,-0.9140625 v -1.1015625 l -1.382812,0.1171875 v 0.3046875 c 0.691406,0 0.773437,0.070312 0.773437,0.5625 V -0.7605 c 0,0.45703125 -0.105468,0.45703125 -0.773437,0.45703125 v 0.3046875 C 13.454391,-0.0105 13.923141,-0.0339375 14.204391,-0.0339375 c 0.398437,0 0.867187,0 1.265625,0.03515625 v -0.3046875 h -0.210938 c -0.738281,0 -0.761719,-0.1171875 -0.761719,-0.46875 V -2.307375 c 0,-0.984375 0.421875,-1.875 1.183594,-1.875 0.05859,0 0.08203,0 0.105469,0.011719 -0.03516,0.011719 -0.234375,0.1289062 -0.234375,0.3867187 0,0.28125 0.210937,0.4335938 0.433594,0.4335938 0.175781,0 0.421875,-0.1289063 0.421875,-0.4453125 0,-0.3164063 -0.304688,-0.609375 -0.726563,-0.609375 -0.738281,0 -1.089844,0.6679687 -1.230469,1.1015625 z m 3.960938,-0.6796875 h 1.429687 v -0.3046875 h -1.429687 v -1.8398438 h -0.246094 c -0.01172,0.8203125 -0.316406,1.8867188 -1.289062,1.921875 v 0.2226563 h 0.84375 V -1.22925 c 0,1.21875 0.925781,1.3359375 1.289062,1.3359375 0.703125,0 0.984375,-0.703125 0.984375,-1.3359375 v -0.5742187 h -0.246094 v 0.5507812 c 0,0.73828125 -0.304687,1.11328125 -0.667968,1.11328125 -0.667969,0 -0.667969,-0.90234375 -0.667969,-1.07812495 z m 0,0"
       style="fill:#000000;fill-opacity:1;fill-rule:nonzero;stroke:none"
       aria-label="start"
       transform="matrix(1.3333333,0,0,1.3333333,4.428,39.764)" />
    <path
       id="path8"
       d="m 97.49393,0 c 0,6.87794 -5.57552,12.45346 -12.45348,12.45346 C 78.1625,12.45346 72.58698,6.87794 72.58698,0 c 0,-6.87794 5.57552,-12.45346 12.45347,-12.45346 6.87796,0 12.45348,5.57552 12.45348,12.45346 z"
       style="fill:none;stroke:#000000;stroke-width:0.3985;stroke-linecap:butt;stroke-linejoin:miter;stroke-miterlimit:10;stroke-dasharray:none;stroke-opacity:1"
       transform="matrix(1.3333333,0,0,-1.3333333,70.962667,35.678667)" />
    <g
       id="g8"
       aria-label="q&#10;1"
       transform="matrix(1.3333333,0,0,1.3333333,178.404,37.248)">
      <path
         id="path9"
         d="m 4.4987578,-4.2904922 c 0,-0.046875 -0.023437,-0.1054687 -0.09375,-0.1054687 -0.1171875,0 -0.515625,0.3984375 -0.6796875,0.6914062 -0.2226562,-0.5390625 -0.609375,-0.703125 -0.9257812,-0.703125 -1.171875,0 -2.40234379,1.4765625 -2.40234379,2.9179688 0,0.98437496 0.5859375,1.59374996 1.31249999,1.59374996 0.4335938,0 0.8203125,-0.234375 1.1835938,-0.59765625 -0.09375,0.3515625 -0.421875,1.69921879 -0.4570313,1.79296879 -0.082031,0.2695312 -0.1523437,0.3164062 -0.7148437,0.328125 -0.1289063,0 -0.2226563,0 -0.2226563,0.1992187 0,0 0,0.1054688 0.1289063,0.1054688 0.3164062,0 0.6679687,-0.035156 0.9960937,-0.035156 0.328125,0 0.6914063,0.035156 1.0195313,0.035156 0.046875,0 0.1757812,0 0.1757812,-0.1992188 0,-0.1054687 -0.09375,-0.1054687 -0.2578125,-0.1054687 -0.46875,0 -0.46875,-0.070312 -0.46875,-0.1640625 0,-0.070312 0.011719,-0.1289063 0.035156,-0.2226563 z m -2.7539062,4.18359376 c -0.5976563,0 -0.6445313,-0.7734375 -0.6445313,-0.93749996 0,-0.4804688 0.2929688,-1.5703125 0.4570313,-1.9804688 0.3164062,-0.7382812 0.8320312,-1.1601562 1.2421875,-1.1601562 0.6445312,0 0.7851562,0.8085937 0.7851562,0.8789062 0,0.058594 -0.5507812,2.2382813 -0.5742187,2.2734375 -0.1523438,0.28125001 -0.7148438,0.92578126 -1.265625,0.92578126 z m 0,0"
         style="fill:#000000;fill-opacity:1;fill-rule:nonzero;stroke:none" />
      <path
         id="path10"
         d="m 6.7780547,-2.9369766 c 0,-0.1875 -0.011719,-0.1992187 -0.2109375,-0.1992187 -0.4453125,0.4335937 -1.078125,0.4453125 -1.359375,0.4453125 v 0.2460937 c 0.1640625,0 0.6210937,0 1.0078125,-0.1875 v 3.55078129 c 0,0.23437501 0,0.32812501 -0.6914063,0.32812501 H 5.2546172 v 0.2460937 c 0.1289062,-0.011719 0.984375,-0.023437 1.2421875,-0.023437 0.2109375,0 1.0898437,0.011719 1.2421875,0.023437 V 1.2466172 H 7.4811797 c -0.703125,0 -0.703125,-0.09375 -0.703125,-0.32812501 z m 0,0"
         style="fill:#000000;fill-opacity:1;fill-rule:nonzero;stroke:none" />
    </g>
    <path
       id="path11"
       d="M 11.21625,6.4756 C 32.5593,18.73077 52.79817,18.68216 72.3599,7.32642"
       style="fill:none;stroke:#000000;stroke-width:0.3985;stroke-linecap:butt;stroke-linejoin:miter;stroke-miterlimit:10;stroke-dasharray:none;stroke-opacity:1"
       transform="matrix(1.3333333,0,0,-1.3333333,70.962667,35.678667)" />
    <path
       id="path12"
       d="M 1.99252,0 -1.19551,1.59401 0,0 -1.19551,-1.59401"
       style="fill:#000000;fill-opacity:1;fill-rule:nonzero;stroke:none"
       transform="matrix(1.1530667,0.66934667,0.66934667,-1.1530667,167.44253,25.910093)" />
    <path
       id="path13"
       d="m 3.3157734,-0.76039063 c 0.035156,0.3984375 0.3046875,0.8203125 0.7734375,0.8203125 0.2109375,0 0.8203125,-0.140625 0.8203125,-0.94921875 V -1.4400781 H 4.6634297 v 0.55078122 c 0,0.5859375 -0.2460938,0.64453125 -0.3632813,0.64453125 -0.328125,0 -0.3632812,-0.45703125 -0.3632812,-0.50390625 V -2.7408594 c 0,-0.4101562 0,-0.8085937 -0.3632813,-1.171875 -0.3867187,-0.3867187 -0.8789062,-0.5507812 -1.359375,-0.5507812 -0.8203125,0 -1.51171871,0.46875 -1.51171871,1.125 0,0.3046875 0.19921875,0.46875 0.45703121,0.46875 0.28125,0 0.46875,-0.1992188 0.46875,-0.4570313 0,-0.1171875 -0.058594,-0.4453125 -0.515625,-0.4570312 0.2695313,-0.3515625 0.7617188,-0.4570313 1.078125,-0.4570313 0.4921875,0 1.0546875,0.3867188 1.0546875,1.2773438 v 0.3632812 c -0.5039062,0.035156 -1.2070312,0.058594 -1.828125,0.3632813 -0.74999996,0.3398437 -0.99609371,0.8554687 -0.99609371,1.28906247 0,0.80859375 0.96093751,1.0546875 1.59375001,1.0546875 0.65625,0 1.1132812,-0.3984375 1.3007812,-0.8671875 z M 3.2454609,-2.3892969 v 0.9960938 c 0,0.94921872 -0.7148437,1.28906247 -1.1601562,1.28906247 -0.4921875,0 -0.9023438,-0.3515625 -0.9023438,-0.85546875 0,-0.53906252 0.421875,-1.37109372 2.0625,-1.42968752 z m 0,0"
       style="fill:#000000;fill-opacity:1;fill-rule:nonzero;stroke:none"
       aria-label="a"
       transform="matrix(1.3333333,0,0,1.3333333,124.536,10.146667)" />
    <path
       id="path14"
       d="M 74.08304,-6.32616 C 52.79817,-18.68216 32.5593,-18.73077 12.94412,-7.46773"
       style="fill:none;stroke:#000000;stroke-width:0.3985;stroke-linecap:butt;stroke-linejoin:miter;stroke-miterlimit:10;stroke-dasharray:none;stroke-opacity:1"
       transform="matrix(1.3333333,0,0,-1.3333333,70.962667,35.678667)" />
    <path
       id="path15"
       d="M 1.99252,0 -1.19551,1.59401 0,0 -1.19551,-1.59401"
       style="fill:#000000;fill-opacity:1;fill-rule:nonzero;stroke:none"
       transform="matrix(-1.1562533,-0.66389333,-0.66389333,1.1562533,88.221493,45.63564)" />
    <path
       id="path16"
       d="m 3.3157734,-0.76245313 c 0.035156,0.3984375 0.3046875,0.8203125 0.7734375,0.8203125 0.2109375,0 0.8203125,-0.140625 0.8203125,-0.94921875 V -1.4421406 H 4.6634297 v 0.55078122 c 0,0.5859375 -0.2460938,0.64453125 -0.3632813,0.64453125 -0.328125,0 -0.3632812,-0.45703125 -0.3632812,-0.50390625 V -2.7429219 c 0,-0.4101562 0,-0.8085937 -0.3632813,-1.171875 -0.3867187,-0.3867187 -0.8789062,-0.5507812 -1.359375,-0.5507812 -0.8203125,0 -1.51171871,0.46875 -1.51171871,1.125 0,0.3046875 0.19921875,0.46875 0.45703121,0.46875 0.28125,0 0.46875,-0.1992188 0.46875,-0.4570313 0,-0.1171875 -0.058594,-0.4453125 -0.515625,-0.4570312 0.2695313,-0.3515625 0.7617188,-0.4570313 1.078125,-0.4570313 0.4921875,0 1.0546875,0.3867188 1.0546875,1.2773438 v 0.3632812 c -0.5039062,0.035156 -1.2070312,0.058594 -1.828125,0.3632813 -0.74999996,0.3398437 -0.99609371,0.8554687 -0.99609371,1.28906247 0,0.80859375 0.96093751,1.0546875 1.59375001,1.0546875 0.65625,0 1.1132812,-0.3984375 1.3007812,-0.8671875 z M 3.2454609,-2.3913594 v 0.9960938 c 0,0.94921872 -0.7148437,1.28906247 -1.1601562,1.28906247 -0.4921875,0 -0.9023438,-0.3515625 -0.9023438,-0.85546875 0,-0.53906252 0.421875,-1.37109372 2.0625,-1.42968752 z m 0,0"
       style="fill:#000000;fill-opacity:1;fill-rule:nonzero;stroke:none"
       aria-label="a"
       transform="matrix(1.3333333,0,0,1.3333333,124.536,66.930667)" />
  </g>
</svg>
